<svg xmlns="http://www.w3.org/2000/svg" width="54" height="61" viewBox="0 0 54 61">
  <g id="Grupo_985524" data-name="Grupo 985524" transform="translate(-842 -2276)">
    <g id="Rectángulo_344916" data-name="Rectángulo 344916" transform="translate(842 2276)" fill="none" stroke="#0e494d" stroke-width="3">
      <rect width="54" height="61" rx="15" stroke="none"/>
      <rect x="1.5" y="1.5" width="51" height="58" rx="13.5" fill="none"/>
    </g>
    <g id="_FILLED_OUTLINE" data-name="/ FILLED_OUTLINE" transform="translate(834.512 2272.012)">
      <path id="Trazado_729986" data-name="Trazado 729986" d="M296.023,288.012A8.012,8.012,0,0,0,288.012,280H280v8.012a8.012,8.012,0,1,0,16.023,0Z" transform="translate(-243.663 -243.663)" fill="#cbe2ef"/>
      <path id="Trazado_729987" data-name="Trazado 729987" d="M24,288.012A8.012,8.012,0,0,1,32.012,280h8.012v8.012a8.012,8.012,0,1,1-16.023,0Z" transform="translate(-7.384 -243.663)" fill="#cbe2ef"/>
      <path id="Trazado_729988" data-name="Trazado 729988" d="M32.012,24a8.012,8.012,0,0,1,8.012,8.012v8.012H32.012a8.012,8.012,0,1,1,0-16.023Z" transform="translate(-7.384 -7.384)" fill="#cbe2ef"/>
      <path id="Trazado_729989" data-name="Trazado 729989" d="M288.012,24A8.012,8.012,0,0,0,280,32.012v8.012h8.012a8.012,8.012,0,1,0,0-16.023Z" transform="translate(-243.663 -7.384)" fill="#cbe2ef"/>
      <path id="Trazado_729990" data-name="Trazado 729990" d="M328.011,58.465a1.846,1.846,0,0,0-.616.105l0,.018q0-.061,0-.123a2.465,2.465,0,1,0-4.93,0c0,.036,0,.071,0,.107a1.849,1.849,0,1,0-.619,3.591h6.163a1.849,1.849,0,1,0,0-3.7Z" transform="translate(-280.581 -36.919)" fill="#338dbf"/>
      <path id="Trazado_729991" data-name="Trazado 729991" d="M184,232h3.7v8.012H184Z" transform="translate(-155.058 -199.361)" fill="#00a16c"/>
      <path id="Trazado_729992" data-name="Trazado 729992" d="M402.662,89.79a.622.622,0,0,1-.043-.76,1.853,1.853,0,0,0,.253-.56.622.622,0,0,1,.6-.47.614.614,0,0,1,.6.76,3.086,3.086,0,0,1-.441.977.614.614,0,0,1-.966.053Z" transform="translate(-356.735 -66.453)" fill="#0071af"/>
      <path id="Trazado_729993" data-name="Trazado 729993" d="M160,328h14.791v1.233H160Z" transform="translate(-132.907 -287.965)" fill="#00b378"/>
      <path id="Trazado_729994" data-name="Trazado 729994" d="M232,176h7.4v12.326H232Z" transform="translate(-199.361 -147.674)" fill="#00b378"/>
      <g id="Grupo_985526" data-name="Grupo 985526" transform="translate(34.488 30.174)">
        <path id="Trazado_729995" data-name="Trazado 729995" d="M256,200h1.233v1.233H256Z" transform="translate(-256 -200)" fill="#59cea7"/>
        <path id="Trazado_729996" data-name="Trazado 729996" d="M256,296h1.233v1.233H256Z" transform="translate(-256 -288.605)" fill="#59cea7"/>
        <path id="Trazado_729997" data-name="Trazado 729997" d="M256,264h1.233v1.233H256Z" transform="translate(-256 -259.07)" fill="#59cea7"/>
        <path id="Trazado_729998" data-name="Trazado 729998" d="M256,232h1.233v1.233H256Z" transform="translate(-256 -229.535)" fill="#59cea7"/>
        <path id="Trazado_729999" data-name="Trazado 729999" d="M288,200h1.233v1.233H288Z" transform="translate(-285.535 -200)" fill="#59cea7"/>
        <path id="Trazado_730000" data-name="Trazado 730000" d="M288,296h1.233v1.233H288Z" transform="translate(-285.535 -288.605)" fill="#59cea7"/>
        <path id="Trazado_730001" data-name="Trazado 730001" d="M288,264h1.233v1.233H288Z" transform="translate(-285.535 -259.07)" fill="#59cea7"/>
        <path id="Trazado_730002" data-name="Trazado 730002" d="M288,232h1.233v1.233H288Z" transform="translate(-285.535 -229.535)" fill="#59cea7"/>
      </g>
      <path id="Trazado_730003" data-name="Trazado 730003" d="M88,112v2.844a3.081,3.081,0,0,0,1.937,2.861h0a3.081,3.081,0,0,0,2.289,0h0a3.081,3.081,0,0,0,1.937-2.861V112Z" transform="translate(-66.453 -88.605)" fill="#edabcf"/>
      <path id="Trazado_730004" data-name="Trazado 730004" d="M64,104h9.86v1.233H64Z" transform="translate(-44.302 -81.221)" fill="#b7628d"/>
      <path id="Trazado_730005" data-name="Trazado 730005" d="M93.745,72.991A1.233,1.233,0,0,0,92.536,72H89.627a1.233,1.233,0,0,0-1.209.991L88,75.081h6.163Z" transform="translate(-66.453 -51.686)" fill="#b7628d"/>
      <path id="Trazado_730006" data-name="Trazado 730006" d="M334.119,320.572l-.572-.572a7.4,7.4,0,0,1-1.479,4.437l-.319.426a5.949,5.949,0,0,0-1.177-1.676l-.106-.106-1.7,1.7A2.615,2.615,0,0,0,328,326.63h0a2.615,2.615,0,0,0,2.615,2.615h3.4a2.615,2.615,0,0,0,2.615-2.615h0a8.566,8.566,0,0,0-2.509-6.057Z" transform="translate(-287.965 -280.582)" fill="#d178a1"/>
      <path id="Trazado_730007" data-name="Trazado 730007" d="M0,0H1.233V2.615H0Z" transform="translate(19.259 40.468) rotate(-45)" fill="#0071af"/>
      <path id="Trazado_730008" data-name="Trazado 730008" d="M352.277,87.383a.615.615,0,0,1-.58-.41,1.239,1.239,0,0,0-.389-.55.615.615,0,0,1-.193-.683h0a.616.616,0,0,1,.966-.277,2.477,2.477,0,0,1,.778,1.1.616.616,0,0,1-.583.818Z" transform="translate(-309.267 -63.988)" fill="#0071af"/>
      <path id="Trazado_730009" data-name="Trazado 730009" d="M365.975,136H364.6l-1.541,3.081h1.757l-1.289,2.148,1.057.634,2.409-4.015h-1.94Z" transform="translate(-320.321 -110.756)" fill="#00659d"/>
      <path id="Trazado_730010" data-name="Trazado 730010" d="M91.645,137.321a1.233,1.233,0,0,0-.916,0l-2.615,1.046a3.081,3.081,0,0,0,1.928,2.627h0a3.081,3.081,0,0,0,2.289,0h0a3.081,3.081,0,0,0,1.928-2.627Z" transform="translate(-66.56 -111.893)" fill="#b7628d"/>
      <path id="Trazado_730011" data-name="Trazado 730011" d="M0,0H2.615V4.358H0Z" transform="translate(20.31 42.498) rotate(-45)" fill="#00659d"/>
      <circle id="Elipse_5918" data-name="Elipse 5918" cx="2.832" cy="2.832" r="2.832" transform="translate(22.472 42.699)" fill="#0071af"/>
      <path id="Trazado_730012" data-name="Trazado 730012" d="M372.889,385.952a.615.615,0,0,1-.612-.551,5.271,5.271,0,0,0-.248-1.145.616.616,0,0,1,1.167-.4,6.49,6.49,0,0,1,.308,1.42.615.615,0,0,1-.614.674Z" transform="translate(-328.573 -339.139)" fill="#b7628d"/>
      <path id="Trazado_730013" data-name="Trazado 730013" d="M24.628,33.256h2.465V32.023H24.628a7.4,7.4,0,1,1,7.4-7.4v1.849h1.233V24.628a8.628,8.628,0,1,0-8.628,8.628Z"/>
      <path id="Trazado_730014" data-name="Trazado 730014" d="M273.233,24.628a7.4,7.4,0,1,1,7.4,7.4h-2.465v1.233h2.465A8.628,8.628,0,1,0,272,24.628v1.849h1.233Z" transform="translate(-236.279)"/>
      <path id="Trazado_730015" data-name="Trazado 730015" d="M315.7,54.163h-1.233A1.233,1.233,0,1,1,315.7,52.93h1.233a2.466,2.466,0,0,0-1.212-2.122,1.849,1.849,0,1,1,3.051,1.66l.816.924a3.085,3.085,0,0,0,.979-1.692l.064,0a1.233,1.233,0,0,1,0,2.465H319.4V55.4h1.233a2.465,2.465,0,0,0,0-4.93h-.062a3.082,3.082,0,0,0-6.039,0h-.062a2.465,2.465,0,0,0,0,4.93H315.7Z" transform="translate(-273.198 -29.535)"/>
      <path id="Trazado_730016" data-name="Trazado 730016" d="M364.582,138.561l2.409-4.015h-1.94l.787-1.573-1.1-.551-1.678,3.357h1.757l-1.289,2.148Z" transform="translate(-320.321 -107.453)"/>
      <path id="Trazado_730017" data-name="Trazado 730017" d="M173.558,168H164.93v4.314h-3.7v8.012H160v1.233h14.791v-1.233h-1.233Zm-1.233,1.233v11.093h-6.163V169.233Zm-9.86,4.314h2.465v6.779h-2.465Z" transform="translate(-132.907 -140.291)"/>
      <path id="Trazado_730018" data-name="Trazado 730018" d="M256,200h1.233v1.233H256Z" transform="translate(-221.512 -169.826)"/>
      <path id="Trazado_730019" data-name="Trazado 730019" d="M256,296h1.233v1.233H256Z" transform="translate(-221.512 -258.43)"/>
      <path id="Trazado_730020" data-name="Trazado 730020" d="M256,264h1.233v1.233H256Z" transform="translate(-221.512 -228.895)"/>
      <path id="Trazado_730021" data-name="Trazado 730021" d="M256,232h1.233v1.233H256Z" transform="translate(-221.512 -199.361)"/>
      <path id="Trazado_730022" data-name="Trazado 730022" d="M288,200h1.233v1.233H288Z" transform="translate(-251.047 -169.826)"/>
      <path id="Trazado_730023" data-name="Trazado 730023" d="M288,296h1.233v1.233H288Z" transform="translate(-251.047 -258.43)"/>
      <path id="Trazado_730024" data-name="Trazado 730024" d="M288,264h1.233v1.233H288Z" transform="translate(-251.047 -228.895)"/>
      <path id="Trazado_730025" data-name="Trazado 730025" d="M288,232h1.233v1.233H288Z" transform="translate(-251.047 -199.361)"/>
      <path id="Trazado_730026" data-name="Trazado 730026" d="M67.557,73.975a3.7,3.7,0,0,0,5.071-3.433V68.314H73.86V67.081H72.517l-.319-1.6A1.854,1.854,0,0,0,70.385,64H67.476a1.854,1.854,0,0,0-1.813,1.486l-.319,1.6H64v1.233h1.233v2.228A3.68,3.68,0,0,0,67.557,73.975Zm2.289-1.144a2.465,2.465,0,0,1-3.3-1.666L68.7,70.3a.614.614,0,0,1,.458,0l2.156.862A2.451,2.451,0,0,1,69.846,72.83Zm1.55-2.962-1.778-.711a1.841,1.841,0,0,0-1.373,0l-1.778.711V68.314H71.4Zm-4.524-4.141a.618.618,0,0,1,.6-.5h2.909a.618.618,0,0,1,.6.5l.271,1.353H66.6Z" transform="translate(-44.302 -44.302)"/>
      <path id="Trazado_730027" data-name="Trazado 730027" d="M320,308.8a3.235,3.235,0,0,0,3.231,3.231h3.4a3.235,3.235,0,0,0,3.231-3.231,9.122,9.122,0,0,0-2.689-6.493l-1.625-1.625v1.488a6.828,6.828,0,0,1-1.117,3.728,6.64,6.64,0,0,0-.806-.976l-.542-.541-2.135,2.135A3.21,3.21,0,0,0,320,308.8Zm1.818-1.413,1.249-1.249a5.3,5.3,0,0,1,1.247,3.428h1.233a6.561,6.561,0,0,0-.471-2.453l.1-.136a8.064,8.064,0,0,0,1.479-3.418,7.891,7.891,0,0,1,1.972,5.241,2,2,0,0,1-2,2h-3.4a2,2,0,0,1-1.413-3.411Z" transform="translate(-280.581 -262.756)"/>
      <path id="Trazado_730028" data-name="Trazado 730028" d="M64.325,332.023a3.7,3.7,0,1,0-.872-7.29l-2.209-2.209-.924.924-1.1-1.1-.872.872,1.1,1.1-.924.924,2.209,2.209a3.7,3.7,0,0,0,3.593,4.57Zm2.465-3.7a2.465,2.465,0,1,1-2.465-2.465A2.465,2.465,0,0,1,66.79,328.326Zm-6.524-3.081.977-.977,1,1a3.728,3.728,0,0,0-.977.977Z" transform="translate(-39.081 -282.744)"/>
      <path id="Trazado_730029" data-name="Trazado 730029" d="M32.023,280.628a7.4,7.4,0,1,1-7.4-7.4h2.465V272H24.628a8.628,8.628,0,1,0,8.628,8.628v-1.849H32.023Z" transform="translate(0 -236.279)"/>
      <path id="Trazado_730030" data-name="Trazado 730030" d="M280.628,272h-2.465v1.233h2.465a7.4,7.4,0,1,1-7.4,7.4v-1.849H272v1.849A8.628,8.628,0,1,0,280.628,272Z" transform="translate(-236.279 -236.279)"/>
    </g>
  </g>
</svg>
