<svg xmlns="http://www.w3.org/2000/svg" width="295" height="222" viewBox="0 0 295 222">
  <g id="Grupo_985789" data-name="Grupo 985789" transform="translate(7175 2836)">
    <rect id="Rectángulo_345001" data-name="Rectángulo 345001" width="295" height="222" rx="13" transform="translate(-7175 -2836)" fill="#a7bce6"/>
    <g id="Grupo_984766" data-name="Grupo 984766" transform="translate(-7144 -2806.389)">
      <g id="Grupo_984745" data-name="Grupo 984745" transform="translate(0 -0.001)">
        <path id="Trazado_729086" data-name="Trazado 729086" d="M218.483,154.04H15.078A15.077,15.077,0,0,1,0,138.962V109.441A109.447,109.447,0,0,1,109.441,0h14.68A109.45,109.45,0,0,1,233.576,109.441v29.522a15.1,15.1,0,0,1-15.093,15.078" fill="#1e4072"/>
        <path id="Trazado_729087" data-name="Trazado 729087" d="M207.705,29.311c0,5.592-46.3,0-103.407,0S.907,34.9.907,29.311,47.2,9.069,104.3,9.069s103.407,14.65,103.407,20.242" transform="translate(12.474 124.729)" fill="#80a9e8"/>
        <path id="Trazado_729088" data-name="Trazado 729088" d="M9.054,1.712c7.716,6.919,12.186,14.4,16.45,22.44a123.844,123.844,0,0,1,9.147,24.963,163.043,163.043,0,0,1,4.338,25.848c.384,4.323.5,8.675.752,12.983l-.1,12.983-1.21-12.88c-.693-4.264-1.239-8.527-2.021-12.732-1.77-8.395-3.7-16.745-6.757-24.668A116.985,116.985,0,0,0,18.659,27.988C14.277,21.157,8.612,14.238,2.9,10.121Z" transform="translate(39.912 23.546)" fill="#fff"/>
        <path id="Trazado_729089" data-name="Trazado 729089" d="M41.105,1.712c-7.7,6.919-12.186,14.4-16.45,22.44a123.842,123.842,0,0,0-9.147,24.963,163.043,163.043,0,0,0-4.338,25.848c-.369,4.323-.487,8.675-.738,12.983l.089,12.983,1.225-12.88c.679-4.264,1.225-8.527,2.006-12.732,1.785-8.395,3.7-16.745,6.757-24.668A117.9,117.9,0,0,1,31.516,27.988c4.367-6.831,10.047-13.75,15.757-17.866Z" transform="translate(143.489 23.546)" fill="#fff"/>
      </g>
    </g>
  </g>
</svg>
