<svg xmlns="http://www.w3.org/2000/svg" xmlns:xlink="http://www.w3.org/1999/xlink" width="295" height="248.487" viewBox="0 0 295 248.487">
  <defs>
    <clipPath id="clip-path">
      <rect id="Rectángulo_338983" data-name="Rectángulo 338983" width="295" height="188.487" transform="translate(0 0)" fill="#0e494d" stroke="#707070" stroke-width="1"/>
    </clipPath>
    <clipPath id="clip-path-2">
      <rect id="Rectángulo_344698" data-name="Rectángulo 344698" width="171" height="177.487" rx="21" transform="translate(285 11097.305)" fill="#34bc85"/>
    </clipPath>
    <clipPath id="clip-path-3">
      <rect id="Rectángulo_344844" data-name="Rectángulo 344844" width="295" height="248" transform="translate(285 1687)" fill="#fff" stroke="#707070" stroke-width="1"/>
    </clipPath>
    <clipPath id="clip-path-4">
      <rect id="Rectángulo_344843" data-name="Rectángulo 344843" width="273.637" height="249.115" fill="none"/>
    </clipPath>
    <clipPath id="clip-path-6">
      <path id="Trazado_728902" data-name="Trazado 728902" d="M109.25,145.583c5.724,5.724,13.944,5.423,10.329,10.932,8.952,1.377,7.976,3.442,17.158,4.82s43.152,1.378,64.04,3.214c5.279,5.279,11.491,20.658,6.549,29.151s-9.3,0-14.812,0-12.394,2.065-24.1,2.065-22.722.46-31.216,3.443c0,15.838,7.688,53.023,13.542,93.65-14.117-2.754-30.815-4.476-45.881-2.41s-34,1.722-44.673-.344c0-12.4,3.443-32.02,3.443-52.334-6.542-1.721-18.248-7.115-18.248-22.264s.23-50.268,11.936-56.925,16.068-6.426,18.362-8.721c-2.066-5.968-5.3-12.14-.011-14.218,5.749,0,26.783,5.39,33.582,9.943" transform="translate(-45.38 -135.64)" fill="none"/>
    </clipPath>
    <clipPath id="clip-path-8">
      <rect id="Rectángulo_344841" data-name="Rectángulo 344841" width="145.944" height="88.199" fill="none"/>
    </clipPath>
  </defs>
  <g id="Grupo_984584" data-name="Grupo 984584" transform="translate(-285 -1687)">
    <g id="Grupo_984218" data-name="Grupo 984218" transform="translate(0 -9339.305)">
      <g id="Grupo_984217" data-name="Grupo 984217" transform="translate(-53 8056.097)">
        <g id="Grupo_983733" data-name="Grupo 983733" transform="translate(338 3007.208)">
          <path id="Rectángulo_338981" data-name="Rectángulo 338981" d="M21,0H189a0,0,0,0,1,0,0V190.487a21,21,0,0,1-21,21H21a21,21,0,0,1-21-21V21A21,21,0,0,1,21,0Z" transform="translate(106 0)" fill="#badc61"/>
          <rect id="Rectángulo_338982" data-name="Rectángulo 338982" width="171" height="177.487" rx="21" transform="translate(0 34)" fill="#34bc85"/>
        </g>
      </g>
      <g id="Enmascarar_grupo_927296" data-name="Enmascarar grupo 927296" clip-path="url(#clip-path-2)">
        <path id="Unión_143" data-name="Unión 143" d="M9248,11882a9.9,9.9,0,1,0-17-9,62.014,62.014,0,0,1-61.2-52.018,62,62,0,1,1,27.4-61.967A62.011,62.011,0,0,1,9293,11811a9.9,9.9,0,1,0,17,9,62,62,0,1,1-62,62Z" transform="translate(-8885 -573)" fill="#0e494d"/>
      </g>
    </g>
    <g id="Enmascarar_grupo_927300" data-name="Enmascarar grupo 927300" clip-path="url(#clip-path-3)">
      <g id="Grupo_984583" data-name="Grupo 984583" transform="translate(295.682 1700)">
        <g id="Grupo_984582" data-name="Grupo 984582" clip-path="url(#clip-path-4)">
          <g id="Grupo_984574" data-name="Grupo 984574">
            <g id="Grupo_984573" data-name="Grupo 984573" clip-path="url(#clip-path-4)">
              <path id="Trazado_728876" data-name="Trazado 728876" d="M154.219,132.066c-2.621-2.621-9.226-5.364-13.411-9.55-6.013-6.012-10.371-3.633-15.42-3.633,0-7.474-11.936-22.6-33.513-13.43-8.5-8.5-28.153,2.094-32.338,24.748,28.207,3.243,40.142,1.865,51.389,1.865s31.727,2.754,43.292,0" transform="translate(79.081 -33.065)" fill="#ebe1d4"/>
              <path id="Trazado_728877" data-name="Trazado 728877" d="M70.792,138.526c10.833-9.412,24.119-14.422,27.752-10.789,3.99,3.99,12.77,5.417,18.279,3.561s14.691,2.085,19.187,4.152c4.041,1.856,11.266,3.711,16.481,5.4-11.557.745-26.607-1.04-35.668-1.04-10.506,0-21.619,1.2-46.031-1.285" transform="translate(73.184 -40.81)" fill="#d4cbbf"/>
              <path id="Trazado_728878" data-name="Trazado 728878" d="M301.471,30.157c-11.018-6.426-33.971-19.74-94.57-12.165-44.071,21.347-80.107,41.316-97.322,58.532-14.691,28.92-22.954,38.561-22.954,67.482,3.673-3.672,8.608-3.615,15.494-3.615,8.779-3.443,21.518-8.091,38.045-2.41,11.792-11.792,22.552-25.995,57.326-27.716,11.018-11.017,23.068-23.412,42.7-23.412,3.787-8.264,11.018-25.479,38.561-31.332,0-9.64,14.8-25.363,22.724-25.363" transform="translate(-86.524 -5.071)" fill="#cc8e2d"/>
              <path id="Trazado_728879" data-name="Trazado 728879" d="M182.158,61.085a.688.688,0,0,0,.365-1.272c-.318-.2-32.1-19.935-62.49-28.937a.689.689,0,1,0-.391,1.32c30.213,8.95,61.835,28.587,62.151,28.785a.692.692,0,0,0,.365.1" transform="translate(10.065 -9.948)" fill="#e7a133"/>
              <path id="Trazado_728880" data-name="Trazado 728880" d="M329.471,163.5a.714.714,0,0,0,.146-.015.69.69,0,0,0,.528-.818c-.085-.391-8.354-39.351-3.608-69.147a.688.688,0,1,0-1.36-.216c-4.785,30.054,3.537,69.261,3.622,69.653a.688.688,0,0,0,.672.543" transform="translate(-275.831 -29.901)" fill="#e7a133"/>
              <path id="Trazado_728881" data-name="Trazado 728881" d="M231.155,98.645a.68.68,0,0,0,.427-.149.688.688,0,0,0,.113-.966c-.27-.341-27.273-34.242-54.645-47.3a.689.689,0,0,0-.594,1.243c27.081,12.923,53.891,46.575,54.159,46.913a.684.684,0,0,0,.54.262" transform="translate(-77.492 -16.175)" fill="#e7a133"/>
              <path id="Trazado_728882" data-name="Trazado 728882" d="M374.44,178.909a.689.689,0,0,0,.688-.689c0-.3.048-30.7,4.1-44.3a.688.688,0,1,0-1.319-.394c-4.114,13.8-4.161,43.442-4.161,44.7a.689.689,0,0,0,.689.689" transform="translate(-358.845 -42.9)" fill="#e7a133"/>
              <path id="Trazado_728883" data-name="Trazado 728883" d="M109.249,145.583c5.724,5.724,13.945,5.423,10.329,10.932,8.952,1.377,7.977,3.443,17.158,4.82s43.153,1.377,64.041,3.213c5.279,5.279,11.491,20.658,6.549,29.151s-9.3,0-14.813,0-12.394,2.066-24.1,2.066-22.723.46-31.216,3.443c0,15.838,7.689,53.023,13.542,93.65-14.117-2.755-30.815-4.476-45.881-2.41s-34,1.722-44.673-.345c0-12.394,3.443-32.019,3.443-52.333-6.543-1.722-18.248-7.115-18.248-22.264s.23-50.268,11.936-56.925,16.068-6.427,18.363-8.722c-2.066-5.968-5.3-12.14-.011-14.218,5.749,0,26.782,5.39,33.582,9.943" transform="translate(33.76 -43.742)" fill="#574599"/>
            </g>
          </g>
          <g id="Grupo_984576" data-name="Grupo 984576" transform="translate(79.14 91.898)">
            <g id="Grupo_984575" data-name="Grupo 984575" clip-path="url(#clip-path-6)">
              <path id="Trazado_728884" data-name="Trazado 728884" d="M39.462,142.961a.414.414,0,0,0,.086-.009l24.177-5.108L87.9,142.952a.4.4,0,0,0,.171,0l24.176-5.108,24.174,5.108a.4.4,0,0,0,.171,0l24.174-5.108,24.172,5.108a.4.4,0,0,0,.171,0l24.255-5.127a.413.413,0,1,0-.171-.808l-24.17,5.108-24.172-5.108a.385.385,0,0,0-.171,0l-24.173,5.108-24.174-5.108a.382.382,0,0,0-.171,0l-24.176,5.108L63.81,137.017a.382.382,0,0,0-.171,0l-24.262,5.126a.413.413,0,0,0,.085.818" transform="translate(-41.65 -136.081)" fill="#6756ab"/>
              <path id="Trazado_728885" data-name="Trazado 728885" d="M39.462,155.954a.372.372,0,0,0,.086-.009l24.177-5.108L87.9,155.945a.382.382,0,0,0,.171,0l24.176-5.108,24.174,5.108a.382.382,0,0,0,.171,0l24.174-5.108,24.172,5.108a.382.382,0,0,0,.171,0l24.255-5.126a.413.413,0,1,0-.171-.808l-24.17,5.108-24.172-5.108a.406.406,0,0,0-.171,0l-24.173,5.108-24.174-5.108a.4.4,0,0,0-.171,0l-24.176,5.108L63.81,150.011a.4.4,0,0,0-.171,0l-24.262,5.127a.413.413,0,0,0,.085.817" transform="translate(-41.65 -140.271)" fill="#6756ab"/>
              <path id="Trazado_728886" data-name="Trazado 728886" d="M39.462,168.946a.412.412,0,0,0,.086-.009l24.177-5.109L87.9,168.938a.4.4,0,0,0,.171,0l24.176-5.109,24.174,5.109a.4.4,0,0,0,.171,0l24.174-5.109,24.172,5.109a.4.4,0,0,0,.171,0l24.255-5.127a.413.413,0,1,0-.171-.808l-24.17,5.109L160.851,163a.406.406,0,0,0-.171,0l-24.173,5.109L112.333,163a.4.4,0,0,0-.171,0l-24.176,5.109L63.81,163a.4.4,0,0,0-.171,0l-24.262,5.127a.413.413,0,0,0,.085.817" transform="translate(-41.65 -144.461)" fill="#6756ab"/>
              <path id="Trazado_728887" data-name="Trazado 728887" d="M39.462,181.938a.413.413,0,0,0,.086-.009l24.177-5.108L87.9,181.929a.4.4,0,0,0,.171,0l24.176-5.108,24.174,5.108a.4.4,0,0,0,.171,0l24.174-5.108,24.172,5.108a.4.4,0,0,0,.171,0l24.255-5.127a.413.413,0,1,0-.171-.808l-24.17,5.109-24.172-5.109a.406.406,0,0,0-.171,0L136.507,181.1l-24.174-5.109a.4.4,0,0,0-.171,0L87.986,181.1,63.81,175.994a.4.4,0,0,0-.171,0L39.377,181.12a.413.413,0,0,0,.085.818" transform="translate(-41.65 -148.651)" fill="#6756ab"/>
              <path id="Trazado_728888" data-name="Trazado 728888" d="M39.462,194.931a.415.415,0,0,0,.086-.01l24.177-5.108L87.9,194.921a.383.383,0,0,0,.171,0l24.176-5.108,24.174,5.108a.383.383,0,0,0,.171,0l24.174-5.108,24.172,5.108a.383.383,0,0,0,.171,0l24.255-5.126a.413.413,0,1,0-.171-.808l-24.17,5.108-24.172-5.108a.385.385,0,0,0-.171,0l-24.173,5.108-24.174-5.108a.382.382,0,0,0-.171,0l-24.176,5.108L63.81,188.986a.382.382,0,0,0-.171,0l-24.262,5.127a.413.413,0,0,0,.085.818" transform="translate(-41.65 -152.84)" fill="#6756ab"/>
              <path id="Trazado_728889" data-name="Trazado 728889" d="M39.462,207.923a.413.413,0,0,0,.086-.009L63.725,202.8,87.9,207.914a.4.4,0,0,0,.171,0l24.176-5.109,24.174,5.109a.4.4,0,0,0,.171,0l24.174-5.109,24.172,5.109a.4.4,0,0,0,.171,0l24.255-5.127a.413.413,0,1,0-.171-.809l-24.17,5.109-24.172-5.109a.429.429,0,0,0-.171,0l-24.173,5.109-24.174-5.109a.425.425,0,0,0-.171,0l-24.176,5.109L63.81,201.978a.425.425,0,0,0-.171,0l-24.262,5.127a.413.413,0,0,0,.085.818" transform="translate(-41.65 -157.03)" fill="#6756ab"/>
              <path id="Trazado_728890" data-name="Trazado 728890" d="M39.462,220.915a.415.415,0,0,0,.086-.009L63.725,215.8,87.9,220.906a.4.4,0,0,0,.171,0l24.176-5.109,24.174,5.109a.4.4,0,0,0,.171,0l24.174-5.109,24.172,5.109a.4.4,0,0,0,.171,0l24.255-5.127a.413.413,0,1,0-.171-.808l-24.17,5.109-24.172-5.109a.406.406,0,0,0-.171,0l-24.173,5.109-24.174-5.109a.4.4,0,0,0-.171,0L87.986,220.08,63.81,214.971a.4.4,0,0,0-.171,0L39.377,220.1a.413.413,0,0,0,.085.818" transform="translate(-41.65 -161.22)" fill="#6756ab"/>
              <path id="Trazado_728891" data-name="Trazado 728891" d="M39.462,233.907a.413.413,0,0,0,.086-.009l24.177-5.108L87.9,233.9a.4.4,0,0,0,.171,0l24.176-5.108,24.174,5.108a.4.4,0,0,0,.171,0l24.174-5.108,24.172,5.108a.4.4,0,0,0,.171,0l24.255-5.127a.413.413,0,1,0-.171-.808l-24.17,5.108-24.172-5.108a.385.385,0,0,0-.171,0l-24.173,5.108-24.174-5.108a.382.382,0,0,0-.171,0l-24.176,5.108L63.81,227.963a.382.382,0,0,0-.171,0l-24.262,5.126a.413.413,0,0,0,.085.818" transform="translate(-41.65 -165.41)" fill="#6756ab"/>
              <path id="Trazado_728892" data-name="Trazado 728892" d="M39.462,246.9a.413.413,0,0,0,.086-.009l24.177-5.108L87.9,246.889a.4.4,0,0,0,.171,0l24.176-5.108,24.174,5.108a.4.4,0,0,0,.171,0l24.174-5.108,24.172,5.108a.4.4,0,0,0,.171,0l24.255-5.127a.413.413,0,1,0-.171-.808l-24.17,5.108-24.172-5.108a.385.385,0,0,0-.171,0l-24.173,5.108-24.174-5.108a.382.382,0,0,0-.171,0l-24.176,5.108L63.81,240.954a.382.382,0,0,0-.171,0L39.377,246.08a.413.413,0,0,0,.085.818" transform="translate(-41.65 -169.599)" fill="#6756ab"/>
              <path id="Trazado_728893" data-name="Trazado 728893" d="M39.462,259.891a.373.373,0,0,0,.086-.01l24.177-5.108L87.9,259.881a.382.382,0,0,0,.171,0l24.176-5.108,24.174,5.108a.382.382,0,0,0,.171,0l24.174-5.108,24.172,5.108a.382.382,0,0,0,.171,0l24.255-5.126a.413.413,0,1,0-.171-.808l-24.17,5.108-24.172-5.108a.406.406,0,0,0-.171,0l-24.173,5.108-24.174-5.108a.4.4,0,0,0-.171,0l-24.176,5.108L63.81,253.947a.4.4,0,0,0-.171,0l-24.262,5.127a.413.413,0,0,0,.085.818" transform="translate(-41.65 -173.789)" fill="#6756ab"/>
              <path id="Trazado_728894" data-name="Trazado 728894" d="M39.462,272.883a.413.413,0,0,0,.086-.009l24.177-5.109L87.9,272.874a.4.4,0,0,0,.171,0l24.176-5.109,24.174,5.109a.4.4,0,0,0,.171,0l24.174-5.109,24.172,5.109a.4.4,0,0,0,.171,0l24.255-5.127a.413.413,0,1,0-.171-.808l-24.17,5.109-24.172-5.109a.407.407,0,0,0-.171,0l-24.173,5.109-24.174-5.109a.4.4,0,0,0-.171,0l-24.176,5.109L63.81,266.939a.4.4,0,0,0-.171,0l-24.262,5.127a.413.413,0,0,0,.085.818" transform="translate(-41.65 -177.979)" fill="#6756ab"/>
              <path id="Trazado_728895" data-name="Trazado 728895" d="M39.462,285.875a.413.413,0,0,0,.086-.009l24.177-5.109L87.9,285.866a.4.4,0,0,0,.171,0l24.176-5.109,24.174,5.109a.4.4,0,0,0,.171,0l24.174-5.109,24.172,5.109a.4.4,0,0,0,.171,0l24.255-5.127a.413.413,0,1,0-.171-.808l-24.17,5.109-24.172-5.109a.406.406,0,0,0-.171,0l-24.173,5.109-24.174-5.109a.4.4,0,0,0-.171,0L87.986,285.04,63.81,279.931a.4.4,0,0,0-.171,0l-24.262,5.127a.413.413,0,0,0,.085.818" transform="translate(-41.65 -182.169)" fill="#6756ab"/>
              <path id="Trazado_728896" data-name="Trazado 728896" d="M39.462,298.867a.413.413,0,0,0,.086-.009l24.177-5.108L87.9,298.858a.4.4,0,0,0,.171,0l24.176-5.108,24.174,5.108a.4.4,0,0,0,.171,0l24.174-5.108,24.172,5.108a.4.4,0,0,0,.171,0l24.255-5.127a.413.413,0,1,0-.171-.808l-24.17,5.108-24.172-5.108a.385.385,0,0,0-.171,0l-24.173,5.108-24.174-5.108a.382.382,0,0,0-.171,0l-24.176,5.108L63.81,292.923a.382.382,0,0,0-.171,0l-24.262,5.126a.413.413,0,0,0,.085.818" transform="translate(-41.65 -186.359)" fill="#6756ab"/>
              <path id="Trazado_728897" data-name="Trazado 728897" d="M39.462,311.859a.414.414,0,0,0,.086-.01l24.177-5.108L87.9,311.849a.383.383,0,0,0,.171,0l24.176-5.108,24.174,5.108a.383.383,0,0,0,.171,0l24.174-5.108,24.172,5.108a.383.383,0,0,0,.171,0l24.255-5.127a.413.413,0,1,0-.171-.808l-24.17,5.108-24.172-5.108a.406.406,0,0,0-.171,0l-24.173,5.108-24.174-5.108a.4.4,0,0,0-.171,0l-24.176,5.108L63.81,305.915a.4.4,0,0,0-.171,0l-24.262,5.127a.413.413,0,0,0,.085.818" transform="translate(-41.65 -190.548)" fill="#6756ab"/>
              <path id="Trazado_728898" data-name="Trazado 728898" d="M39.462,324.851a.413.413,0,0,0,.086-.009l24.177-5.109L87.9,324.842a.4.4,0,0,0,.171,0l24.176-5.109,24.174,5.109a.4.4,0,0,0,.171,0l24.174-5.109,24.172,5.109a.4.4,0,0,0,.171,0l24.255-5.127a.413.413,0,1,0-.171-.808l-24.17,5.108-24.172-5.108a.407.407,0,0,0-.171,0l-24.173,5.108-24.174-5.108a.4.4,0,0,0-.171,0l-24.176,5.108L63.81,318.907a.4.4,0,0,0-.171,0l-24.262,5.127a.413.413,0,0,0,.085.818" transform="translate(-41.65 -194.738)" fill="#6756ab"/>
              <path id="Trazado_728899" data-name="Trazado 728899" d="M39.462,337.843a.413.413,0,0,0,.086-.009l24.177-5.109L87.9,337.834a.4.4,0,0,0,.171,0l24.176-5.109,24.174,5.109a.4.4,0,0,0,.171,0l24.174-5.109,24.172,5.109a.4.4,0,0,0,.171,0l24.255-5.127a.413.413,0,1,0-.171-.808l-24.17,5.109L160.851,331.9a.406.406,0,0,0-.171,0l-24.173,5.109L112.333,331.9a.4.4,0,0,0-.171,0l-24.176,5.109L63.81,331.9a.4.4,0,0,0-.171,0l-24.262,5.127a.413.413,0,0,0,.085.818" transform="translate(-41.65 -198.928)" fill="#6756ab"/>
              <path id="Trazado_728900" data-name="Trazado 728900" d="M39.462,350.835a.413.413,0,0,0,.086-.009l24.177-5.108L87.9,350.826a.4.4,0,0,0,.171,0l24.176-5.108,24.174,5.108a.4.4,0,0,0,.171,0l24.174-5.108,24.172,5.108a.4.4,0,0,0,.171,0l24.255-5.127a.413.413,0,1,0-.171-.808L185.023,350l-24.172-5.109a.407.407,0,0,0-.171,0L136.507,350l-24.174-5.109a.4.4,0,0,0-.171,0L87.986,350,63.81,344.891a.4.4,0,0,0-.171,0l-24.262,5.127a.413.413,0,0,0,.085.818" transform="translate(-41.65 -203.117)" fill="#6756ab"/>
              <path id="Trazado_728901" data-name="Trazado 728901" d="M39.462,363.827a.413.413,0,0,0,.086-.009l24.177-5.108L87.9,363.818a.383.383,0,0,0,.171,0l24.176-5.108,24.174,5.108a.383.383,0,0,0,.171,0l24.174-5.108,24.172,5.108a.383.383,0,0,0,.171,0l24.255-5.127a.413.413,0,1,0-.171-.808l-24.17,5.108-24.172-5.108a.385.385,0,0,0-.171,0l-24.173,5.108-24.174-5.108a.382.382,0,0,0-.171,0l-24.176,5.108L63.81,357.883a.382.382,0,0,0-.171,0L39.377,363.01a.413.413,0,0,0,.085.817" transform="translate(-41.65 -207.307)" fill="#6756ab"/>
            </g>
          </g>
          <g id="Grupo_984581" data-name="Grupo 984581">
            <g id="Grupo_984580" data-name="Grupo 984580" clip-path="url(#clip-path-4)">
              <g id="Grupo_984579" data-name="Grupo 984579" transform="translate(97.004 120.806)" opacity="0.3">
                <g id="Grupo_984578" data-name="Grupo 984578">
                  <g id="Grupo_984577" data-name="Grupo 984577" clip-path="url(#clip-path-8)">
                    <path id="Trazado_728903" data-name="Trazado 728903" d="M153.935,215.886c-.918-10.329-4.591-22.035-3.213-27.544s5.739,13.312,3.213,27.544" transform="translate(-79.984 -181.226)"/>
                    <path id="Trazado_728904" data-name="Trazado 728904" d="M46.458,178.307c4.318,3.974,12.624,21.06,5.842,30.258-7.44,10.09-8.137-21.708-5.842-30.258" transform="translate(91.075 -178.307)"/>
                    <path id="Trazado_728905" data-name="Trazado 728905" d="M188.384,255.382c-2.921,13.084-2.4,30.126,2.245,30.126s3.945-13.772-2.245-30.126" transform="translate(-143.419 -203.163)"/>
                    <path id="Trazado_728906" data-name="Trazado 728906" d="M199.413,298.849c.234-4.087.383-8.262.383-12.467,5.336,1.377,28.4,6.2,41.144,8.607,0,4.82-.172,6.369-3.615,6.369-3.1,0-23.45-3.339-37.912-2.51" transform="translate(-199.413 -213.16)"/>
                  </g>
                </g>
              </g>
              <path id="Trazado_728907" data-name="Trazado 728907" d="M177.4,192.971a.348.348,0,0,0,.327-.231c8.058-23.109,11.3-26.073,11.43-26.188a.347.347,0,0,0,.042-.483.342.342,0,0,0-.479-.049c-.136.11-3.442,2.972-11.644,26.494a.344.344,0,0,0,.211.439.367.367,0,0,0,.113.019" transform="translate(-35.594 -53.514)" fill="#413473"/>
              <path id="Trazado_728908" data-name="Trazado 728908" d="M123.273,217.3a.343.343,0,0,0,.337-.277c2.7-13.483,18.758-25.607,18.92-25.729a.345.345,0,0,0-.413-.552c-.164.123-16.434,12.4-19.182,26.147a.342.342,0,0,0,.27.4.3.3,0,0,0,.067.007" transform="translate(47.683 -61.49)" fill="#413473"/>
              <path id="Trazado_728909" data-name="Trazado 728909" d="M70.4,206.362a.344.344,0,0,0,.333-.43c-3.894-15.22-1.57-25.744-1.547-25.849a.344.344,0,0,0-.671-.154c-.024.107-2.383,10.793,1.551,26.174a.345.345,0,0,0,.333.259" transform="translate(156.965 -57.939)" fill="#413473"/>
              <path id="Trazado_728910" data-name="Trazado 728910" d="M77.888,206.362a.345.345,0,0,0,.32-.472c-5.061-12.637-1.235-25.653-1.2-25.783a.344.344,0,1,0-.659-.2c-.039.132-3.934,13.38,1.215,26.239a.346.346,0,0,0,.32.216" transform="translate(144.655 -57.938)" fill="#413473"/>
              <path id="Trazado_728911" data-name="Trazado 728911" d="M238.585,252.542a.344.344,0,0,0,.047-.686c-.138-.018-13.809-1.908-19.4-3.434-.547-.15-1.147-.322-1.791-.509-6.048-1.746-16.174-4.668-23.462.561a.344.344,0,0,0,.4.56c7.018-5.035,16.941-2.171,22.869-.459.648.187,1.251.361,1.8.511,5.636,1.537,19.352,3.433,19.491,3.452a.362.362,0,0,0,.047,0" transform="translate(-96.617 -79.173)" fill="#413473"/>
              <path id="Trazado_728912" data-name="Trazado 728912" d="M249.511,228.072a.344.344,0,0,0,.344-.34c0-.226.157-22.839-7.611-38.225a.344.344,0,0,0-.615.31c7.692,15.235,7.54,37.682,7.537,37.907a.344.344,0,0,0,.34.348Z" transform="translate(-139.9 -61.052)" fill="#413473"/>
              <path id="Trazado_728913" data-name="Trazado 728913" d="M208.923,281.5a.4.4,0,0,0,.064-.005.346.346,0,0,0,.277-.4c-2.255-12.4,1.108-25.657,1.142-25.789a.345.345,0,0,0-.667-.173c-.034.134-3.436,13.533-1.152,26.086a.344.344,0,0,0,.337.283" transform="translate(-77.566 -82.193)" fill="#413473"/>
              <path id="Trazado_728914" data-name="Trazado 728914" d="M195.731,299.819a7.279,7.279,0,0,0,.859-.039.344.344,0,0,0-.091-.683,20.126,20.126,0,0,1-5.573-.513.344.344,0,0,0-.131.676,26.728,26.728,0,0,0,4.936.558" transform="translate(-52.33 -96.287)" fill="#413473"/>
              <path id="Trazado_728915" data-name="Trazado 728915" d="M215.034,280.541a.365.365,0,0,0,.047,0,.344.344,0,0,0,.295-.388c-1.776-12.947,1.423-25.735,1.455-25.863a.344.344,0,0,0-.667-.17c-.032.129-3.266,13.042-1.47,26.128a.342.342,0,0,0,.34.3" transform="translate(-88.295 -81.865)" fill="#413473"/>
              <path id="Trazado_728916" data-name="Trazado 728916" d="M228.3,189.8a.344.344,0,0,0,.216-.612,133.149,133.149,0,0,1-29.1-32.9.344.344,0,0,0-.6.343,133.9,133.9,0,0,0,29.263,33.092.341.341,0,0,0,.215.076" transform="translate(-89.685 -50.346)" fill="#413473"/>
              <path id="Trazado_728917" data-name="Trazado 728917" d="M225.2,90.911c4.82-10.789,4.361-20.428-13.084-21.577-11.707-3.442-25.71-2.754-32.136,6.886s-11.3,26.935-6.886,31.347,14.095,12.359,16.527,14.79c5.738-1.607,29.612-19.97,35.58-31.446" transform="translate(-70.307 -21.75)" fill="#333"/>
              <path id="Trazado_728918" data-name="Trazado 728918" d="M190.1,71.759a17.346,17.346,0,0,1,3.56,6.541,6.506,6.506,0,0,0-3.56-6.541" transform="translate(-48.872 -23.141)" fill="#666"/>
              <path id="Trazado_728919" data-name="Trazado 728919" d="M213.685,102.677a9.705,9.705,0,0,0-7.919-9.066,13.68,13.68,0,0,1,4.71,3.232,16.788,16.788,0,0,1,3.209,5.835" transform="translate(-79.457 -30.188)" fill="#666"/>
              <path id="Trazado_728920" data-name="Trazado 728920" d="M186.375,81.415c5.739,3.213,10.706,10.443,12.726,19.223,5.98,3.787,10.284,7.575,4.087,8.952,0,5.509.344,11.018-1.205,14.633s-6.541,3.787-17.388,6.713c-3.445,3.443-7.749,9.64-2.239,34.43-4.3-10.5-8.436-27.889-10.157-31.5-4.82-3.1-8.419-4.373-11.3-7,2.152-2.152,5.8-3.329,7.861-8.493-2.841-.43-6.025-1.894-6.025-6.8s5.206-7.23,8.155-2.152c3.207-1.722,6.047-4.045,4.928-10.673,4.045-1.033,12.254-7.116,10.561-17.329" transform="translate(-41.586 -26.255)" fill="#e08c4c"/>
              <path id="Trazado_728921" data-name="Trazado 728921" d="M172.559,132.3a6.223,6.223,0,0,1-2.793-.293,7.024,7.024,0,0,1-2.371-1.515c.713,1.949,3.356,3.207,5.164,1.808" transform="translate(-12.335 -42.083)" fill="#995f33"/>
              <path id="Trazado_728922" data-name="Trazado 728922" d="M179.7,106.791c-1.18-.856-3.111-.3-4.046.662a26.821,26.821,0,0,0,4.046-.662" transform="translate(-25.068 -34.302)" fill="#b36f3c"/>
              <path id="Trazado_728923" data-name="Trazado 728923" d="M175.667,111.724c.088.691.522,1.206.971,1.148s.739-.663.651-1.355-.522-1.2-.97-1.148-.74.663-.652,1.354" transform="translate(-22.675 -35.591)" fill="#333"/>
              <path id="Trazado_728924" data-name="Trazado 728924" d="M181.678,101.727s-2.325-1.37-6.026,1.213c.689-2.239,1.549-3.443,3.014-3.443s3.012.157,3.012,2.23" transform="translate(-27.048 -32.086)" fill="#333"/>
              <path id="Trazado_728925" data-name="Trazado 728925" d="M201.586,151.8a12.588,12.588,0,0,1-4.976-1.93,14.4,14.4,0,0,1-3.8-3.751c1.287,3.386,4.976,6.3,8.781,5.681" transform="translate(-58.577 -47.122)" fill="#c77b43"/>
              <path id="Trazado_728926" data-name="Trazado 728926" d="M218.883,125.746c-1.844-1.844-4.13-2.769-4.589-.934s1.951,4.566,4.017,4.566c0-1.123-.352-2.708.572-3.633" transform="translate(-90.395 -39.928)" fill="#b36f3c"/>
              <path id="Trazado_728927" data-name="Trazado 728927" d="M242.988,223.6l2.768-1.631L164.387,84.256l-2.768,1.631Z" transform="translate(-81.619 -27.172)" fill="#e0e0e0"/>
              <path id="Trazado_728928" data-name="Trazado 728928" d="M171.369,284.565l-3.6,2.123,5.612,9.518c2.274,3.859,1.728,7.04-4.956,10.982-8.3,4.891-12.11-6.362-13.588-8.87l-3.281,1.934c1.594,2.7,6.939,17.212,19,10.1,9.53-5.619,9.16-11.64,7-15.306s-2.92-4.952-6.181-10.482" transform="translate(-7.86 -91.768)" fill="#333"/>
              <path id="Trazado_728929" data-name="Trazado 728929" d="M301.572,25.086c-12.05-3.9-39.594-14.691-63.7,0-12.4-2.181-45.105,2.3-70.928,35.693-16.526,0-46.136,18.247-55.777,42.349-11.017,2.41-21.69,17.216-24.445,35.807,0-23.756-5.2-78.233,58.933-118.956,68.588-43.554,147.192-3.615,155.913,5.107" transform="translate(-86.625 0)" fill="#f2a933"/>
              <path id="Trazado_728930" data-name="Trazado 728930" d="M321.9,114.859h.014a.689.689,0,0,0,.675-.7c-.007-.4-.386-40.252,30.624-78.792a.689.689,0,1,0-1.073-.863c-31.338,38.946-30.935,79.279-30.928,79.682a.689.689,0,0,0,.688.675" transform="translate(-297.356 -11.043)" fill="#f0c582"/>
              <path id="Trazado_728931" data-name="Trazado 728931" d="M267.159,31.408a.689.689,0,0,0,.383-1.261c-.346-.232-8.665-5.733-23.661-9.45-13.814-3.423-36.087-5.852-63.758,2.014a.689.689,0,0,0,.376,1.325c52.332-14.88,85.944,7.032,86.277,7.255a.689.689,0,0,0,.383.117" transform="translate(-115.907 -5.634)" fill="#f0c582"/>
              <path id="Trazado_728932" data-name="Trazado 728932" d="M306.291,71.415a.676.676,0,0,0,.3-.072.689.689,0,0,0,.311-.923c-.1-.2-10.014-20.09-21.315-39.231a.689.689,0,0,0-1.186.7c11.277,19.1,21.169,38.946,21.268,39.145a.687.687,0,0,0,.617.383" transform="translate(-225.966 -9.948)" fill="#f0c582"/>
              <path id="Trazado_728933" data-name="Trazado 728933" d="M1.237,174.014c2.9,0,5.409-1.993,7.562-1.993s4.362,1.682,7.23,1.682c3.688-3.688,4.507-8.094,6.352-7.274s0,3.79-.717,6.352c1.436,0,1.9.358,2.562-.308,1.9-1.894,4.2-7.479,5.84-7.479s.1,3.484-1.331,7.377c2.151-2.152,4.3-5.739,6.865-6.353s-.1,4.1-2.05,6.045c4.713,0,8.3.921,6.148,1.844s-5.738,1.332-8.812,2.561a38.995,38.995,0,0,1-5.43,1.743c-2.049.615-3.587,1.946-5.841,1.946s-3.79,2.152-7.171,2.972S5.18,186.1,0,186.1a72.78,72.78,0,0,1,1.237-12.085" transform="translate(233.299 -53.209)" fill="#e08c4c"/>
              <path id="Trazado_728934" data-name="Trazado 728934" d="M13.731,175.43c-.667.757-1.271,1.584-1.89,2.381s-1.276,1.58-1.822,2.432a11.751,11.751,0,0,0,3.712-4.814" transform="translate(253.118 -56.574)" fill="#c77b43"/>
              <path id="Trazado_728935" data-name="Trazado 728935" d="M20.4,175.884c-1.028,2-2.072,3.94-3.279,5.84a10.293,10.293,0,0,0,3.279-5.84" transform="translate(241.63 -56.72)" fill="#c77b43"/>
              <path id="Trazado_728936" data-name="Trazado 728936" d="M30.285,176.488a39.145,39.145,0,0,1-2.725,6.11,9.21,9.21,0,0,0,2.725-6.11" transform="translate(224.68 -56.915)" fill="#c77b43"/>
              <path id="Trazado_728937" data-name="Trazado 728937" d="M27.149,176.035a38.021,38.021,0,0,1-3.369,3.073,5.113,5.113,0,0,0,3.369-3.073" transform="translate(230.377 -56.769)" fill="#c77b43"/>
              <path id="Trazado_728938" data-name="Trazado 728938" d="M159.371,256.152c4.3,0,9.641-.77,14.117-.77s4.028,3.925,5.1,4.992,3.613,2.238,3.613,4.476,1.255,5.287,0,6.541,4.117,5.079,1.276,7.919c-4.131,0-10.587-1.808-14.288-5.509s-5.442-2.93-11.416-4.306c.186-3.272.224-8.787,1.6-13.344" transform="translate(-17.568 -82.357)" fill="#e08c4c"/>
              <path id="Trazado_728939" data-name="Trazado 728939" d="M40.267,128.3c-4.674,7.414-12.089,20.418-9.993,20.418s6.77-12.52,9.993-20.418" transform="translate(213.106 -41.376)" fill="#fff9f2"/>
              <path id="Trazado_728940" data-name="Trazado 728940" d="M58.053,73.4c-4.674,7.414-12.089,20.418-9.993,20.418S54.829,81.3,58.053,73.4" transform="translate(183.27 -23.67)" fill="#fff9f2"/>
              <path id="Trazado_728941" data-name="Trazado 728941" d="M111.771,210.708c-4.674,7.414-12.089,20.418-9.993,20.418s6.77-12.519,9.993-20.418" transform="translate(93.157 -67.95)" fill="#fff9f2"/>
              <path id="Trazado_728942" data-name="Trazado 728942" d="M39.569,293.42c-4.674,7.414-12.09,20.418-9.994,20.418s6.77-12.519,9.994-20.418" transform="translate(214.278 -94.624)" fill="#fff9f2"/>
              <path id="Trazado_728943" data-name="Trazado 728943" d="M174.173,16.927c-4.674,7.414-12.089,20.417-9.993,20.417s6.77-12.518,9.993-20.417" transform="translate(-11.523 -5.459)" fill="#fff9f2"/>
              <path id="Trazado_728944" data-name="Trazado 728944" d="M134.182,161.139c-3.224,5.115-8.338,14.082-6.892,14.082s4.669-8.634,6.892-14.082" transform="translate(53.385 -51.965)" fill="#fff9f2"/>
              <path id="Trazado_728945" data-name="Trazado 728945" d="M158.622,333.643c-3.223,5.114-8.337,14.082-6.892,14.082s4.669-8.634,6.892-14.082" transform="translate(12.385 -107.595)" fill="#fff9f2"/>
              <path id="Trazado_728946" data-name="Trazado 728946" d="M184.258,201.794c-3.224,5.114-8.338,14.082-6.893,14.082s4.67-8.634,6.893-14.082" transform="translate(-30.617 -65.076)" fill="#fff9f2"/>
              <path id="Trazado_728947" data-name="Trazado 728947" d="M134.182,116.272c-3.224,5.114-8.338,14.081-6.892,14.081s4.669-8.634,6.892-14.081" transform="translate(53.385 -37.496)" fill="#fff9f2"/>
              <path id="Trazado_728948" data-name="Trazado 728948" d="M118.575,292.462c-3.225,5.113-8.338,14.081-6.893,14.081s4.67-8.634,6.893-14.081" transform="translate(79.567 -94.315)" fill="#fff9f2"/>
              <path id="Trazado_728949" data-name="Trazado 728949" d="M113.3,258.331c-3.225,5.114-8.338,14.081-6.893,14.081s4.67-8.634,6.893-14.081" transform="translate(88.412 -83.308)" fill="#fff9f2"/>
              <path id="Trazado_728950" data-name="Trazado 728950" d="M93.8,97.577c-3.224,5.114-8.338,14.081-6.892,14.081s4.669-8.634,6.892-14.081" transform="translate(121.124 -31.467)" fill="#fff9f2"/>
              <path id="Trazado_728951" data-name="Trazado 728951" d="M102.262,24.947c-3.224,5.113-8.338,14.081-6.893,14.081s4.67-8.634,6.893-14.081" transform="translate(106.932 -8.045)" fill="#fff9f2"/>
              <path id="Trazado_728952" data-name="Trazado 728952" d="M276.434,47.306c-3.224,5.114-8.339,14.081-6.893,14.081s4.67-8.634,6.893-14.081" transform="translate(-185.244 -15.256)" fill="#fff9f2"/>
              <path id="Trazado_728953" data-name="Trazado 728953" d="M301.735,145.725c-3.224,5.114-8.339,14.081-6.893,14.081s4.669-8.634,6.893-14.081" transform="translate(-227.687 -46.994)" fill="#fff9f2"/>
              <path id="Trazado_728954" data-name="Trazado 728954" d="M222.967,61.367c-3.225,5.114-8.339,14.081-6.892,14.081s4.669-8.634,6.892-14.081" transform="translate(-95.553 -19.79)" fill="#fff9f2"/>
              <path id="Trazado_728955" data-name="Trazado 728955" d="M241.855,24.322c-3.224,5.114-8.339,14.081-6.893,14.081s4.67-8.634,6.893-14.081" transform="translate(-127.237 -7.843)" fill="#fff9f2"/>
              <path id="Trazado_728956" data-name="Trazado 728956" d="M352.119,266.078c-3.224,5.113-8.339,14.081-6.893,14.081s4.67-8.634,6.893-14.081" transform="translate(-312.206 -85.806)" fill="#fff9f2"/>
              <path id="Trazado_728957" data-name="Trazado 728957" d="M352.119,202.048c-3.226,5.114-8.339,14.081-6.893,14.081s4.67-8.633,6.893-14.081" transform="translate(-312.206 -65.158)" fill="#fff9f2"/>
              <path id="Trazado_728958" data-name="Trazado 728958" d="M346.847,171.533c-3.224,5.113-8.339,14.081-6.893,14.081s4.67-8.634,6.893-14.081" transform="translate(-303.363 -55.317)" fill="#fff9f2"/>
              <path id="Trazado_728959" data-name="Trazado 728959" d="M91.717,260.92C88.492,266.033,83.378,275,84.823,275s4.67-8.634,6.893-14.081" transform="translate(124.622 -84.143)" fill="#fff9f2"/>
              <path id="Trazado_728960" data-name="Trazado 728960" d="M7.145,208.17C3.92,213.284-1.194,222.251.252,222.251s4.67-8.634,6.893-14.081" transform="translate(266.492 -67.132)" fill="#fff9f2"/>
              <path id="Trazado_728961" data-name="Trazado 728961" d="M21.417,123.166c-3.224,5.114-8.338,14.081-6.892,14.081s4.67-8.634,6.892-14.081" transform="translate(242.55 -39.719)" fill="#fff9f2"/>
              <path id="Trazado_728962" data-name="Trazado 728962" d="M33.454,226.745c-3.224,5.114-8.338,14.081-6.892,14.081s4.669-8.634,6.892-14.081" transform="translate(222.357 -73.122)" fill="#fff9f2"/>
              <path id="Trazado_728963" data-name="Trazado 728963" d="M245.067,271.312c-4.673,7.415-12.088,20.418-9.993,20.418s6.77-12.519,9.993-20.418" transform="translate(-130.45 -87.494)" fill="#fff9f2"/>
              <path id="Trazado_728964" data-name="Trazado 728964" d="M252.712,197.373c-4.673,7.414-12.088,20.418-9.993,20.418s6.77-12.519,9.993-20.418" transform="translate(-143.274 -63.65)" fill="#fff9f2"/>
              <path id="Trazado_728965" data-name="Trazado 728965" d="M352.961,99c-4.675,7.414-12.09,20.418-9.994,20.418S349.736,106.9,352.961,99" transform="translate(-311.441 -31.927)" fill="#fff9f2"/>
              <path id="Trazado_728966" data-name="Trazado 728966" d="M317.86,73.4c-4.675,7.414-12.09,20.418-9.995,20.418S314.636,81.3,317.86,73.4" transform="translate(-252.56 -23.67)" fill="#fff9f2"/>
              <path id="Trazado_728967" data-name="Trazado 728967" d="M315.705,210.708c-4.673,7.414-12.088,20.418-9.993,20.418s6.77-12.519,9.993-20.418" transform="translate(-248.946 -67.95)" fill="#fff9f2"/>
              <path id="Trazado_728968" data-name="Trazado 728968" d="M295.888,313.746c-4.675,7.414-12.09,20.418-9.994,20.418s6.77-12.519,9.994-20.418" transform="translate(-215.701 -101.179)" fill="#fff9f2"/>
              <path id="Trazado_728969" data-name="Trazado 728969" d="M208.481,329.5c-4.675,7.414-12.09,20.418-9.994,20.418s6.77-12.519,9.994-20.418" transform="translate(-69.074 -106.259)" fill="#fff9f2"/>
              <path id="Trazado_728970" data-name="Trazado 728970" d="M296.781,265.106c-2.921,4.635-7.556,12.761-6.246,12.761s4.231-7.824,6.246-12.761" transform="translate(-219.831 -85.493)" fill="#fff9f2"/>
              <path id="Trazado_728971" data-name="Trazado 728971" d="M211.431,314.136c-2.921,4.635-7.555,12.762-6.245,12.762s4.23-7.825,6.245-12.762" transform="translate(-76.656 -101.304)" fill="#fff9f2"/>
            </g>
          </g>
        </g>
      </g>
    </g>
  </g>
</svg>
