<svg xmlns="http://www.w3.org/2000/svg" width="115" height="134" viewBox="0 0 115 134">
  <g id="Grupo_985803" data-name="Grupo 985803" transform="translate(-303 -6996)">
    <path id="Rect치ngulo_344875" data-name="Rect치ngulo 344875" d="M49,0H66a49,49,0,0,1,49,49v85a0,0,0,0,1,0,0H0a0,0,0,0,1,0,0V49A49,49,0,0,1,49,0Z" transform="translate(303 6996)" fill="#fdb12e"/>
    <g id="Grupo_985679" data-name="Grupo 985679" transform="translate(-3.438 -10.605)">
      <path id="Trazado_731455" data-name="Trazado 731455" d="M132.063,136.6l-13.406-.3.081-3.684a6.7,6.7,0,0,1,13.406.3Z" transform="translate(238.541 6898.545)" fill="#d5a78f" stroke="rgba(0,0,0,0.97)" stroke-width="2"/>
      <path id="Trazado_731456" data-name="Trazado 731456" d="M142.832,151.071a3.752,3.752,0,0,1-2.058-3.447l.178-8.031c.481-.462-8.677-.263-10.039-.231-.114,0-.223,0-.337-.007-1.359-.092-10.5-.7-10.039-.215l-.178,8.032a3.751,3.751,0,0,1-2.208,3.353c-6.174,2.75-23.226,12.7-18.923,37.368,2.916,16.718,13.932,27.839,17.436,31.013a3.75,3.75,0,0,0,2.438.964l9.852.218,9.851.219a3.752,3.752,0,0,0,2.479-.854c3.642-3.017,15.14-13.638,18.794-30.21,5.393-24.457-11.2-35.15-17.246-38.17" transform="translate(233.898 6901.521)" fill="#fefffd" stroke="rgba(0,0,0,0.97)" stroke-width="2"/>
      <path id="Trazado_731457" data-name="Trazado 731457" d="M102.457,179.445c2.535,14.534,12.112,24.2,15.16,26.964a3.258,3.258,0,0,0,2.119.837l8.566.191,8.565.19a3.26,3.26,0,0,0,2.155-.742c3.166-2.623,13.163-11.857,16.34-26.265a35.662,35.662,0,0,0,.842-10.175,6.1,6.1,0,0,0-2.715-1.863c-3.327-1.071-6.715,1.108-9.75,2.841-8.112,4.633-15.409,3.894-23.469,2.023-1.888-.438-3.817-.939-5.808-1.446-4.107-1.047-8.687-1.552-12.583-.19a37.691,37.691,0,0,0,.578,7.636" transform="translate(234.666 6908.292)" fill="#d3ede5" stroke="rgba(0,0,0,0.97)" stroke-width="2"/>
      <path id="Trazado_731458" data-name="Trazado 731458" d="M113.406,198.493s9.787,4.41,24.628.645" transform="translate(237.33 6915.26)" fill="none" stroke="rgba(0,0,0,0.97)" stroke-linecap="round" stroke-miterlimit="10" stroke-width="2"/>
      <path id="Trazado_731459" data-name="Trazado 731459" d="M137.351,140.543l-21.178-.47a2.461,2.461,0,0,1-2.406-2.514l.018-.833a2.461,2.461,0,0,1,2.516-2.406l21.178.47a2.461,2.461,0,0,1,2.406,2.514l-.018.833a2.462,2.462,0,0,1-2.516,2.406" transform="translate(237.413 6900.45)" fill="#0d1732" stroke="rgba(0,0,0,0.97)" stroke-width="2"/>
      <path id="Rect치ngulo_345544" data-name="Rect치ngulo 345544" d="M2,0H3.755a2,2,0,0,1,2,2V24.106a2,2,0,0,1-2,2H2a2,2,0,0,1-2-2V2A2,2,0,0,1,2,0Z" transform="translate(351.125 7040.468) rotate(-88.728)" fill="none" stroke="rgba(0,0,0,0.97)" stroke-miterlimit="10" stroke-width="2"/>
      <path id="Trazado_731460" data-name="Trazado 731460" d="M128.633,179.629Z" transform="translate(240.844 6910.907)" fill="none" stroke="rgba(0,0,0,0.97)" stroke-linecap="round" stroke-linejoin="round" stroke-width="2"/>
      <path id="Trazado_731461" data-name="Trazado 731461" d="M132.688,190.373Z" transform="translate(241.778 6913.386)" fill="none" stroke="rgba(0,0,0,0.97)" stroke-linecap="round" stroke-linejoin="round" stroke-width="2"/>
      <path id="Trazado_731462" data-name="Trazado 731462" d="M140.621,178.523a.632.632,0,1,1-.618-.645A.632.632,0,0,1,140.621,178.523Z" transform="translate(243.318 6910.503)" fill="none" stroke="rgba(0,0,0,0.97)" stroke-linecap="round" stroke-linejoin="round" stroke-width="2"/>
    </g>
  </g>
</svg>
