<svg xmlns="http://www.w3.org/2000/svg" width="630" height="291.5" viewBox="0 0 630 291.5">
  <g id="Grupo_985793" data-name="Grupo 985793" transform="translate(-285 -11105)">
    <path id="Línea_1638" data-name="Línea 1638" d="M3.713,183.489l-7.425-2.978,73-182,7.425,2.978Z" transform="translate(389.5 11212.5)" fill="#414141"/>
    <path id="Línea_1639" data-name="Línea 1639" d="M69.287,183.489l-73-182L3.713-1.489l73,182Z" transform="translate(462.5 11212.5)" fill="#414141"/>
    <path id="Línea_1640" data-name="Línea 1640" d="M4,243H-4V0H4Z" transform="translate(462.5 11151.5)" fill="#414141"/>
    <path id="Línea_1641" data-name="Línea 1641" d="M173,1.5H0v-3H173Z" transform="translate(380.5 11394.5)"/>
    <path id="Trazado_729605" data-name="Trazado 729605" d="M-4048.112-267.413v3.076h11.334s24.916,7.626,33.34,8.066,52.676-2.384,52.676-2.384l10.883-8.759a10.008,10.008,0,0,0-2.546-6.08c-2.55-2.882-14.206-17.045-14.206-17.045s-26.778-1.922-57.21,9.233c-18.9,6.927-25.258,13.893-25.258,13.893Z" transform="translate(4451 11410)" fill="#828282"/>
    <path id="Trazado_729605_-_Contorno" data-name="Trazado 729605 - Contorno" d="M-4001.078-255.724c-.983,0-1.786-.016-2.386-.047-3.529-.184-10.235-1.6-19.933-4.215-6.791-1.829-12.739-3.633-13.455-3.851h-11.76v-4.076h9.3a35.211,35.211,0,0,1,5.48-4.266,96.311,96.311,0,0,1,19.819-9.6,154.911,154.911,0,0,1,31.347-7.816,151.543,151.543,0,0,1,21.148-1.573c3.109,0,4.85.122,4.923.127l.214.015.136.166c.117.142,11.68,14.19,14.195,17.032a10.442,10.442,0,0,1,2.671,6.412v.239l-11.193,9.008-.158.01C-3951.112-258.131-3988.969-255.724-4001.078-255.724Zm-46.534-9.113h10.909l.072.022c.249.076,24.953,7.613,33.22,8.045.583.03,1.368.046,2.334.046,11.679,0,47.433-2.249,50.126-2.419l10.561-8.5a9.765,9.765,0,0,0-2.408-5.519c-2.376-2.686-12.756-15.284-14.08-16.891-.555-.032-2.177-.112-4.639-.112a150.529,150.529,0,0,0-21.007,1.563,153.909,153.909,0,0,0-31.144,7.765,95.473,95.473,0,0,0-19.561,9.458,32.216,32.216,0,0,0-5.5,4.3l-.149.162h-8.732Z" transform="translate(4451 11410)" fill="#707070"/>
    <path id="Trazado_729606" data-name="Trazado 729606" d="M-4018.809-272.268h49.459s4.333-1.649,3.088-3.382-7.181-11.237-7.181-11.237-1.427-1.678-9.193-.7-12.619,2.121-21.872,4.624a85.668,85.668,0,0,0-16.2,6.46Z" transform="translate(4451 11410)" fill="#f0f0f0"/>
    <path id="Trazado_729607" data-name="Trazado 729607" d="M-3961.816-275.994h11.5l-8.9-12.52-12.209,1.159,7.408,11.361" transform="translate(4451 11410)" fill="#e0e0e0"/>
    <path id="Trazado_729608" data-name="Trazado 729608" d="M-3942.366-273.444c-1.453-.585,1.519,10.332-13.226,11.675s-54.221,3.382-66.66,0-14.126-2.774-14.126-2.774,24.475,8.253,32.744,8.2,52.544-2.109,52.544-2.109,10.6-6.5,10.837-8.609S-3940.913-272.859-3942.366-273.444Z" transform="translate(4451 11410)" fill="#646464"/>
    <path id="Línea_1638-2" data-name="Línea 1638" d="M-.653,74.734l-3.06-1.227,30.081-75,3.06,1.227Z" transform="translate(807.602 11302.766)" fill="#414141"/>
    <path id="Línea_1639-2" data-name="Línea 1639" d="M26.368,74.734l-30.081-75,3.06-1.227,30.081,75Z" transform="translate(837.683 11302.766)" fill="#414141"/>
    <path id="Línea_1640-2" data-name="Línea 1640" d="M-.7,100.132H-4V0H-.7Z" transform="translate(837.852 11276.754)" fill="#414141"/>
    <path id="Línea_1641-2" data-name="Línea 1641" d="M71.288.5H0v-1H71.288Z" transform="translate(801.71 11376.887)"/>
    <path id="Trazado_729605-2" data-name="Trazado 729605" d="M-4048.112-281.084v1.268h4.67s10.267,3.142,13.738,3.324,21.706-.982,21.706-.982l4.484-3.609a4.125,4.125,0,0,0-1.049-2.505c-1.051-1.188-5.854-7.024-5.854-7.024a62.816,62.816,0,0,0-23.574,3.8c-7.787,2.854-10.408,5.725-10.408,5.725Z" transform="translate(4859.048 11554.165)" fill="#828282"/>
    <path id="Trazado_729605_-_Contorno-2" data-name="Trazado 729605 - Contorno" d="M-4028.731-275.973c-.41,0-.746-.007-1-.02-3.378-.177-12.791-3.02-13.787-3.323h-5.1v-2.268h4.005c.683-.661,3.588-3.181,10.444-5.694a64.127,64.127,0,0,1,12.977-3.236,62.745,62.745,0,0,1,8.756-.651c1.292,0,2.019.051,2.05.053l.214.015.136.166c.048.058,4.81,5.843,5.842,7.01a4.623,4.623,0,0,1,1.175,2.837v.239l-4.794,3.858-.158.01C-4008.123-276.965-4023.732-275.973-4028.731-275.973Zm-18.881-4.343h4.245l.072.022c.1.031,10.248,3.126,13.618,3.3.235.012.554.019.946.019,4.7,0,18.882-.886,20.544-.99l4.154-3.343a3.766,3.766,0,0,0-.9-1.951c-.957-1.081-4.915-5.884-5.726-6.868-.3-.015-.907-.039-1.767-.039a61.728,61.728,0,0,0-8.615.641,63.127,63.127,0,0,0-12.774,3.185c-7.585,2.78-10.186,5.565-10.211,5.592l-.149.163h-3.434Z" transform="translate(4859.048 11554.165)" fill="#707070"/>
    <path id="Trazado_729606-2" data-name="Trazado 729606" d="M-4019.924-281.453h20.38s1.785-.68,1.272-1.394-2.959-4.63-2.959-4.63-.588-.691-3.788-.287a58.029,58.029,0,0,0-9.013,1.905,35.3,35.3,0,0,0-6.675,2.662Z" transform="translate(4842.935 11552.534)" fill="#f0f0f0"/>
    <path id="Trazado_729607-2" data-name="Trazado 729607" d="M-3967.466-283.355h4.737l-3.666-5.159-5.031.477,3.052,4.682" transform="translate(4813.961 11552.9)" fill="#e0e0e0"/>
    <path id="Trazado_729608-2" data-name="Trazado 729608" d="M-3997.638-273.458c-.6-.241.626,4.257-5.45,4.811s-22.343,1.394-27.468,0-5.821-1.143-5.821-1.143,10.085,3.4,13.493,3.38,21.651-.869,21.651-.869,4.368-2.678,4.466-3.547S-3997.04-273.217-3997.638-273.458Z" transform="translate(4852.148 11544.054)" fill="#646464"/>
    <path id="Trazado_731621" data-name="Trazado 731621" d="M6.258,0H4V-8.715l-2.7.832V-9.7l4.711-1.687h.242Zm3.906-1.109a1.137,1.137,0,0,1,.363-.875,1.289,1.289,0,0,1,.91-.336,1.3,1.3,0,0,1,.918.336,1.137,1.137,0,0,1,.363.875,1.121,1.121,0,0,1-.359.863,1.305,1.305,0,0,1-.922.332,1.294,1.294,0,0,1-.914-.332A1.121,1.121,0,0,1,10.164-1.109ZM22.4,0H14.6V-1.547l3.68-3.922A9.078,9.078,0,0,0,19.4-6.914a2.322,2.322,0,0,0,.363-1.172,1.738,1.738,0,0,0-.383-1.191,1.382,1.382,0,0,0-1.094-.434,1.49,1.49,0,0,0-1.207.527A2.089,2.089,0,0,0,16.641-7.8H14.375a3.729,3.729,0,0,1,.5-1.9,3.5,3.5,0,0,1,1.4-1.348,4.262,4.262,0,0,1,2.055-.488,4.036,4.036,0,0,1,2.73.844A2.985,2.985,0,0,1,22.031-8.3a3.825,3.825,0,0,1-.437,1.719,9.551,9.551,0,0,1-1.5,2.039L17.508-1.82H22.4Zm7.578-8.453.07.945a2.971,2.971,0,0,1,2.43-1.1A2.255,2.255,0,0,1,34.719-7.32a2.9,2.9,0,0,1,2.539-1.289,2.521,2.521,0,0,1,2.047.8,3.681,3.681,0,0,1,.672,2.41V0H37.711V-5.4a1.616,1.616,0,0,0-.281-1.053,1.245,1.245,0,0,0-.992-.333,1.409,1.409,0,0,0-1.406.971L35.039,0H32.781V-5.4a1.6,1.6,0,0,0-.289-1.065,1.257,1.257,0,0,0-.984-.329,1.463,1.463,0,0,0-1.391.8V0H27.859V-8.453Z" transform="translate(308 11276)" fill="#12263f"/>
    <path id="Trazado_731622" data-name="Trazado 731622" d="M3.129,0H2V-4.358L.652-3.941v-.91L3.008-5.7h.121ZM5.082-.555a.568.568,0,0,1,.182-.437.645.645,0,0,1,.455-.168.65.65,0,0,1,.459.168.568.568,0,0,1,.182.438.561.561,0,0,1-.18.432.653.653,0,0,1-.461.166.647.647,0,0,1-.457-.166A.561.561,0,0,1,5.082-.555ZM11.2,0H7.3V-.773l1.84-1.961A4.539,4.539,0,0,0,9.7-3.457a1.161,1.161,0,0,0,.182-.586.869.869,0,0,0-.191-.6.691.691,0,0,0-.547-.217.745.745,0,0,0-.6.264A1.044,1.044,0,0,0,8.32-3.9H7.188a1.865,1.865,0,0,1,.248-.949,1.748,1.748,0,0,1,.7-.674,2.131,2.131,0,0,1,1.027-.244,2.018,2.018,0,0,1,1.365.422,1.493,1.493,0,0,1,.486,1.191,1.912,1.912,0,0,1-.219.859,4.776,4.776,0,0,1-.75,1.02L8.754-.91H11.2Zm3.789-4.227.035.473A1.485,1.485,0,0,1,16.238-4.3a1.127,1.127,0,0,1,1.121.645,1.451,1.451,0,0,1,1.27-.645,1.261,1.261,0,0,1,1.023.4A1.84,1.84,0,0,1,19.988-2.7V0H18.855V-2.7a.808.808,0,0,0-.141-.527.622.622,0,0,0-.5-.166.7.7,0,0,0-.7.485L17.52,0H16.391V-2.7a.8.8,0,0,0-.145-.532.628.628,0,0,0-.492-.164.731.731,0,0,0-.7.4V0H13.93V-4.227Z" transform="translate(782 11328)" fill="#12263f"/>
    <path id="Línea_1642" data-name="Línea 1642" d="M.5,107h-1V0h1Z" transform="translate(328.5 11151.5)" fill="#0e494d"/>
    <path id="Trazado_731624" data-name="Trazado 731624" d="M3.5,0,7,7H0Z" transform="translate(325 11148)" fill="#0e494d"/>
    <path id="Línea_1642-2" data-name="Línea 1642" d="M.5,45.154h-1V0h1Z" transform="translate(793.266 11274.531)" fill="#0e494d"/>
    <path id="Trazado_731625" data-name="Trazado 731625" d="M1.477,0,2.954,2.954H0Z" transform="translate(791.789 11273.055)" fill="#0e494d"/>
    <path id="Línea_1642-3" data-name="Línea 1642" d="M.5,107h-1V0h1Z" transform="translate(328.5 11282.5)" fill="#0e494d"/>
    <path id="Trazado_731626" data-name="Trazado 731626" d="M3.5,0,7,7H0Z" transform="translate(332 11393) rotate(180)" fill="#0e494d"/>
    <path id="Línea_1642-4" data-name="Línea 1642" d="M.5,45.154h-1V0h1Z" transform="translate(793.266 11329.814)" fill="#0e494d"/>
    <path id="Trazado_731627" data-name="Trazado 731627" d="M1.477,0,2.954,2.954H0Z" transform="translate(794.743 11376.445) rotate(180)" fill="#0e494d"/>
    <path id="Línea_1643" data-name="Línea 1643" d="M56,1H48V-1h8ZM40,1H32V-1h8ZM24,1H16V-1h8ZM8,1H0V-1H8Z" transform="translate(297.5 11145.5)" fill="#0e494d"/>
    <path id="Línea_1653" data-name="Línea 1653" d="M25.32.5H24v-1h1.32ZM22,.5H20v-1h2Zm-4,0H16v-1h2Zm-4,0H12v-1h2Zm-4,0H8v-1h2ZM6,.5H4v-1H6ZM2,.5H0v-1H2Z" transform="translate(780.184 11272)" fill="#0e494d"/>
    <path id="Línea_1644" data-name="Línea 1644" d="M56,1H48V-1h8ZM40,1H32V-1h8ZM24,1H16V-1h8ZM8,1H0V-1H8Z" transform="translate(297.5 11395.5)" fill="#0e494d"/>
    <path id="Línea_1654" data-name="Línea 1654" d="M25.32.5H24v-1h1.32ZM22,.5H20v-1h2Zm-4,0H16v-1h2Zm-4,0H12v-1h2Zm-4,0H8v-1h2ZM6,.5H4v-1H6ZM2,.5H0v-1H2Z" transform="translate(780.184 11377.5)" fill="#0e494d"/>
    <path id="Trazado_729609" data-name="Trazado 729609" d="M-3822.66-50.412h-7.472v-1h7.1l56.156-48.9v-76.011l-56.156-48.825h-4.329v-1h4.7l.141.123,56.641,49.247V-99.86l-.172.149Z" transform="translate(4451 11410)" fill="#707070"/>
    <path id="Trazado_729610" data-name="Trazado 729610" d="M-3795.741-170.442l19.7,10.412v.3c0,.168.059,16.944.089,33.618.059,33.8-.055,34.243-.1,34.435-.074.291-.187.73-9.6,8.809-4.6,3.944-9.221,7.826-9.267,7.864l-.821.689Zm18.7,11.015-17.7-9.356v92.321c1.5-1.263,4.842-4.082,8.206-6.968,7.791-6.682,9.266-8.192,9.512-8.527C-3776.855-94.238-3776.958-136.739-3777.037-159.427Z" transform="translate(4451 11410)" fill="#707070"/>
    <path id="Trazado_729611" data-name="Trazado 729611" d="M1,1.812V66.064l1.762-1.453V2.923L1,1.812M0,0,3.762,2.371V65.082L0,68.184Z" transform="translate(674.567 11250)" fill="#707070"/>
    <path id="Trazado_729612" data-name="Trazado 729612" d="M-3763.313-174.527h-3.219v-1.782l-56.438-48.945h-5.627v-1h6l.141.122,56.924,49.366v1.239h1.219v-4.085l-56.79-50.976h-6.553v-1h6.936l.143.128,57.265,51.4Z" transform="translate(4451 11410)" fill="#707070"/>
    <path id="Trazado_729613" data-name="Trazado 729613" d="M-3761.021-154.812h-3.219v-1.826l-58.774-68.617h-5.584v-1h6.044l59.314,69.248v1.2h1.219v-4.126l-59.125-70.65h-6.511v-1h6.979l.15.179,59.508,71.108Z" transform="translate(4448.95 11359.527)" fill="#707070"/>
    <path id="Línea_1645" data-name="Línea 1645" d="M.5,175h-1V0h1Z" transform="translate(628.5 11184.5)" fill="#707070"/>
    <path id="Línea_1646" data-name="Línea 1646" d="M.5,42h-1V0h1Z" transform="translate(628.5 11136.5)" fill="#707070"/>
    <path id="Línea_1647" data-name="Línea 1647" d="M.5,38h-1V0h1Z" transform="translate(642.5 11152.5)" fill="#707070"/>
    <path id="Línea_1648" data-name="Línea 1648" d="M.5,34h-1V0h1Z" transform="translate(654.794 11167.5)" fill="#707070"/>
    <path id="Línea_1649" data-name="Línea 1649" d="M.5,32.173h-1V0h1Z" transform="translate(663.794 11177.327)" fill="#707070"/>
    <path id="Línea_1650" data-name="Línea 1650" d="M.5,29h-1V0h1Z" transform="translate(671.794 11187.5)" fill="#707070"/>
    <path id="Línea_1651" data-name="Línea 1651" d="M.5,27h-1V0h1Z" transform="translate(679.794 11196.5)" fill="#707070"/>
    <path id="Línea_1652" data-name="Línea 1652" d="M.5,26.5h-1V0h1Z" transform="translate(684.621 11202)" fill="#707070"/>
    <path id="Trazado_729614" data-name="Trazado 729614" d="M-3766.18-126.566l-.4-.918a12.037,12.037,0,0,0,3.106-2.187,12.153,12.153,0,0,0,2.274-2.953,11.836,11.836,0,0,0,1.366-4.4c.073-.67.13-1.227.18-1.719.2-1.981.256-2.514.694-2.8a1.184,1.184,0,0,1,1.073.02,6.069,6.069,0,0,0,3.862,0,9.338,9.338,0,0,0,4.862-2.642,3.508,3.508,0,0,0,.85-1.557l.064-.61.585.2a11.928,11.928,0,0,0,5.716-.012c.689-.157,1.1-.4,1.16-.67.109-.507-.741-1.427-1.351-1.889l-.14-.106-.043-.171a16.378,16.378,0,0,1-.009-5.921c.1-.68,0-.861-.016-.882s-.137-.04-.5.071a11.749,11.749,0,0,0-1.2.488c-1.161.518-2.606,1.163-3.878.885a18.868,18.868,0,0,0-5.891,0l-.618.1.036-.625a8.128,8.128,0,0,1,2.978-5.386,3.56,3.56,0,0,1,1.851-.967,2.148,2.148,0,0,1,1.309.4,3.425,3.425,0,0,0,2.589.461c.9-.132.992-.3.993-.306s.033-.087-.1-.4a12.428,12.428,0,0,0-.672-1.226,24.571,24.571,0,0,1-2.851-6.531c-.611-2.287-.6-3.4.041-3.845.792-.549,1.931.262,3.508,1.385a14.855,14.855,0,0,0,3.084,1.86,2.318,2.318,0,0,0,1.881-.01c1.343-.661,2.045-2.857,2.51-4.31l.065-.2c.232-.721-.714-2.117-1.715-3.595-1.518-2.24-3.407-5.028-3.41-8.195,0-1.443-.3-1.612-.312-1.619-.057-.029-.228-.01-.523.138a10.2,10.2,0,0,0-1.188.775c-1.186.847-2.53,1.806-3.7,1.14-1.282-.728-1.526-2.119-1.784-3.592a8.663,8.663,0,0,0-1.639-4.3,2.6,2.6,0,0,0-1.953-1.134h-.005a3.327,3.327,0,0,0-2.155,1.137l-.963,1.162.077-1.449c-.034-.155-.517-1.818-5.479-3.782-1.439-.57-2.5-.593-3.141-.069-1.027.834-.914,2.979-.784,3.735l-.985.169c-.023-.135-.547-3.311,1.139-4.68.946-.768,2.339-.8,4.139-.084,3.825,1.514,5.256,2.941,5.792,3.812a3.814,3.814,0,0,1,2.359-.95h.009a3.539,3.539,0,0,1,2.724,1.5,9.612,9.612,0,0,1,1.85,4.756c.235,1.341.421,2.4,1.293,2.9.619.351,1.687-.411,2.63-1.084,1.006-.718,1.958-1.4,2.749-.989.59.3.854,1.076.855,2.507,0,2.86,1.8,5.508,3.238,7.635,1.24,1.831,2.22,3.277,1.839,4.462l-.064.2a18.214,18.214,0,0,1-1.027,2.685,4.67,4.67,0,0,1-1.994,2.218,3.305,3.305,0,0,1-2.662.054,15.48,15.48,0,0,1-3.325-1.986c-.583-.415-1.133-.807-1.591-1.068a1.674,1.674,0,0,0-.767-.3c-.052.089-.227.581.355,2.759a23.674,23.674,0,0,0,2.746,6.281c.7,1.193,1.128,1.913.815,2.568-.275.574-1,.755-1.75.864a4.376,4.376,0,0,1-3.232-.583,1.287,1.287,0,0,0-.727-.269,2.85,2.85,0,0,0-1.3.742,7.369,7.369,0,0,0-2.516,4.055,18.3,18.3,0,0,1,5.588.1,6,6,0,0,0,3.257-.822c1.161-.518,2.077-.926,2.713-.442.542.412.487,1.24.4,1.827a16.647,16.647,0,0,0-.042,5.37c.485.4,1.824,1.615,1.575,2.776-.15.7-.794,1.181-1.916,1.436a13.459,13.459,0,0,1-5.742.117c-.382,1.037-1.723,3.293-6.3,4.5a7.052,7.052,0,0,1-4.427-.019c-.067-.022-.143-.047-.207-.065a18.846,18.846,0,0,0-.255,2c-.05.493-.107,1.053-.181,1.727a12.869,12.869,0,0,1-3.973,8A12.776,12.776,0,0,1-3766.18-126.566Z" transform="translate(4451 11410)" fill="#707070"/>
    <path id="Trazado_729615" data-name="Trazado 729615" d="M-3686.232-134.755a15.924,15.924,0,0,1,1.106-8.679,3.569,3.569,0,0,1-1.062-1.394,10.411,10.411,0,0,0-2.668-3.149c-.949-.842-1.769-1.569-1.7-2.492.049-.655.54-1.265,1.544-1.919a9.343,9.343,0,0,0,2.413-2.177,2.3,2.3,0,0,1,1.216-.966,3.826,3.826,0,0,1,2.121.347,15.574,15.574,0,0,1,2.528,1.241c.677.387,1.6.917,1.855.771.05-.029.3-.239.3-1.541,0-2.4,1.019-4.294,2.532-4.7,1.15-.311,2.321.333,3.133,1.722a25.636,25.636,0,0,1,1.428,3.009,12.611,12.611,0,0,0,.876,1.84,3.631,3.631,0,0,0,.289-.686c1.04-3.119-.331-7.714-3.409-11.435-2.608-3.152-3.781-5.385-3.585-6.828a1.751,1.751,0,0,1,.737-1.236,2.448,2.448,0,0,1,.76-.35l.088-.027a37.933,37.933,0,0,0-.894-5.359l-.158-.814a17.518,17.518,0,0,0-1.96-5.8c-.233-.415-.4-.715-.245-1.051s.5-.407,1.061-.513c.354-.067.839-.158,1.506-.336a3.654,3.654,0,0,1,3.791.694c.341.273.53.415.783.4a3.545,3.545,0,0,0,1.675-.992,5.4,5.4,0,0,0,1.922-4.964,4.209,4.209,0,0,1,.479-2.651,53.871,53.871,0,0,1,5.479-5.536,9.7,9.7,0,0,1,2.526-1.821,5.057,5.057,0,0,1,5.6.372c2.881,2.207,4.058,3.215,4.419,3.535.732.054,3.985.157,5.834-2.048a8.062,8.062,0,0,1,4-2.359,7.268,7.268,0,0,1,4.046-.152,1.524,1.524,0,0,1,1.194,1.408,14.533,14.533,0,0,1-.241,2.4c-.218,1.43-.463,3.035.008,3.969a1.513,1.513,0,0,1,1.012-.841c1.037-.238,2.614.591,4.963,2.612,1.684,1.449,3.189,2.662,4.4,3.637a33.672,33.672,0,0,1,3.791,3.315,2.141,2.141,0,0,1,.517,2.722c-.319.472-.577.917-.826,1.347a7.372,7.372,0,0,1-2.589,2.984c-1.076.672-2.841,1.545-4.061,2.129a7.955,7.955,0,0,1,4.246,4.284c2.085,4.3.323,6.1-.088,6.445-.308.422-2.522,3.566-1.995,6.118a3.5,3.5,0,0,0,1.877,2.4c2.177,1.222,4.835,3.062,5.132,4.887a1.592,1.592,0,0,1-.358,1.357,1.205,1.205,0,0,0-.2.711,1.768,1.768,0,0,1-1.425,1.817l-.256-.967c.606-.161.631-.408.686-.951a2.081,2.081,0,0,1,.455-1.282.627.627,0,0,0,.112-.525c-.085-.521-.706-1.971-4.634-4.176a4.5,4.5,0,0,1-2.368-3.069c-.654-3.176,2.1-6.819,2.216-6.972l.052-.069.057-.037a2.037,2.037,0,0,0,.628-1.1,6.131,6.131,0,0,0-.791-4.153c-1.933-3.99-4.757-4.044-4.886-4.044h0l-.219-.955c.036-.016,3.614-1.65,5.294-2.7a6.493,6.493,0,0,0,2.253-2.636c.258-.445.524-.9.863-1.406.192-.284.317-.635-.442-1.5a33.421,33.421,0,0,0-3.666-3.194c-1.214-.979-2.725-2.2-4.422-3.657-2.662-2.289-3.7-2.484-4.087-2.4-.22.051-.321.249-.449.545-.108.249-.255.591-.642.634a.646.646,0,0,1-.072,0,1,1,0,0,1-.742-.5c-.894-1.216-.593-3.192-.327-4.936a13.949,13.949,0,0,0,.23-2.223c0-.076-.008-.309-.525-.49a6.482,6.482,0,0,0-3.446.17,7.173,7.173,0,0,0-3.5,2.039c-2.436,2.906-6.695,2.407-6.874,2.385l-.161-.02-.119-.112c-.009-.008-.984-.915-4.473-3.588a4.066,4.066,0,0,0-4.551-.267,8.72,8.72,0,0,0-2.253,1.625l-.031.03a55.192,55.192,0,0,0-5.342,5.378,3.445,3.445,0,0,0-.3,2.048,6.385,6.385,0,0,1-2.271,5.751,4.132,4.132,0,0,1-2.276,1.233,2.1,2.1,0,0,1-1.458-.62,2.707,2.707,0,0,0-2.908-.508c-.7.188-1.23.287-1.579.353l-.164.031.034.061a18.439,18.439,0,0,1,2.071,6.1l.157.813c.562,2.9.844,4.351.9,5.125a1.553,1.553,0,0,1-.151,1,1.034,1.034,0,0,1-.642.413,1.457,1.457,0,0,0-.472.211.746.746,0,0,0-.319.55c-.086.639.236,2.274,3.365,6.056a18,18,0,0,1,3.489,6.467,10.148,10.148,0,0,1,.1,5.922c-.237.711-.564,1.441-1.19,1.465h-.033c-.74,0-1.146-.965-1.812-2.549a24.884,24.884,0,0,0-1.369-2.892c-.578-.99-1.311-1.449-2.008-1.261-.863.233-1.792,1.5-1.793,3.738,0,1.344-.247,2.086-.8,2.405-.75.435-1.678-.1-2.853-.768a14.786,14.786,0,0,0-2.365-1.166,3.326,3.326,0,0,0-1.548-.319c-.205.051-.356.228-.68.626a10.366,10.366,0,0,1-2.644,2.384c-.874.569-1.077.942-1.093,1.155-.032.429.616,1,1.367,1.67a11.23,11.23,0,0,1,2.9,3.461,3.03,3.03,0,0,0,.641.937,4.891,4.891,0,0,1,.888-1.094c.157-.139.635-.561,1.094-.3a.726.726,0,0,1,.3.847,2.276,2.276,0,0,1-1.685,1.73c-.037,0-.075.008-.115.01a11.724,11.724,0,0,0-.789,2.244,15.563,15.563,0,0,0-.288,5.979Z" transform="translate(4451 11410)" fill="#707070"/>
    <path id="Trazado_729616" data-name="Trazado 729616" d="M-3759.715-106.31c-.638,0-1.147-.543-1.975-1.427a34.366,34.366,0,0,0-2.454-2.416l.662-.749a35.18,35.18,0,0,1,2.521,2.481c.535.571,1.041,1.111,1.247,1.111h.005c.077,0,.28-.1.776-.742a10.174,10.174,0,0,0,1.332-2.629c.5-1.29.972-2.51,2.191-2.51h.045a1.1,1.1,0,0,1,.823.3.958.958,0,0,1,.175.784c-.025.247-.027.331.112.454a4.434,4.434,0,0,0,2.237.625,12.754,12.754,0,0,0,3.383.187c.483-.1.727-.351,1.426-1.112.271-.3.609-.664,1.04-1.095a17.605,17.605,0,0,0,1.792-2.135c.585-.791.972-1.314,1.576-1.317h.006a1.733,1.733,0,0,1,1.251.86,12.937,12.937,0,0,1,.913,1.463c.875,1.547,1.7,3.009,3.9,3.146a51.568,51.568,0,0,0,6.05,0l.071,1a52.631,52.631,0,0,1-6.183,0c-2.739-.17-3.831-2.1-4.708-3.652a12.2,12.2,0,0,0-.84-1.351c-.28-.369-.417-.446-.454-.462a4.253,4.253,0,0,0-.779.909,18.715,18.715,0,0,1-1.89,2.247c-.415.415-.731.759-1.01,1.063a3.628,3.628,0,0,1-1.951,1.414,12.993,12.993,0,0,1-3.711-.171,5.256,5.256,0,0,1-2.781-.868,1.376,1.376,0,0,1-.447-1.29h-.042c-.489,0-.762.574-1.264,1.871a10.95,10.95,0,0,1-1.475,2.882c-.527.676-.965,1.1-1.52,1.126Z" transform="translate(4451 11410)" fill="#707070"/>
    <path id="Trazado_729617" data-name="Trazado 729617" d="M-3676.215-108.716a3.894,3.894,0,0,1-1.865-.641,23.029,23.029,0,0,1-4.589-3.451c-.232-.152-1.581-.962-2.576-.023a2.416,2.416,0,0,0-.374,1.657c-.011.782-.022,1.591-.655,2.02-.542.368-1.35.315-2.619-.17a10.338,10.338,0,0,1-3.935-2.41,3.858,3.858,0,0,1-.747-1.107l-4.8-2.464.457-.89,5.2,2.668.038.219a2.668,2.668,0,0,0,.664.973,9.477,9.477,0,0,0,3.483,2.075c1.218.465,1.6.348,1.7.276.2-.137.209-.7.217-1.206a3.16,3.16,0,0,1,.687-2.37,3.1,3.1,0,0,1,3.873-.045l.038.027.032.034a22.2,22.2,0,0,0,4.407,3.318c.744.428,1.266.582,1.6.473.476-.158.823-.959,1.3-2.068.206-.476.439-1.015.724-1.595.557-1.136,1-1.825,1.644-1.989.608-.155,1.133.217,1.8.687a12.794,12.794,0,0,0,1.737,1.075c.215.107.4.2.564.286a4.078,4.078,0,0,0,1.062.455,4.464,4.464,0,0,0,1.194-.125c.926-.156,2.475-.417,5.419-.668l.085,1c-2.9.247-4.427.5-5.337.657a3.218,3.218,0,0,1-2.877-.426c-.161-.082-.345-.176-.556-.282a13.627,13.627,0,0,1-1.867-1.152c-.419-.3-.813-.576-.975-.535-.145.037-.435.32-.993,1.46-.274.559-.5,1.087-.7,1.552-.583,1.348-1.005,2.321-1.906,2.62A1.713,1.713,0,0,1-3676.215-108.716Z" transform="translate(4451 11410)" fill="#707070"/>
    <path id="Trazado_731623" data-name="Trazado 731623" d="M4.3,0H2.75V-5.992L.9-5.419V-6.671l3.239-1.16H4.3ZM6.988-.763a.781.781,0,0,1,.25-.6A.886.886,0,0,1,7.863-1.6a.893.893,0,0,1,.631.231.781.781,0,0,1,.25.6A.771.771,0,0,1,8.5-.169a.9.9,0,0,1-.634.228.89.89,0,0,1-.628-.228A.771.771,0,0,1,6.988-.763ZM10.27-3.846l.451-3.975H15.1v1.294h-3.11L11.8-4.845a2.461,2.461,0,0,1,1.176-.3,2.254,2.254,0,0,1,1.751.693,2.768,2.768,0,0,1,.634,1.939,2.835,2.835,0,0,1-.32,1.356,2.256,2.256,0,0,1-.916.929,2.859,2.859,0,0,1-1.407.33A3.036,3.036,0,0,1,11.4-.18a2.334,2.334,0,0,1-.959-.808,2.2,2.2,0,0,1-.373-1.187h1.536a1.147,1.147,0,0,0,.341.76,1.081,1.081,0,0,0,.765.271.954.954,0,0,0,.811-.379,1.754,1.754,0,0,0,.285-1.072,1.451,1.451,0,0,0-.328-1.021,1.2,1.2,0,0,0-.929-.354,1.344,1.344,0,0,0-.9.29l-.15.14ZM20.609-5.812l.048.65a2.042,2.042,0,0,1,1.67-.757,1.55,1.55,0,0,1,1.542.886,2,2,0,0,1,1.746-.886,1.733,1.733,0,0,1,1.407.551,2.531,2.531,0,0,1,.462,1.657V0H25.926V-3.715a1.111,1.111,0,0,0-.193-.724.856.856,0,0,0-.682-.229A.969.969,0,0,0,24.084-4l.005,4H22.537V-3.709a1.1,1.1,0,0,0-.2-.732.864.864,0,0,0-.677-.226,1.006,1.006,0,0,0-.956.549V0H19.153V-5.812Z" transform="translate(695 11277)" fill="#12263f"/>
    <path id="Línea_1642-5" data-name="Línea 1642" d="M.5,55.1h-1V0h1Z" transform="translate(639.896 11273.894) rotate(-90)" fill="#0e494d"/>
    <path id="Trazado_731628" data-name="Trazado 731628" d="M1.352,0,2.7,2.954H0Z" transform="translate(638.419 11275.245) rotate(-90)" fill="#0e494d"/>
    <path id="Línea_1642-6" data-name="Línea 1642" d="M.5,54.56h-1V0h1Z" transform="translate(725.902 11274.019) rotate(-90)" fill="#0e494d"/>
    <path id="Trazado_731629" data-name="Trazado 731629" d="M1.477,0,2.954,2.954H0Z" transform="translate(781.939 11272.541) rotate(90)" fill="#0e494d"/>
    <path id="Rectángulo_345288" data-name="Rectángulo 345288" d="M1,1V290H324V1H1M0,0H325V291H0Z" transform="translate(285 11105)" fill="#707070"/>
    <path id="Rectángulo_345289" data-name="Rectángulo 345289" d="M1,1V290H296V1H1M0,0H297V291H0Z" transform="translate(618 11105)" fill="#707070"/>
  </g>
</svg>
