<svg xmlns="http://www.w3.org/2000/svg" width="167.582" height="32.375" viewBox="0 0 167.582 32.375">
  <g id="Grupo_985791" data-name="Grupo 985791" transform="translate(1386.082 11058.621)">
    <path id="Trazado_731613" data-name="Trazado 731613" d="M52.648,31.531l2.68-3.906h2.75l-4.18,5.75L56.258,39H53.727l-1.492-3.969L49.492,39H46.711l4.273-5.844L48.7,27.625h2.5ZM61.706,44h-4.42l.15-.957,2.356-2.21a5.219,5.219,0,0,0,.962-1.1,1.292,1.292,0,0,0,.178-.829.619.619,0,0,0-.652-.579.932.932,0,0,0-.731.305,1.431,1.431,0,0,0-.358.825l-1.285,0a2.268,2.268,0,0,1,1.255-1.912,2.57,2.57,0,0,1,1.2-.276,2.039,2.039,0,0,1,1.44.52,1.608,1.608,0,0,1,.456,1.335,3.235,3.235,0,0,1-1.107,1.96l-.656.624-1.358,1.221,2.743.009Zm6.378-11.367h2.734l-.359,2.039H67.733l-.555,3.188h-2.1l.555-3.187h-2.75l.359-2.039h2.742l.531-3.055h2.1Zm8.289-1.1,2.68-3.906H81.8l-4.18,5.75L79.983,39H77.452l-1.492-3.969L73.217,39H70.436l4.273-5.844L72.42,27.625h2.5ZM85.431,44h-4.42l.15-.957,2.356-2.21a5.219,5.219,0,0,0,.962-1.1,1.292,1.292,0,0,0,.178-.829A.619.619,0,0,0,84,38.322a.932.932,0,0,0-.731.305,1.431,1.431,0,0,0-.358.825l-1.285,0a2.268,2.268,0,0,1,1.255-1.912,2.57,2.57,0,0,1,1.2-.276,2.039,2.039,0,0,1,1.44.52,1.608,1.608,0,0,1,.456,1.335,3.235,3.235,0,0,1-1.107,1.96l-.656.624-1.358,1.221,2.743.009Zm6.378-11.367h2.734l-.359,2.039H91.458L90.9,37.859H88.8l.555-3.187h-2.75l.359-2.039h2.742l.531-3.055h2.1Zm8.289-1.1,2.68-3.906h2.75l-4.18,5.75L103.708,39h-2.531l-1.492-3.969L96.942,39H94.161l4.273-5.844-2.289-5.531h2.5Zm6.556,8.568.615,0a1.2,1.2,0,0,0,.786-.26,1.013,1.013,0,0,0,.367-.7.736.736,0,0,0-.141-.59.717.717,0,0,0-.561-.23.958.958,0,0,0-.64.2.872.872,0,0,0-.326.549l-1.285.009a1.722,1.722,0,0,1,.69-1.315,2.429,2.429,0,0,1,1.579-.5,2.168,2.168,0,0,1,1.486.524,1.6,1.6,0,0,1,.5,1.34,1.8,1.8,0,0,1-1.208,1.486,1.389,1.389,0,0,1,.654.608,1.649,1.649,0,0,1,.18.877,1.906,1.906,0,0,1-.369,1.057,2.16,2.16,0,0,1-.9.7,2.894,2.894,0,0,1-1.221.23,2.075,2.075,0,0,1-1.449-.531,1.767,1.767,0,0,1-.551-1.379h1.276a.824.824,0,0,0,.207.6.808.808,0,0,0,.6.244,1.128,1.128,0,0,0,.766-.254,1.027,1.027,0,0,0,.374-.688.833.833,0,0,0-.162-.7.906.906,0,0,0-.672-.256l-.756,0Zm8.88-7.466h2.734l-.359,2.039h-2.727l-.555,3.188h-2.1l.555-3.187h-2.75l.359-2.039h2.742l.531-3.055h2.1Zm8.289-1.1,2.68-3.906h2.75l-4.18,5.75L127.433,39H124.9l-1.492-3.969L120.667,39h-2.781l4.273-5.844-2.289-5.531h2.5Zm8.816,9.971h.729l-.187,1.062h-.729L132.2,44h-1.285l.251-1.435h-2.634l.091-.9,3.386-4.3h1.344Zm-2.68-.009,1.394.009.451-2.361-.118.164Zm9.3-8.861h2.734l-.359,2.039h-2.727l-.555,3.188h-2.1l.555-3.187h-2.75l.359-2.039h2.742l.531-3.055h2.1Zm4.6,4.039a1.22,1.22,0,0,1,.895.324,1.111,1.111,0,0,1,.371.855,1.151,1.151,0,0,1-.344.879,1.323,1.323,0,0,1-1.766.051,1.149,1.149,0,0,1-.375-.852,1.161,1.161,0,0,1,.336-.883A1.238,1.238,0,0,1,143.861,36.672Zm3.586,0a1.22,1.22,0,0,1,.895.324,1.111,1.111,0,0,1,.371.855,1.151,1.151,0,0,1-.344.879,1.323,1.323,0,0,1-1.766.051,1.149,1.149,0,0,1-.375-.852,1.161,1.161,0,0,1,.336-.883A1.238,1.238,0,0,1,147.447,36.672Zm3.516,0a1.22,1.22,0,0,1,.895.324,1.111,1.111,0,0,1,.371.855,1.151,1.151,0,0,1-.344.879,1.323,1.323,0,0,1-1.766.051,1.149,1.149,0,0,1-.375-.852,1.161,1.161,0,0,1,.336-.883A1.238,1.238,0,0,1,150.962,36.672Zm8.406-4.039H162.1l-.359,2.039h-2.727l-.555,3.188h-2.1l.555-3.187h-2.75l.359-2.039h2.742l.531-3.055h2.1Zm8.289-1.1,2.68-3.906h2.75l-4.18,5.75L171.267,39h-2.531l-1.492-3.969L164.5,39H161.72l4.273-5.844L163.7,27.625h2.5Zm6.7,7.533-.1.561a1.815,1.815,0,0,1,1.445-.647,1.387,1.387,0,0,1,.756.21.979.979,0,0,1,.406.542,1.9,1.9,0,0,1,1.531-.752,1.24,1.24,0,0,1,1.023.465,1.908,1.908,0,0,1,.289,1.3l-.009.114L179.167,44h-1.29l.524-3.153a2.278,2.278,0,0,0,.014-.315.488.488,0,0,0-.547-.493,1.085,1.085,0,0,0-.907.566l-.014.1L176.374,44h-1.285l.524-3.14a2.275,2.275,0,0,0,.014-.314.488.488,0,0,0-.542-.5,1.089,1.089,0,0,0-.88.46L173.589,44H172.3l.852-4.931Z" transform="translate(-1403 -11086.246)" fill="#12263f"/>
    <path id="Trazado_731614" data-name="Trazado 731614" d="M-4.145-7.469l2.68-3.906h2.75l-4.18,5.75L-.535,0H-3.066L-4.559-3.969-7.3,0h-2.781l4.273-5.844L-8.1-11.375h2.5ZM8.5-5.828H1.707l.328-1.844H8.824ZM7.91-2.445H1.121l.328-1.844H8.238Z" transform="translate(-1376 -11035.246)" fill="#12263f"/>
    <path id="Trazado_731615" data-name="Trazado 731615" d="M3.637,0H1.418L-1.746-7.586-3.066,0H-5.355l1.977-11.375h2.211L2-3.773l1.32-7.6H5.605Z" transform="translate(-1296 -11026.246)" fill="#12263f"/>
    <path id="Trazado_731616" data-name="Trazado 731616" d="M0,0H141" transform="translate(-1359.5 -11040.746)" fill="none" stroke="#12263f" stroke-width="1"/>
  </g>
</svg>
