<svg xmlns="http://www.w3.org/2000/svg" width="115" height="134" viewBox="0 0 115 134">
  <g id="Grupo_985788" data-name="Grupo 985788" transform="translate(-303 -1820)">
    <path id="Rectángulo_344901" data-name="Rectángulo 344901" d="M49,0H66a49,49,0,0,1,49,49v85a0,0,0,0,1,0,0H0a0,0,0,0,1,0,0V49A49,49,0,0,1,49,0Z" transform="translate(303 1820)" fill="#fdb12e"/>
    <g id="Grupo_985368" data-name="Grupo 985368" transform="translate(0.655 -18.052)">
      <g id="Grupo_985367" data-name="Grupo 985367">
        <g id="Grupo_985365" data-name="Grupo 985365" transform="translate(315.771 1866.479)">
          <path id="Trazado_729848" data-name="Trazado 729848" d="M80.09,70.652,45.457,10.367a2.725,2.725,0,0,0-4.725,0L6.1,70.654a.729.729,0,0,0-.1.371.75.75,0,0,0,.749.75H44.522l-7.134-9.987h5.707l2.853-11.414L30.254,51.8l7.134-25.681H48.8L41.668,43.241l14.267-1.427L50.228,61.789h5.707L44.522,71.776H79.441a.75.75,0,0,0,.749-.75.734.734,0,0,0-.1-.374Z" transform="translate(1.134 -1.866)" fill="#b3b3b3"/>
          <path id="Trazado_729849" data-name="Trazado 729849" d="M88.41,69.233,53.777,8.948a9.859,9.859,0,0,0-17.1,0L2.047,69.233a7.884,7.884,0,0,0,6.837,11.81H81.573a7.884,7.884,0,0,0,6.837-11.81Zm-6.835,4.677H8.883a.75.75,0,0,1-.749-.75.729.729,0,0,1,.1-.371L42.866,12.5a2.725,2.725,0,0,1,4.725,0L82.223,72.785a.734.734,0,0,1,.1.374A.75.75,0,0,1,81.574,73.909Z" transform="translate(-1 -4)" fill="#ccc"/>
          <path id="Trazado_729850" data-name="Trazado 729850" d="M28.707,42.4,35.465,21H30.134L23,46.681l15.694-1.427L35.841,56.668H30.134l7.134,9.987,5.707-25.681Z" transform="translate(8.388 3.254)" fill="#f8cc6a"/>
          <path id="Trazado_729851" data-name="Trazado 729851" d="M46.974,36.694,32.707,38.121,39.841,21H33.758L27,42.4l14.267-1.427L35.56,66.655l11.414-9.987H41.267Z" transform="translate(10.095 3.254)" fill="#efb22b"/>
        </g>
      </g>
      <g id="Grupo_985366" data-name="Grupo 985366" transform="translate(314.345 1865.052)">
        <path id="Trazado_729852" data-name="Trazado 729852" d="M90.073,68.949,55.441,8.664a11.286,11.286,0,0,0-19.572,0L1.237,68.947A9.312,9.312,0,0,0,9.309,82.9H82a9.31,9.31,0,0,0,8.074-13.948ZM82,80.043H9.309a6.456,6.456,0,0,1-5.6-9.673L38.343,10.085a8.433,8.433,0,0,1,14.624,0L87.6,70.37A6.456,6.456,0,0,1,82,80.043Z" transform="translate(0 -3)" fill="#252525"/>
        <path id="Trazado_729853" data-name="Trazado 729853" d="M19.267,55.414H8.347l5.329-9.277A1.427,1.427,0,1,0,11.2,44.717L5.294,55A2.157,2.157,0,0,0,5,56.09a2.18,2.18,0,0,0,2.176,2.177H19.267a1.427,1.427,0,0,0,0-2.853Z" transform="translate(2.134 14.495)" fill="#252525"/>
        <path id="Trazado_729854" data-name="Trazado 729854" d="M57.492,44.717a1.427,1.427,0,1,0-2.474,1.421l5.329,9.277H49.427a1.427,1.427,0,0,0,0,2.853H61.518a2.18,2.18,0,0,0,2.176-2.177,2.151,2.151,0,0,0-.288-1.081Z" transform="translate(20.483 14.495)" fill="#252525"/>
        <path id="Trazado_729855" data-name="Trazado 729855" d="M26.026,22.049a1.428,1.428,0,0,0,1.947-.526l5.754-10.017a1.352,1.352,0,0,1,2.251,0L41.75,21.552a1.43,1.43,0,0,0,1.24.715,1.407,1.407,0,0,0,.709-.19,1.425,1.425,0,0,0,.526-1.947L38.454,10.083a4.151,4.151,0,0,0-7.2,0L25.5,20.1a1.426,1.426,0,0,0,.525,1.947Z" transform="translate(10.801 -0.866)" fill="#252525"/>
        <path id="Trazado_729856" data-name="Trazado 729856" d="M50.2,36.206a1.425,1.425,0,0,0-1.237-.505L37.078,36.89l6.213-14.915A1.426,1.426,0,0,0,41.974,20H30.561a1.427,1.427,0,0,0-1.375,1.044L22.052,46.725a1.427,1.427,0,0,0,1.5,1.8l13.694-1.246-2.1,8.386H30.561A1.426,1.426,0,0,0,29.4,57.924l7.134,9.987a1.425,1.425,0,0,0,1,.588,1.3,1.3,0,0,0,.166.01,1.417,1.417,0,0,0,.939-.354l11.414-9.987a1.426,1.426,0,0,0-.939-2.5H45.293L50.48,37.513a1.432,1.432,0,0,0-.277-1.307ZM42.029,56.7A1.427,1.427,0,0,0,43.4,58.522h1.91l-7.372,6.45-4.607-6.45h2.935a1.428,1.428,0,0,0,1.384-1.08L40.5,46.028a1.427,1.427,0,0,0-.3-1.274,1.462,1.462,0,0,0-1.214-.494L25.353,45.5l6.292-22.646h8.189L33.524,38a1.425,1.425,0,0,0,1.458,1.967l12.176-1.218Z" transform="translate(9.388 4.254)" fill="#252525"/>
      </g>
    </g>
  </g>
</svg>
