<svg xmlns="http://www.w3.org/2000/svg" xmlns:xlink="http://www.w3.org/1999/xlink" width="505" height="319" viewBox="0 0 505 319">
  <defs>
    <clipPath id="clip-path">
      <rect id="Rectángulo_345293" data-name="Rectángulo 345293" width="78.189" height="175" fill="none"/>
    </clipPath>
  </defs>
  <g id="Grupo_985792" data-name="Grupo 985792" transform="translate(-548 -12021)">
    <path id="Trazado_731613" data-name="Trazado 731613" d="M0,0H505V319H0Z" transform="translate(548 12021)" fill="#fff"/>
    <g id="Grupo_985277" data-name="Grupo 985277" transform="translate(767.092 12187)">
      <path id="Línea_1638" data-name="Línea 1638" d="M-.653,74.734l-3.06-1.227,30.081-75,3.06,1.227Z" transform="translate(5.891 39.766)" fill="#414141"/>
      <path id="Línea_1639" data-name="Línea 1639" d="M26.368,74.734l-30.081-75,3.06-1.227,30.081,75Z" transform="translate(35.972 39.766)" fill="#414141"/>
      <path id="Línea_1640" data-name="Línea 1640" d="M-.7,100.132H-4V0H-.7Z" transform="translate(36.141 13.754)" fill="#414141"/>
      <path id="Línea_1641" data-name="Línea 1641" d="M71.288.5H0v-1H71.288Z" transform="translate(0 113.887)"/>
      <path id="Trazado_729605" data-name="Trazado 729605" d="M-4048.112-281.084v1.268h4.67s10.267,3.142,13.738,3.324,21.706-.982,21.706-.982l4.484-3.609a4.125,4.125,0,0,0-1.049-2.505c-1.051-1.188-5.854-7.024-5.854-7.024a62.816,62.816,0,0,0-23.574,3.8c-7.787,2.854-10.408,5.725-10.408,5.725Z" transform="translate(4057.337 291.165)" fill="#828282"/>
      <path id="Trazado_729605_-_Contorno" data-name="Trazado 729605 - Contorno" d="M-4028.731-275.973c-.41,0-.746-.007-1-.02-3.378-.177-12.791-3.02-13.787-3.323h-5.1v-2.268h4.005c.683-.661,3.588-3.181,10.444-5.694a64.127,64.127,0,0,1,12.977-3.236,62.745,62.745,0,0,1,8.756-.651c1.292,0,2.019.051,2.05.053l.214.015.136.166c.048.058,4.81,5.843,5.842,7.01a4.623,4.623,0,0,1,1.175,2.837v.239l-4.794,3.858-.158.01C-4008.123-276.965-4023.732-275.973-4028.731-275.973Zm-18.881-4.343h4.245l.072.022c.1.031,10.248,3.126,13.618,3.3.235.012.554.019.946.019,4.7,0,18.882-.886,20.544-.99l4.154-3.343a3.766,3.766,0,0,0-.9-1.951c-.957-1.081-4.915-5.884-5.726-6.868-.3-.015-.907-.039-1.767-.039a61.728,61.728,0,0,0-8.615.641,63.127,63.127,0,0,0-12.774,3.185c-7.585,2.78-10.186,5.565-10.211,5.592l-.149.163h-3.434Z" transform="translate(4057.337 291.165)" fill="#707070"/>
      <path id="Trazado_729606" data-name="Trazado 729606" d="M-4019.924-281.453h20.38s1.785-.68,1.272-1.394-2.959-4.63-2.959-4.63-.588-.691-3.788-.287a58.029,58.029,0,0,0-9.013,1.905,35.3,35.3,0,0,0-6.675,2.662Z" transform="translate(4041.224 289.534)" fill="#f0f0f0"/>
      <path id="Trazado_729607" data-name="Trazado 729607" d="M-3967.466-283.355h4.737l-3.666-5.159-5.031.477,3.052,4.682" transform="translate(4012.251 289.9)" fill="#e0e0e0"/>
      <path id="Trazado_729608" data-name="Trazado 729608" d="M-3997.638-273.458c-.6-.241.626,4.257-5.45,4.811s-22.343,1.394-27.468,0-5.821-1.143-5.821-1.143,10.085,3.4,13.493,3.38,21.651-.869,21.651-.869,4.368-2.678,4.466-3.547S-3997.04-273.217-3997.638-273.458Z" transform="translate(4050.438 281.054)" fill="#646464"/>
    </g>
    <path id="Trazado_731614" data-name="Trazado 731614" d="M4.3,0H2.75V-5.992L.9-5.419V-6.671l3.239-1.16H4.3ZM6.988-.763a.781.781,0,0,1,.25-.6A.886.886,0,0,1,7.863-1.6a.893.893,0,0,1,.631.231.781.781,0,0,1,.25.6A.771.771,0,0,1,8.5-.169a.9.9,0,0,1-.634.228.89.89,0,0,1-.628-.228A.771.771,0,0,1,6.988-.763ZM15.4,0h-5.36V-1.063l2.53-2.7a6.241,6.241,0,0,0,.771-.994,1.6,1.6,0,0,0,.25-.806,1.2,1.2,0,0,0-.263-.819.95.95,0,0,0-.752-.3,1.025,1.025,0,0,0-.83.363,1.436,1.436,0,0,0-.3.953H9.883a2.564,2.564,0,0,1,.341-1.305,2.4,2.4,0,0,1,.964-.927A2.93,2.93,0,0,1,12.6-7.928a2.775,2.775,0,0,1,1.877.58,2.052,2.052,0,0,1,.669,1.638,2.629,2.629,0,0,1-.3,1.182,6.567,6.567,0,0,1-1.031,1.4L12.037-1.251H15.4Zm5.21-5.812.048.65a2.042,2.042,0,0,1,1.67-.757,1.55,1.55,0,0,1,1.542.886,2,2,0,0,1,1.746-.886,1.733,1.733,0,0,1,1.407.551,2.531,2.531,0,0,1,.462,1.657V0H25.926V-3.715a1.111,1.111,0,0,0-.193-.724.856.856,0,0,0-.682-.229A.969.969,0,0,0,24.084-4l.005,4H22.537V-3.709a1.1,1.1,0,0,0-.2-.732.864.864,0,0,0-.677-.226,1.006,1.006,0,0,0-.956.549V0H19.153V-5.812Z" transform="translate(736 12254)" fill="#12263f"/>
    <g id="Grupo_985278" data-name="Grupo 985278" transform="translate(749.488 12197.055)">
      <path id="Línea_1642" data-name="Línea 1642" d="M.5,45.154h-1V0h1Z" transform="translate(1.477 1.477)" fill="#0e494d"/>
      <path id="Polígono_3" data-name="Polígono 3" d="M1.477,0,2.954,2.954H0Z" transform="translate(0 0)" fill="#0e494d"/>
    </g>
    <g id="Grupo_985279" data-name="Grupo 985279" transform="translate(749.488 12253.814)">
      <path id="Línea_1642-2" data-name="Línea 1642" d="M.5,45.154h-1V0h1Z" transform="translate(1.477 0)" fill="#0e494d"/>
      <path id="Polígono_3-2" data-name="Polígono 3" d="M1.477,0,2.954,2.954H0Z" transform="translate(2.954 46.631) rotate(180)" fill="#0e494d"/>
    </g>
    <path id="Línea_1653" data-name="Línea 1653" d="M25.32.5H24v-1h1.32ZM22,.5H20v-1h2Zm-4,0H16v-1h2Zm-4,0H12v-1h2Zm-4,0H8v-1h2ZM6,.5H4v-1H6ZM2,.5H0v-1H2Z" transform="translate(737.403 12196)" fill="#0e494d"/>
    <path id="Línea_1654" data-name="Línea 1654" d="M25.32.5H24v-1h1.32ZM22,.5H20v-1h2Zm-4,0H16v-1h2Zm-4,0H12v-1h2Zm-4,0H8v-1h2ZM6,.5H4v-1H6ZM2,.5H0v-1H2Z" transform="translate(737.403 12301.5)" fill="#0e494d"/>
    <path id="Trazado_729609" data-name="Trazado 729609" d="M-3822.66-50.412h-7.472v-1h7.1l56.156-48.9v-76.011l-56.156-48.825h-4.329v-1h4.7l.141.123,56.641,49.247V-99.86l-.172.149Z" transform="translate(4379 12334)" fill="#707070"/>
    <path id="Trazado_729610" data-name="Trazado 729610" d="M-3795.741-170.442l19.7,10.412v.3c0,.168.059,16.944.089,33.618.059,33.8-.055,34.243-.1,34.435-.074.291-.187.73-9.6,8.809-4.6,3.944-9.221,7.826-9.267,7.864l-.821.689Zm18.7,11.015-17.7-9.356v92.321c1.5-1.263,4.842-4.082,8.206-6.968,7.791-6.682,9.266-8.192,9.512-8.527C-3776.855-94.238-3776.958-136.739-3777.037-159.427Z" transform="translate(4379 12334)" fill="#707070"/>
    <path id="Trazado_729611" data-name="Trazado 729611" d="M1,1.812V66.064l1.762-1.453V2.923L1,1.812M0,0,3.762,2.371V65.082L0,68.184Z" transform="translate(602.567 12174)" fill="#707070"/>
    <path id="Trazado_729612" data-name="Trazado 729612" d="M-3763.313-174.527h-3.219v-1.782l-56.438-48.945h-5.627v-1h6l.141.122,56.924,49.366v1.239h1.219v-4.085l-56.79-50.976h-6.553v-1h6.936l.143.128,57.265,51.4Z" transform="translate(4379 12334)" fill="#707070"/>
    <path id="Trazado_729613" data-name="Trazado 729613" d="M-3761.021-154.812h-3.219v-1.826l-58.774-68.617h-5.584v-1h6.044l59.314,69.248v1.2h1.219v-4.126l-59.125-70.65h-6.511v-1h6.979l.15.179,59.508,71.108Z" transform="translate(4376.95 12283.527)" fill="#707070"/>
    <path id="Línea_1645" data-name="Línea 1645" d="M.5,175h-1V0h1Z" transform="translate(556.5 12108.5)" fill="#707070"/>
    <path id="Línea_1646" data-name="Línea 1646" d="M.5,42h-1V0h1Z" transform="translate(556.5 12060.5)" fill="#707070"/>
    <path id="Línea_1647" data-name="Línea 1647" d="M.5,38h-1V0h1Z" transform="translate(570.5 12076.5)" fill="#707070"/>
    <path id="Línea_1648" data-name="Línea 1648" d="M.5,34h-1V0h1Z" transform="translate(582.794 12091.5)" fill="#707070"/>
    <path id="Línea_1649" data-name="Línea 1649" d="M.5,32.173h-1V0h1Z" transform="translate(591.794 12101.327)" fill="#707070"/>
    <path id="Línea_1650" data-name="Línea 1650" d="M.5,29h-1V0h1Z" transform="translate(599.794 12111.5)" fill="#707070"/>
    <path id="Línea_1651" data-name="Línea 1651" d="M.5,27h-1V0h1Z" transform="translate(607.794 12120.5)" fill="#707070"/>
    <path id="Línea_1652" data-name="Línea 1652" d="M.5,26.5h-1V0h1Z" transform="translate(612.621 12126)" fill="#707070"/>
    <path id="Trazado_729614" data-name="Trazado 729614" d="M-3766.18-126.566l-.4-.918a12.037,12.037,0,0,0,3.106-2.187,12.153,12.153,0,0,0,2.274-2.953,11.836,11.836,0,0,0,1.366-4.4c.073-.67.13-1.227.18-1.719.2-1.981.256-2.514.694-2.8a1.184,1.184,0,0,1,1.073.02,6.069,6.069,0,0,0,3.862,0,9.338,9.338,0,0,0,4.862-2.642,3.508,3.508,0,0,0,.85-1.557l.064-.61.585.2a11.928,11.928,0,0,0,5.716-.012c.689-.157,1.1-.4,1.16-.67.109-.507-.741-1.427-1.351-1.889l-.14-.106-.043-.171a16.378,16.378,0,0,1-.009-5.921c.1-.68,0-.861-.016-.882s-.137-.04-.5.071a11.749,11.749,0,0,0-1.2.488c-1.161.518-2.606,1.163-3.878.885a18.868,18.868,0,0,0-5.891,0l-.618.1.036-.625a8.128,8.128,0,0,1,2.978-5.386,3.56,3.56,0,0,1,1.851-.967,2.148,2.148,0,0,1,1.309.4,3.425,3.425,0,0,0,2.589.461c.9-.132.992-.3.993-.306s.033-.087-.1-.4a12.428,12.428,0,0,0-.672-1.226,24.571,24.571,0,0,1-2.851-6.531c-.611-2.287-.6-3.4.041-3.845.792-.549,1.931.262,3.508,1.385a14.855,14.855,0,0,0,3.084,1.86,2.318,2.318,0,0,0,1.881-.01c1.343-.661,2.045-2.857,2.51-4.31l.065-.2c.232-.721-.714-2.117-1.715-3.595-1.518-2.24-3.407-5.028-3.41-8.195,0-1.443-.3-1.612-.312-1.619-.057-.029-.228-.01-.523.138a10.2,10.2,0,0,0-1.188.775c-1.186.847-2.53,1.806-3.7,1.14-1.282-.728-1.526-2.119-1.784-3.592a8.663,8.663,0,0,0-1.639-4.3,2.6,2.6,0,0,0-1.953-1.134h-.005a3.327,3.327,0,0,0-2.155,1.137l-.963,1.162.077-1.449c-.034-.155-.517-1.818-5.479-3.782-1.439-.57-2.5-.593-3.141-.069-1.027.834-.914,2.979-.784,3.735l-.985.169c-.023-.135-.547-3.311,1.139-4.68.946-.768,2.339-.8,4.139-.084,3.825,1.514,5.256,2.941,5.792,3.812a3.814,3.814,0,0,1,2.359-.95h.009a3.539,3.539,0,0,1,2.724,1.5,9.612,9.612,0,0,1,1.85,4.756c.235,1.341.421,2.4,1.293,2.9.619.351,1.687-.411,2.63-1.084,1.006-.718,1.958-1.4,2.749-.989.59.3.854,1.076.855,2.507,0,2.86,1.8,5.508,3.238,7.635,1.24,1.831,2.22,3.277,1.839,4.462l-.064.2a18.214,18.214,0,0,1-1.027,2.685,4.67,4.67,0,0,1-1.994,2.218,3.305,3.305,0,0,1-2.662.054,15.48,15.48,0,0,1-3.325-1.986c-.583-.415-1.133-.807-1.591-1.068a1.674,1.674,0,0,0-.767-.3c-.052.089-.227.581.355,2.759a23.674,23.674,0,0,0,2.746,6.281c.7,1.193,1.128,1.913.815,2.568-.275.574-1,.755-1.75.864a4.376,4.376,0,0,1-3.232-.583,1.287,1.287,0,0,0-.727-.269,2.85,2.85,0,0,0-1.3.742,7.369,7.369,0,0,0-2.516,4.055,18.3,18.3,0,0,1,5.588.1,6,6,0,0,0,3.257-.822c1.161-.518,2.077-.926,2.713-.442.542.412.487,1.24.4,1.827a16.647,16.647,0,0,0-.042,5.37c.485.4,1.824,1.615,1.575,2.776-.15.7-.794,1.181-1.916,1.436a13.459,13.459,0,0,1-5.742.117c-.382,1.037-1.723,3.293-6.3,4.5a7.052,7.052,0,0,1-4.427-.019c-.067-.022-.143-.047-.207-.065a18.846,18.846,0,0,0-.255,2c-.05.493-.107,1.053-.181,1.727a12.869,12.869,0,0,1-3.973,8A12.776,12.776,0,0,1-3766.18-126.566Z" transform="translate(4379 12334)" fill="#707070"/>
    <path id="Trazado_729616" data-name="Trazado 729616" d="M-3759.715-106.31c-.638,0-1.147-.543-1.975-1.427a34.366,34.366,0,0,0-2.454-2.416l.662-.749a35.18,35.18,0,0,1,2.521,2.481c.535.571,1.041,1.111,1.247,1.111h.005c.077,0,.28-.1.776-.742a10.174,10.174,0,0,0,1.332-2.629c.5-1.29.972-2.51,2.191-2.51h.045a1.1,1.1,0,0,1,.823.3.958.958,0,0,1,.175.784c-.025.247-.027.331.112.454a4.434,4.434,0,0,0,2.237.625,12.754,12.754,0,0,0,3.383.187c.483-.1.727-.351,1.426-1.112.271-.3.609-.664,1.04-1.095a17.605,17.605,0,0,0,1.792-2.135c.585-.791.972-1.314,1.576-1.317h.006a1.733,1.733,0,0,1,1.251.86,12.937,12.937,0,0,1,.913,1.463c.875,1.547,1.7,3.009,3.9,3.146a51.568,51.568,0,0,0,6.05,0l.071,1a52.631,52.631,0,0,1-6.183,0c-2.739-.17-3.831-2.1-4.708-3.652a12.2,12.2,0,0,0-.84-1.351c-.28-.369-.417-.446-.454-.462a4.253,4.253,0,0,0-.779.909,18.715,18.715,0,0,1-1.89,2.247c-.415.415-.731.759-1.01,1.063a3.628,3.628,0,0,1-1.951,1.414,12.993,12.993,0,0,1-3.711-.171,5.256,5.256,0,0,1-2.781-.868,1.376,1.376,0,0,1-.447-1.29h-.042c-.489,0-.762.574-1.264,1.871a10.95,10.95,0,0,1-1.475,2.882c-.527.676-.965,1.1-1.52,1.126Z" transform="translate(4391.447 12334)" fill="#707070"/>
    <path id="Trazado_729617" data-name="Trazado 729617" d="M-3676.215-108.716a3.894,3.894,0,0,1-1.865-.641,23.029,23.029,0,0,1-4.589-3.451c-.232-.152-1.581-.962-2.576-.023a2.416,2.416,0,0,0-.374,1.657c-.011.782-.022,1.591-.655,2.02-.542.368-1.35.315-2.619-.17a10.338,10.338,0,0,1-3.935-2.41,3.858,3.858,0,0,1-.747-1.107l-4.8-2.464.457-.89,5.2,2.668.038.219a2.668,2.668,0,0,0,.664.973,9.477,9.477,0,0,0,3.483,2.075c1.218.465,1.6.348,1.7.276.2-.137.209-.7.217-1.206a3.16,3.16,0,0,1,.687-2.37,3.1,3.1,0,0,1,3.873-.045l.038.027.032.034a22.2,22.2,0,0,0,4.407,3.318c.744.428,1.266.582,1.6.473.476-.158.823-.959,1.3-2.068.206-.476.439-1.015.724-1.595.557-1.136,1-1.825,1.644-1.989.608-.155,1.133.217,1.8.687a12.794,12.794,0,0,0,1.737,1.075c.215.107.4.2.564.286a4.078,4.078,0,0,0,1.062.455,4.464,4.464,0,0,0,1.194-.125c.926-.156,2.475-.417,5.419-.668l.085,1c-2.9.247-4.427.5-5.337.657a3.218,3.218,0,0,1-2.877-.426c-.161-.082-.345-.176-.556-.282a13.627,13.627,0,0,1-1.867-1.152c-.419-.3-.813-.576-.975-.535-.145.037-.435.32-.993,1.46-.274.559-.5,1.087-.7,1.552-.583,1.348-1.005,2.321-1.906,2.62A1.713,1.713,0,0,1-3676.215-108.716Z" transform="translate(4403.967 12334)" fill="#707070"/>
    <path id="Trazado_731615" data-name="Trazado 731615" d="M4.3,0H2.75V-5.992L.9-5.419V-6.671l3.239-1.16H4.3ZM6.988-.763a.781.781,0,0,1,.25-.6A.886.886,0,0,1,7.863-1.6a.893.893,0,0,1,.631.231.781.781,0,0,1,.25.6A.771.771,0,0,1,8.5-.169a.9.9,0,0,1-.634.228.89.89,0,0,1-.628-.228A.771.771,0,0,1,6.988-.763ZM10.27-3.846l.451-3.975H15.1v1.294h-3.11L11.8-4.845a2.461,2.461,0,0,1,1.176-.3,2.254,2.254,0,0,1,1.751.693,2.768,2.768,0,0,1,.634,1.939,2.835,2.835,0,0,1-.32,1.356,2.256,2.256,0,0,1-.916.929,2.859,2.859,0,0,1-1.407.33A3.036,3.036,0,0,1,11.4-.18a2.334,2.334,0,0,1-.959-.808,2.2,2.2,0,0,1-.373-1.187h1.536a1.147,1.147,0,0,0,.341.76,1.081,1.081,0,0,0,.765.271.954.954,0,0,0,.811-.379,1.754,1.754,0,0,0,.285-1.072,1.451,1.451,0,0,0-.328-1.021,1.2,1.2,0,0,0-.929-.354,1.344,1.344,0,0,0-.9.29l-.15.14ZM20.609-5.812l.048.65a2.042,2.042,0,0,1,1.67-.757,1.55,1.55,0,0,1,1.542.886,2,2,0,0,1,1.746-.886,1.733,1.733,0,0,1,1.407.551,2.531,2.531,0,0,1,.462,1.657V0H25.926V-3.715a1.111,1.111,0,0,0-.193-.724.856.856,0,0,0-.682-.229A.969.969,0,0,0,24.084-4l.005,4H22.537V-3.709a1.1,1.1,0,0,0-.2-.732.864.864,0,0,0-.677-.226,1.006,1.006,0,0,0-.956.549V0H19.153V-5.812Z" transform="translate(637 12201)" fill="#12263f"/>
    <g id="Grupo_985280" data-name="Grupo 985280" transform="translate(566.419 12199.245) rotate(-90)">
      <path id="Línea_1642-3" data-name="Línea 1642" d="M1,55.1H0V0H1Z" transform="translate(0.852 1.477)" fill="#0e494d"/>
      <path id="Polígono_3-3" data-name="Polígono 3" d="M1.352,0,2.7,2.954H0Z" fill="#0e494d"/>
    </g>
    <g id="Grupo_985281" data-name="Grupo 985281" transform="translate(674.802 12199.495) rotate(-90)">
      <path id="Línea_1642-4" data-name="Línea 1642" d="M1,54.56H0V0H1Z" transform="translate(0.977 0)" fill="#0e494d"/>
      <path id="Polígono_3-4" data-name="Polígono 3" d="M1.477,0,2.954,2.954H0Z" transform="translate(2.954 56.037) rotate(180)" fill="#0e494d"/>
    </g>
    <g id="Grupo_985289" data-name="Grupo 985289" transform="translate(871.002 12128.716)">
      <g id="Grupo_985288" data-name="Grupo 985288" transform="translate(0 0)" clip-path="url(#clip-path)">
        <path id="Trazado_729609-2" data-name="Trazado 729609" d="M129.242,1200.383c.654,13.612,1.544,26.922,1.815,39.069a18.524,18.524,0,0,1-.779,5.084c-.2.524-.5,2.377-4.031,3.378l12.666-2.073.051-1.519c.579-8.779,3.367-43.348,3.367-43.348s-13.724-13.823-13.089-.592" transform="translate(-113.995 -1078.708)" fill="#f39779"/>
        <path id="Trazado_729610-2" data-name="Trazado 729610" d="M243.178,1745.984l0-.005c0,.006,0,.007,0,.005" transform="translate(-219.577 -1576.526)" fill="#f39779"/>
        <path id="Trazado_729611-2" data-name="Trazado 729611" d="M69.664,1707.82a11.835,11.835,0,0,0,.4-4.758c-.112-1.464-.022-3.052-.512-3.04-4.247,2.528-8.092.621-8.33-.672-.567-.018-4.3,4.28-5.795,4.657-5.529,1.482-5.934,2.731-5.959,3.8-.009.362,20.139.176,20.2.009" transform="translate(-44.667 -1534.423)" fill="#302626"/>
        <path id="Trazado_729612-2" data-name="Trazado 729612" d="M55.609,1764.663c2.343-.014,4.686-.214,7.023-.412a58.454,58.454,0,0,1,6.107-.378,1.188,1.188,0,0,0,.61-.106l.032-.021a.848.848,0,0,0,.281-.449,9.094,9.094,0,0,0,.448-2.507,11.294,11.294,0,0,0-1.305.158c-.552.1-1.1.246-1.642.378a56.046,56.046,0,0,1-15.9,1.268,7.939,7.939,0,0,1-1.608-.2,2.1,2.1,0,0,0-.19.891.877.877,0,0,0,.612.822,16.133,16.133,0,0,0,5.531.554" transform="translate(-44.664 -1589.901)" fill="#433d3d"/>
        <path id="Trazado_729613-2" data-name="Trazado 729613" d="M338.778,1200.046c1.183,13.577,2.59,26.841,3.334,38.969a18.529,18.529,0,0,1-.581,5.111c-.175.531-.407,2.4-3.9,3.532l12.575-2.564-.008-1.52c.238-8.794,1.678-43.446,1.678-43.446s-14.252-13.279-13.1-.082" transform="translate(-304.867 -1078.302)" fill="#f39779"/>
        <path id="Trazado_729614-2" data-name="Trazado 729614" d="M454.577,1742.976l0-.006c0,.007,0,.008,0,.006" transform="translate(-410.459 -1573.81)" fill="#f39779"/>
        <path id="Trazado_729615" data-name="Trazado 729615" d="M282.765,1707.338a11.836,11.836,0,0,0,.214-4.77c-.169-1.458-.141-3.049-.63-3.017-4.146,2.692-8.062.935-8.349-.348-.568,0-4.132,4.445-5.609,4.879-5.467,1.7-5.823,2.96-5.807,4.033.006.362,20.131-.607,20.182-.776" transform="translate(-237.098 -1534.29)" fill="#302626"/>
        <path id="Trazado_729616-2" data-name="Trazado 729616" d="M268.776,1761.468c2.341-.1,4.713-.366,7.042-.639,2-.235,4.036-.626,6.047-.661a1.185,1.185,0,0,0,.606-.129l.031-.022a.85.85,0,0,0,.263-.46,9.1,9.1,0,0,0,.35-2.523,11.232,11.232,0,0,0-1.3.209c-.548.124-1.086.288-1.626.441a56.049,56.049,0,0,1-15.837,1.885,7.926,7.926,0,0,1-1.615-.135,2.1,2.1,0,0,0-.155.9.594.594,0,0,0,.481.668,17.133,17.133,0,0,0,5.711.467" transform="translate(-237.099 -1586.509)" fill="#433d3d"/>
        <path id="Trazado_729617-2" data-name="Trazado 729617" d="M276.047,732.012l2.545,27.159s3.285,45.862,5.629,63.832c3.573,1.414,9.022,1.522,12.223-.078.591-6.693,2.96-74.733-.174-88.387-2.275-.509-20.223-2.526-20.223-2.526" transform="translate(-249.256 -660.968)" fill="#ebba44"/>
        <path id="Trazado_729618" data-name="Trazado 729618" d="M125.245,744.039s-.787,57.611,1.888,89.722c4.2,1.929,9.964.892,12.225-.083.425-8.176,3.872-63.8,3.872-63.8s.918-12.291.588-25.437c-7.9-.049-18.573-.4-18.573-.4" transform="translate(-112.992 -671.828)" fill="#ebba44"/>
        <path id="Trazado_729619" data-name="Trazado 729619" d="M263.759,895.6a.327.327,0,0,1-.326-.312l-.845-18.879L259,873.35a.327.327,0,1,1,.424-.5l3.7,3.152a.326.326,0,0,1,.115.234l.851,19.021a.327.327,0,0,1-.312.341h-.015" transform="translate(-233.756 -788.07)" fill="#302626"/>
        <path id="Trazado_729620" data-name="Trazado 729620" d="M359.884,1633.57a19.27,19.27,0,0,1-6.924-1.363.327.327,0,0,1,.234-.61c7.553,2.9,12.437.054,12.485.025a.327.327,0,0,1,.337.56,12.53,12.53,0,0,1-6.133,1.388" transform="translate(-318.515 -1473.226)" fill="#302626"/>
        <path id="Trazado_729621" data-name="Trazado 729621" d="M147.073,1633.557a20.55,20.55,0,0,1-7.041-1.349.327.327,0,1,1,.224-.614c7.88,2.871,12.325.063,12.369.034a.327.327,0,0,1,.359.546,11.267,11.267,0,0,1-5.91,1.383" transform="translate(-126.247 -1473.226)" fill="#302626"/>
        <path id="Trazado_729622" data-name="Trazado 729622" d="M438.044,797.4a.327.327,0,0,1-.323-.284c-.387-2.932-.365-2.954-.221-3.1a.327.327,0,0,1,.156-.087c.87-.2,3.243-.843,3.267-.85a.327.327,0,0,1,.17.631c-.089.024-2.021.544-3.026.792.037.413.145,1.315.26,2.2a21.572,21.572,0,0,0,2.885-.608.327.327,0,0,1,.185.627,22.254,22.254,0,0,1-3.315.672l-.038,0" transform="translate(-394.952 -716.105)" fill="#302626"/>
        <path id="Trazado_729623" data-name="Trazado 729623" d="M481.478,439.725s8.719,20.02,11.955,24.355c-.21-.29,6-.324,6-.324s-3.986-19.915-9.606-31.56c-.173-.188-8.353,7.53-8.353,7.53" transform="translate(-434.749 -390.246)" fill="#f39779"/>
        <path id="Trazado_729624" data-name="Trazado 729624" d="M427.969,324.959s5.014,2.43,12.921,19.163c.252.975-4.319,4.4-10.937,6.235-3.317-3.462-15.258-12.479-1.985-25.4" transform="translate(-380.903 -293.421)" fill="#757575"/>
        <path id="Trazado_729625" data-name="Trazado 729625" d="M273.442,12.018a12.408,12.408,0,0,1-1.217,2.481c-1.694,2.072-3.763,3.385-6.443,3.271a8.418,8.418,0,0,1-5.577-2.546c-.73-.731-.59-.823-1.007-1.771-.279-.633-.322-1.341-.583-1.965a15.668,15.668,0,0,1-.308-2.843c-.022-.77-.941-9.016,7.813-8.631,10.405.458,8.007,10.781,7.444,11.772-.043.075-.083.152-.122.231" transform="translate(-233.205 -0.002)" fill="#302626"/>
        <path id="Trazado_729626" data-name="Trazado 729626" d="M256.323,148.072l.569-11.593,7.543,3.909-.458,8.7a1.58,1.58,0,0,0,.787,1.451l1.507,1.962s-3.349,9.282-13.633-.577c1.389-.332,1.4-2.1,2.527-2.408a1.579,1.579,0,0,0,1.156-1.445" transform="translate(-228.12 -123.234)" fill="#f39779"/>
        <path id="Trazado_729627" data-name="Trazado 729627" d="M292.524,158.666c2.951.8,6.625.276,7.768-.89l.157-2.977-7.619-2.36Z" transform="translate(-264.134 -137.645)" fill="#db7a5c"/>
        <path id="Trazado_729628" data-name="Trazado 729628" d="M277.142,39.476c.123,5.133,1.535,8.694,5.078,8.921,5.328.341,6.643-3.788,6.938-9.215.278-5.127-2.794-8.246-6.343-8.161s-5.8,3.323-5.673,8.455" transform="translate(-250.24 -28.009)" fill="#f39779"/>
        <path id="Trazado_729629" data-name="Trazado 729629" d="M305.358,109.375c.015-.345.171-.619.349-.612s.311.294.3.639-.171.619-.349.612-.311-.294-.3-.639" transform="translate(-275.721 -98.208)" fill="#302626"/>
        <path id="Trazado_729630" data-name="Trazado 729630" d="M359.7,111.675c.015-.345-.118-.632-.3-.639s-.334.266-.349.612.118.632.3.639.334-.266.349-.612" transform="translate(-324.204 -100.259)" fill="#302626"/>
        <path id="Trazado_729631" data-name="Trazado 729631" d="M394.377,116.434s1.975-1.939,3.1-.356a2.108,2.108,0,0,1,.359,1.518c-.162,1.127-.979,2.868-3.793,2.516.006.127.331-3.678.331-3.678" transform="translate(-355.803 -104.251)" fill="#f39779"/>
        <path id="Trazado_729632" data-name="Trazado 729632" d="M399.013,130.636a.327.327,0,0,1-.294-.469,3.442,3.442,0,0,1,2.429-1.9.327.327,0,0,1,.1.646,2.784,2.784,0,0,0-1.938,1.541.327.327,0,0,1-.294.184" transform="translate(-359.993 -115.813)" fill="#302626"/>
        <path id="Trazado_729633" data-name="Trazado 729633" d="M408.709,136.645a.326.326,0,0,1-.22-.085l-.624-.569a.327.327,0,1,1,.44-.483l.624.569a.327.327,0,0,1-.22.568" transform="translate(-368.185 -122.279)" fill="#302626"/>
        <path id="Trazado_729634" data-name="Trazado 729634" d="M252.677,110.8s-1.564-2.284-2.977-.948a2.107,2.107,0,0,0-.645,1.42c-.059,1.137.407,3,3.237,3.2-.031.123.385-3.673.385-3.673" transform="translate(-224.88 -98.808)" fill="#f39779"/>
        <path id="Trazado_729635" data-name="Trazado 729635" d="M257.434,123.664a.327.327,0,0,1-.316-.244,2.784,2.784,0,0,0-1.6-1.886.327.327,0,0,1,.22-.615,3.442,3.442,0,0,1,2.016,2.336.327.327,0,0,1-.316.41" transform="translate(-230.521 -109.167)" fill="#302626"/>
        <path id="Trazado_729636" data-name="Trazado 729636" d="M259.967,131.609a.327.327,0,0,1-.17-.606l.722-.438a.327.327,0,1,1,.339.558l-.722.438a.325.325,0,0,1-.169.048" transform="translate(-234.441 -117.85)" fill="#302626"/>
        <path id="Trazado_729637" data-name="Trazado 729637" d="M350.163,94.165a.325.325,0,0,1-.22-.085,2.56,2.56,0,0,0-2.383-.207.327.327,0,1,1-.244-.606,3.175,3.175,0,0,1,3.066.33.327.327,0,0,1-.22.568" transform="translate(-313.423 -83.981)" fill="#302626"/>
        <path id="Trazado_729638" data-name="Trazado 729638" d="M279.491,26.866c-.121-.924-.116-1.861-.272-2.782a7.475,7.475,0,0,0-.947-2.9,2.724,2.724,0,0,0-.672-.828,2.451,2.451,0,0,0-2.064-.131,4.4,4.4,0,0,1-2.1.284,12.6,12.6,0,0,1-1.425-.621,2.45,2.45,0,0,0-2.564.557c-1.776,1.585-1.626,4.687-1.93,5.548a5.632,5.632,0,0,1-.714-5.032,7.842,7.842,0,0,1,3.393-3.579,6.269,6.269,0,0,1,1.869-.748,5.834,5.834,0,0,1,3.035.3,16.262,16.262,0,0,1,2.765,1.368,5.575,5.575,0,0,1,1.305.941,4.3,4.3,0,0,1,.833,1.43c.681,1.778-.248,5.862-.515,6.2" transform="translate(-240.622 -14.937)" fill="#302626"/>
        <path id="Trazado_729639" data-name="Trazado 729639" d="M324.84,110.073a.916.916,0,0,1-.729-.286,1.311,1.311,0,0,1-.027-1.374,2.9,2.9,0,0,0,.226-.766,3.175,3.175,0,0,0-.288-1.895.327.327,0,0,1,.557-.341,3.756,3.756,0,0,1,.378,2.317,3.517,3.517,0,0,1-.273.939c-.145.342-.15.611-.081.69s.268.1.677-.007a.327.327,0,0,1,.169.631,2.382,2.382,0,0,1-.609.091" transform="translate(-292.472 -95.041)" fill="#302626"/>
        <path id="Trazado_729640" data-name="Trazado 729640" d="M291.511,91.785a.325.325,0,0,1-.177-.053,2.476,2.476,0,0,0-2.446,0,.327.327,0,1,1-.312-.574,3.128,3.128,0,0,1,3.115.03.327.327,0,0,1-.179.6" transform="translate(-260.414 -81.946)" fill="#302626"/>
        <path id="Trazado_729641" data-name="Trazado 729641" d="M131.119,272.573s5,5.4,10.508.942c.1.036,8.035,2.033,10.9,4.747-.292,1.045,1.17,37.972.918,49.428-2.217,1.057-22.218,4.781-37.462-1.48,1.1-13.313,6.028-40.643,2.578-48.955a23.507,23.507,0,0,1,12.554-4.683" transform="translate(-104.73 -246.119)" fill="#757575"/>
        <path id="Trazado_729642" data-name="Trazado 729642" d="M274.909,272.419c-3.392,0-6.23-2.608-6.27-2.646a.327.327,0,0,1,.447-.477,11.082,11.082,0,0,0,3.255,1.98,5.977,5.977,0,0,0,6.558-1.131.327.327,0,0,1,.438.485,6.444,6.444,0,0,1-4.429,1.789" transform="translate(-242.473 -243.081)" fill="#302626"/>
        <path id="Trazado_729643" data-name="Trazado 729643" d="M18.056,397.275a81.667,81.667,0,0,1-7.973,9.991c.25-.257-7.1-5.339-7.1-5.339s.656-2.579,7.885-13.3c.2-.162,7.189,8.648,7.189,8.648" transform="translate(-2.693 -350.907)" fill="#f39779"/>
        <path id="Trazado_729644" data-name="Trazado 729644" d="M35.73,301.445s-6.97,3-14.671,16.423c-.389.929,3.644,4.972,9.931,7.737,3.779-2.951,16.027-9.474,4.74-24.16" transform="translate(-18.992 -272.189)" fill="#757575"/>
        <path id="Trazado_729645" data-name="Trazado 729645" d="M151.989,406.87a.327.327,0,0,1-.326-.315c-.155-4.262-.577-7.312-1.222-8.82a.327.327,0,0,1,.6-.257c.685,1.6,1.114,4.65,1.274,9.054a.327.327,0,0,1-.315.338h-.012" transform="translate(-135.817 -358.722)" fill="#302626"/>
        <path id="Trazado_729646" data-name="Trazado 729646" d="M469.342,416.679h-.013a.326.326,0,0,1-.313-.339c.017-.433.44-10.666,1.713-15.44a.327.327,0,0,1,.631.168c-1.255,4.7-1.688,15.193-1.692,15.3a.327.327,0,0,1-.326.314" transform="translate(-423.496 -361.772)" fill="#302626"/>
        <path id="Trazado_729647" data-name="Trazado 729647" d="M29.029,515.028a.325.325,0,0,1-.157-.041L25.4,513.073a.327.327,0,1,1,.315-.572l3.475,1.914a.327.327,0,0,1-.158.613" transform="translate(-22.779 -462.725)" fill="#302626"/>
        <path id="Trazado_729648" data-name="Trazado 729648" d="M321.38,170.406a2.988,2.988,0,0,1-1.733-.576.327.327,0,1,1,.374-.535,2.2,2.2,0,0,0,2.661.018.327.327,0,0,1,.422.5,2.772,2.772,0,0,1-1.725.594" transform="translate(-288.499 -152.812)" fill="#302626"/>
        <rect id="Rectángulo_345291" data-name="Rectángulo 345291" width="11.981" height="20.498" transform="matrix(0.087, -0.996, 0.996, 0.087, 48.385, 70.55)" fill="#5f6163"/>
        <path id="Trazado_729650" data-name="Trazado 729650" d="M25.642,486.516a7.637,7.637,0,0,0-1.868-3.077c-5.617-.224-21.51-.464-23.271,3.435-.893,1.979-.735,3.818,1.591,5.216,5.426,3.261,19.653-1.851,23.237-2.928.055-1.028.171-1.627.311-2.647" transform="translate(0.001 -436.424)" fill="#f39779"/>
        <path id="Trazado_729651" data-name="Trazado 729651" d="M239.717,466.109s5.656-2.009,7.918-2.165c-.042.037-1.239,6.219-2.488,8.168-1.321.138-2.252.68-5.136-.837.074-.748-.293-5.166-.293-5.166" transform="translate(-216.452 -418.917)" fill="#f39779"/>
        <path id="Trazado_729652" data-name="Trazado 729652" d="M302.259,473.371c.16-.619-2.05-1.728-3.989-2.57h0l-.009-.009a.346.346,0,0,1,.268-.58,2.671,2.671,0,0,1,.492.035c5.272.706,6.317.326,6.393-.227-.005-.238-.349-.453-.883-.643.839-.037,1.11-.246,1.162-.508.032-.914-4.72-1.866-6.5-2.19a.158.158,0,0,1-.107-.238l0,0a.162.162,0,0,1,.153-.074c4.418.489,6.213.275,6.32-.269.04-1.124-7.416-2.152-7.416-2.152l-2.488,8.168,1.556.239h0c3.89,1.595,4.837,1.488,5.041,1.02" transform="translate(-266.966 -418.917)" fill="#f39779"/>
        <path id="Trazado_729653" data-name="Trazado 729653" d="M329.422,505.713a.329.329,0,0,1-.068-.007l-5.869-1.237a.327.327,0,1,1,.135-.639l5.87,1.236a.327.327,0,0,1-.067.646" transform="translate(-291.855 -454.926)" fill="#302626"/>
        <path id="Trazado_729654" data-name="Trazado 729654" d="M242.091,483.093a.327.327,0,0,1-.324-.288l-.163-1.375a.327.327,0,0,1,.649-.077l.164,1.375a.327.327,0,0,1-.286.363l-.039,0" transform="translate(-218.153 -434.376)" fill="#302626"/>
        <path id="Trazado_729655" data-name="Trazado 729655" d="M646.088,718.992a10.5,10.5,0,0,0-.848-3.031c-.334-.63-1.035-.525-1.149.179a11.335,11.335,0,0,0,.219,3.193,1.219,1.219,0,0,0,.869.969c.914.266,1.057-.666.909-1.31" transform="translate(-581.539 -646.098)" fill="#f39779"/>
        <path id="Trazado_729656" data-name="Trazado 729656" d="M628.051,722.55a16.1,16.1,0,0,0-.519-3.734.528.528,0,0,0-.987-.034,13.229,13.229,0,0,0-.565,3.415,1.2,1.2,0,0,0,.546,1.121.986.986,0,0,0,1.525-.768" transform="translate(-565.224 -648.729)" fill="#f39779"/>
        <path id="Trazado_729657" data-name="Trazado 729657" d="M611.047,722.744a15.622,15.622,0,0,0-.36-3.856.484.484,0,0,0-.883-.043,11.989,11.989,0,0,0-.672,3.531,1.2,1.2,0,0,0,.529,1.129.88.88,0,0,0,1.386-.762" transform="translate(-550.009 -648.84)" fill="#f39779"/>
        <path id="Trazado_729658" data-name="Trazado 729658" d="M593.626,725.373a13.165,13.165,0,0,0-.351-3.213.545.545,0,0,0-.994-.1,7.781,7.781,0,0,0-.586,2.627,1.319,1.319,0,0,0,.135.779c.513.928,1.814.551,1.8-.1" transform="translate(-534.261 -651.732)" fill="#f39779"/>
        <path id="Trazado_729659" data-name="Trazado 729659" d="M643.064,727.1a.327.327,0,0,1-.325-.3l-.249-3.134a.327.327,0,0,1,.651-.052l.249,3.134a.327.327,0,0,1-.3.352h-.026" transform="translate(-580.133 -653.117)" fill="#302626"/>
        <path id="Trazado_729660" data-name="Trazado 729660" d="M626.58,730.619a.327.327,0,0,1-.326-.322l-.058-3.669a.327.327,0,0,1,.321-.332.321.321,0,0,1,.332.322l.058,3.669a.327.327,0,0,1-.322.332Z" transform="translate(-565.422 -655.807)" fill="#302626"/>
        <path id="Trazado_729661" data-name="Trazado 729661" d="M607.417,739.747h-.023a.327.327,0,0,1-.3-.349l.151-2.122a.327.327,0,1,1,.652.046l-.151,2.122a.327.327,0,0,1-.325.3" transform="translate(-548.17 -665.447)" fill="#302626"/>
        <path id="Trazado_729662" data-name="Trazado 729662" d="M20.708,486.408a.327.327,0,0,1-.154-.615,16.986,16.986,0,0,1,7.135-1.615.321.321,0,0,1,.332.321.327.327,0,0,1-.321.332,16.6,16.6,0,0,0-6.84,1.539.325.325,0,0,1-.153.038" transform="translate(-18.403 -437.187)" fill="#302626"/>
      </g>
    </g>
    <path id="Trazado_731616" data-name="Trazado 731616" d="M4.615,13V3.047H7.678a4.651,4.651,0,0,1,2.348.591A4.123,4.123,0,0,1,11.643,5.32,5.187,5.187,0,0,1,12.224,7.8v.458a5.2,5.2,0,0,1-.571,2.468,4.088,4.088,0,0,1-1.61,1.675A4.686,4.686,0,0,1,7.7,13ZM6.666,4.708v6.645h.991A2.227,2.227,0,0,0,9.5,10.566a3.552,3.552,0,0,0,.649-2.249V7.791a3.609,3.609,0,0,0-.629-2.3,2.219,2.219,0,0,0-1.839-.783Zm9,8.292H13.687V5.6h1.982Zm-2.1-9.311a.973.973,0,0,1,.3-.731,1.281,1.281,0,0,1,1.617,0,.967.967,0,0,1,.3.731.97.97,0,0,1-.3.738,1.267,1.267,0,0,1-1.606,0A.97.97,0,0,1,13.57,3.689ZM21.3,10.956a.637.637,0,0,0-.359-.571,4.077,4.077,0,0,0-1.152-.373q-2.639-.554-2.639-2.242a2.032,2.032,0,0,1,.817-1.644,3.3,3.3,0,0,1,2.136-.66,3.547,3.547,0,0,1,2.252.663A2.09,2.09,0,0,1,23.2,7.853H21.227a.956.956,0,0,0-.273-.7,1.157,1.157,0,0,0-.854-.277,1.182,1.182,0,0,0-.772.226.712.712,0,0,0-.273.574.609.609,0,0,0,.311.53,3.2,3.2,0,0,0,1.049.349,8.571,8.571,0,0,1,1.244.332,2.044,2.044,0,0,1,1.565,1.989,1.929,1.929,0,0,1-.868,1.637,3.745,3.745,0,0,1-2.242.625,3.912,3.912,0,0,1-1.651-.332A2.77,2.77,0,0,1,17.33,11.9a2.113,2.113,0,0,1-.41-1.248h1.873a1.031,1.031,0,0,0,.39.807,1.546,1.546,0,0,0,.971.28,1.43,1.43,0,0,0,.858-.215A.67.67,0,0,0,21.3,10.956Zm5.558-7.171V5.6h1.265V7.053H26.859v3.691a.881.881,0,0,0,.157.588.79.79,0,0,0,.6.178,3.15,3.15,0,0,0,.581-.048v1.5a4.067,4.067,0,0,1-1.2.178,1.886,1.886,0,0,1-2.119-2.1V7.053H23.8V5.6h1.08V3.785ZM33.511,13a2.194,2.194,0,0,1-.2-.663,2.39,2.39,0,0,1-1.866.8,2.626,2.626,0,0,1-1.8-.629,2.023,2.023,0,0,1-.714-1.586,2.09,2.09,0,0,1,.872-1.8,4.3,4.3,0,0,1,2.519-.636h.909V8.058a1.219,1.219,0,0,0-.263-.82,1.035,1.035,0,0,0-.831-.308,1.177,1.177,0,0,0-.783.239.813.813,0,0,0-.284.656H29.095a1.984,1.984,0,0,1,.4-1.189,2.621,2.621,0,0,1,1.121-.858,4.086,4.086,0,0,1,1.627-.311,3.228,3.228,0,0,1,2.17.687,2.4,2.4,0,0,1,.8,1.931v3.206a3.536,3.536,0,0,0,.294,1.593V13Zm-1.634-1.374a1.7,1.7,0,0,0,.807-.195,1.28,1.28,0,0,0,.547-.523V9.637h-.738q-1.483,0-1.579,1.025l-.007.116a.791.791,0,0,0,.26.608A1.009,1.009,0,0,0,31.877,11.626ZM38.549,5.6l.062.854a2.582,2.582,0,0,1,2.126-.991,2.146,2.146,0,0,1,1.75.69,3.221,3.221,0,0,1,.588,2.064V13H41.1V8.259a1.287,1.287,0,0,0-.273-.915,1.222,1.222,0,0,0-.909-.284,1.359,1.359,0,0,0-1.251.713V13H36.689V5.6Zm9.1,5.94a1.3,1.3,0,0,0,.889-.3,1.054,1.054,0,0,0,.355-.8h1.853a2.534,2.534,0,0,1-.41,1.377,2.706,2.706,0,0,1-1.1.971,3.455,3.455,0,0,1-1.548.345,3.211,3.211,0,0,1-2.5-1.008,3.99,3.99,0,0,1-.916-2.786v-.13a3.944,3.944,0,0,1,.909-2.728,3.174,3.174,0,0,1,2.5-1.019,3.111,3.111,0,0,1,2.225.79,2.8,2.8,0,0,1,.851,2.1H48.892a1.358,1.358,0,0,0-.355-.938,1.321,1.321,0,0,0-1.945.142A2.916,2.916,0,0,0,46.239,9.2V9.4a2.953,2.953,0,0,0,.349,1.643A1.2,1.2,0,0,0,47.647,11.544ZM53.957,13H51.975V5.6h1.982Zm-2.1-9.311a.973.973,0,0,1,.3-.731,1.281,1.281,0,0,1,1.617,0,.967.967,0,0,1,.3.731.97.97,0,0,1-.3.738,1.267,1.267,0,0,1-1.606,0A.97.97,0,0,1,51.858,3.689ZM59.87,13a2.194,2.194,0,0,1-.2-.663,2.39,2.39,0,0,1-1.866.8,2.626,2.626,0,0,1-1.8-.629,2.023,2.023,0,0,1-.714-1.586,2.09,2.09,0,0,1,.872-1.8,4.3,4.3,0,0,1,2.519-.636h.909V8.058a1.219,1.219,0,0,0-.263-.82A1.035,1.035,0,0,0,58.5,6.93a1.177,1.177,0,0,0-.783.239.813.813,0,0,0-.284.656H55.454a1.984,1.984,0,0,1,.4-1.189,2.621,2.621,0,0,1,1.121-.858A4.086,4.086,0,0,1,58.6,5.467a3.228,3.228,0,0,1,2.17.687,2.4,2.4,0,0,1,.8,1.931v3.206a3.536,3.536,0,0,0,.294,1.593V13Zm-1.634-1.374a1.7,1.7,0,0,0,.807-.195,1.28,1.28,0,0,0,.547-.523V9.637h-.738q-1.483,0-1.579,1.025l-.007.116a.791.791,0,0,0,.26.608A1.009,1.009,0,0,0,58.236,11.626Zm8.032-2.379a4.457,4.457,0,0,1,.776-2.755,2.517,2.517,0,0,1,2.123-1.025,2.265,2.265,0,0,1,1.784.807V2.5h1.982V13H71.149l-.1-.786a2.325,2.325,0,0,1-1.9.923,2.511,2.511,0,0,1-2.1-1.029A4.6,4.6,0,0,1,66.269,9.247Zm1.976.141a2.936,2.936,0,0,0,.362,1.6,1.179,1.179,0,0,0,1.053.556,1.321,1.321,0,0,0,1.292-.776V7.836a1.3,1.3,0,0,0-1.278-.776Q68.244,7.06,68.244,9.388Zm9.625,3.749a3.631,3.631,0,0,1-2.649-1A3.548,3.548,0,0,1,74.2,9.479V9.288A4.468,4.468,0,0,1,74.629,7.3a3.161,3.161,0,0,1,1.22-1.354,3.425,3.425,0,0,1,1.8-.475,3.07,3.07,0,0,1,2.389.957,3.889,3.889,0,0,1,.872,2.714v.807H76.2a1.835,1.835,0,0,0,.578,1.162,1.746,1.746,0,0,0,1.22.438,2.132,2.132,0,0,0,1.784-.827l.971,1.087a2.966,2.966,0,0,1-1.2.981A3.947,3.947,0,0,1,77.869,13.137ZM77.644,7.06a1.234,1.234,0,0,0-.954.4,2.062,2.062,0,0,0-.468,1.14H78.97V8.44a1.471,1.471,0,0,0-.355-1.02A1.274,1.274,0,0,0,77.644,7.06ZM14.609,22.233a4.387,4.387,0,0,1,.424-1.962,3.1,3.1,0,0,1,1.22-1.333,3.56,3.56,0,0,1,1.849-.472,3.368,3.368,0,0,1,2.444.916A3.676,3.676,0,0,1,21.6,21.871l.014.506a3.866,3.866,0,0,1-.95,2.731,3.3,3.3,0,0,1-2.55,1.029,3.319,3.319,0,0,1-2.553-1.025,3.934,3.934,0,0,1-.954-2.789Zm1.976.14a2.765,2.765,0,0,0,.4,1.612,1.424,1.424,0,0,0,2.256.007,3.025,3.025,0,0,0,.4-1.763,2.737,2.737,0,0,0-.4-1.6A1.311,1.311,0,0,0,18.1,20.06a1.29,1.29,0,0,0-1.121.565A3.076,3.076,0,0,0,16.585,22.374Zm12.906,0a4.436,4.436,0,0,1-.776,2.738,2.488,2.488,0,0,1-2.1,1.029,2.3,2.3,0,0,1-1.812-.779v3.486H22.833V18.6h1.832l.068.725a2.322,2.322,0,0,1,1.873-.861,2.5,2.5,0,0,1,2.126,1.012,4.556,4.556,0,0,1,.759,2.789Zm-1.976-.151a2.927,2.927,0,0,0-.366-1.6,1.19,1.19,0,0,0-1.063-.562,1.293,1.293,0,0,0-1.278.713V23.81a1.315,1.315,0,0,0,1.292.734Q27.516,24.544,27.516,22.22Zm6.6,3.917a3.631,3.631,0,0,1-2.649-1,3.548,3.548,0,0,1-1.022-2.659v-.191a4.468,4.468,0,0,1,.431-1.993,3.161,3.161,0,0,1,1.22-1.354,3.425,3.425,0,0,1,1.8-.475,3.07,3.07,0,0,1,2.389.957,3.889,3.889,0,0,1,.872,2.714v.807h-4.71a1.835,1.835,0,0,0,.578,1.162,1.746,1.746,0,0,0,1.22.438,2.132,2.132,0,0,0,1.784-.827L37,24.8a2.966,2.966,0,0,1-1.2.981A3.947,3.947,0,0,1,34.119,26.137Zm-.226-6.077a1.234,1.234,0,0,0-.954.4,2.062,2.062,0,0,0-.468,1.14H35.22V21.44a1.471,1.471,0,0,0-.355-1.02A1.274,1.274,0,0,0,33.894,20.06Zm8.545.4a5.367,5.367,0,0,0-.711-.055,1.447,1.447,0,0,0-1.47.759V26H38.282V18.6h1.866l.055.882a1.831,1.831,0,0,1,1.647-1.019,2.07,2.07,0,0,1,.615.089ZM47.47,26a2.194,2.194,0,0,1-.2-.663,2.39,2.39,0,0,1-1.866.8,2.626,2.626,0,0,1-1.8-.629,2.023,2.023,0,0,1-.714-1.586,2.09,2.09,0,0,1,.872-1.8,4.3,4.3,0,0,1,2.519-.636h.909v-.424a1.219,1.219,0,0,0-.263-.82,1.035,1.035,0,0,0-.831-.308,1.177,1.177,0,0,0-.783.239.813.813,0,0,0-.284.656H43.054a1.984,1.984,0,0,1,.4-1.189,2.621,2.621,0,0,1,1.121-.858,4.086,4.086,0,0,1,1.627-.311,3.228,3.228,0,0,1,2.17.687,2.4,2.4,0,0,1,.8,1.931v3.206a3.536,3.536,0,0,0,.294,1.593V26Zm-1.634-1.374a1.7,1.7,0,0,0,.807-.195,1.28,1.28,0,0,0,.547-.523V22.637h-.738q-1.483,0-1.579,1.025l-.007.116a.791.791,0,0,0,.26.608A1.009,1.009,0,0,0,45.836,24.626Zm4.546-2.379a4.457,4.457,0,0,1,.776-2.755,2.517,2.517,0,0,1,2.123-1.025,2.265,2.265,0,0,1,1.784.807V15.5h1.982V26H55.263l-.1-.786a2.325,2.325,0,0,1-1.9.923,2.511,2.511,0,0,1-2.1-1.029A4.6,4.6,0,0,1,50.382,22.247Zm1.976.141a2.936,2.936,0,0,0,.362,1.6,1.179,1.179,0,0,0,1.053.556,1.321,1.321,0,0,0,1.292-.776V20.836a1.3,1.3,0,0,0-1.278-.776Q52.357,20.06,52.357,22.388Zm5.913-.154a4.387,4.387,0,0,1,.424-1.962,3.1,3.1,0,0,1,1.22-1.333,3.56,3.56,0,0,1,1.849-.472,3.368,3.368,0,0,1,2.444.916,3.676,3.676,0,0,1,1.056,2.488l.014.506a3.866,3.866,0,0,1-.95,2.731,3.683,3.683,0,0,1-5.1,0,3.934,3.934,0,0,1-.954-2.789Zm1.976.14a2.765,2.765,0,0,0,.4,1.612,1.424,1.424,0,0,0,2.256.007,3.025,3.025,0,0,0,.4-1.763,2.737,2.737,0,0,0-.4-1.6,1.311,1.311,0,0,0-1.135-.568,1.29,1.29,0,0,0-1.121.565A3.076,3.076,0,0,0,60.246,22.374Zm10.4-1.918a5.367,5.367,0,0,0-.711-.055,1.447,1.447,0,0,0-1.47.759V26H66.494V18.6H68.36l.055.882a1.831,1.831,0,0,1,1.647-1.019,2.07,2.07,0,0,1,.615.089Z" transform="translate(788 12127)" fill="#12263f"/>
    <path id="Trazado_731617" data-name="Trazado 731617" d="M86.244,3.047V9.6a3.356,3.356,0,0,1-1.022,2.584,3.94,3.94,0,0,1-2.792.95,3.984,3.984,0,0,1-2.769-.923,3.3,3.3,0,0,1-1.046-2.536V3.047h2.051V9.616a1.9,1.9,0,0,0,.468,1.425,1.8,1.8,0,0,0,1.3.448q1.729,0,1.757-1.818V3.047ZM94.461,9.37a4.479,4.479,0,0,1-.759,2.772,2.513,2.513,0,0,1-2.119.995,2.309,2.309,0,0,1-1.921-.923L89.573,13H87.8V2.5h1.976V6.267a2.25,2.25,0,0,1,1.8-.8,2.534,2.534,0,0,1,2.123.995,4.485,4.485,0,0,1,.769,2.8ZM92.485,9.22a2.959,2.959,0,0,0-.355-1.642,1.2,1.2,0,0,0-1.06-.518,1.3,1.3,0,0,0-1.3.775v2.928a1.32,1.32,0,0,0,1.313.782,1.22,1.22,0,0,0,1.258-.946A4.9,4.9,0,0,0,92.485,9.22ZM97.763,13H95.78V5.6h1.982Zm-2.1-9.311a.973.973,0,0,1,.3-.731,1.281,1.281,0,0,1,1.617,0,.967.967,0,0,1,.3.731.97.97,0,0,1-.3.738,1.267,1.267,0,0,1-1.606,0A.97.97,0,0,1,95.664,3.689Zm6.8,7.854a1.3,1.3,0,0,0,.889-.3,1.054,1.054,0,0,0,.355-.8h1.853a2.534,2.534,0,0,1-.41,1.377,2.706,2.706,0,0,1-1.1.971,3.455,3.455,0,0,1-1.548.345,3.211,3.211,0,0,1-2.5-1.008,3.99,3.99,0,0,1-.916-2.786v-.13a3.944,3.944,0,0,1,.909-2.728,3.174,3.174,0,0,1,2.5-1.019,3.111,3.111,0,0,1,2.225.79,2.8,2.8,0,0,1,.851,2.1H103.71a1.358,1.358,0,0,0-.355-.938,1.321,1.321,0,0,0-1.945.142,2.916,2.916,0,0,0-.352,1.633V9.4a2.953,2.953,0,0,0,.349,1.643A1.2,1.2,0,0,0,102.466,11.544ZM110.977,13a2.194,2.194,0,0,1-.2-.663,2.39,2.39,0,0,1-1.866.8,2.626,2.626,0,0,1-1.8-.629,2.023,2.023,0,0,1-.714-1.586,2.09,2.09,0,0,1,.872-1.8,4.3,4.3,0,0,1,2.519-.636h.909V8.058a1.219,1.219,0,0,0-.263-.82,1.035,1.035,0,0,0-.831-.308,1.177,1.177,0,0,0-.783.239.813.813,0,0,0-.284.656h-1.976a1.985,1.985,0,0,1,.4-1.189,2.621,2.621,0,0,1,1.121-.858,4.086,4.086,0,0,1,1.627-.311,3.228,3.228,0,0,1,2.17.687,2.4,2.4,0,0,1,.8,1.931v3.206a3.536,3.536,0,0,0,.294,1.593V13Zm-1.634-1.374a1.7,1.7,0,0,0,.807-.195,1.28,1.28,0,0,0,.547-.523V9.637h-.738q-1.483,0-1.579,1.025l-.007.116a.791.791,0,0,0,.26.608A1.009,1.009,0,0,0,109.343,11.626Zm7.93-.082a1.3,1.3,0,0,0,.889-.3,1.054,1.054,0,0,0,.355-.8h1.853a2.534,2.534,0,0,1-.41,1.377,2.706,2.706,0,0,1-1.1.971,3.455,3.455,0,0,1-1.548.345,3.211,3.211,0,0,1-2.5-1.008,3.99,3.99,0,0,1-.916-2.786v-.13a3.944,3.944,0,0,1,.909-2.728,3.174,3.174,0,0,1,2.5-1.019,3.111,3.111,0,0,1,2.225.79,2.8,2.8,0,0,1,.851,2.1h-1.853a1.358,1.358,0,0,0-.355-.938,1.321,1.321,0,0,0-1.945.142,2.916,2.916,0,0,0-.352,1.633V9.4a2.953,2.953,0,0,0,.349,1.643A1.2,1.2,0,0,0,117.272,11.544ZM123.582,13H121.6V5.6h1.982Zm-2.1-9.311a.973.973,0,0,1,.3-.731,1.281,1.281,0,0,1,1.617,0,.967.967,0,0,1,.3.731.97.97,0,0,1-.3.738,1.267,1.267,0,0,1-1.606,0A.97.97,0,0,1,121.483,3.689ZM124.9,9.233a4.387,4.387,0,0,1,.424-1.962,3.1,3.1,0,0,1,1.22-1.333,3.56,3.56,0,0,1,1.849-.472,3.368,3.368,0,0,1,2.444.916,3.676,3.676,0,0,1,1.056,2.488l.014.506a3.866,3.866,0,0,1-.95,2.731,3.683,3.683,0,0,1-5.1,0,3.934,3.934,0,0,1-.954-2.789Zm1.976.14a2.765,2.765,0,0,0,.4,1.612,1.424,1.424,0,0,0,2.256.007,3.025,3.025,0,0,0,.4-1.763,2.737,2.737,0,0,0-.4-1.6,1.311,1.311,0,0,0-1.135-.568,1.29,1.29,0,0,0-1.121.565A3.076,3.076,0,0,0,126.877,9.374ZM128.784,2.5h2.153l-1.894,2.119h-1.606Zm6.159,3.1.062.854a2.582,2.582,0,0,1,2.126-.991,2.146,2.146,0,0,1,1.75.69,3.221,3.221,0,0,1,.588,2.064V13h-1.976V8.259a1.287,1.287,0,0,0-.273-.915,1.222,1.222,0,0,0-.909-.284,1.359,1.359,0,0,0-1.251.713V13h-1.976V5.6ZM151.11,9.37a4.436,4.436,0,0,1-.776,2.738,2.488,2.488,0,0,1-2.1,1.029,2.3,2.3,0,0,1-1.812-.779v3.486h-1.976V5.6h1.832l.068.725a2.322,2.322,0,0,1,1.873-.861,2.5,2.5,0,0,1,2.126,1.012,4.556,4.556,0,0,1,.759,2.789Zm-1.976-.151a2.927,2.927,0,0,0-.366-1.6,1.19,1.19,0,0,0-1.063-.562,1.293,1.293,0,0,0-1.278.713V10.81a1.315,1.315,0,0,0,1.292.734Q149.135,11.544,149.135,9.22Zm7.629,3.029a2.477,2.477,0,0,1-2.023.889,2.337,2.337,0,0,1-1.815-.684,2.918,2.918,0,0,1-.639-2V5.6h1.976v4.784q0,1.157,1.053,1.157a1.426,1.426,0,0,0,1.381-.7V5.6h1.982V13h-1.859ZM161.986,5.6l.062.854a2.582,2.582,0,0,1,2.126-.991,2.146,2.146,0,0,1,1.75.69,3.221,3.221,0,0,1,.588,2.064V13h-1.976V8.259a1.287,1.287,0,0,0-.273-.915,1.222,1.222,0,0,0-.909-.284,1.359,1.359,0,0,0-1.251.713V13h-1.976V5.6Zm8.388-1.818V5.6h1.265V7.053h-1.265v3.691a.881.881,0,0,0,.157.588.79.79,0,0,0,.6.178,3.151,3.151,0,0,0,.581-.048v1.5a4.067,4.067,0,0,1-1.2.178,1.886,1.886,0,0,1-2.119-2.1V7.053h-1.08V5.6h1.08V3.785Zm1.853,5.448a4.387,4.387,0,0,1,.424-1.962,3.1,3.1,0,0,1,1.22-1.333,3.56,3.56,0,0,1,1.849-.472,3.368,3.368,0,0,1,2.444.916,3.676,3.676,0,0,1,1.056,2.488l.014.506a3.866,3.866,0,0,1-.95,2.731,3.683,3.683,0,0,1-5.1,0,3.934,3.934,0,0,1-.954-2.789Zm1.976.14a2.765,2.765,0,0,0,.4,1.612,1.424,1.424,0,0,0,2.256.007,3.025,3.025,0,0,0,.4-1.763,2.737,2.737,0,0,0-.4-1.6,1.311,1.311,0,0,0-1.135-.568,1.29,1.29,0,0,0-1.121.565A3.076,3.076,0,0,0,174.2,9.374Zm9.427-.127a4.457,4.457,0,0,1,.776-2.755,2.517,2.517,0,0,1,2.123-1.025,2.265,2.265,0,0,1,1.784.807V2.5h1.982V13H188.51l-.1-.786a2.325,2.325,0,0,1-1.9.923,2.511,2.511,0,0,1-2.1-1.029A4.6,4.6,0,0,1,183.629,9.247Zm1.976.141a2.936,2.936,0,0,0,.362,1.6,1.179,1.179,0,0,0,1.053.556,1.321,1.321,0,0,0,1.292-.776V7.836a1.3,1.3,0,0,0-1.278-.776Q185.6,7.06,185.6,9.388Zm9.625,3.749a3.631,3.631,0,0,1-2.649-1,3.548,3.548,0,0,1-1.022-2.659V9.288a4.468,4.468,0,0,1,.431-1.993,3.161,3.161,0,0,1,1.22-1.354,3.425,3.425,0,0,1,1.8-.475,3.07,3.07,0,0,1,2.389.957,3.889,3.889,0,0,1,.872,2.714v.807h-4.71a1.835,1.835,0,0,0,.578,1.162,1.746,1.746,0,0,0,1.22.438,2.132,2.132,0,0,0,1.784-.827l.971,1.087a2.966,2.966,0,0,1-1.2.981A3.947,3.947,0,0,1,195.229,13.137ZM195,7.06a1.235,1.235,0,0,0-.954.4,2.062,2.062,0,0,0-.468,1.14h2.748V8.44a1.471,1.471,0,0,0-.355-1.02A1.274,1.274,0,0,0,195,7.06ZM204.731,5.6l.062.827a2.6,2.6,0,0,1,2.126-.964,1.973,1.973,0,0,1,1.962,1.128A2.54,2.54,0,0,1,211.1,5.467a2.206,2.206,0,0,1,1.791.7,3.221,3.221,0,0,1,.588,2.109V13H211.5V8.272a1.414,1.414,0,0,0-.246-.922,1.089,1.089,0,0,0-.868-.291,1.233,1.233,0,0,0-1.23.85L209.161,13h-1.976V8.279a1.4,1.4,0,0,0-.253-.932,1.1,1.1,0,0,0-.861-.288,1.28,1.28,0,0,0-1.217.7V13h-1.976V5.6ZM218.4,13.137a3.631,3.631,0,0,1-2.649-1,3.548,3.548,0,0,1-1.022-2.659V9.288a4.468,4.468,0,0,1,.431-1.993,3.161,3.161,0,0,1,1.22-1.354,3.425,3.425,0,0,1,1.8-.475,3.07,3.07,0,0,1,2.389.957,3.889,3.889,0,0,1,.872,2.714v.807h-4.71a1.835,1.835,0,0,0,.578,1.162,1.746,1.746,0,0,0,1.22.438,2.132,2.132,0,0,0,1.784-.827l.971,1.087a2.966,2.966,0,0,1-1.2.981A3.947,3.947,0,0,1,218.4,13.137Zm-.226-6.077a1.235,1.235,0,0,0-.954.4,2.062,2.062,0,0,0-.468,1.14H219.5V8.44a1.471,1.471,0,0,0-.355-1.02A1.274,1.274,0,0,0,218.178,7.06Zm4.081,2.188a4.457,4.457,0,0,1,.776-2.755,2.517,2.517,0,0,1,2.123-1.025,2.265,2.265,0,0,1,1.784.807V2.5h1.982V13H227.14l-.1-.786a2.325,2.325,0,0,1-1.9.923,2.511,2.511,0,0,1-2.1-1.029A4.6,4.6,0,0,1,222.259,9.247Zm1.976.141a2.936,2.936,0,0,0,.362,1.6,1.179,1.179,0,0,0,1.053.556,1.321,1.321,0,0,0,1.292-.776V7.836a1.3,1.3,0,0,0-1.278-.776Q224.234,7.06,224.234,9.388ZM232.54,13h-1.982V5.6h1.982Zm-2.1-9.311a.973.973,0,0,1,.3-.731,1.281,1.281,0,0,1,1.617,0,.967.967,0,0,1,.3.731.97.97,0,0,1-.3.738,1.267,1.267,0,0,1-1.606,0A.97.97,0,0,1,230.441,3.689Zm6.8,7.854a1.3,1.3,0,0,0,.889-.3,1.054,1.054,0,0,0,.355-.8h1.853a2.534,2.534,0,0,1-.41,1.377,2.706,2.706,0,0,1-1.1.971,3.455,3.455,0,0,1-1.548.345,3.211,3.211,0,0,1-2.5-1.008,3.99,3.99,0,0,1-.916-2.786v-.13a3.944,3.944,0,0,1,.909-2.728,3.174,3.174,0,0,1,2.5-1.019,3.111,3.111,0,0,1,2.225.79,2.8,2.8,0,0,1,.851,2.1h-1.853a1.358,1.358,0,0,0-.355-.938,1.321,1.321,0,0,0-1.945.142,2.916,2.916,0,0,0-.352,1.633V9.4a2.953,2.953,0,0,0,.349,1.643A1.2,1.2,0,0,0,237.243,11.544ZM243.553,13H241.57V5.6h1.982Zm-2.1-9.311a.973.973,0,0,1,.3-.731,1.281,1.281,0,0,1,1.617,0,.967.967,0,0,1,.3.731.97.97,0,0,1-.3.738,1.267,1.267,0,0,1-1.606,0A.97.97,0,0,1,241.454,3.689Zm3.418,5.544a4.387,4.387,0,0,1,.424-1.962,3.1,3.1,0,0,1,1.22-1.333,3.56,3.56,0,0,1,1.849-.472,3.368,3.368,0,0,1,2.444.916,3.676,3.676,0,0,1,1.056,2.488l.014.506a3.866,3.866,0,0,1-.95,2.731,3.683,3.683,0,0,1-5.1,0,3.934,3.934,0,0,1-.954-2.789Zm1.976.14a2.765,2.765,0,0,0,.4,1.612,1.424,1.424,0,0,0,2.256.007,3.025,3.025,0,0,0,.4-1.763,2.737,2.737,0,0,0-.4-1.6,1.311,1.311,0,0,0-1.135-.568,1.29,1.29,0,0,0-1.121.565A3.076,3.076,0,0,0,246.848,9.374ZM248.755,2.5h2.153l-1.894,2.119h-1.606Zm6.159,3.1.062.854a2.582,2.582,0,0,1,2.126-.991,2.146,2.146,0,0,1,1.75.69,3.221,3.221,0,0,1,.588,2.064V13h-1.976V8.259a1.287,1.287,0,0,0-.273-.915,1.222,1.222,0,0,0-.909-.284,1.359,1.359,0,0,0-1.251.713V13h-1.976V5.6Z" transform="translate(632 12048)" fill="#12263f"/>
    <path id="Trazado_731618" data-name="Trazado 731618" d="M18.629,10.949h-3.6L14.35,13H12.169l3.705-9.953h1.9L21.5,13H19.319ZM15.587,9.288h2.488L16.824,5.563ZM24.385,13H22.4V2.5h1.982Zm3.992-9.215V5.6h1.265V7.053H28.377v3.691a.881.881,0,0,0,.157.588.79.79,0,0,0,.6.178,3.15,3.15,0,0,0,.581-.048v1.5a4.067,4.067,0,0,1-1.2.178,1.886,1.886,0,0,1-2.119-2.1V7.053h-1.08V5.6H26.4V3.785Zm6.795,8.463a2.477,2.477,0,0,1-2.023.889,2.337,2.337,0,0,1-1.815-.684,2.918,2.918,0,0,1-.639-2V5.6H32.67v4.784q0,1.157,1.053,1.157a1.426,1.426,0,0,0,1.381-.7V5.6h1.982V13H35.227Zm7.561-4.792a5.367,5.367,0,0,0-.711-.055,1.447,1.447,0,0,0-1.47.759V13H38.576V5.6h1.866l.055.882a1.831,1.831,0,0,1,1.647-1.019,2.07,2.07,0,0,1,.615.089ZM47.764,13a2.194,2.194,0,0,1-.2-.663,2.39,2.39,0,0,1-1.866.8,2.626,2.626,0,0,1-1.8-.629,2.023,2.023,0,0,1-.714-1.586,2.09,2.09,0,0,1,.872-1.8,4.3,4.3,0,0,1,2.519-.636h.909V8.058a1.219,1.219,0,0,0-.263-.82,1.035,1.035,0,0,0-.831-.308,1.177,1.177,0,0,0-.783.239.813.813,0,0,0-.284.656H43.348a1.984,1.984,0,0,1,.4-1.189,2.621,2.621,0,0,1,1.121-.858,4.086,4.086,0,0,1,1.627-.311,3.228,3.228,0,0,1,2.17.687,2.4,2.4,0,0,1,.8,1.931v3.206a3.536,3.536,0,0,0,.294,1.593V13ZM46.13,11.626a1.7,1.7,0,0,0,.807-.195,1.28,1.28,0,0,0,.547-.523V9.637h-.738q-1.483,0-1.579,1.025l-.007.116a.791.791,0,0,0,.26.608A1.009,1.009,0,0,0,46.13,11.626Zm8.032-2.379a4.457,4.457,0,0,1,.776-2.755,2.517,2.517,0,0,1,2.123-1.025,2.265,2.265,0,0,1,1.784.807V2.5h1.982V13H59.043l-.1-.786a2.325,2.325,0,0,1-1.9.923,2.511,2.511,0,0,1-2.1-1.029A4.6,4.6,0,0,1,54.162,9.247Zm1.976.141a2.936,2.936,0,0,0,.362,1.6,1.179,1.179,0,0,0,1.053.556,1.321,1.321,0,0,0,1.292-.776V7.836a1.3,1.3,0,0,0-1.278-.776Q56.138,7.06,56.138,9.388Zm9.625,3.749a3.631,3.631,0,0,1-2.649-1,3.548,3.548,0,0,1-1.022-2.659V9.288A4.468,4.468,0,0,1,62.522,7.3a3.161,3.161,0,0,1,1.22-1.354,3.425,3.425,0,0,1,1.8-.475,3.07,3.07,0,0,1,2.389.957A3.889,3.889,0,0,1,68.8,9.138v.807h-4.71a1.835,1.835,0,0,0,.578,1.162,1.746,1.746,0,0,0,1.22.438,2.132,2.132,0,0,0,1.784-.827l.971,1.087a2.966,2.966,0,0,1-1.2.981A3.947,3.947,0,0,1,65.763,13.137ZM65.537,7.06a1.234,1.234,0,0,0-.954.4,2.062,2.062,0,0,0-.468,1.14h2.748V8.44a1.471,1.471,0,0,0-.355-1.02A1.274,1.274,0,0,0,65.537,7.06ZM72.011,13H70.028V2.5h1.982ZM13.232,23.956a.637.637,0,0,0-.359-.571,4.077,4.077,0,0,0-1.152-.373q-2.639-.554-2.639-2.242A2.032,2.032,0,0,1,9.9,19.126a3.3,3.3,0,0,1,2.136-.66,3.547,3.547,0,0,1,2.252.663,2.09,2.09,0,0,1,.844,1.723H13.157a.956.956,0,0,0-.273-.7,1.157,1.157,0,0,0-.854-.277,1.182,1.182,0,0,0-.772.226.712.712,0,0,0-.273.574.609.609,0,0,0,.311.53,3.2,3.2,0,0,0,1.049.349,8.571,8.571,0,0,1,1.244.332,2.044,2.044,0,0,1,1.565,1.989,1.929,1.929,0,0,1-.868,1.637,3.745,3.745,0,0,1-2.242.625,3.912,3.912,0,0,1-1.651-.332A2.77,2.77,0,0,1,9.26,24.9a2.113,2.113,0,0,1-.41-1.248h1.873a1.031,1.031,0,0,0,.39.807,1.546,1.546,0,0,0,.971.28,1.43,1.43,0,0,0,.858-.215A.67.67,0,0,0,13.232,23.956Zm2.885-1.723a4.387,4.387,0,0,1,.424-1.962,3.1,3.1,0,0,1,1.22-1.333,3.56,3.56,0,0,1,1.849-.472,3.368,3.368,0,0,1,2.444.916,3.676,3.676,0,0,1,1.056,2.488l.014.506a3.866,3.866,0,0,1-.95,2.731,3.3,3.3,0,0,1-2.55,1.029,3.319,3.319,0,0,1-2.553-1.025,3.934,3.934,0,0,1-.954-2.789Zm1.976.14a2.765,2.765,0,0,0,.4,1.612,1.424,1.424,0,0,0,2.256.007,3.025,3.025,0,0,0,.4-1.763,2.737,2.737,0,0,0-.4-1.6,1.311,1.311,0,0,0-1.135-.568,1.29,1.29,0,0,0-1.121.565A3.076,3.076,0,0,0,18.092,22.374Zm8.066-3.77.062.854a2.582,2.582,0,0,1,2.126-.991,2.146,2.146,0,0,1,1.75.69,3.221,3.221,0,0,1,.588,2.064V26H28.708V21.259a1.287,1.287,0,0,0-.273-.915,1.222,1.222,0,0,0-.909-.284,1.359,1.359,0,0,0-1.251.713V26H24.3V18.6Zm5.715,3.63a4.387,4.387,0,0,1,.424-1.962,3.1,3.1,0,0,1,1.22-1.333,3.56,3.56,0,0,1,1.849-.472,3.368,3.368,0,0,1,2.444.916,3.676,3.676,0,0,1,1.056,2.488l.014.506a3.866,3.866,0,0,1-.95,2.731,3.683,3.683,0,0,1-5.1,0,3.934,3.934,0,0,1-.954-2.789Zm1.976.14a2.765,2.765,0,0,0,.4,1.612,1.424,1.424,0,0,0,2.256.007,3.025,3.025,0,0,0,.4-1.763,2.737,2.737,0,0,0-.4-1.6,1.311,1.311,0,0,0-1.135-.568,1.29,1.29,0,0,0-1.121.565A3.076,3.076,0,0,0,33.849,22.374ZM35.756,15.5H37.91l-1.894,2.119H34.41Zm6.193,3.1.062.827a2.6,2.6,0,0,1,2.126-.964A1.973,1.973,0,0,1,46.1,19.595a2.54,2.54,0,0,1,2.222-1.128,2.206,2.206,0,0,1,1.791.7,3.221,3.221,0,0,1,.588,2.109V26H48.717V21.272a1.414,1.414,0,0,0-.246-.922,1.089,1.089,0,0,0-.868-.291,1.233,1.233,0,0,0-1.23.85L46.379,26H44.4V21.279a1.4,1.4,0,0,0-.253-.932,1.1,1.1,0,0,0-.861-.288,1.28,1.28,0,0,0-1.217.7V26H40.1V18.6Zm13.672,7.533a3.631,3.631,0,0,1-2.649-1,3.548,3.548,0,0,1-1.022-2.659v-.191a4.468,4.468,0,0,1,.431-1.993,3.161,3.161,0,0,1,1.22-1.354,3.425,3.425,0,0,1,1.8-.475,3.07,3.07,0,0,1,2.389.957,3.889,3.889,0,0,1,.872,2.714v.807h-4.71a1.835,1.835,0,0,0,.578,1.162,1.746,1.746,0,0,0,1.22.438,2.132,2.132,0,0,0,1.784-.827l.971,1.087a2.966,2.966,0,0,1-1.2.981A3.947,3.947,0,0,1,55.622,26.137ZM55.4,20.06a1.234,1.234,0,0,0-.954.4,2.062,2.062,0,0,0-.468,1.14h2.748V21.44a1.471,1.471,0,0,0-.355-1.02A1.274,1.274,0,0,0,55.4,20.06Zm6.754-3.274V18.6h1.265v1.449H62.15v3.691a.881.881,0,0,0,.157.588.79.79,0,0,0,.6.178,3.151,3.151,0,0,0,.581-.048v1.5a4.067,4.067,0,0,1-1.2.178,1.886,1.886,0,0,1-2.119-2.1V20.053h-1.08V18.6h1.08V16.785Zm6.521,3.671a5.367,5.367,0,0,0-.711-.055,1.447,1.447,0,0,0-1.47.759V26H64.515V18.6h1.866l.055.882a1.831,1.831,0,0,1,1.647-1.019,2.07,2.07,0,0,1,.615.089Zm.4,1.777a4.387,4.387,0,0,1,.424-1.962,3.1,3.1,0,0,1,1.22-1.333,3.56,3.56,0,0,1,1.849-.472A3.368,3.368,0,0,1,75,19.383a3.676,3.676,0,0,1,1.056,2.488l.014.506a3.866,3.866,0,0,1-.95,2.731,3.683,3.683,0,0,1-5.1,0,3.934,3.934,0,0,1-.954-2.789Zm1.976.14a2.765,2.765,0,0,0,.4,1.612,1.424,1.424,0,0,0,2.256.007,3.025,3.025,0,0,0,.4-1.763,2.737,2.737,0,0,0-.4-1.6,1.311,1.311,0,0,0-1.135-.568,1.29,1.29,0,0,0-1.121.565A3.076,3.076,0,0,0,71.043,22.374Z" transform="translate(949 12222)" fill="#12263f"/>
    <path id="Trazado_731619" data-name="Trazado 731619" d="M16.914,13V3.047h3.063a4.651,4.651,0,0,1,2.348.591A4.123,4.123,0,0,1,23.941,5.32,5.187,5.187,0,0,1,24.522,7.8v.458a5.2,5.2,0,0,1-.571,2.468,4.088,4.088,0,0,1-1.61,1.675A4.686,4.686,0,0,1,20,13Zm2.051-8.292v6.645h.991a2.227,2.227,0,0,0,1.839-.786,3.552,3.552,0,0,0,.649-2.249V7.791a3.609,3.609,0,0,0-.629-2.3,2.219,2.219,0,0,0-1.839-.783Zm9,8.292H25.985V5.6h1.982Zm-2.1-9.311a.973.973,0,0,1,.3-.731,1.281,1.281,0,0,1,1.617,0,.967.967,0,0,1,.3.731.97.97,0,0,1-.3.738,1.267,1.267,0,0,1-1.606,0A.97.97,0,0,1,25.869,3.689ZM33.6,10.956a.637.637,0,0,0-.359-.571,4.077,4.077,0,0,0-1.152-.373q-2.639-.554-2.639-2.242a2.032,2.032,0,0,1,.817-1.644,3.3,3.3,0,0,1,2.136-.66,3.547,3.547,0,0,1,2.252.663A2.09,2.09,0,0,1,35.5,7.853H33.525a.956.956,0,0,0-.273-.7,1.157,1.157,0,0,0-.854-.277,1.182,1.182,0,0,0-.772.226.712.712,0,0,0-.273.574.609.609,0,0,0,.311.53,3.2,3.2,0,0,0,1.049.349,8.571,8.571,0,0,1,1.244.332,2.044,2.044,0,0,1,1.565,1.989,1.929,1.929,0,0,1-.868,1.637,3.745,3.745,0,0,1-2.242.625,3.912,3.912,0,0,1-1.651-.332,2.77,2.77,0,0,1-1.131-.909,2.113,2.113,0,0,1-.41-1.248h1.873a1.031,1.031,0,0,0,.39.807,1.546,1.546,0,0,0,.971.28,1.43,1.43,0,0,0,.858-.215A.67.67,0,0,0,33.6,10.956Zm5.558-7.171V5.6h1.265V7.053H39.158v3.691a.881.881,0,0,0,.157.588.79.79,0,0,0,.6.178,3.15,3.15,0,0,0,.581-.048v1.5a4.067,4.067,0,0,1-1.2.178,1.886,1.886,0,0,1-2.119-2.1V7.053H36.1V5.6h1.08V3.785ZM45.809,13a2.194,2.194,0,0,1-.2-.663,2.39,2.39,0,0,1-1.866.8,2.626,2.626,0,0,1-1.8-.629,2.023,2.023,0,0,1-.714-1.586,2.09,2.09,0,0,1,.872-1.8,4.3,4.3,0,0,1,2.519-.636h.909V8.058a1.219,1.219,0,0,0-.263-.82,1.035,1.035,0,0,0-.831-.308,1.177,1.177,0,0,0-.783.239.813.813,0,0,0-.284.656H41.393a1.984,1.984,0,0,1,.4-1.189,2.621,2.621,0,0,1,1.121-.858,4.086,4.086,0,0,1,1.627-.311,3.228,3.228,0,0,1,2.17.687,2.4,2.4,0,0,1,.8,1.931v3.206a3.536,3.536,0,0,0,.294,1.593V13Zm-1.634-1.374a1.7,1.7,0,0,0,.807-.195,1.28,1.28,0,0,0,.547-.523V9.637h-.738q-1.483,0-1.579,1.025l-.007.116a.791.791,0,0,0,.26.608A1.009,1.009,0,0,0,44.175,11.626ZM50.847,5.6l.062.854a2.582,2.582,0,0,1,2.126-.991,2.146,2.146,0,0,1,1.75.69,3.221,3.221,0,0,1,.588,2.064V13H53.4V8.259a1.287,1.287,0,0,0-.273-.915,1.222,1.222,0,0,0-.909-.284,1.359,1.359,0,0,0-1.251.713V13H48.988V5.6Zm9.1,5.94a1.3,1.3,0,0,0,.889-.3,1.054,1.054,0,0,0,.355-.8h1.853a2.534,2.534,0,0,1-.41,1.377,2.706,2.706,0,0,1-1.1.971,3.455,3.455,0,0,1-1.548.345,3.211,3.211,0,0,1-2.5-1.008,3.99,3.99,0,0,1-.916-2.786v-.13a3.944,3.944,0,0,1,.909-2.728,3.174,3.174,0,0,1,2.5-1.019,3.111,3.111,0,0,1,2.225.79,2.8,2.8,0,0,1,.851,2.1H61.19a1.358,1.358,0,0,0-.355-.938,1.321,1.321,0,0,0-1.945.142A2.916,2.916,0,0,0,58.538,9.2V9.4a2.953,2.953,0,0,0,.349,1.643A1.2,1.2,0,0,0,59.946,11.544ZM66.255,13H64.273V5.6h1.982Zm-2.1-9.311a.973.973,0,0,1,.3-.731,1.281,1.281,0,0,1,1.617,0,.967.967,0,0,1,.3.731.97.97,0,0,1-.3.738,1.267,1.267,0,0,1-1.606,0A.97.97,0,0,1,64.157,3.689ZM72.168,13a2.194,2.194,0,0,1-.2-.663,2.39,2.39,0,0,1-1.866.8,2.626,2.626,0,0,1-1.8-.629,2.023,2.023,0,0,1-.714-1.586,2.09,2.09,0,0,1,.872-1.8,4.3,4.3,0,0,1,2.519-.636h.909V8.058a1.219,1.219,0,0,0-.263-.82,1.035,1.035,0,0,0-.831-.308,1.177,1.177,0,0,0-.783.239.813.813,0,0,0-.284.656H67.752a1.985,1.985,0,0,1,.4-1.189,2.621,2.621,0,0,1,1.121-.858A4.086,4.086,0,0,1,70.9,5.467a3.228,3.228,0,0,1,2.17.687,2.4,2.4,0,0,1,.8,1.931v3.206a3.536,3.536,0,0,0,.294,1.593V13Zm-1.634-1.374a1.7,1.7,0,0,0,.807-.195,1.28,1.28,0,0,0,.547-.523V9.637H71.15q-1.483,0-1.579,1.025l-.007.116a.791.791,0,0,0,.26.608A1.009,1.009,0,0,0,70.535,11.626Zm8.032-2.379a4.457,4.457,0,0,1,.776-2.755,2.517,2.517,0,0,1,2.123-1.025,2.265,2.265,0,0,1,1.784.807V2.5h1.982V13H83.448l-.1-.786a2.325,2.325,0,0,1-1.9.923,2.511,2.511,0,0,1-2.1-1.029A4.6,4.6,0,0,1,78.567,9.247Zm1.976.141a2.936,2.936,0,0,0,.362,1.6,1.179,1.179,0,0,0,1.053.556,1.321,1.321,0,0,0,1.292-.776V7.836a1.3,1.3,0,0,0-1.278-.776Q80.542,7.06,80.542,9.388Zm9.625,3.749a3.631,3.631,0,0,1-2.649-1A3.548,3.548,0,0,1,86.5,9.479V9.288A4.468,4.468,0,0,1,86.927,7.3a3.161,3.161,0,0,1,1.22-1.354,3.425,3.425,0,0,1,1.8-.475,3.07,3.07,0,0,1,2.389.957,3.889,3.889,0,0,1,.872,2.714v.807H88.5a1.835,1.835,0,0,0,.578,1.162,1.746,1.746,0,0,0,1.22.438,2.132,2.132,0,0,0,1.784-.827l.971,1.087a2.966,2.966,0,0,1-1.2.981A3.947,3.947,0,0,1,90.167,13.137ZM89.942,7.06a1.234,1.234,0,0,0-.954.4A2.062,2.062,0,0,0,88.52,8.6h2.748V8.44a1.471,1.471,0,0,0-.355-1.02A1.274,1.274,0,0,0,89.942,7.06Zm8.395,3.9a.637.637,0,0,0-.359-.571,4.077,4.077,0,0,0-1.152-.373q-2.639-.554-2.639-2.242A2.032,2.032,0,0,1,95,6.126a3.3,3.3,0,0,1,2.136-.66,3.547,3.547,0,0,1,2.252.663,2.09,2.09,0,0,1,.844,1.723H98.261a.956.956,0,0,0-.273-.7,1.157,1.157,0,0,0-.854-.277,1.182,1.182,0,0,0-.772.226.712.712,0,0,0-.273.574.609.609,0,0,0,.311.53,3.2,3.2,0,0,0,1.049.349,8.571,8.571,0,0,1,1.244.332,2.044,2.044,0,0,1,1.565,1.989,1.929,1.929,0,0,1-.868,1.637,3.745,3.745,0,0,1-2.242.625,3.912,3.912,0,0,1-1.651-.332,2.77,2.77,0,0,1-1.131-.909,2.113,2.113,0,0,1-.41-1.248h1.873a1.031,1.031,0,0,0,.39.807,1.546,1.546,0,0,0,.971.28,1.43,1.43,0,0,0,.858-.215A.67.67,0,0,0,98.336,10.956Zm2.885-1.709A4.457,4.457,0,0,1,102,6.492a2.517,2.517,0,0,1,2.123-1.025,2.265,2.265,0,0,1,1.784.807V2.5h1.982V13H106.1l-.1-.786a2.325,2.325,0,0,1-1.9.923,2.511,2.511,0,0,1-2.1-1.029A4.6,4.6,0,0,1,101.221,9.247Zm1.976.141a2.936,2.936,0,0,0,.362,1.6,1.179,1.179,0,0,0,1.053.556,1.321,1.321,0,0,0,1.292-.776V7.836a1.3,1.3,0,0,0-1.278-.776Q103.2,7.06,103.2,9.388Zm9.625,3.749a3.631,3.631,0,0,1-2.649-1,3.548,3.548,0,0,1-1.022-2.659V9.288a4.468,4.468,0,0,1,.431-1.993,3.161,3.161,0,0,1,1.22-1.354,3.425,3.425,0,0,1,1.8-.475,3.07,3.07,0,0,1,2.389.957,3.889,3.889,0,0,1,.872,2.714v.807h-4.71a1.835,1.835,0,0,0,.578,1.162,1.746,1.746,0,0,0,1.22.438,2.132,2.132,0,0,0,1.784-.827l.971,1.087a2.966,2.966,0,0,1-1.2.981A3.947,3.947,0,0,1,112.822,13.137ZM112.6,7.06a1.234,1.234,0,0,0-.954.4,2.062,2.062,0,0,0-.468,1.14h2.748V8.44a1.471,1.471,0,0,0-.355-1.02A1.274,1.274,0,0,0,112.6,7.06Zm9.96,5.94h-1.982V2.5h1.982Zm5.913,0a2.194,2.194,0,0,1-.2-.663,2.39,2.39,0,0,1-1.866.8,2.626,2.626,0,0,1-1.8-.629,2.023,2.023,0,0,1-.714-1.586,2.09,2.09,0,0,1,.872-1.8,4.3,4.3,0,0,1,2.519-.636h.909V8.058a1.219,1.219,0,0,0-.263-.82,1.035,1.035,0,0,0-.831-.308,1.177,1.177,0,0,0-.783.239.813.813,0,0,0-.284.656h-1.976a1.985,1.985,0,0,1,.4-1.189,2.621,2.621,0,0,1,1.121-.858,4.086,4.086,0,0,1,1.627-.311,3.228,3.228,0,0,1,2.17.687,2.4,2.4,0,0,1,.8,1.931v3.206a3.536,3.536,0,0,0,.294,1.593V13Zm-1.634-1.374a1.7,1.7,0,0,0,.807-.195,1.28,1.28,0,0,0,.547-.523V9.637h-.738q-1.483,0-1.579,1.025l-.007.116a.791.791,0,0,0,.26.608A1.009,1.009,0,0,0,126.835,11.626ZM135.715,13V7.053h-1.1V5.6h1.1V4.975a2.553,2.553,0,0,1,.714-1.931,2.767,2.767,0,0,1,2-.687,4.656,4.656,0,0,1,1,.136l-.021,1.519a2.519,2.519,0,0,0-.6-.062Q137.7,3.949,137.7,5v.6h1.47V7.053H137.7V13Zm8.764,0a2.194,2.194,0,0,1-.2-.663,2.39,2.39,0,0,1-1.866.8,2.626,2.626,0,0,1-1.8-.629,2.023,2.023,0,0,1-.714-1.586,2.09,2.09,0,0,1,.872-1.8,4.3,4.3,0,0,1,2.519-.636h.909V8.058a1.219,1.219,0,0,0-.263-.82,1.035,1.035,0,0,0-.831-.308,1.177,1.177,0,0,0-.783.239.813.813,0,0,0-.284.656h-1.976a1.984,1.984,0,0,1,.4-1.189,2.621,2.621,0,0,1,1.121-.858,4.086,4.086,0,0,1,1.627-.311,3.228,3.228,0,0,1,2.17.687,2.4,2.4,0,0,1,.8,1.931v3.206a3.536,3.536,0,0,0,.294,1.593V13Zm-1.634-1.374a1.7,1.7,0,0,0,.807-.195,1.28,1.28,0,0,0,.547-.523V9.637h-.738q-1.483,0-1.579,1.025l-.007.116a.791.791,0,0,0,.26.608A1.009,1.009,0,0,0,142.845,11.626Zm7.93-.082a1.3,1.3,0,0,0,.889-.3,1.054,1.054,0,0,0,.355-.8h1.853a2.534,2.534,0,0,1-.41,1.377,2.706,2.706,0,0,1-1.1.971,3.455,3.455,0,0,1-1.548.345,3.211,3.211,0,0,1-2.5-1.008,3.99,3.99,0,0,1-.916-2.786v-.13a3.944,3.944,0,0,1,.909-2.728,3.174,3.174,0,0,1,2.5-1.019,3.111,3.111,0,0,1,2.225.79,2.8,2.8,0,0,1,.851,2.1h-1.853a1.358,1.358,0,0,0-.355-.938,1.321,1.321,0,0,0-1.945.142,2.916,2.916,0,0,0-.352,1.633V9.4a2.953,2.953,0,0,0,.349,1.643A1.2,1.2,0,0,0,150.775,11.544Zm6.152-5.134a2.466,2.466,0,0,1,1.976-.943q2.406,0,2.44,2.8V13h-1.976V8.307a1.38,1.38,0,0,0-.273-.942,1.171,1.171,0,0,0-.909-.3,1.344,1.344,0,0,0-1.258.671V13h-1.976V2.5h1.976ZM167.12,13a2.194,2.194,0,0,1-.2-.663,2.39,2.39,0,0,1-1.866.8,2.626,2.626,0,0,1-1.8-.629,2.023,2.023,0,0,1-.714-1.586,2.09,2.09,0,0,1,.872-1.8,4.3,4.3,0,0,1,2.519-.636h.909V8.058a1.219,1.219,0,0,0-.263-.82,1.035,1.035,0,0,0-.831-.308,1.177,1.177,0,0,0-.783.239.813.813,0,0,0-.284.656H162.7a1.984,1.984,0,0,1,.4-1.189,2.621,2.621,0,0,1,1.121-.858,4.086,4.086,0,0,1,1.627-.311,3.228,3.228,0,0,1,2.17.687,2.4,2.4,0,0,1,.8,1.931v3.206a3.536,3.536,0,0,0,.294,1.593V13Zm-1.634-1.374a1.7,1.7,0,0,0,.807-.195,1.28,1.28,0,0,0,.547-.523V9.637H166.1q-1.483,0-1.579,1.025l-.007.116a.791.791,0,0,0,.26.608A1.009,1.009,0,0,0,165.486,11.626Zm4.546-2.379a4.457,4.457,0,0,1,.776-2.755,2.517,2.517,0,0,1,2.123-1.025,2.265,2.265,0,0,1,1.784.807V2.5H176.7V13h-1.784l-.1-.786a2.325,2.325,0,0,1-1.9.923,2.511,2.511,0,0,1-2.1-1.029A4.6,4.6,0,0,1,170.032,9.247Zm1.976.141a2.936,2.936,0,0,0,.362,1.6,1.179,1.179,0,0,0,1.053.556,1.321,1.321,0,0,0,1.292-.776V7.836a1.3,1.3,0,0,0-1.278-.776Q172.007,7.06,172.007,9.388ZM182.514,13a2.194,2.194,0,0,1-.2-.663,2.39,2.39,0,0,1-1.866.8,2.626,2.626,0,0,1-1.8-.629,2.023,2.023,0,0,1-.714-1.586,2.09,2.09,0,0,1,.872-1.8,4.3,4.3,0,0,1,2.519-.636h.909V8.058a1.219,1.219,0,0,0-.263-.82,1.035,1.035,0,0,0-.831-.308,1.177,1.177,0,0,0-.783.239.813.813,0,0,0-.284.656H178.1a1.984,1.984,0,0,1,.4-1.189,2.621,2.621,0,0,1,1.121-.858,4.086,4.086,0,0,1,1.627-.311,3.228,3.228,0,0,1,2.17.687,2.4,2.4,0,0,1,.8,1.931v3.206a3.536,3.536,0,0,0,.294,1.593V13Zm-1.634-1.374a1.7,1.7,0,0,0,.807-.195,1.28,1.28,0,0,0,.547-.523V9.637H181.5q-1.483,0-1.579,1.025l-.007.116a.791.791,0,0,0,.26.608A1.009,1.009,0,0,0,180.88,11.626Z" transform="translate(548 12316)" fill="#12263f"/>
    <path id="Trazado_731620" data-name="Trazado 731620" d="M7.388,8.933H3.45V13H1.4V3.047H7.88V4.708H3.45v2.57H7.388ZM12.993,13a2.194,2.194,0,0,1-.2-.663,2.39,2.39,0,0,1-1.866.8,2.626,2.626,0,0,1-1.8-.629,2.023,2.023,0,0,1-.714-1.586,2.09,2.09,0,0,1,.872-1.8A4.3,4.3,0,0,1,11.8,8.481h.909V8.058a1.219,1.219,0,0,0-.263-.82,1.035,1.035,0,0,0-.831-.308,1.177,1.177,0,0,0-.783.239.813.813,0,0,0-.284.656H8.577a1.984,1.984,0,0,1,.4-1.189,2.621,2.621,0,0,1,1.121-.858,4.086,4.086,0,0,1,1.627-.311,3.228,3.228,0,0,1,2.17.687,2.4,2.4,0,0,1,.8,1.931v3.206a3.536,3.536,0,0,0,.294,1.593V13Zm-1.634-1.374a1.7,1.7,0,0,0,.807-.195,1.28,1.28,0,0,0,.547-.523V9.637h-.738q-1.483,0-1.579,1.025l-.007.116a.791.791,0,0,0,.26.608A1.009,1.009,0,0,0,11.359,11.626Zm7.93-.082a1.3,1.3,0,0,0,.889-.3,1.054,1.054,0,0,0,.355-.8h1.853a2.534,2.534,0,0,1-.41,1.377,2.706,2.706,0,0,1-1.1.971,3.455,3.455,0,0,1-1.548.345,3.211,3.211,0,0,1-2.5-1.008,3.99,3.99,0,0,1-.916-2.786v-.13a3.944,3.944,0,0,1,.909-2.728,3.174,3.174,0,0,1,2.5-1.019,3.111,3.111,0,0,1,2.225.79,2.8,2.8,0,0,1,.851,2.1H20.533a1.358,1.358,0,0,0-.355-.938,1.321,1.321,0,0,0-1.945.142A2.916,2.916,0,0,0,17.881,9.2V9.4a2.953,2.953,0,0,0,.349,1.643A1.2,1.2,0,0,0,19.289,11.544ZM25.441,6.41a2.466,2.466,0,0,1,1.976-.943q2.406,0,2.44,2.8V13H27.882V8.307a1.38,1.38,0,0,0-.273-.942,1.171,1.171,0,0,0-.909-.3,1.344,1.344,0,0,0-1.258.671V13H23.466V2.5h1.976ZM35.634,13a2.194,2.194,0,0,1-.2-.663,2.39,2.39,0,0,1-1.866.8,2.626,2.626,0,0,1-1.8-.629,2.023,2.023,0,0,1-.714-1.586,2.09,2.09,0,0,1,.872-1.8,4.3,4.3,0,0,1,2.519-.636h.909V8.058a1.219,1.219,0,0,0-.263-.82,1.035,1.035,0,0,0-.831-.308,1.177,1.177,0,0,0-.783.239.813.813,0,0,0-.284.656H31.218a1.984,1.984,0,0,1,.4-1.189,2.621,2.621,0,0,1,1.121-.858,4.086,4.086,0,0,1,1.627-.311,3.228,3.228,0,0,1,2.17.687,2.4,2.4,0,0,1,.8,1.931v3.206a3.536,3.536,0,0,0,.294,1.593V13ZM34,11.626a1.7,1.7,0,0,0,.807-.195,1.28,1.28,0,0,0,.547-.523V9.637h-.738q-1.483,0-1.579,1.025l-.007.116a.791.791,0,0,0,.26.608A1.009,1.009,0,0,0,34,11.626Zm4.546-2.379a4.457,4.457,0,0,1,.776-2.755,2.517,2.517,0,0,1,2.123-1.025,2.265,2.265,0,0,1,1.784.807V2.5h1.982V13H43.427l-.1-.786a2.325,2.325,0,0,1-1.9.923,2.511,2.511,0,0,1-2.1-1.029A4.6,4.6,0,0,1,38.546,9.247Zm1.976.141a2.936,2.936,0,0,0,.362,1.6,1.179,1.179,0,0,0,1.053.556,1.321,1.321,0,0,0,1.292-.776V7.836A1.3,1.3,0,0,0,41.95,7.06Q40.521,7.06,40.521,9.388ZM51.028,13a2.194,2.194,0,0,1-.2-.663,2.39,2.39,0,0,1-1.866.8,2.626,2.626,0,0,1-1.8-.629,2.023,2.023,0,0,1-.714-1.586,2.09,2.09,0,0,1,.872-1.8,4.3,4.3,0,0,1,2.519-.636h.909V8.058a1.219,1.219,0,0,0-.263-.82,1.035,1.035,0,0,0-.831-.308,1.177,1.177,0,0,0-.783.239.813.813,0,0,0-.284.656H46.612a1.984,1.984,0,0,1,.4-1.189,2.621,2.621,0,0,1,1.121-.858,4.086,4.086,0,0,1,1.627-.311,3.228,3.228,0,0,1,2.17.687,2.4,2.4,0,0,1,.8,1.931v3.206a3.536,3.536,0,0,0,.294,1.593V13Zm-1.634-1.374a1.7,1.7,0,0,0,.807-.195,1.28,1.28,0,0,0,.547-.523V9.637H50.01q-1.483,0-1.579,1.025l-.007.116a.791.791,0,0,0,.26.608A1.009,1.009,0,0,0,49.395,11.626Z" transform="translate(561 12148)" fill="#12263f"/>
    <g id="Grupo_985292" data-name="Grupo 985292" transform="translate(793.315 12174)">
      <text id="_0.5_m" data-name="0.5 m" transform="translate(23.685 10)" fill="#12263f" font-size="11" font-family="Roboto-Bold, Roboto" font-weight="700"><tspan x="0" y="0">0.5 m</tspan></text>
      <g id="Grupo_985290" data-name="Grupo 985290" transform="translate(54.902 8.495) rotate(-90)">
        <path id="Línea_1642-5" data-name="Línea 1642" d="M1,19.621H0V0H1Z" transform="translate(0.977 0)" fill="#0e494d"/>
        <path id="Polígono_3-5" data-name="Polígono 3" d="M1.477,0,2.954,2.954H0Z" transform="translate(2.954 21.098) rotate(180)" fill="#0e494d"/>
      </g>
      <g id="Grupo_985291" data-name="Grupo 985291" transform="translate(0 8.495) rotate(-90)">
        <path id="Línea_1642-6" data-name="Línea 1642" d="M1,0H0V19.621H1Z" transform="translate(0.977 1.477)" fill="#0e494d"/>
        <path id="Polígono_3-6" data-name="Polígono 3" d="M1.477,0,2.954,2.954H0Z" transform="translate(0 0)" fill="#0e494d"/>
      </g>
    </g>
    <g id="Grupo_985293" data-name="Grupo 985293" transform="translate(566.419 12300.486)">
      <line id="Línea_1638-2" data-name="Línea 1638" y2="12" fill="none" stroke="#badc61" stroke-width="2"/>
      <line id="Línea_1639-2" data-name="Línea 1639" x2="154.847" transform="translate(0 6)" fill="none" stroke="#badc61" stroke-width="2"/>
      <line id="Línea_1640-2" data-name="Línea 1640" y2="11" transform="translate(154.847 1)" fill="none" stroke="#badc61" stroke-width="2"/>
    </g>
    <g id="Grupo_985294" data-name="Grupo 985294" transform="translate(925.692 12303.716) rotate(-90)">
      <line id="Línea_1638-3" data-name="Línea 1638" y2="12" transform="translate(0 0)" fill="none" stroke="#badc61" stroke-width="2"/>
      <line id="Línea_1639-3" data-name="Línea 1639" x2="107.215" transform="translate(0 6)" fill="none" stroke="#badc61" stroke-width="2"/>
      <line id="Línea_1640-3" data-name="Línea 1640" y2="11" transform="translate(107.215 1)" fill="none" stroke="#badc61" stroke-width="2"/>
    </g>
    <g id="Grupo_985295" data-name="Grupo 985295" transform="translate(792.173 12161)">
      <line id="Línea_1638-4" data-name="Línea 1638" y2="12" transform="translate(-0.173)" fill="none" stroke="#badc61" stroke-width="2"/>
      <line id="Línea_1639-4" data-name="Línea 1639" x2="66.155" transform="translate(0 6)" fill="none" stroke="#badc61" stroke-width="2"/>
      <line id="Línea_1640-4" data-name="Línea 1640" y2="11" transform="translate(66.155 1)" fill="none" stroke="#badc61" stroke-width="2"/>
    </g>
  </g>
</svg>
