<svg xmlns="http://www.w3.org/2000/svg" width="715" height="88" viewBox="0 0 715 88">
  <g id="Grupo_985806" data-name="Grupo 985806" transform="translate(-443 -641)">
    <rect id="Rectángulo_345597" data-name="Rectángulo 345597" width="715" height="88" rx="25" transform="translate(443 641)" fill="#fff"/>
    <path id="Trazado_731582" data-name="Trazado 731582" d="M13.286,20.5h8.5v2.92H9.479V4.44h3.806Zm16.854,3.194a6.346,6.346,0,0,1-4.927-1.936,7.094,7.094,0,0,1-1.773-4.986v-.521a7.722,7.722,0,0,1,1.721-5.188,5.849,5.849,0,0,1,4.732-2.007,5.476,5.476,0,0,1,4.36,1.74A6.877,6.877,0,0,1,35.77,15.48v1.968H27.363l-.039.078a3.81,3.81,0,0,0,.88,2.346,2.946,2.946,0,0,0,2.34.9,7.829,7.829,0,0,0,2.17-.261,8.855,8.855,0,0,0,1.844-.8l1.03,2.346a7.065,7.065,0,0,1-2.294,1.16A10.174,10.174,0,0,1,30.139,23.692Zm-.248-11.705a2.114,2.114,0,0,0-1.766.789,3.956,3.956,0,0,0-.749,2.092l.026.065h4.64v-.287a3.294,3.294,0,0,0-.508-1.949A1.88,1.88,0,0,0,29.892,11.987Zm7.508,4.5A9.165,9.165,0,0,1,38.84,11.1,4.677,4.677,0,0,1,42.9,9.054a4.026,4.026,0,0,1,2.059.515,4.616,4.616,0,0,1,1.525,1.479l.352-1.734H50.07V28.841H46.263V22.1A4.2,4.2,0,0,1,44.8,23.288a4.386,4.386,0,0,1-1.923.4,4.769,4.769,0,0,1-4.034-1.9,8.126,8.126,0,0,1-1.44-5.031Zm3.793.274a5.858,5.858,0,0,0,.626,2.933,2.168,2.168,0,0,0,2.033,1.082,3.063,3.063,0,0,0,1.434-.313,2.523,2.523,0,0,0,.978-.912V13.29a2.682,2.682,0,0,0-.971-.965,2.8,2.8,0,0,0-1.414-.339,2.146,2.146,0,0,0-2.04,1.251,7.081,7.081,0,0,0-.645,3.246ZM56.012,31.92a3.7,3.7,0,0,1-2.874-1.129A4.138,4.138,0,0,1,52.1,27.883v-.3a4.5,4.5,0,0,1,1-3.026,3.412,3.412,0,0,1,2.76-1.171A3.194,3.194,0,0,1,58.411,24.4,4.011,4.011,0,0,1,59.3,27.13v1.148h-4.9l-.023.046a2.223,2.223,0,0,0,.513,1.369,1.718,1.718,0,0,0,1.365.525,4.567,4.567,0,0,0,1.266-.152A5.165,5.165,0,0,0,58.59,29.6l.6,1.369a4.121,4.121,0,0,1-1.338.677A5.934,5.934,0,0,1,56.012,31.92Zm-.144-6.828a1.233,1.233,0,0,0-1.03.46,2.307,2.307,0,0,0-.437,1.22l.015.038h2.707v-.167a1.922,1.922,0,0,0-.3-1.137A1.1,1.1,0,0,0,55.868,25.093Zm6.782-1.559.091,1.087a2.764,2.764,0,0,1,.992-.916,2.853,2.853,0,0,1,1.38-.323,2.513,2.513,0,0,1,1.353.35,2.158,2.158,0,0,1,.852,1.057,2.851,2.851,0,0,1,.988-1.034,2.682,2.682,0,0,1,1.429-.373,2.344,2.344,0,0,1,1.92.863,4.12,4.12,0,0,1,.7,2.635v4.881h-2.22V26.872a2.306,2.306,0,0,0-.3-1.376,1.08,1.08,0,0,0-.9-.388,1.55,1.55,0,0,0-.817.209,1.523,1.523,0,0,0-.551.582q0,.144.008.247t.008.209v5.406H65.364V26.872a2.312,2.312,0,0,0-.3-1.365,1.075,1.075,0,0,0-.912-.4,1.722,1.722,0,0,0-.787.171,1.509,1.509,0,0,0-.559.483v6H60.589V23.534ZM76.4,31.761h-2.22V23.534H76.4Zm0-10.2h-2.22V19.9H76.4Zm6.273,7.915a.766.766,0,0,0-.354-.627A3.591,3.591,0,0,0,81,28.392a5.231,5.231,0,0,1-2.194-.874,1.91,1.91,0,0,1-.749-1.589,2.267,2.267,0,0,1,.9-1.8,3.617,3.617,0,0,1,2.387-.745,3.9,3.9,0,0,1,2.5.745,2.177,2.177,0,0,1,.9,1.855l-.015.046H82.585a1.077,1.077,0,0,0-.319-.806,1.493,1.493,0,0,0-1.764-.046.828.828,0,0,0-.312.654.738.738,0,0,0,.323.62,3.6,3.6,0,0,0,1.312.43,5.337,5.337,0,0,1,2.254.893,1.96,1.96,0,0,1,.741,1.623,2.171,2.171,0,0,1-.95,1.817,4.1,4.1,0,0,1-2.509.707,3.813,3.813,0,0,1-2.6-.833,2.328,2.328,0,0,1-.909-1.9l.015-.046H79.9a1.154,1.154,0,0,0,.433.958,1.789,1.789,0,0,0,1.072.3,1.525,1.525,0,0,0,.939-.247A.8.8,0,0,0,82.669,29.48Zm5.915,2.281h-2.22V23.534h2.22Zm0-10.2h-2.22V19.9h2.22Zm1.483,6.007a4.415,4.415,0,0,1,1.026-3.015,3.578,3.578,0,0,1,2.844-1.175A3.616,3.616,0,0,1,96.8,24.553a4.391,4.391,0,0,1,1.034,3.018v.16a4.4,4.4,0,0,1-1.03,3.022,4.066,4.066,0,0,1-5.7,0,4.4,4.4,0,0,1-1.03-3.022Zm2.213.16a3.579,3.579,0,0,0,.4,1.806,1.519,1.519,0,0,0,2.536,0,3.555,3.555,0,0,0,.4-1.8v-.16a3.519,3.519,0,0,0-.4-1.787,1.363,1.363,0,0,0-1.27-.692,1.347,1.347,0,0,0-1.258.7,3.551,3.551,0,0,0-.4,1.783Zm2.106-7.71h2.471l.015.046-2.106,1.977H92.872Zm6.843,3.513.1,1.178a3.009,3.009,0,0,1,1.011-.981,2.625,2.625,0,0,1,1.346-.35,2.446,2.446,0,0,1,1.946.8,3.8,3.8,0,0,1,.7,2.536v5.041H104.1V26.727a1.969,1.969,0,0,0-.308-1.251,1.135,1.135,0,0,0-.924-.369,1.939,1.939,0,0,0-.871.186,1.7,1.7,0,0,0-.62.513v5.953H99.16V23.534Zm26.007-10.061H115.556V10.488h11.679Zm0,5.618H115.556V16.106h11.679ZM146.2,23.418h-3.793V7.75h-3.923V4.844l7.717-.678Zm19.018-6.869a7.438,7.438,0,0,1-1.753,5.24,6.665,6.665,0,0,1-9.326,0,7.421,7.421,0,0,1-1.76-5.24V11.322a7.468,7.468,0,0,1,1.753-5.24,6.624,6.624,0,0,1,9.32,0,7.433,7.433,0,0,1,1.766,5.24Zm-3.793-5.618a4.912,4.912,0,0,0-.7-2.829,2.368,2.368,0,0,0-3.871,0,4.985,4.985,0,0,0-.684,2.829v5.983a5,5,0,0,0,.691,2.861,2.24,2.24,0,0,0,1.955,1,2.2,2.2,0,0,0,1.923-1,5.034,5.034,0,0,0,.684-2.861Zm17.141,12.487H174.76V3.084h3.806Zm2.542-7.182a7.569,7.569,0,0,1,1.76-5.168,6.134,6.134,0,0,1,4.875-2.014,6.2,6.2,0,0,1,4.9,2.007,7.528,7.528,0,0,1,1.773,5.175v.274a7.54,7.54,0,0,1-1.766,5.181,6.971,6.971,0,0,1-9.776,0,7.54,7.54,0,0,1-1.766-5.181Zm3.793.274a6.136,6.136,0,0,0,.678,3.1,2.6,2.6,0,0,0,4.347-.007,6.1,6.1,0,0,0,.684-3.089v-.274a6.033,6.033,0,0,0-.691-3.063,2.337,2.337,0,0,0-2.177-1.186,2.309,2.309,0,0,0-2.157,1.193,6.087,6.087,0,0,0-.684,3.057Zm11.3-.026a9.134,9.134,0,0,1,1.447-5.383,4.694,4.694,0,0,1,4.067-2.046,4,4,0,0,1,2.086.534,4.681,4.681,0,0,1,1.538,1.525l.3-1.8h3.272V23.353a5.242,5.242,0,0,1-1.8,4.256,7.6,7.6,0,0,1-5.018,1.506,9.561,9.561,0,0,1-2.268-.293,10.533,10.533,0,0,1-2.216-.8l.639-2.842a8.735,8.735,0,0,0,1.805.632,8.946,8.946,0,0,0,2.014.215,3.407,3.407,0,0,0,2.3-.652,2.58,2.58,0,0,0,.736-2.033V22.063a4.258,4.258,0,0,1-1.473,1.212,4.342,4.342,0,0,1-1.942.417,4.786,4.786,0,0,1-4.041-1.9,8.1,8.1,0,0,1-1.447-5.031Zm3.806.274a5.8,5.8,0,0,0,.619,2.913,2.163,2.163,0,0,0,2.027,1.062,3.141,3.141,0,0,0,1.479-.319,2.44,2.44,0,0,0,.971-.932V13.368a2.6,2.6,0,0,0-.971-1,2.846,2.846,0,0,0-1.453-.352,2.135,2.135,0,0,0-2.033,1.238,7.058,7.058,0,0,0-.639,3.233ZM218.635,15.7a17.621,17.621,0,0,1,1.981-8.675A9.921,9.921,0,0,1,225.1,2.406h.078l.691,1.9A9.461,9.461,0,0,0,223,8.428a19.35,19.35,0,0,0-1.16,7.247v.339A19.34,19.34,0,0,0,223,23.268a9.774,9.774,0,0,0,2.868,4.152l-.691,1.864H225.1a9.923,9.923,0,0,1-4.484-4.614,17.613,17.613,0,0,1-1.981-8.681Zm18.027,7.717h-3.793V7.75h-3.923V4.844l7.717-.678Zm19.018-6.869a7.438,7.438,0,0,1-1.753,5.24,6.665,6.665,0,0,1-9.326,0,7.421,7.421,0,0,1-1.76-5.24V11.322a7.468,7.468,0,0,1,1.753-5.24,6.624,6.624,0,0,1,9.32,0,7.433,7.433,0,0,1,1.766,5.24Zm-3.793-5.618a4.912,4.912,0,0,0-.7-2.829,2.368,2.368,0,0,0-3.871,0,4.985,4.985,0,0,0-.684,2.829v5.983a5,5,0,0,0,.691,2.861,2.24,2.24,0,0,0,1.955,1,2.2,2.2,0,0,0,1.923-1,5.034,5.034,0,0,0,.684-2.861Zm12.622-.356a10.279,10.279,0,0,1,1.156-5.06,5.787,5.787,0,0,1,2.615-2.7h.046l.4,1.11a5.519,5.519,0,0,0-1.673,2.4,11.287,11.287,0,0,0-.677,4.227v.2a11.281,11.281,0,0,0,.677,4.231,5.7,5.7,0,0,0,1.673,2.422l-.4,1.087h-.046a5.788,5.788,0,0,1-2.615-2.692,10.274,10.274,0,0,1-1.156-5.064Zm7.7,2.8h4.957v1.7h-7.177V4.006h2.22Zm8.652-2.722v4.425h-2.22V4.006h3.832a4.59,4.59,0,0,1,2.961.863A2.921,2.921,0,0,1,286.5,7.275a2.427,2.427,0,0,1-.452,1.471,3.151,3.151,0,0,1-1.319,1,2.382,2.382,0,0,1,1.41.966,3.062,3.062,0,0,1,.43,1.673V13.2a4.025,4.025,0,0,0,.125.969,1.333,1.333,0,0,0,.43.749v.16h-2.289a1.229,1.229,0,0,1-.392-.806,7.081,7.081,0,0,1-.087-1.087V12.4a1.759,1.759,0,0,0-.452-1.289,1.716,1.716,0,0,0-1.281-.46Zm0-1.711h1.574a2.082,2.082,0,0,0,1.391-.4,1.465,1.465,0,0,0,.456-1.171,1.611,1.611,0,0,0-.46-1.209,1.858,1.858,0,0,0-1.35-.449h-1.612Zm13.473,3.748h-3.589L290,15.076h-2.319l3.733-11.07h2.273l3.718,11.07h-2.319Zm-3.041-1.741h2.5l-1.224-3.9h-.046Zm10.576,4.288A3.7,3.7,0,0,1,299,14.107a4.138,4.138,0,0,1-1.034-2.908v-.3a4.5,4.5,0,0,1,1-3.026,3.412,3.412,0,0,1,2.76-1.171,3.194,3.194,0,0,1,2.543,1.015,4.011,4.011,0,0,1,.886,2.733v1.148h-4.9l-.023.046a2.223,2.223,0,0,0,.513,1.369,1.718,1.718,0,0,0,1.365.525,4.567,4.567,0,0,0,1.266-.152,5.166,5.166,0,0,0,1.076-.464l.6,1.369a4.121,4.121,0,0,1-1.338.677A5.935,5.935,0,0,1,301.871,15.236Zm-.144-6.828a1.233,1.233,0,0,0-1.03.46,2.308,2.308,0,0,0-.437,1.22l.015.038h2.707V9.959a1.921,1.921,0,0,0-.3-1.137A1.1,1.1,0,0,0,301.726,8.408Zm4.379,2.623a5.346,5.346,0,0,1,.84-3.14A2.728,2.728,0,0,1,309.314,6.7a2.348,2.348,0,0,1,1.2.3,2.692,2.692,0,0,1,.89.863l.205-1.011H313.5v11.39h-2.22V14.308a2.448,2.448,0,0,1-.855.692,2.558,2.558,0,0,1-1.121.236,2.782,2.782,0,0,1-2.353-1.11,4.74,4.74,0,0,1-.84-2.935Zm2.213.16a3.417,3.417,0,0,0,.365,1.711,1.265,1.265,0,0,0,1.186.631,1.787,1.787,0,0,0,.836-.182,1.471,1.471,0,0,0,.57-.532V9.168a1.564,1.564,0,0,0-.566-.563,1.636,1.636,0,0,0-.825-.2,1.252,1.252,0,0,0-1.19.73,4.13,4.13,0,0,0-.376,1.893Zm9.238,3.786-1.209,2.395h-1.483l.532-2.463V13.175h2.159Zm10.774.1h-2.213V5.937h-2.289v-1.7l4.5-.4Zm5.9-7.185a2.826,2.826,0,0,1,.95-.878,2.74,2.74,0,0,1,3.266.54,3.991,3.991,0,0,1,.734,2.642v4.881h-2.22v-4.9a2.273,2.273,0,0,0-.308-1.357,1.094,1.094,0,0,0-.924-.4,2.21,2.21,0,0,0-.886.163,1.529,1.529,0,0,0-.612.468v6.022h-2.22V3.215h2.22Zm10.348,2.851a10,10,0,0,1-1.205,5.029,5.924,5.924,0,0,1-2.68,2.726h-.046l-.411-1.087A5.636,5.636,0,0,0,341.9,15a11.258,11.258,0,0,0,.684-4.243v-.2a11.165,11.165,0,0,0-.692-4.231A5.824,5.824,0,0,0,340.236,3.9l.411-1.08h.046a5.923,5.923,0,0,1,2.68,2.73,10.008,10.008,0,0,1,1.205,5.026Zm2.9,5.284h-2.159l4.06-12.021h2.159Zm10.272-.95h-2.213V5.937h-2.289v-1.7l4.5-.4Zm11.093-4.007a4.339,4.339,0,0,1-1.023,3.056,3.888,3.888,0,0,1-5.44,0,4.329,4.329,0,0,1-1.026-3.056V8.02a4.356,4.356,0,0,1,1.023-3.056,3.864,3.864,0,0,1,5.436,0,4.336,4.336,0,0,1,1.03,3.056Zm-2.213-3.277a2.865,2.865,0,0,0-.407-1.65,1.381,1.381,0,0,0-2.258,0,2.907,2.907,0,0,0-.4,1.65v3.49a2.915,2.915,0,0,0,.4,1.669,1.307,1.307,0,0,0,1.141.582,1.283,1.283,0,0,0,1.121-.582,2.936,2.936,0,0,0,.4-1.669Zm19.163,8.978h-7.677V13.838h7.677Zm19.07,6.648h-3.793V7.75h-3.923V4.844l7.717-.678Zm19.018-6.869a7.438,7.438,0,0,1-1.753,5.24,6.665,6.665,0,0,1-9.326,0,7.421,7.421,0,0,1-1.76-5.24V11.322a7.468,7.468,0,0,1,1.753-5.24,6.624,6.624,0,0,1,9.32,0,7.433,7.433,0,0,1,1.766,5.24Zm-3.793-5.618a4.912,4.912,0,0,0-.7-2.829,2.368,2.368,0,0,0-3.871,0,4.985,4.985,0,0,0-.684,2.829v5.983a5,5,0,0,0,.691,2.861,2.24,2.24,0,0,0,1.955,1,2.2,2.2,0,0,0,1.923-1,5.034,5.034,0,0,0,.684-2.861Zm12.622-.356a10.278,10.278,0,0,1,1.156-5.06,5.787,5.787,0,0,1,2.615-2.7h.046l.4,1.11a5.518,5.518,0,0,0-1.673,2.4,11.287,11.287,0,0,0-.677,4.227v.2a11.281,11.281,0,0,0,.677,4.231,5.7,5.7,0,0,0,1.673,2.422l-.4,1.087h-.046a5.788,5.788,0,0,1-2.615-2.692,10.273,10.273,0,0,1-1.156-5.064Zm7.7,2.8h4.957v1.7h-7.177V4.006h2.22Zm8.652-2.722v4.425h-2.22V4.006h3.832a4.59,4.59,0,0,1,2.961.863A2.921,2.921,0,0,1,454.7,7.275a2.427,2.427,0,0,1-.452,1.471,3.151,3.151,0,0,1-1.319,1,2.382,2.382,0,0,1,1.41.966,3.061,3.061,0,0,1,.43,1.673V13.2a4.022,4.022,0,0,0,.125.969,1.333,1.333,0,0,0,.43.749v.16h-2.289a1.229,1.229,0,0,1-.392-.806,7.081,7.081,0,0,1-.087-1.087V12.4a1.759,1.759,0,0,0-.452-1.289,1.716,1.716,0,0,0-1.281-.46Zm0-1.711h1.574a2.082,2.082,0,0,0,1.391-.4,1.465,1.465,0,0,0,.456-1.171,1.611,1.611,0,0,0-.46-1.209,1.858,1.858,0,0,0-1.35-.449h-1.612Zm13.473,3.748h-3.589l-.745,2.387h-2.319l3.733-11.07h2.273l3.718,11.07h-2.319Zm-3.041-1.741h2.5l-1.224-3.9h-.046Zm10.576,4.288a3.7,3.7,0,0,1-2.874-1.129A4.138,4.138,0,0,1,466.16,11.2v-.3a4.5,4.5,0,0,1,1-3.026,3.412,3.412,0,0,1,2.76-1.171,3.194,3.194,0,0,1,2.543,1.015,4.012,4.012,0,0,1,.886,2.733v1.148h-4.9l-.023.046a2.222,2.222,0,0,0,.513,1.369,1.718,1.718,0,0,0,1.365.525,4.566,4.566,0,0,0,1.266-.152,5.166,5.166,0,0,0,1.076-.464l.6,1.369a4.121,4.121,0,0,1-1.338.677A5.934,5.934,0,0,1,470.068,15.236Zm-.144-6.828a1.233,1.233,0,0,0-1.03.46,2.307,2.307,0,0,0-.437,1.22l.015.038h2.707V9.959a1.921,1.921,0,0,0-.3-1.137A1.1,1.1,0,0,0,469.924,8.408Zm4.379,2.623a5.346,5.346,0,0,1,.84-3.14A2.728,2.728,0,0,1,477.512,6.7a2.348,2.348,0,0,1,1.2.3,2.692,2.692,0,0,1,.89.863l.205-1.011h1.886v11.39h-2.22V14.308a2.448,2.448,0,0,1-.855.692,2.558,2.558,0,0,1-1.122.236,2.782,2.782,0,0,1-2.353-1.11,4.74,4.74,0,0,1-.84-2.935Zm2.212.16a3.417,3.417,0,0,0,.365,1.711,1.265,1.265,0,0,0,1.186.631,1.787,1.787,0,0,0,.836-.182,1.472,1.472,0,0,0,.57-.532V9.168a1.565,1.565,0,0,0-.566-.563,1.636,1.636,0,0,0-.825-.2,1.252,1.252,0,0,0-1.19.73,4.13,4.13,0,0,0-.376,1.893Zm9.238,3.786-1.209,2.395h-1.483l.532-2.463V13.175h2.159Zm10.774.1h-2.213V5.937h-2.289v-1.7l4.5-.4Zm5.9-7.185a2.826,2.826,0,0,1,.95-.878,2.74,2.74,0,0,1,3.266.54,3.991,3.991,0,0,1,.734,2.642v4.881h-2.22v-4.9a2.273,2.273,0,0,0-.308-1.357,1.094,1.094,0,0,0-.924-.4,2.21,2.21,0,0,0-.886.163,1.529,1.529,0,0,0-.612.468v6.022h-2.22V3.215h2.22Zm8.941,7.086-1.209,2.395h-1.483l.532-2.463V13.175h2.159Zm7.96-4.326v4.425h-2.22V4.006h3.832a4.59,4.59,0,0,1,2.961.863,2.921,2.921,0,0,1,1.068,2.406,2.427,2.427,0,0,1-.452,1.471,3.151,3.151,0,0,1-1.319,1,2.382,2.382,0,0,1,1.41.966,3.061,3.061,0,0,1,.43,1.673V13.2a4.022,4.022,0,0,0,.125.969,1.333,1.333,0,0,0,.43.749v.16h-2.289a1.229,1.229,0,0,1-.392-.806,7.081,7.081,0,0,1-.087-1.087V12.4a1.759,1.759,0,0,0-.452-1.289,1.716,1.716,0,0,0-1.281-.46Zm0-1.711H520.9a2.082,2.082,0,0,0,1.391-.4,1.465,1.465,0,0,0,.456-1.171,1.611,1.611,0,0,0-.46-1.209,1.858,1.858,0,0,0-1.35-.449h-1.612Zm11.1,6.3a3.7,3.7,0,0,1-2.874-1.129,4.138,4.138,0,0,1-1.034-2.908v-.3a4.5,4.5,0,0,1,1-3.026,3.412,3.412,0,0,1,2.76-1.171,3.194,3.194,0,0,1,2.543,1.015,4.011,4.011,0,0,1,.886,2.733v1.148h-4.9l-.023.046a2.223,2.223,0,0,0,.513,1.369,1.719,1.719,0,0,0,1.365.525,4.566,4.566,0,0,0,1.266-.152,5.164,5.164,0,0,0,1.076-.464l.6,1.369a4.121,4.121,0,0,1-1.338.677A5.934,5.934,0,0,1,530.43,15.236Zm-.144-6.828a1.233,1.233,0,0,0-1.03.46,2.307,2.307,0,0,0-.437,1.22l.015.038h2.707V9.959a1.921,1.921,0,0,0-.3-1.137A1.1,1.1,0,0,0,530.285,8.408Zm9.169,4.387a.766.766,0,0,0-.354-.627,3.591,3.591,0,0,0-1.312-.46,5.231,5.231,0,0,1-2.193-.874,1.91,1.91,0,0,1-.749-1.589,2.266,2.266,0,0,1,.9-1.8,3.617,3.617,0,0,1,2.387-.745,3.9,3.9,0,0,1,2.5.745,2.177,2.177,0,0,1,.9,1.855l-.015.046h-2.144a1.077,1.077,0,0,0-.319-.806,1.493,1.493,0,0,0-1.764-.046.828.828,0,0,0-.312.654.738.738,0,0,0,.323.62,3.6,3.6,0,0,0,1.312.43,5.337,5.337,0,0,1,2.254.893,1.96,1.96,0,0,1,.741,1.623,2.171,2.171,0,0,1-.95,1.817,4.1,4.1,0,0,1-2.509.707,3.813,3.813,0,0,1-2.6-.833,2.328,2.328,0,0,1-.909-1.9l.015-.046h2.03a1.154,1.154,0,0,0,.433.958,1.789,1.789,0,0,0,1.072.3,1.525,1.525,0,0,0,.939-.247A.8.8,0,0,0,539.455,12.8Zm5.915,2.281h-2.22V6.849h2.22Zm0-10.2h-2.22V3.215h2.22Zm1.483,6.151a5.346,5.346,0,0,1,.84-3.14A2.728,2.728,0,0,1,550.061,6.7a2.3,2.3,0,0,1,1.11.266,2.67,2.67,0,0,1,.867.76V3.215h2.228V15.076h-1.893l-.19-1.011a2.75,2.75,0,0,1-.92.871,2.432,2.432,0,0,1-1.216.3,2.782,2.782,0,0,1-2.353-1.11,4.74,4.74,0,0,1-.84-2.935Zm2.212.16a3.35,3.35,0,0,0,.365,1.7,1.271,1.271,0,0,0,1.186.62,1.727,1.727,0,0,0,.836-.194,1.546,1.546,0,0,0,.585-.566V9.244a1.708,1.708,0,0,0-.582-.6,1.547,1.547,0,0,0-.825-.217,1.253,1.253,0,0,0-1.19.722,4.082,4.082,0,0,0-.376,1.886Zm11.96,2.669a2.793,2.793,0,0,1-.966,1.019,2.56,2.56,0,0,1-1.361.357,2.5,2.5,0,0,1-2.034-.882,4.231,4.231,0,0,1-.734-2.737V6.849h2.213v4.782a2.656,2.656,0,0,0,.293,1.479,1.052,1.052,0,0,0,.909.4,2.212,2.212,0,0,0,.912-.171,1.539,1.539,0,0,0,.624-.506V6.849h2.22v8.227h-1.84Zm8.6,1.217a4.667,4.667,0,0,1-.209-.593,4.131,4.131,0,0,1-.125-.639,3.042,3.042,0,0,1-.9,1,2.268,2.268,0,0,1-1.338.4,2.778,2.778,0,0,1-1.992-.665,2.384,2.384,0,0,1-.7-1.813,2.169,2.169,0,0,1,.931-1.874A4.651,4.651,0,0,1,568,10.218h1.247V9.564a1.28,1.28,0,0,0-.312-.92,1.223,1.223,0,0,0-.928-.327,1.206,1.206,0,0,0-.833.262.916.916,0,0,0-.293.718H564.75l-.015-.046a2.087,2.087,0,0,1,.909-1.8,3.947,3.947,0,0,1,2.513-.757,3.683,3.683,0,0,1,2.4.745,2.6,2.6,0,0,1,.916,2.136v3.4a6.428,6.428,0,0,0,.087,1.087,5.452,5.452,0,0,0,.278,1.011Zm-2.03-1.483a1.891,1.891,0,0,0,1.034-.289,1.555,1.555,0,0,0,.623-.669V11.472H568a1.478,1.478,0,0,0-1.068.35,1.149,1.149,0,0,0-.361.859.858.858,0,0,0,.27.665A1.068,1.068,0,0,0,567.594,13.593Zm7.877,1.483h-2.22V3.215h2.22Zm5.55-4.334a10,10,0,0,1-1.205,5.029,5.924,5.924,0,0,1-2.68,2.726h-.046l-.411-1.087A5.636,5.636,0,0,0,578.345,15a11.258,11.258,0,0,0,.684-4.243v-.2a11.165,11.165,0,0,0-.692-4.231A5.824,5.824,0,0,0,576.68,3.9l.411-1.08h.046a5.923,5.923,0,0,1,2.68,2.73,10.008,10.008,0,0,1,1.205,5.026Zm2.9,5.284h-2.159l4.06-12.021h2.159Zm10.272-.95h-2.213V5.937h-2.289v-1.7l4.5-.4Zm11.093-4.007a4.339,4.339,0,0,1-1.023,3.056,3.888,3.888,0,0,1-5.44,0,4.329,4.329,0,0,1-1.026-3.056V8.02a4.356,4.356,0,0,1,1.023-3.056,3.864,3.864,0,0,1,5.436,0,4.336,4.336,0,0,1,1.03,3.056ZM603.07,7.792a2.865,2.865,0,0,0-.407-1.65,1.381,1.381,0,0,0-2.258,0,2.907,2.907,0,0,0-.4,1.65v3.49a2.914,2.914,0,0,0,.4,1.669,1.306,1.306,0,0,0,1.14.582,1.283,1.283,0,0,0,1.122-.582,2.936,2.936,0,0,0,.4-1.669Zm17.43,8.2a17.15,17.15,0,0,1-2.066,8.622q-2.066,3.63-4.595,4.673h-.078l-.7-1.864a9.663,9.663,0,0,0,2.855-4.132,19.3,19.3,0,0,0,1.173-7.273v-.339A19.141,19.141,0,0,0,615.9,8.422a9.985,9.985,0,0,0-2.842-4.165l.7-1.851h.078q2.529,1.043,4.595,4.679A17.159,17.159,0,0,1,620.5,15.7Z" transform="translate(485.521 667.456)" fill="#12263f"/>
  </g>
</svg>
