<svg xmlns="http://www.w3.org/2000/svg" width="62" height="62" viewBox="0 0 62 62">
  <g id="Grupo_985801" data-name="Grupo 985801" transform="translate(-299 -977)">
    <g id="Grupo_985800" data-name="Grupo 985800" transform="translate(45 -48)">
      <g id="Grupo_985799" data-name="Grupo 985799" transform="translate(-95 131)">
        <g id="Grupo_985298" data-name="Grupo 985298">
          <g id="Grupo_984088" data-name="Grupo 984088" transform="translate(105 -9529)">
            <g id="Rectángulo_340676" data-name="Rectángulo 340676" transform="translate(244 10423)" fill="none" stroke="#39a900" stroke-width="3">
              <rect width="62" height="62" rx="7" stroke="none"/>
              <rect x="1.5" y="1.5" width="59" height="59" rx="5.5" fill="none"/>
            </g>
          </g>
          <g id="ondas" transform="translate(356 898)">
            <path id="Trazado_729663" data-name="Trazado 729663" d="M40.065,14.983c-1.646,0-2.484-1.184-3.158-2.132-.709-1-1.19-1.606-2.144-1.606s-1.433.61-2.139,1.606c-.673.948-1.51,2.132-3.156,2.132s-2.483-1.184-3.156-2.132c-.705-1-1.186-1.606-2.14-1.606s-1.433.61-2.139,1.606c-.673.948-1.51,2.132-3.156,2.132S16.4,13.8,15.723,12.852c-.705-1-1.184-1.606-2.138-1.606s-1.433.61-2.137,1.606c-.673.948-1.509,2.132-3.153,2.132S5.813,13.8,5.14,12.852c-.707-1-1.187-1.606-2.14-1.606V10c1.646,0,2.482,1.184,3.155,2.132.708,1,1.186,1.606,2.14,1.606s1.433-.61,2.138-1.606C11.1,11.184,11.94,10,13.586,10s2.482,1.184,3.155,2.132c.7,1,1.184,1.606,2.138,1.606s1.433-.61,2.139-1.606c.671-.948,1.51-2.132,3.156-2.132s2.484,1.184,3.157,2.132c.7,1,1.184,1.606,2.139,1.606s1.433-.61,2.139-1.606c.67-.948,1.51-2.132,3.156-2.132s2.484,1.184,3.157,2.131c.706,1,1.187,1.607,2.144,1.607s1.433-.61,2.14-1.606C42.875,11.184,43.713,10,45.36,10v1.246c-.954,0-1.433.61-2.142,1.607C42.545,13.8,41.708,14.983,40.065,14.983Z"/>
            <path id="Trazado_729664" data-name="Trazado 729664" d="M40.065,29.983c-1.646,0-2.484-1.184-3.158-2.132-.709-1-1.19-1.606-2.144-1.606s-1.433.61-2.139,1.606c-.673.948-1.51,2.132-3.156,2.132s-2.483-1.184-3.156-2.132c-.705-1-1.186-1.606-2.14-1.606s-1.433.61-2.139,1.606c-.673.948-1.51,2.132-3.156,2.132S16.4,28.8,15.723,27.852c-.705-1-1.184-1.606-2.138-1.606s-1.433.61-2.137,1.606c-.673.948-1.509,2.132-3.153,2.132S5.813,28.8,5.14,27.852c-.707-1-1.187-1.606-2.14-1.606V25c1.646,0,2.482,1.184,3.155,2.132.708,1,1.186,1.606,2.14,1.606s1.433-.61,2.138-1.606C11.1,26.184,11.94,25,13.586,25s2.482,1.184,3.155,2.132c.7,1,1.184,1.606,2.138,1.606s1.433-.61,2.139-1.606c.671-.948,1.51-2.132,3.156-2.132s2.484,1.184,3.157,2.132c.7,1,1.184,1.606,2.139,1.606s1.433-.61,2.139-1.606c.67-.948,1.51-2.132,3.156-2.132s2.484,1.184,3.157,2.131c.706,1,1.187,1.607,2.144,1.607s1.433-.61,2.14-1.606C42.875,26.184,43.713,25,45.36,25v1.246c-.954,0-1.433.61-2.142,1.607C42.545,28.8,41.708,29.983,40.065,29.983Z" transform="translate(0 -5.656)"/>
            <path id="Trazado_729665" data-name="Trazado 729665" d="M40.065,44.983c-1.646,0-2.484-1.184-3.158-2.132-.709-1-1.19-1.606-2.144-1.606s-1.433.61-2.139,1.606c-.673.948-1.51,2.132-3.156,2.132s-2.483-1.184-3.156-2.132c-.705-1-1.186-1.606-2.14-1.606s-1.433.61-2.139,1.606c-.673.948-1.51,2.132-3.156,2.132S16.4,43.8,15.723,42.852c-.705-1-1.184-1.606-2.138-1.606s-1.433.61-2.137,1.606c-.673.948-1.509,2.132-3.153,2.132S5.813,43.8,5.14,42.852c-.707-1-1.187-1.606-2.14-1.606V40c1.646,0,2.482,1.184,3.155,2.132.708,1,1.186,1.606,2.14,1.606s1.433-.61,2.138-1.606C11.1,41.184,11.94,40,13.586,40s2.482,1.184,3.155,2.132c.7,1,1.184,1.606,2.138,1.606s1.433-.61,2.139-1.606c.671-.948,1.51-2.132,3.156-2.132s2.484,1.184,3.157,2.132c.7,1,1.184,1.606,2.139,1.606s1.433-.61,2.139-1.606c.67-.948,1.51-2.132,3.156-2.132s2.484,1.184,3.157,2.131c.706,1,1.187,1.607,2.144,1.607s1.433-.61,2.14-1.606C42.875,41.184,43.713,40,45.36,40v1.246c-.954,0-1.433.61-2.142,1.607C42.545,43.8,41.708,44.983,40.065,44.983Z" transform="translate(0 -11.312)"/>
            <path id="Trazado_729666" data-name="Trazado 729666" d="M40.065,59.983c-1.646,0-2.484-1.184-3.158-2.132-.709-1-1.19-1.606-2.144-1.606s-1.433.61-2.139,1.606c-.673.948-1.51,2.132-3.156,2.132s-2.483-1.184-3.156-2.132c-.705-1-1.186-1.606-2.14-1.606s-1.433.61-2.139,1.606c-.673.948-1.51,2.132-3.156,2.132S16.4,58.8,15.723,57.852c-.705-1-1.184-1.606-2.138-1.606s-1.433.61-2.137,1.606c-.673.948-1.509,2.132-3.153,2.132S5.813,58.8,5.14,57.852c-.707-1-1.187-1.606-2.14-1.606V55c1.646,0,2.482,1.184,3.155,2.132.708,1,1.186,1.606,2.14,1.606s1.433-.61,2.138-1.606C11.1,56.184,11.94,55,13.586,55s2.482,1.184,3.155,2.132c.7,1,1.184,1.606,2.138,1.606s1.433-.61,2.139-1.606c.671-.948,1.51-2.132,3.156-2.132s2.484,1.184,3.157,2.132c.7,1,1.184,1.606,2.139,1.606s1.433-.61,2.139-1.606c.67-.948,1.51-2.132,3.156-2.132s2.484,1.184,3.157,2.131c.706,1,1.187,1.607,2.144,1.607s1.433-.61,2.14-1.606C42.875,56.184,43.713,55,45.36,55v1.246c-.954,0-1.433.61-2.142,1.607C42.545,58.8,41.708,59.983,40.065,59.983Z" transform="translate(0 -16.968)"/>
          </g>
        </g>
      </g>
    </g>
  </g>
</svg>
