<svg xmlns="http://www.w3.org/2000/svg" xmlns:xlink="http://www.w3.org/1999/xlink" width="62" height="62" viewBox="0 0 62 62">
  <defs>
    <clipPath id="clip-path">
      <rect id="Rect치ngulo_345360" data-name="Rect치ngulo 345360" width="53.629" height="53.477" fill="none"/>
    </clipPath>
  </defs>
  <g id="Grupo_985542" data-name="Grupo 985542" transform="translate(-233 -5767)">
    <g id="Grupo_984832" data-name="Grupo 984832" transform="translate(-11 -4656)">
      <g id="Rect치ngulo_340676" data-name="Rect치ngulo 340676" transform="translate(244 10423)" fill="none" stroke="#39a900" stroke-width="3">
        <rect width="62" height="62" rx="7" stroke="none"/>
        <rect x="1.5" y="1.5" width="59" height="59" rx="5.5" fill="none"/>
      </g>
    </g>
    <g id="Grupo_985541" data-name="Grupo 985541" transform="translate(237 5771)" clip-path="url(#clip-path)">
      <path id="Trazado_730151" data-name="Trazado 730151" d="M47.429,41.027c-.238-.905-.24-.911.608-1.158a19.766,19.766,0,0,1,12.488.388c.495.177.716.352.392.851a1.034,1.034,0,0,0-.083.26c-.045.756-.2.893-.905.742a1.139,1.139,0,0,0-.7.068c-.737.307-1.469.625-2.216.906a.673.673,0,0,0-.5.706q.015,1.252,0,2.506c0,.375.143.473.51.433,1.991-.219,3.983-.428,5.97-.673a1.578,1.578,0,0,1,1.465.472c.3.325.648.614.94.95a8.674,8.674,0,0,0,3.166,2.3c.422.182.779.317,1.185.015a.559.559,0,0,1,.426-.093c.782-.388.782-.388,1.175.423a19.619,19.619,0,0,1-13.87,27.746,19.238,19.238,0,0,1-15.7-3.666c-.767-.57-.761-.577-.232-1.325.31-.769.581-.843,1.224-.339a18.865,18.865,0,0,0,2.067,1.41.762.762,0,0,0,.832.033c.521-.285,1.062-.531,1.591-.8a1.566,1.566,0,0,0,.451-.32c.507-.543.508-.542,1.141-.159.064.038.128.076.191.116.808.514.78.5.32,1.314-.333.591-.953.736-1.454,1.07.036.207.218.188.343.233.594.216,1.218.328,1.824.5.43.122.558-.041.58-.455.029-.554.129-1.1.2-1.656a1.3,1.3,0,0,1,.781-1.068c.816-.4,1.621-.826,2.443-1.213a2.947,2.947,0,0,0,1.181-.978c.6-.844,1.239-1.668,1.866-2.5s1.229-.874,1.993-.14c.228.218.463.432.667.671a.926.926,0,0,0,1.093.285c1.527-.462,3.074-.861,4.6-1.334a1.492,1.492,0,0,1,1.748.457c.182.21.4.386.585.6.214.246.334.178.5-.065a17.8,17.8,0,0,0,2.953-8.129,18.433,18.433,0,0,0-.469-6.235,1.953,1.953,0,0,0-1.269-1.6c-.469-.167-.887-.467-1.349-.66a11.593,11.593,0,0,1-4.614-3.291,1.118,1.118,0,0,0-1.086-.405c-2.135.257-4.275.466-6.41.726-1.182.144-1.629-.214-1.632-1.4q-.005-2.227,0-4.454c0-1.052.119-1.224,1.091-1.62.224-.091.448-.178.748-.3a16.385,16.385,0,0,0-4.2-.109,2.06,2.06,0,0,0,.5.721,1.181,1.181,0,0,1,.2,1.436q-2.6,5.206-5.2,10.408a1.226,1.226,0,0,1-1.21.722c-.853-.007-1.707-.005-2.56,0-.6,0-.638.045-.651.623-.018.853-.01.913.855.844a5.834,5.834,0,0,1,3.657.871,9.772,9.772,0,0,0,1.543.77,1.554,1.554,0,0,1,1.08,1.782,12.055,12.055,0,0,0-.006,1.279,1.6,1.6,0,0,0,.081.548c.286.783.285.784-.4,1.265-.885.579-1.052.53-1.572-.406A2.106,2.106,0,0,1,48.2,60.56c.139-.966-.287-1.437-1.135-1.867a6.279,6.279,0,0,0-3.512-.794,9.4,9.4,0,0,1-1.391,0,1.026,1.026,0,0,1-1.091-1.087q-.053-1.724,0-3.45a1.032,1.032,0,0,1,1.138-1.1c1.02-.029,2.041-.02,3.061,0a.9.9,0,0,0,.919-.559q2.079-4.187,4.182-8.363a.831.831,0,0,0-.084-1.014c-.7-.881-.686-.892-1.869-.529-.777.238-1,.064-.99-.768" transform="translate(-26.054 -24.781)"/>
      <path id="Trazado_730152" data-name="Trazado 730152" d="M38.237,44.479c.358.787.377.835,1.179.521a1.278,1.278,0,0,1,1.681.483,1.18,1.18,0,0,1,.157,1.538c-1.433,2.785-2.823,5.592-4.211,8.4a.667.667,0,0,1-.714.447c-1.076-.028-2.153-.015-3.23-.008-.762,0-1.074.32-1.078,1.089q-.008,1.587,0,3.174c0,.763.32,1.071,1.087,1.081.186,0,.371,0,.557,0,2.726,0,2.723.006,5.112,1.242a.594.594,0,0,1,.377.647c-.024.407.035.821-.015,1.224a2.35,2.35,0,0,0,.6,1.622c.133.2.252.154.408.05s.346-.213.519-.318a5.38,5.38,0,0,1,1.183,1.637.212.212,0,0,1-.11.322,1.667,1.667,0,0,1-.608-.015,3.426,3.426,0,0,0-3.506,2.591c-.123.522-.045.6.5.644a.892.892,0,0,0,1.06-.634,1.86,1.86,0,0,1,2.251-1.073,1.974,1.974,0,0,1,1.42,1.966,1.942,1.942,0,0,1-1.725,1.82,4.087,4.087,0,0,1-.5.02q-5.37,0-10.741,0c-.268,0-.565.069-.78-.181l-1.052-1.737c.2-.238.476-.172.726-.173,1.354-.009,2.709.017,4.063-.01a3.312,3.312,0,0,0,3.1-1.9,3.25,3.25,0,0,0-.306-3.522,3.42,3.42,0,0,0-3.44-1.319,3.483,3.483,0,0,0-2.64,2.653c-.069.364.04.524.413.527.885.007.961-.008,1.2-.655a1.845,1.845,0,0,1,2.211-1.056,1.973,1.973,0,0,1,1.44,2.005,1.9,1.9,0,0,1-1.763,1.776c-.925.064-1.855.015-2.782.02-.556,0-1.116.036-1.669-.009a.9.9,0,0,0-1.077.591,13.577,13.577,0,0,1-.977-2.493.466.466,0,0,1,.282-.252c.279-.124.309-.337.243-.6-.1-.378-.15-.764-.243-1.142a.974.974,0,0,1,.3-1c.805-.794,1.592-1.607,2.4-2.392A1.624,1.624,0,0,0,30.1,60.8c-.023-1.241,0-2.484-.009-3.726,0-.725-.132-.9-.818-1.136-.526-.182-1.057-.347-1.582-.531-.205-.072-.439-.112-.537-.352l.434-.976c.327-.26.713-.149,1.074-.156s.515-.15.539-.53c.033-.525-.049-.943-.615-1.119a14.965,14.965,0,0,1,1.187-1.735c.173-.224.43-.2.66-.187.417.015.545-.185.54-.572,0-.283-.076-.6.184-.828a18.828,18.828,0,0,1,3.52-2.769c.185.6.642.652,1.174.61.327-.025.453-.159.471-.479.022-.379-.11-.784.16-1.129a11.767,11.767,0,0,1,1.759-.706" transform="translate(-16.863 -28.233)" fill="#9fcb00"/>
      <path id="Trazado_730153" data-name="Trazado 730153" d="M92.243,18.675a3.278,3.278,0,0,0,.019-1.16,2.472,2.472,0,0,1,.978-2.189.332.332,0,0,0,.127-.495,5.3,5.3,0,0,1-.415-1.606c-.064-.488-.395-.636-.787-.313a9.377,9.377,0,0,0-.73.763,2.5,2.5,0,0,1-3.855-.079c-.171-.193-.21-.307.017-.47a3.769,3.769,0,0,0,.594-.5c.317-.347.575-.476.949-.031a.587.587,0,0,0,.894-.041c.2-.189.382-.4.566-.613A2.506,2.506,0,0,1,92.915,11c.274.038.36-.062.438-.276a4.885,4.885,0,0,1,.819-1.378c.11-.136.316-.246.183-.469a.618.618,0,0,0-.534-.348c-.352,0-.7.022-1.057.028a2.477,2.477,0,0,1-2.633-2.753c.015-.264.049-.415.373-.34a2.979,2.979,0,0,0,.72.054c.45-.008.774.044.714.65-.039.385.272.591.656.6s.741-.024,1.113-.026a2.346,2.346,0,0,1,1.946.9c.189.24.32.326.622.176a4.767,4.767,0,0,1,1.555-.392c.451-.057.6-.325.347-.705a3.212,3.212,0,0,0-.537-.558C96.088,4.749,96.1,3.243,97.7,1.846c.338.39.672.785,1.017,1.169.143.159.055.238-.056.361-.537.6-.537.867.074,1.371a2.822,2.822,0,0,1,1.285,2.768c-.045.258.169.259.3.314a5.619,5.619,0,0,1,1.331.793c.149.117.265.359.512.206a.652.652,0,0,0,.344-.6c-.011-.334-.028-.668-.033-1a2.48,2.48,0,0,1,2.765-2.622c.284.018.4.081.326.385a2.767,2.767,0,0,0-.049.665c.009.459-.012.825-.662.76-.383-.038-.584.28-.59.663-.005.333.018.667.028,1a2.415,2.415,0,0,1-.949,2.091c-.219.169-.262.294-.144.537a5.148,5.148,0,0,1,.4,1.553c.024.171-.057.4.192.469a.607.607,0,0,0,.622-.141c.25-.248.481-.514.726-.768a2.5,2.5,0,0,1,3.853.119c.15.174.2.28-.009.429-.166.118-.311.264-.469.393-.358.291-.661.786-1.166.118-.209-.276-.59-.148-.842.1-.212.207-.4.436-.6.655a2.468,2.468,0,0,1-2.231.882.373.373,0,0,0-.48.294,4.8,4.8,0,0,1-.827,1.374c-.3.371-.159.74.337.792a8.438,8.438,0,0,0,1.056-.019,2.473,2.473,0,0,1,2.666,2.721c-.012.289-.047.463-.4.367a2.035,2.035,0,0,0-.5-.042c-.5-.008-1.008.062-.924-.736.032-.307-.272-.512-.613-.518-.3-.005-.594.007-.89.023a2.482,2.482,0,0,1-2.285-1c-.148-.2-.27-.183-.455-.1a5.426,5.426,0,0,1-1.607.413c-.5.061-.654.387-.337.779a8.532,8.532,0,0,0,.761.731,2.5,2.5,0,0,1-.055,3.857c-.217.2-.341.2-.506-.036a3.5,3.5,0,0,0-.431-.509c-.34-.332-.588-.61-.058-1.037.29-.234.181-.621-.087-.89-.222-.223-.468-.423-.7-.639A2.443,2.443,0,0,1,96.52,18.2c.035-.293-.028-.432-.3-.528a4.653,4.653,0,0,1-1.331-.791c-.137-.108-.243-.321-.467-.2a.627.627,0,0,0-.366.579c0,.315.008.631.029.946a3.49,3.49,0,0,1-.27,1.462,1.943,1.943,0,0,1-1.73,1.346c-1.076.2-1.214.053-1.2-1.025.014-.828.014-.829.795-1.069.2-.06.362-.188.561-.24" transform="translate(-55.501 -1.172)"/>
      <path id="Trazado_730154" data-name="Trazado 730154" d="M12.73,15.149c-2.265,0-4.53.018-6.794-.006a3.554,3.554,0,0,1-3.462-3.1,3.443,3.443,0,0,1,2.46-3.814A1.513,1.513,0,0,0,6.256,7.009,2.331,2.331,0,0,1,8.271,5.39c.3-.052.415-.1.443-.444a5.337,5.337,0,1,1,10.634.922c-.024.291.015.363.313.39a4.451,4.451,0,0,1-.415,8.892c-2.172.008-4.344,0-6.515,0Z" transform="translate(-1.549 0)"/>
      <path id="Trazado_730155" data-name="Trazado 730155" d="M89.392,46.328a.622.622,0,0,1-.735.443c-.364-.042-.448.139-.449.445a2.96,2.96,0,0,1-.043.719c-.137.534.079.641.576.634a2.678,2.678,0,0,0,2.219-1.253,18.8,18.8,0,0,1,5.612,6.157c.054.1.128.18.191.27-.242.2-.569.249-.78.5-.159.19-.3-.023-.436-.074a10.492,10.492,0,0,1-4.284-3.165,1.962,1.962,0,0,0-2-.724c-1.942.294-3.9.45-5.855.685-.379.046-.473-.057-.464-.425q.035-1.447,0-2.895a.5.5,0,0,1,.384-.565c.761-.291,1.517-.6,2.261-.93a1.178,1.178,0,0,1,1.2-.059c.217.136.328.035.4-.183a4.756,4.756,0,0,1,.234-.5,14.913,14.913,0,0,1,1.961.917" transform="translate(-52.651 -28.824)" fill="#9fcb00"/>
      <path id="Trazado_730156" data-name="Trazado 730156" d="M30.784,112.7l9.072.023c.89,0,1.781.009,2.672,0a1.783,1.783,0,0,0,.337-3.544,1.753,1.753,0,0,0-1.988,1.382c-.077.33-.2.415-.508.388a4,4,0,0,0-.834,0c-.44.055-.54-.112-.471-.527a3.573,3.573,0,0,1,4.238-2.964,2.02,2.02,0,0,0,.221.018,2.421,2.421,0,0,1,1.961,1.154,3.552,3.552,0,0,1,.441,3.906,3.712,3.712,0,0,1-3.6,2.129c-3.143.046-6.285.012-9.426.02a1.389,1.389,0,0,1-.64-.155c-.865-.008-1.731-.028-2.6-.016-.314,0-.475-.036-.439-.408.042-.436-.138-1.006.078-1.283.231-.3.825-.059,1.259-.1l.22-.023" transform="translate(-18.533 -68.163)"/>
      <path id="Trazado_730157" data-name="Trazado 730157" d="M24.239,73.412c.752.259,1.5.538,2.26.772a1.045,1.045,0,0,1,.835,1.14c-.019,1.336-.016,2.673,0,4.009A1.335,1.335,0,0,1,26.9,80.37c-.875.857-1.727,1.739-2.607,2.59a.683.683,0,0,0-.227.778c.117.389.125.815.273,1.189.208.526.039.751-.478.816a.877.877,0,0,0-.206.083c-.9.218-.893.216-1.117-.725a19.581,19.581,0,0,1,.446-10.837c.25-.763.465-.908,1.255-.851" transform="translate(-13.951 -46.591)"/>
      <path id="Trazado_730158" data-name="Trazado 730158" d="M29.242,103.662c.046-.736.046-.735.8-.736,1.539,0,3.078.017,4.617-.01a1.76,1.76,0,0,0,1.729-1.862,1.791,1.791,0,0,0-1.908-1.687,1.729,1.729,0,0,0-1.595,1.4c-.075.338-.212.407-.511.384a4.123,4.123,0,0,0-.833,0c-.444.057-.538-.119-.468-.529a3.571,3.571,0,0,1,7.1.742,3.563,3.563,0,0,1-3.572,3.343c-1.613.016-3.225.017-4.837.024-.383.037-.578-.093-.5-.519a2.65,2.65,0,0,0-.016-.55" transform="translate(-18.561 -61.935)"/>
      <path id="Trazado_730159" data-name="Trazado 730159" d="M2.955,114.473c-.854,0-1.708-.015-2.561.009-.327.009-.388-.1-.391-.405-.014-1.385-.024-1.384,1.353-1.385,1.355,0,2.71.02,4.064-.01A1.76,1.76,0,0,0,7.134,110.8a1.793,1.793,0,0,0-1.924-1.671,1.757,1.757,0,0,0-1.6,1.466c-.057.264-.135.33-.383.315a6.108,6.108,0,0,0-1,0c-.384.04-.466-.106-.416-.461a3.569,3.569,0,0,1,7.106.609,3.562,3.562,0,0,1-3.512,3.4c-.816.015-1.633,0-2.45,0" transform="translate(0 -68.136)"/>
      <path id="Trazado_730160" data-name="Trazado 730160" d="M37.592,126.919l10.2,0a3.2,3.2,0,0,1-1.08,1.741,1.525,1.525,0,0,1-.243-.126c-.331-.256-.625-.388-.82.147-.091.25-.348.315-.558.424a6.392,6.392,0,0,0-.885.454,1.673,1.673,0,0,1-2.311-.112c-.481-.4-1.042-.706-1.513-1.117-.359-.314-.575-.277-.806.1a1.359,1.359,0,0,1-.23.23,13.824,13.824,0,0,1-1.756-1.738" transform="translate(-23.861 -80.559)" fill="#9fcb00"/>
      <path id="Trazado_730161" data-name="Trazado 730161" d="M21.327,66.8c0,.858,0,.858-.868.858-.914,0-.914,0-.914-.924,0-.858,0-.858.868-.858.914,0,.914,0,.914.924" transform="translate(-12.406 -41.815)"/>
      <path id="Trazado_730162" data-name="Trazado 730162" d="M30.3,65.818a3.758,3.758,0,0,0,.443.019c.229-.016.357.053.324.306a.352.352,0,0,0,0,.056c.07,1.423.07,1.423-1.319,1.424H29.3c-.006-.439.015-.88-.025-1.316-.035-.389.091-.528.477-.473a3.084,3.084,0,0,0,.546-.016" transform="translate(-18.577 -41.778)"/>
      <path id="Trazado_730163" data-name="Trazado 730163" d="M11.569,66.815c0,.844,0,.844-.827.844-.955,0-.955,0-.955-.938,0-.844,0-.844.827-.844.955,0,.955,0,.955.938" transform="translate(-6.212 -41.815)"/>
      <path id="Trazado_730164" data-name="Trazado 730164" d="M35.9,56.25c-.008.384-.043.769-.015,1.15.027.357-.116.439-.439.417s-.62.011-.93.019-.485-.06-.427-.431c.07-.449-.207-1.12.11-1.307.386-.228,1-.06,1.52-.069.163,0,.157.117.182.221" transform="translate(-21.607 -35.532)"/>
      <path id="Trazado_730165" data-name="Trazado 730165" d="M25.264,57.9c-.84,0-.84,0-.84-.831,0-.951,0-.951.942-.951.84,0,.84,0,.84.831,0,.951,0,.951-.942.951" transform="translate(-15.503 -35.621)"/>
      <path id="Trazado_730166" data-name="Trazado 730166" d="M15.512,57.9c-.847,0-.847,0-.847-.88,0-.9,0-.9.88-.9.9,0,.9,0,.9.88,0,.9,0,.9-.935.9" transform="translate(-9.309 -35.621)"/>
      <path id="Trazado_730167" data-name="Trazado 730167" d="M50.565,46.381c0,.482-.011.964,0,1.446.007.237-.069.339-.316.321-.221-.016-.445,0-.667,0-.778,0-.778,0-.825-.766.063-1.016.063-1.017,1.092-1.015.238,0,.475.012.713.018" transform="translate(-30.95 -29.429)"/>
      <path id="Trazado_730168" data-name="Trazado 730168" d="M40,48.143c-.935,0-.935,0-.935-.958,0-.824,0-.824.847-.824.935,0,.935,0,.935.958,0,.824,0,.824-.847.824" transform="translate(-24.794 -29.428)"/>
      <path id="Trazado_730169" data-name="Trazado 730169" d="M30.217,46.361c.868,0,.868,0,.868.858,0,.924,0,.924-.914.924-.868,0-.868,0-.868-.858,0-.924,0-.924.914-.924" transform="translate(-18.6 -29.428)"/>
      <path id="Trazado_730170" data-name="Trazado 730170" d="M21.327,47.278c0,.864,0,.864-.862.864-.92,0-.92,0-.92-.918,0-.865,0-.865.862-.865.92,0,.92,0,.92.918" transform="translate(-12.406 -29.427)"/>
      <path id="Trazado_730171" data-name="Trazado 730171" d="M11.569,47.278c0,.864,0,.864-.862.864-.92,0-.92,0-.92-.918,0-.865,0-.865.862-.865.92,0,.92,0,.92.918" transform="translate(-6.212 -29.427)"/>
      <path id="Trazado_730172" data-name="Trazado 730172" d="M52.268,75.971l1.08-1.741a3.59,3.59,0,0,0,1.058-7.05l-1.183-1.868a2.018,2.018,0,0,1,.309-.231c.332-.164.434-.361.145-.658a.863.863,0,0,1-.2-.67c.01-.631,0-1.262,0-1.892a.952.952,0,0,0-.55-.947c-1.143-.571-2.282-1.147-3.425-1.717a3.654,3.654,0,0,0-1.481-.131c-.111-.008-.222,0-.334,0-1.382,0-1.371,0-1.35-1.395.005-.321.1-.4.408-.394.983.018,1.967-.007,2.95.012a1.088,1.088,0,0,0,1.1-.668q2.571-5.173,5.167-10.334a1.066,1.066,0,0,0-.193-1.361c-.251-.264-.475-.553-.75-.877a16.915,16.915,0,0,1,5,.119,5.7,5.7,0,0,1-1.362.629,1.046,1.046,0,0,0-.737,1.1c.016,1.6,0,3.191.006,4.787,0,1.026.362,1.328,1.365,1.211,2.283-.265,4.57-.5,6.853-.768a.628.628,0,0,1,.633.224,12.937,12.937,0,0,0,5.237,3.721c.341.141.646.381,1,.489a1.817,1.817,0,0,1,1.235,1.522,18,18,0,0,1-2.844,15.224c-.393-.444-.745-.843-1.1-1.241a1.092,1.092,0,0,0-1.251-.328c-1.665.5-3.342.959-5.009,1.452a.705.705,0,0,1-.866-.218,11.48,11.48,0,0,0-.9-.911c-.61-.594-1.111-.561-1.621.111-.705.931-1.414,1.86-2.1,2.8a2.137,2.137,0,0,1-.843.689c-.868.416-1.717.872-2.588,1.281a1.2,1.2,0,0,0-.79,1.1c-.038.609-.155,1.213-.214,1.822-.031.322-.127.443-.482.366a20.226,20.226,0,0,1-2.866-.82,2.249,2.249,0,0,1,.809-.471,2.507,2.507,0,0,0,1.172-1.049c.23-.366.191-.539-.183-.7a1.788,1.788,0,0,1-.316-.223" transform="translate(-29.415 -27.874)" fill="#65dbfe"/>
      <path id="Trazado_730173" data-name="Trazado 730173" d="M73.786,129.512c-1.378-.013-1.335-.008-1.185-1.359a1.16,1.16,0,0,1,.841-1.123,8.038,8.038,0,0,0,4.31-3.554c.411-.684.509-.678,1.024-.076a1.628,1.628,0,0,0,2,.547c1.435-.489,2.925-.813,4.367-1.282a1.041,1.041,0,0,1,1.287.335c.495.563.534.55,0,1.087a17.576,17.576,0,0,1-11.095,5.306c-.516.05-1.034.08-1.552.119" transform="translate(-46.037 -77.804)" fill="#9fcb00"/>
      <path id="Trazado_730174" data-name="Trazado 730174" d="M40.843,66.785c0,.873,0,.873-1.09.873-.693,0-.693,0-.692-1.1,0-.679,0-.679,1.118-.678.664,0,.664,0,.664.909" transform="translate(-24.794 -41.815)"/>
      <path id="Trazado_730175" data-name="Trazado 730175" d="M54.566,56.119c.915,0,.915,0,.915.937,0,.845,0,.845-.84.845-.942,0-.942,0-.942-.965,0-.817,0-.817.867-.817" transform="translate(-34.085 -35.621)"/>
      <path id="Trazado_730176" data-name="Trazado 730176" d="M43.94,56.973c0-.854,0-.854.886-.854s.9,0,.9.9c0,.882,0,.882-.859.882-.923,0-.923,0-.923-.928" transform="translate(-27.891 -35.621)"/>
      <path id="Trazado_730177" data-name="Trazado 730177" d="M50.6,66.794c0,.866,0,.866-1.1.865-.685,0-.685,0-.684-1.111,0-.671,0-.671,1.125-.671.657,0,.657,0,.657.917" transform="translate(-30.988 -41.815)"/>
      <path id="Trazado_730178" data-name="Trazado 730178" d="M114.5,25.556a3.563,3.563,0,1,1-3.55-3.59,3.569,3.569,0,0,1,3.55,3.59" transform="translate(-68.154 -13.943)" fill="#f1e268"/>
      <path id="Trazado_730179" data-name="Trazado 730179" d="M15.86,16.476c-2.245,0-4.49.01-6.736,0a1.779,1.779,0,0,1-.413-3.51,1.708,1.708,0,0,1,1.88.759c.2.338.386.369.7.211a5.429,5.429,0,0,1,.626-.226c.629-.221.63-.222.28-.813a4.2,4.2,0,0,0-.959-1.07.883.883,0,0,1,.072-1.429.584.584,0,0,1,.964.271c.509,1.07.5,1.056,1.459.366.388-.279.547-.453.253-.98a3.493,3.493,0,0,1,1.231-4.589,3.563,3.563,0,0,1,4.67.728,3.508,3.508,0,0,1-.212,4.751c-.326.321-.372.527-.051.832a2.355,2.355,0,0,1,.236.309c.526.7.505.68,1.137.087.364-.342.488-.947,1.107-1.016a2.754,2.754,0,0,1,1.666.311A2.668,2.668,0,0,1,22.54,16.47c-2.227.019-4.453.005-6.68.006" transform="translate(-4.661 -3.108)" fill="#65dbfe"/>
      <path id="Trazado_730180" data-name="Trazado 730180" d="M26.878,84.431a17.262,17.262,0,0,1,.648-5.226c.03-.108.042-.206.2-.215a.887.887,0,0,1,.926.871,5.605,5.605,0,0,0,.012,1.165c.353,1.617-.65,2.507-1.784,3.406" transform="translate(-17.056 -50.137)" fill="#64dbfe"/>
      <path id="Trazado_730181" data-name="Trazado 730181" d="M88.748,82.876c1.4-.545,1.4-.545,1.4.968,0,.285-.045.446-.349.564a2.754,2.754,0,0,0-.7.543,2.617,2.617,0,0,1-3.548.015c-.142-.12-.272-.252-.414-.372a.847.847,0,0,0-1.286,0c-.171.142-.329.3-.5.441a2.609,2.609,0,0,1-3.375-.016c-.185-.154-.358-.324-.543-.478a.822.822,0,0,0-1.159,0c-.214.177-.412.375-.632.544a2.611,2.611,0,0,1-3.289-.041c-.328-.264-.577-.638-1.028-.733-.157-.033-.112-.168-.114-.27-.006-.26,0-.52,0-.779,0-.829.061-.872.867-.594a3.271,3.271,0,0,1,1.228.843c.215.215.339.179.5-.07a4.256,4.256,0,0,0,.6-2.984.8.8,0,0,0-.465-.621,3.548,3.548,0,0,1,3.142-6.355.8.8,0,0,0,.725.007,3.292,3.292,0,0,1,2.849,0,.806.806,0,0,0,.725-.008,3.548,3.548,0,0,1,4.84,4.189,1.127,1.127,0,0,0,.1.885,6.266,6.266,0,0,1,.43,4.322" transform="translate(-46.469 -46.436)"/>
      <path id="Trazado_730182" data-name="Trazado 730182" d="M97.451,79.877a1.722,1.722,0,0,1,.332-.015c.384.055.558-.063.653-.482a1.679,1.679,0,0,1,1.661-1.3,1.794,1.794,0,0,1,1.686,1.143,1.773,1.773,0,0,1-.532,2.01,1.705,1.705,0,0,1-2.113.092A1.172,1.172,0,0,0,97.81,81.1a.913.913,0,0,1-.359-1.224" transform="translate(-61.796 -49.56)" fill="#e5e5e5"/>
      <path id="Trazado_730183" data-name="Trazado 730183" d="M87.693,79.927a.79.79,0,0,1,.164-.016c.449.05.725,0,.854-.577a1.647,1.647,0,0,1,2.05-1.139,4.351,4.351,0,0,0-.39,1.7,7.884,7.884,0,0,1,.386,1.408c.071.23-.08.328-.282.367a1.514,1.514,0,0,1-1.188-.358,1.064,1.064,0,0,0-1.234-.161.913.913,0,0,1-.359-1.224" transform="translate(-55.602 -49.61)" fill="#e5e5e5"/>
      <path id="Trazado_730184" data-name="Trazado 730184" d="M82.424,81.676a1.768,1.768,0,1,1,.285-3.483,4.515,4.515,0,0,0-.388,1.7,7.865,7.865,0,0,1,.386,1.409c.072.231-.084.325-.282.369" transform="translate(-51.116 -49.614)" fill="#e4e4e4"/>
      <path id="Trazado_730185" data-name="Trazado 730185" d="M88.855,92.813a4.909,4.909,0,0,1-.048.612,2.124,2.124,0,0,1-.261.892c-.216.26-.522-.111-.805-.092a.352.352,0,0,1-.11-.011c-.335-.088-.806.217-.967-.033-.148-.229.038-.672.075-1.021.006-.055,0-.111,0-.167.011-1.113.011-1.113,1.066-1.419a.909.909,0,0,1,.964.58c.046.235.062.476.084.658" transform="translate(-54.974 -58.116)" fill="#3ea6fd"/>
      <path id="Trazado_730186" data-name="Trazado 730186" d="M107.855,90.986a4.152,4.152,0,0,1-.205,3.5c-.1.192-.2.246-.356.072a.139.139,0,0,0-.043-.035,1.49,1.49,0,0,1-.95-1.809c.09-.76.088-1.327.986-1.448a2.093,2.093,0,0,0,.568-.279" transform="translate(-67.459 -57.753)" fill="#3ea6fd"/>
      <path id="Trazado_730187" data-name="Trazado 730187" d="M98.1,92.806c.179,1.259-.622,1.936-1.5,2.562-.149.106-.355.211-.511.079-.131-.112.039-.266.088-.391a5.972,5.972,0,0,0,.4-2.877c-.071-.655.548-.454.83-.641.245-.162.52.057.572.394.045.291.08.583.12.874" transform="translate(-60.96 -58.069)" fill="#3ea6fd"/>
      <path id="Trazado_730188" data-name="Trazado 730188" d="M85.514,84.689c.226-.127.182-.3.111-.5a2.864,2.864,0,0,1-.215-1.274l.886.034a1.941,1.941,0,0,0,.359,1.224,1.548,1.548,0,0,1-1.142.521" transform="translate(-54.207 -52.628)" fill="#cbcbcb"/>
      <path id="Trazado_730189" data-name="Trazado 730189" d="M95.273,84.688c.227-.127.182-.3.111-.5a2.864,2.864,0,0,1-.214-1.273l.886.034a1.942,1.942,0,0,0,.359,1.224,1.557,1.557,0,0,1-1.142.518" transform="translate(-60.401 -52.628)" fill="#cbcbcb"/>
    </g>
  </g>
</svg>
