<svg xmlns="http://www.w3.org/2000/svg" width="54" height="61" viewBox="0 0 54 61">
  <g id="Grupo_985525" data-name="Grupo 985525" transform="translate(-842 -2276)">
    <g id="Rectángulo_344916" data-name="Rectángulo 344916" transform="translate(842 2276)" fill="none" stroke="#0e494d" stroke-width="3">
      <rect width="54" height="61" rx="15" stroke="none"/>
      <rect x="1.5" y="1.5" width="51" height="58" rx="13.5" fill="none"/>
    </g>
    <g id="epi" transform="translate(842.608 2284)">
      <g id="Grupo_985522" data-name="Grupo 985522" transform="translate(7.005 0.615)">
        <path id="Trazado_729972" data-name="Trazado 729972" d="M47.372,38.686v6.781H8.14V38.686a6.665,6.665,0,0,1,3.887-6.061l9.446-4.34-.109-.063a15.209,15.209,0,0,1-7.223-9.727A14.989,14.989,0,0,1,15.957,7.26l1.752-2.866a5.528,5.528,0,0,1,4.72-2.644H33.083A5.528,5.528,0,0,1,37.8,4.394L39.555,7.26a14.966,14.966,0,0,1,1.816,11.234,15.19,15.19,0,0,1-7.223,9.727l-.109.063,9.446,4.34A6.665,6.665,0,0,1,47.372,38.686Z" transform="translate(-8.14 -1.75)" fill="#f3f5f9"/>
        <path id="Trazado_729973" data-name="Trazado 729973" d="M39.562,31.875H56.725v6.773H39.562Z" transform="translate(-28.528 -21.296)" fill="#fed8b2"/>
        <g id="Grupo_985520" data-name="Grupo 985520" transform="translate(14.259 11.912)">
          <path id="Trazado_729974" data-name="Trazado 729974" d="M62.71,45.09l-.671.023.251-1.656a.615.615,0,1,0-1.215-.184l-.251,1.656a1.209,1.209,0,0,0,1.194,1.39h.692a.615.615,0,1,0,0-1.229Z" transform="translate(-56.573 -40.264)" fill="#666680"/>
          <circle id="Elipse_5914" data-name="Elipse 5914" cx="1.469" cy="1.469" r="1.469" transform="translate(7.776)" fill="#666680"/>
          <circle id="Elipse_5915" data-name="Elipse 5915" cx="1.469" cy="1.469" r="1.469" fill="#666680"/>
        </g>
        <path id="Trazado_729975" data-name="Trazado 729975" d="M57.276,16H49.068a1.756,1.756,0,0,0-1.756,1.756v3.819h11.72V17.756A1.756,1.756,0,0,0,57.276,16Z" transform="translate(-33.556 -10.996)" fill="#666680"/>
        <path id="Trazado_729976" data-name="Trazado 729976" d="M60.692,23.417H55.565a.615.615,0,0,1,0-1.229h5.127a.615.615,0,0,1,0,1.229Z" transform="translate(-38.512 -15.011)" fill="#474759"/>
        <path id="Trazado_729977" data-name="Trazado 729977" d="M59.312,68.125H62.6v20.41H59.312Z" transform="translate(-41.342 -44.816)" fill="#d8e0f0"/>
        <path id="Trazado_729978" data-name="Trazado 729978" d="M39.562,51.163V51.5a5.619,5.619,0,0,0,5.619,5.619h5.926A5.619,5.619,0,0,0,56.725,51.5v-.338Z" transform="translate(-28.528 -33.811)" fill="#6cf"/>
        <path id="Trazado_729979" data-name="Trazado 729979" d="M59.336,59.123H51.014a.615.615,0,1,1,0-1.229h8.323a.615.615,0,1,1,0,1.229Z" transform="translate(-35.559 -38.178)" fill="#4d87ff"/>
        <g id="Grupo_985521" data-name="Grupo 985521" transform="translate(5.176 37.487)">
          <path id="Trazado_729980" data-name="Trazado 729980" d="M24.109,109.115v5.615H22.88v-5.615a.615.615,0,1,1,1.229,0Z" transform="translate(-22.88 -108.5)" fill="#666680"/>
          <path id="Trazado_729981" data-name="Trazado 729981" d="M102.849,109.115v5.615H101.62v-5.615a.615.615,0,1,1,1.229,0Z" transform="translate(-73.969 -108.5)" fill="#666680"/>
        </g>
      </g>
      <g id="Grupo_985523" data-name="Grupo 985523" transform="translate(6.391 0)">
        <circle id="Elipse_5916" data-name="Elipse 5916" cx="1.469" cy="1.469" r="1.469" transform="translate(22.649 12.527)"/>
        <circle id="Elipse_5917" data-name="Elipse 5917" cx="1.469" cy="1.469" r="1.469" transform="translate(14.874 12.527)"/>
        <path id="Trazado_729982" data-name="Trazado 729982" d="M60.692,22.188H55.565a.615.615,0,0,0,0,1.229h5.127a.615.615,0,1,0,0-1.229Z" transform="translate(-37.898 -14.396)"/>
        <path id="Trazado_729983" data-name="Trazado 729983" d="M42.606,30.929,34.2,27.07A15.888,15.888,0,0,0,40.835,17.5,15.521,15.521,0,0,0,38.947,5.8L37.191,2.937A6.186,6.186,0,0,0,31.948,0H21.294a6.187,6.187,0,0,0-5.243,2.937L14.3,5.8a15.522,15.522,0,0,0-1.889,11.7,15.887,15.887,0,0,0,6.632,9.571l-8.4,3.859a7.306,7.306,0,0,0-4.245,6.622v6.782a.614.614,0,0,0,.615.615H46.237a.614.614,0,0,0,.615-.615V37.551A7.306,7.306,0,0,0,42.606,30.929Zm3.017,12.789h-4.56v-5a.615.615,0,1,0-1.229,0v5H28.882V24.538h.7A6.24,6.24,0,0,0,35.817,18.3V15.728a.615.615,0,1,0-1.229,0v1.623H26.733l.246-1.633a.615.615,0,1,0-1.215-.184l-.251,1.656a1.171,1.171,0,0,0-.007.16H18.654V11.808H34.588v.719a.615.615,0,1,0,1.229,0V11.193a.614.614,0,0,0-.615-.615H33.1v-3.2A2.373,2.373,0,0,0,30.725,5H22.517a2.373,2.373,0,0,0-2.37,2.37v3.2H18.04a.615.615,0,0,0-.615.615V18.3a6.241,6.241,0,0,0,6.233,6.233h.7v6.154a.615.615,0,0,0,1.229,0V24.538h2.063v19.18H25.59V38.841a.615.615,0,0,0-1.229,0v4.877H13.409v-5a.615.615,0,0,0-1.229,0v5H7.62V37.551a6.075,6.075,0,0,1,3.529-5.5l9.446-4.339a.614.614,0,0,0,.049-1.091l-.108-.062A14.646,14.646,0,0,1,13.6,17.22a14.3,14.3,0,0,1,1.74-10.776L17.1,3.579a4.951,4.951,0,0,1,4.2-2.35H31.948a4.951,4.951,0,0,1,4.2,2.353L37.9,6.447a14.294,14.294,0,0,1,1.74,10.776,14.644,14.644,0,0,1-6.931,9.332l-.109.063a.615.615,0,0,0,.05,1.091l9.446,4.338a6.075,6.075,0,0,1,3.529,5.5ZM23.658,23.309a5.011,5.011,0,0,1-5-4.728H34.581a5.011,5.011,0,0,1-5,4.728Zm8.208-12.73H21.376v-3.2a1.143,1.143,0,0,1,1.141-1.141h8.208a1.143,1.143,0,0,1,1.141,1.141Z" transform="translate(-6.391 0)"/>
        <path id="Trazado_729984" data-name="Trazado 729984" d="M58.177,97.744a.614.614,0,0,0,.615-.615V95.384a.615.615,0,1,0-1.229,0v1.746a.615.615,0,0,0,.615.615Z" transform="translate(-39.593 -61.489)"/>
        <path id="Trazado_729985" data-name="Trazado 729985" d="M59.952,58.509a.615.615,0,0,0-.615-.615H51.015a.615.615,0,0,0,0,1.229h8.323A.615.615,0,0,0,59.952,58.509Z" transform="translate(-34.946 -37.564)"/>
      </g>
    </g>
  </g>
</svg>
