<svg xmlns="http://www.w3.org/2000/svg" xmlns:xlink="http://www.w3.org/1999/xlink" width="88" height="88" viewBox="0 0 88 88">
  <defs>
    <clipPath id="clip-path">
      <rect id="Rectángulo_345302" data-name="Rectángulo 345302" width="44" height="37.825" fill="#fff"/>
    </clipPath>
  </defs>
  <g id="Grupo_985794" data-name="Grupo 985794" transform="translate(-546 -809)">
    <g id="Grupo_944949" data-name="Grupo 944949" transform="translate(260 -766)">
      <circle id="Elipse_4813" data-name="Elipse 4813" cx="44" cy="44" r="44" transform="translate(286 1575)" fill="#0e494d"/>
    </g>
    <g id="Grupo_985356" data-name="Grupo 985356" transform="translate(568 834)">
      <g id="Grupo_985356-2" data-name="Grupo 985356" transform="translate(0 0)" clip-path="url(#clip-path)">
        <path id="Trazado_729809" data-name="Trazado 729809" d="M43.333,31.663q-7.2-11.953-14.408-23.9Q27.2,4.9,25.471,2.035A3.871,3.871,0,0,0,22.19,0a3.928,3.928,0,0,0-3.709,2.111c-3.982,6.61-8,13.2-11.937,19.835C4.335,25.675,1.842,29.236,0,33.174v1.289a9.29,9.29,0,0,0,.328.955,3.924,3.924,0,0,0,3.86,2.407q17.81-.005,35.62,0c.143,0,.286,0,.43-.008a3.8,3.8,0,0,0,2.318-.891,3.935,3.935,0,0,0,.777-5.26m-3.064,3.264a2.879,2.879,0,0,1-.6.039q-8.831,0-17.662,0-8.874,0-17.748,0a1.553,1.553,0,0,1-.908-.2A1.11,1.11,0,0,1,3.1,33.183q1.6-2.666,3.208-5.326C11.143,19.841,15.993,11.834,20.793,3.8c.723-1.212,1.708-1.191,2.415-.011Q31.95,18.391,40.766,32.952a3.909,3.909,0,0,1,.271.486,1.063,1.063,0,0,1-.768,1.49" transform="translate(0 0)" fill="#fff"/>
        <path id="Trazado_729810" data-name="Trazado 729810" d="M65.5,50.609a1.071,1.071,0,0,0,.741,1.085,2.014,2.014,0,0,0,1.011.127c.966-.155,1.427-.546,1.366-1.512-.024-.384.018-.772.027-1.159.067-3.035.308-6.064.326-9.1a1.806,1.806,0,0,0-.3-1.179,2.242,2.242,0,0,0-2.439-.552,1.557,1.557,0,0,0-1.1,1.73c.022,1.719.081,3.436.21,5.63.042,1.324.1,3.128.152,4.931" transform="translate(-45.053 -26.407)" fill="#fff"/>
        <path id="Trazado_729811" data-name="Trazado 729811" d="M66.934,88.431a2.048,2.048,0,0,0-.008,4.1,2.048,2.048,0,0,0,.008-4.1" transform="translate(-44.883 -61.163)" fill="#fff"/>
      </g>
    </g>
  </g>
</svg>
