<svg xmlns="http://www.w3.org/2000/svg" width="116" height="116" viewBox="0 0 116 116">
  <g id="Grupo_985348" data-name="Grupo 985348" transform="translate(-427 -545)">
    <rect id="Rectángulo_344878" data-name="Rectángulo 344878" width="116" height="116" rx="10" transform="translate(427 545)" fill="#fff"/>
    <g id="la-contaminacion-acustica" transform="translate(443 561)">
      <path id="Trazado_729767" data-name="Trazado 729767" d="M151.144,255.512h4.217V244.306a13.109,13.109,0,1,1,26.218,0v11.206H185.8V244.306a17.326,17.326,0,1,0-34.652,0Z" transform="translate(-126.169 -189.474)" fill="#9bb9c1"/>
      <path id="Trazado_729768" data-name="Trazado 729768" d="M151.144,379.654h4.217v3.3h-4.217Z" transform="translate(-126.169 -316.921)" fill="#86a0af"/>
      <path id="Trazado_729769" data-name="Trazado 729769" d="M335.335,379.654h4.217v3.3h-4.217Z" transform="translate(-279.925 -316.921)" fill="#86a0af"/>
      <path id="Trazado_729770" data-name="Trazado 729770" d="M129.935,415.514H125.7a5.013,5.013,0,0,1-5.013-5.013v-5.834a5.013,5.013,0,0,1,5.013-5.013h4.237Z" transform="translate(-100.743 -333.616)" fill="#4073c8"/>
      <path id="Trazado_729771" data-name="Trazado 729771" d="M179.421,409.58h-1.376a1.38,1.38,0,0,1-1.38-1.38V392.171a1.38,1.38,0,0,1,1.38-1.38h1.376a2.4,2.4,0,0,1,2.4,2.4v13.994A2.4,2.4,0,0,1,179.421,409.58Z" transform="translate(-147.473 -326.218)" fill="#617881"/>
      <path id="Trazado_729772" data-name="Trazado 729772" d="M335.335,415.514h4.237a5.013,5.013,0,0,0,5.013-5.013v-5.834a5.013,5.013,0,0,0-5.013-5.013h-4.237Z" transform="translate(-279.925 -333.616)" fill="#4073c8"/>
      <path id="Trazado_729773" data-name="Trazado 729773" d="M129.168,399.654a5.045,5.045,0,0,0-.72.051v10.9a2.427,2.427,0,0,1-2.427,2.427h-1.179a5.01,5.01,0,0,0,4.326,2.479h4.237v-15.86Z" transform="translate(-104.214 -333.616)" fill="#3b66c1"/>
      <path id="Trazado_729774" data-name="Trazado 729774" d="M339.572,399.654h-.631a4.99,4.99,0,0,1,.687,2.534v5.834a5.014,5.014,0,0,1-4.293,4.961v2.53h4.237a5.013,5.013,0,0,0,5.013-5.013v-5.834A5.013,5.013,0,0,0,339.572,399.654Z" transform="translate(-279.925 -333.616)" fill="#3b66c1"/>
      <path id="Trazado_729775" data-name="Trazado 729775" d="M306.542,409.58h1.376a1.38,1.38,0,0,0,1.38-1.38V392.171a1.38,1.38,0,0,0-1.38-1.38h-1.376a2.4,2.4,0,0,0-2.4,2.4v13.994A2.4,2.4,0,0,0,306.542,409.58Z" transform="translate(-253.889 -326.218)" fill="#617881"/>
      <path id="Trazado_729776" data-name="Trazado 729776" d="M199.938,254.162l2.543-1.652q-.25-.009-.5-.009a13.1,13.1,0,0,0-10.693,5.534l2.456,2.879a.584.584,0,0,0,.888,0l5.253-6.157A.38.38,0,0,1,199.938,254.162Z" transform="translate(-159.679 -210.778)" fill="#dd636e"/>
      <path id="Trazado_729777" data-name="Trazado 729777" d="M199.938,254.162l2.543-1.652q-.25-.009-.5-.009a13.1,13.1,0,0,0-10.693,5.534l2.456,2.879a.584.584,0,0,0,.888,0l5.253-6.157A.38.38,0,0,1,199.938,254.162Z" transform="translate(-159.679 -210.778)" fill="#da4a54"/>
      <path id="Trazado_729778" data-name="Trazado 729778" d="M73.772,32.54a.584.584,0,0,0,0-.979l-6.916-4.492a.584.584,0,0,1-.257-.591l1.45-8.227a.584.584,0,0,0-.644-.681l-8.332.986a.584.584,0,0,1-.617-.379l-2.9-7.934a.584.584,0,0,0-.847-.3l-7.259,4.322a.584.584,0,0,1-.743-.123L41.213,7.705a.584.584,0,0,0-.888,0l-5.491,6.436a.584.584,0,0,1-.743.123L26.831,9.942a.584.584,0,0,0-.847.3l-2.9,7.934a.584.584,0,0,1-.617.379l-8.332-.986a.584.584,0,0,0-.644.681l1.45,8.227a.584.584,0,0,1-.257.591L7.766,31.561a.584.584,0,0,0,0,.979l6.916,4.492a.584.584,0,0,1,.257.591l-1.45,8.227a.584.584,0,0,0,.644.681l7.988-.945a.584.584,0,0,1,.641.7L19.289,63.237a.584.584,0,0,0,.984.531L34.067,50.03a.584.584,0,0,1,.856.035l.14.165a17.293,17.293,0,0,1,13.5-6.463,17.5,17.5,0,0,1,2.2.138l-.514-2.917a.38.38,0,0,1,.419-.443l5.419.641a.38.38,0,0,0,.4-.247l1.888-5.16a.38.38,0,0,1,.551-.2l4.721,2.811a.38.38,0,0,0,.483-.08L67.7,34.129a.38.38,0,0,1,.578,0L69.362,35.4Z" transform="translate(-6.261 -6.261)" fill="#dd636e"/>
      <path id="Trazado_729779" data-name="Trazado 729779" d="M338.894,82.408l-6.916-4.492a.584.584,0,0,1-.257-.591l1.45-8.227a.584.584,0,0,0-.644-.681l-6.565.777-.851,4.827a.584.584,0,0,0,.257.591l3.313,2.152a3.375,3.375,0,0,1,0,5.66l-3.313,2.152a.584.584,0,0,0-.257.591l.374,2.124,3.279,1.952a.38.38,0,0,0,.483-.08l3.572-4.186a.38.38,0,0,1,.578,0l1.088,1.275,4.409-2.864a.584.584,0,0,0,0-.979Z" transform="translate(-271.383 -57.108)" fill="#da4a54"/>
      <path id="Trazado_729780" data-name="Trazado 729780" d="M257.923,265.658a13.125,13.125,0,0,0-12.607-13.1l-2.543,1.652a.38.38,0,0,0,0,.637l4.5,2.922a.38.38,0,0,1,.167.384L246.5,263.5a.38.38,0,0,0,.419.443l5.419-.641a.38.38,0,0,1,.4.247l1.887,5.16a.38.38,0,0,0,.551.2l2.751-1.638Z" transform="translate(-202.513 -210.826)" fill="#ffd064"/>
      <path id="Trazado_729781" data-name="Trazado 729781" d="M305.352,184.134a.38.38,0,0,0,0-.637l-4.5-2.922a.379.379,0,0,1-.167-.384l.943-5.351a.38.38,0,0,0-.419-.443l-5.419.641a.38.38,0,0,1-.4-.247l-1.887-5.16a.38.38,0,0,0-.551-.2l-4.721,2.811a.38.38,0,0,1-.483-.08l-3.572-4.186a.38.38,0,0,0-.578,0l-3.572,4.186a.38.38,0,0,1-.483.08l-4.721-2.811a.38.38,0,0,0-.551.2l-1.888,5.16a.38.38,0,0,1-.4.247l-5.419-.641a.38.38,0,0,0-.419.443l.514,2.917a17.329,17.329,0,0,1,15.131,17.188v2.585l1.809,2.12a.38.38,0,0,0,.578,0l3.513-4.118a.38.38,0,0,1,.557-.023l8.971,8.935a.38.38,0,0,0,.64-.345L295.6,193.072a.38.38,0,0,1,.417-.453l5.2.615a.38.38,0,0,0,.419-.443l-.943-5.351a.38.38,0,0,1,.167-.384Z" transform="translate(-222.163 -140.113)" fill="#ffd064"/>
      <path id="Trazado_729782" data-name="Trazado 729782" d="M423.008,209.772l-4.5-2.922a.379.379,0,0,1-.167-.384l.943-5.351a.38.38,0,0,0-.419-.443l-5.419.641a.38.38,0,0,1-.4-.247l-.637-1.742-.477,2.705a2.116,2.116,0,0,0,.931,2.142l1.293.84a2.116,2.116,0,0,1,0,3.549l-1.293.84a2.116,2.116,0,0,0-.931,2.142l.338,1.919a2.116,2.116,0,0,1-2.332,2.469l-.489-.058a2.116,2.116,0,0,0-2.322,2.526l1.185,5.788,6.56,6.534a.38.38,0,0,0,.64-.345l-2.258-11.027a.38.38,0,0,1,.417-.453l5.2.615a.38.38,0,0,0,.419-.443l-.943-5.351a.38.38,0,0,1,.167-.384l4.5-2.922A.38.38,0,0,0,423.008,209.772Z" transform="translate(-339.819 -166.388)" fill="#ffc250"/>
      <path id="Trazado_729783" data-name="Trazado 729783" d="M197.866,80.493a2.819,2.819,0,0,1,2.816,2.949l-.537,11.669a2.282,2.282,0,0,1-4.559,0l-.537-11.669A2.819,2.819,0,0,1,197.866,80.493Z" transform="translate(-162.818 -67.193)" fill="#617881"/>
      <path id="Trazado_729784" data-name="Trazado 729784" d="M201.1,212.591a2.179,2.179,0,1,0-2.179-2.179A2.179,2.179,0,0,0,201.1,212.591Z" transform="translate(-166.052 -173.824)" fill="#617881"/>
      <path id="Trazado_729785" data-name="Trazado 729785" d="M83.864,42.344l-4.021-2.612.844-4.79A1.619,1.619,0,0,0,78.9,33.053l-4.744.561L72.5,29.092a1.619,1.619,0,0,0-2.349-.835l-4.1,2.44-1.1-1.285,3.225-2.094a1.823,1.823,0,0,0,0-3.058L61.633,20l1.374-7.8A1.823,1.823,0,0,0,61,10.078L53.18,11,50.456,3.556a1.823,1.823,0,0,0-2.645-.94l-6.784,4.04L35.895.64a1.823,1.823,0,0,0-2.774,0L27.988,6.655,21.2,2.616a1.823,1.823,0,0,0-2.645.94L15.835,11l-7.817-.925A1.823,1.823,0,0,0,6.008,12.2L7.383,20,.83,24.261a1.823,1.823,0,0,0,0,3.058l6.553,4.256-1.375,7.8A1.823,1.823,0,0,0,8.018,41.5l7.087-.839-3.29,16.066a1.823,1.823,0,0,0,3.073,1.657l9.981-9.941A18.476,18.476,0,0,0,23.735,54.8v2.45a1.239,1.239,0,1,0,2.479,0v-2.42a16.087,16.087,0,1,1,32.174,0V64.8H56.649V54.832a14.348,14.348,0,1,0-28.7,0V64.8H26.214V63.035a1.239,1.239,0,0,0-2.479,0v1.883A6.263,6.263,0,0,0,18.7,71.05v5.834a6.259,6.259,0,0,0,6.252,6.252h3.267A2.622,2.622,0,0,0,30.572,84.6h1.376a3.641,3.641,0,0,0,3.637-3.637V66.971a3.641,3.641,0,0,0-3.637-3.637c-1.457,0-1.416,0-1.517,0V54.832a11.8,11.8,0,0,1,1.34-5.475l1.35,1.582a1.823,1.823,0,0,0,2.774,0l4.543-5.325,3.168,2.057-.844,4.79a1.619,1.619,0,0,0,1.785,1.889l4.744-.561,1.654,4.521a1.619,1.619,0,0,0,2.349.836l.877-.522v4.714q-.07,0-.141,0H52.654a3.641,3.641,0,0,0-3.637,3.637V80.965A3.641,3.641,0,0,0,52.654,84.6H54.03a2.622,2.622,0,0,0,2.351-1.465h3.267A6.259,6.259,0,0,0,65.9,76.885V71.051a6.263,6.263,0,0,0-5.033-6.133V60.663a1.619,1.619,0,0,0,2.09-.322l2.91-3.411,8.314,8.28a1.619,1.619,0,0,0,2.728-1.472l-.676-3.3a1.239,1.239,0,0,0-2.428.5l.1.5-6.951-6.923a1.619,1.619,0,0,0-2.374.1l-2.859,3.351-.858-1.006V54.832a18.6,18.6,0,0,0-15.3-18.279l-.159-.9,4.271.506A1.617,1.617,0,0,0,51.385,35.1l1.531-4.186L56.747,33.2a1.615,1.615,0,0,0,2.06-.341l2.918-3.42,2.918,3.42a1.616,1.616,0,0,0,2.06.34l3.831-2.281L72.063,35.1a1.612,1.612,0,0,0,1.711,1.052l4.271-.506L77.3,39.862a1.616,1.616,0,0,0,.713,1.639L81.4,43.7l-3.388,2.2a1.616,1.616,0,0,0-.713,1.639l.742,4.212L74,51.275a1.619,1.619,0,0,0-1.777,1.933l.4,1.936a1.239,1.239,0,1,0,2.428-.5l-.158-.77,4.013.475a1.619,1.619,0,0,0,1.784-1.889l-.844-4.791,4.021-2.612a1.619,1.619,0,0,0,0-2.716ZM21.181,76.885V71.05a3.778,3.778,0,0,1,3.774-3.774h3V80.658h-3A3.777,3.777,0,0,1,21.181,76.885Zm9.391-11.072h1.376a1.16,1.16,0,0,1,1.158,1.158V80.965a1.16,1.16,0,0,1-1.158,1.158H30.572a.141.141,0,0,1-.141-.141V65.953a.141.141,0,0,1,.141-.141Zm3.936-17.066L33.2,47.216a11.9,11.9,0,0,1,5.661-3.747,1.623,1.623,0,0,0-.016.191Zm18.408,7.74L51.385,52.3a1.613,1.613,0,0,0-1.711-1.051l-4.271.506.742-4.212a1.616,1.616,0,0,0-.713-1.639l-3.389-2.2,1.095-.711A11.886,11.886,0,0,1,54.17,54.832v.907Zm1.254,25.5a.141.141,0,0,1-.141.141H52.653A1.16,1.16,0,0,1,51.5,80.965V66.971a1.16,1.16,0,0,1,1.158-1.158H54.03a.141.141,0,0,1,.141.141ZM63.42,71.05v5.834a3.778,3.778,0,0,1-3.774,3.774h-3V67.277h3A3.777,3.777,0,0,1,63.42,71.05ZM34.108,36.587a.94.94,0,1,1,.94.94A.941.941,0,0,1,34.108,36.587Zm26.384-9.524-3.1,3.635-4.1-2.44a1.619,1.619,0,0,0-2.35.834L49.29,33.614l-4.745-.561a1.619,1.619,0,0,0-1.784,1.889L43,36.279a18.607,18.607,0,0,0-4.531.385,3.419,3.419,0,1,0-5.843,2.329,18.7,18.7,0,0,0-4.088,3.394,1.819,1.819,0,0,0-1.6.5l-12.253,12.2,3.036-14.824a1.823,1.823,0,0,0-2-2.176L8.6,38.936l1.3-7.359a1.82,1.82,0,0,0-.8-1.846L3.026,25.79,9.1,21.847A1.82,1.82,0,0,0,9.9,20L8.6,12.643l7.456.883a1.819,1.819,0,0,0,1.927-1.184l2.63-7.191L27.2,9.068a1.819,1.819,0,0,0,2.32-.383l4.993-5.852L39.5,8.685a1.819,1.819,0,0,0,2.319.383L48.4,5.15l2.63,7.191a1.819,1.819,0,0,0,1.926,1.184l7.456-.883L59.117,20a1.82,1.82,0,0,0,.8,1.846l6.07,3.942-2.651,1.722-.382-.448a1.619,1.619,0,0,0-2.463,0Z"/>
      <path id="Trazado_729786" data-name="Trazado 729786" d="M191.6,72.993a4.056,4.056,0,0,0-4.054,4.245l.213,4.625a1.239,1.239,0,0,0,2.476-.114l-.213-4.625a1.58,1.58,0,1,1,3.157,0l-.537,11.668a1.043,1.043,0,0,1-2.083,0l-.053-1.156a1.239,1.239,0,1,0-2.476.114l.053,1.156a3.521,3.521,0,0,0,7.035,0l.537-11.669A4.056,4.056,0,0,0,191.6,72.993Z" transform="translate(-156.556 -60.932)"/>
    </g>
  </g>
</svg>
