<svg xmlns="http://www.w3.org/2000/svg" width="62" height="62" viewBox="0 0 62 62">
  <g id="Grupo_985320" data-name="Grupo 985320" transform="translate(-201 -2246)">
    <g id="Grupo_984588" data-name="Grupo 984588" transform="translate(-43 -8177)">
      <g id="Rectángulo_340676" data-name="Rectángulo 340676" transform="translate(244 10423)" fill="none" stroke="#39a900" stroke-width="3">
        <rect width="62" height="62" rx="7" stroke="none"/>
        <rect x="1.5" y="1.5" width="59" height="59" rx="5.5" fill="none"/>
      </g>
    </g>
    <g id="ciudad" transform="translate(208 2245.85)">
      <g id="Grupo_985318" data-name="Grupo 985318" transform="translate(0.7 8.85)">
        <path id="Trazado_729667" data-name="Trazado 729667" d="M374.954,32.431l1.852,1.716,1.852-1.716-.732-8.4h-2.239Z" transform="translate(-340.671 -23.252)" fill="#f8f6f6"/>
        <path id="Trazado_729668" data-name="Trazado 729668" d="M376.806,34.148l-1.852-1.716.732-8.4h.942l-.117,8.4Z" transform="translate(-340.671 -23.252)" fill="#ebebeb"/>
        <path id="Trazado_729669" data-name="Trazado 729669" d="M340.161,114.035h10.2v4.957h-10.2Z" transform="translate(-309.124 -104.855)" fill="#ebebeb"/>
        <path id="Trazado_729670" data-name="Trazado 729670" d="M340.161,114.035h2.413v4.957h-2.413Z" transform="translate(-309.124 -104.855)" fill="#e2e2e2"/>
        <path id="Trazado_729671" data-name="Trazado 729671" d="M315.819,150.815h14.738V169.4H315.819Z" transform="translate(-287.053 -138.204)" fill="#f8f6f6"/>
        <path id="Trazado_729672" data-name="Trazado 729672" d="M315.819,150.815h2.2V169.4h-2.2Z" transform="translate(-287.053 -138.204)" fill="#ebebeb"/>
        <path id="Trazado_729673" data-name="Trazado 729673" d="M159.109,190.444h17.6v28.541h-17.6Z" transform="translate(-144.964 -174.136)" fill="#ebebeb"/>
        <path id="Trazado_729674" data-name="Trazado 729674" d="M159.109,190.444h2.051v28.541h-2.051Z" transform="translate(-144.964 -174.136)" fill="#e2e2e2"/>
        <path id="Trazado_729675" data-name="Trazado 729675" d="M7.5,282.225H23.509V302.2H7.5Z" transform="translate(-7.5 -257.353)" fill="#f8f6f6"/>
        <path id="Trazado_729676" data-name="Trazado 729676" d="M7.5,282.225H9.365V302.2H7.5Z" transform="translate(-7.5 -257.353)" fill="#ebebeb"/>
        <g id="Grupo_985302" data-name="Grupo 985302" transform="translate(1.138)">
          <path id="Trazado_729677" data-name="Trazado 729677" d="M20.111,33.783a1.4,1.4,0,0,1-.41-.99A17.164,17.164,0,0,1,36.847,15.648a1.4,1.4,0,1,1,0,2.8A14.365,14.365,0,0,0,22.5,32.794a1.4,1.4,0,0,1-2.389.99Z" transform="translate(-19.701 -15.648)" fill="#fe646f"/>
          <path id="Trazado_729678" data-name="Trazado 729678" d="M84.949,92.571a1.4,1.4,0,0,1-.41-.99,11.1,11.1,0,0,1,11.1-11.1,1.4,1.4,0,1,1,0,2.8,8.3,8.3,0,0,0-8.3,8.3,1.4,1.4,0,0,1-2.389.99Z" transform="translate(-78.49 -74.436)" fill="#fe646f"/>
        </g>
        <g id="Grupo_985303" data-name="Grupo 985303" transform="translate(3.206 27.726)">
          <path id="Trazado_729679" data-name="Trazado 729679" d="M41.866,312.819h2.979v17.124H41.866Z" transform="translate(-41.866 -312.819)" fill="#8abbd5"/>
          <path id="Trazado_729680" data-name="Trazado 729680" d="M112.8,312.819h2.979v17.124H112.8Z" transform="translate(-106.183 -312.819)" fill="#8abbd5"/>
        </g>
        <g id="Grupo_985306" data-name="Grupo 985306" transform="translate(18.407 18.821)">
          <g id="Grupo_985304" data-name="Grupo 985304" transform="translate(6.19)">
            <path id="Trazado_729681" data-name="Trazado 729681" d="M271.134,217.379h2.885v4.84h-2.885Z" transform="translate(-271.134 -217.379)" fill="#8abbd5"/>
          </g>
          <g id="Grupo_985305" data-name="Grupo 985305">
            <path id="Trazado_729682" data-name="Trazado 729682" d="M204.792,217.379h2.885v4.84h-2.885Z" transform="translate(-204.792 -217.379)" fill="#8abbd5"/>
          </g>
        </g>
        <g id="Grupo_985309" data-name="Grupo 985309" transform="translate(18.407 26.919)">
          <g id="Grupo_985307" data-name="Grupo 985307" transform="translate(6.19)">
            <path id="Trazado_729683" data-name="Trazado 729683" d="M271.134,304.173h2.885v4.84h-2.885Z" transform="translate(-271.134 -304.173)" fill="#8abbd5"/>
          </g>
          <g id="Grupo_985308" data-name="Grupo 985308">
            <path id="Trazado_729684" data-name="Trazado 729684" d="M204.792,304.173h2.885v4.84h-2.885Z" transform="translate(-204.792 -304.173)" fill="#8abbd5"/>
          </g>
        </g>
        <g id="Grupo_985312" data-name="Grupo 985312" transform="translate(18.407 35.017)">
          <g id="Grupo_985310" data-name="Grupo 985310" transform="translate(6.19)">
            <path id="Trazado_729685" data-name="Trazado 729685" d="M271.134,390.966h2.885v4.84h-2.885Z" transform="translate(-271.134 -390.966)" fill="#8abbd5"/>
          </g>
          <g id="Grupo_985311" data-name="Grupo 985311">
            <path id="Trazado_729686" data-name="Trazado 729686" d="M204.792,390.966h2.885v4.84h-2.885Z" transform="translate(-204.792 -390.966)" fill="#8abbd5"/>
          </g>
        </g>
        <path id="Trazado_729687" data-name="Trazado 729687" d="M293.236,334.1h19.711v15.138H293.236Z" transform="translate(-266.577 -304.389)" fill="#fe646f"/>
        <path id="Trazado_729688" data-name="Trazado 729688" d="M293.236,334.1h2.3v15.138h-2.3Z" transform="translate(-266.577 -304.389)" fill="#fd4755"/>
        <g id="Grupo_985316" data-name="Grupo 985316" transform="translate(29.336 32.969)">
          <g id="Grupo_985313" data-name="Grupo 985313" transform="translate(5.736)">
            <path id="Trazado_729689" data-name="Trazado 729689" d="M383.4,369.018h2.885v7.167H383.4Z" transform="translate(-383.405 -369.018)" fill="#8abbd5"/>
          </g>
          <g id="Grupo_985314" data-name="Grupo 985314" transform="translate(11.471)">
            <path id="Trazado_729690" data-name="Trazado 729690" d="M444.879,369.018h2.885v7.167h-2.885Z" transform="translate(-444.879 -369.018)" fill="#8abbd5"/>
          </g>
          <g id="Grupo_985315" data-name="Grupo 985315">
            <path id="Trazado_729691" data-name="Trazado 729691" d="M321.931,369.018h2.885v7.167h-2.885Z" transform="translate(-321.931 -369.018)" fill="#8abbd5"/>
          </g>
        </g>
        <g id="Grupo_985317" data-name="Grupo 985317" transform="translate(34.073 17.549)">
          <path id="Trazado_729692" data-name="Trazado 729692" d="M424.9,203.745h2.42v12.162H424.9Z" transform="translate(-420.031 -203.745)" fill="#8abbd5"/>
          <path id="Trazado_729693" data-name="Trazado 729693" d="M372.7,203.745h2.42v12.162H372.7Z" transform="translate(-372.698 -203.745)" fill="#8abbd5"/>
        </g>
      </g>
      <g id="Grupo_985319" data-name="Grupo 985319" transform="translate(0 8.15)">
        <path id="Trazado_729694" data-name="Trazado 729694" d="M14.3,28.095A2.1,2.1,0,0,0,16.4,26a13.691,13.691,0,0,1,9.631-13.047.7.7,0,1,0-.411-1.338A15.091,15.091,0,0,0,15,26a.7.7,0,1,1-1.4,0A16.464,16.464,0,0,1,30.045,9.549a.7.7,0,1,1,0,1.4c-.353,0-.712.013-1.069.037a.7.7,0,0,0,.1,1.4c.325-.022.652-.034.972-.034a2.1,2.1,0,1,0,0-4.2A17.863,17.863,0,0,0,12.2,26a2.1,2.1,0,0,0,2.1,2.1Z" transform="translate(-11.062 -8.15)"/>
        <path id="Trazado_729695" data-name="Trazado 729695" d="M88.835,72.985h0a11.8,11.8,0,0,0-11.8,11.8,2.1,2.1,0,1,0,4.2,0,7.6,7.6,0,0,1,7.6-7.6,2.1,2.1,0,1,0,0-4.2Zm0,2.8a9,9,0,0,0-9,9,.7.7,0,1,1-1.4,0,10.4,10.4,0,0,1,10.4-10.4.7.7,0,1,1,0,1.4Z" transform="translate(-69.851 -66.936)"/>
        <path id="Trazado_729696" data-name="Trazado 729696" d="M66.99,450.009a.7.7,0,0,0-.7.7v3.624a.7.7,0,1,0,1.4,0v-3.624A.7.7,0,0,0,66.99,450.009Z" transform="translate(-60.105 -408.784)"/>
        <path id="Trazado_729697" data-name="Trazado 729697" d="M38.048,305.319H35.07a.7.7,0,0,0-.7.7v17.123a.7.7,0,1,0,1.4,0V306.719h1.579v9.536a.7.7,0,0,0,1.4,0V306.019A.7.7,0,0,0,38.048,305.319Z" transform="translate(-31.163 -277.593)"/>
        <path id="Trazado_729698" data-name="Trazado 729698" d="M108.98,305.319H106a.7.7,0,0,0-.7.7v17.124a.7.7,0,1,0,1.4,0V306.719h1.579v16.424a.7.7,0,1,0,1.4,0V306.019A.7.7,0,0,0,108.98,305.319Z" transform="translate(-95.477 -277.593)"/>
        <path id="Trazado_729699" data-name="Trazado 729699" d="M264.334,216.12h2.885a.7.7,0,0,0,.7-.7v-4.84a.7.7,0,0,0-.7-.7h-2.885a.7.7,0,0,0-.7.7v4.84A.7.7,0,0,0,264.334,216.12Zm.7-4.84h1.486v3.441h-1.486Z" transform="translate(-239.037 -191.059)"/>
        <path id="Trazado_729700" data-name="Trazado 729700" d="M200.877,209.879h-2.885a.7.7,0,0,0-.7.7v4.84a.7.7,0,0,0,.7.7h2.885a.7.7,0,0,0,.7-.7v-4.84A.7.7,0,0,0,200.877,209.879Zm-.7,4.84h-1.486v-3.441h1.486Z" transform="translate(-178.885 -191.058)"/>
        <path id="Trazado_729701" data-name="Trazado 729701" d="M200.877,296.673h-2.885a.7.7,0,0,0-.7.7v4.84a.7.7,0,0,0,.7.7h2.885a.7.7,0,0,0,.7-.7v-4.84A.7.7,0,0,0,200.877,296.673Zm-.7,4.84h-1.486v-3.441h1.486Z" transform="translate(-178.885 -269.754)"/>
        <path id="Trazado_729702" data-name="Trazado 729702" d="M200.877,383.466h-2.885a.7.7,0,0,0-.7.7v4.84a.7.7,0,0,0,.7.7h2.885a.7.7,0,0,0,.7-.7v-4.84A.7.7,0,0,0,200.877,383.466Zm-.7,4.84h-1.486v-3.441h1.486Z" transform="translate(-178.885 -348.449)"/>
        <path id="Trazado_729703" data-name="Trazado 729703" d="M47.07,45.463H44.9v-16.4a.7.7,0,0,0-.7-.7H42.633V25.631a.7.7,0,0,0-.7-.7h-2.6l-.676-7.758a.7.7,0,0,0-.7-.639H35.715a.7.7,0,0,0-.7.639l-.676,7.758h-2.6a.7.7,0,0,0-.7.7v2.731H29.466a.7.7,0,0,0-.7.7v3H14.845a.7.7,0,0,0-.7.7v7.864H.7a.7.7,0,0,0-.7.7V61.3a.7.7,0,0,0,1.4,0V42.023h14.61V61.3a.7.7,0,1,0,1.4,0V41.323a.7.7,0,0,0-.7-.7H15.545V33.459h16.2v12H28.882V43.37a.7.7,0,0,0-.7-.7H25.3a.7.7,0,0,0-.7.7v4.84a.7.7,0,0,0,.7.7h1.363v1.858H25.3a.7.7,0,0,0-.7.7v4.84a.7.7,0,0,0,.7.7h1.363V61.3a.7.7,0,0,0,1.4,0V46.863H46.37V61.3a.7.7,0,1,0,1.4,0V46.163a.7.7,0,0,0-.7-.7ZM36.357,17.933h.957l.61,7H35.747Zm-3.92,8.4h8.8v2.032h-8.8Zm.007,5.729H30.166v-2.3H43.5v15.7h-.741V40.085a.7.7,0,0,0-1.4,0v5.378H40.343V34.7h1.021v2.121a.7.7,0,1,0,1.4,0V34a.7.7,0,0,0-.7-.7h-2.42a.7.7,0,0,0-.7.7V45.463H37.892V34a.7.7,0,0,0-.7-.7h-2.42a.7.7,0,0,0-.7.7V45.463h-.929v-12.7a.7.7,0,0,0-.7-.7ZM26,47.511V44.07h1.486v1.393h-.123a.7.7,0,0,0-.7.7v1.348Zm0,8.1V52.168h.663v3.441Zm9.476-10.145V34.7h1.021V45.463H35.472Z" transform="translate(0 -15.752)"/>
        <path id="Trazado_729704" data-name="Trazado 729704" d="M379.49,361.518H376.6a.7.7,0,0,0-.7.7v7.167a.7.7,0,0,0,.7.7h2.885a.7.7,0,0,0,.7-.7v-7.167A.7.7,0,0,0,379.49,361.518Zm-.7,7.167H377.3v-5.768h1.486Z" transform="translate(-340.833 -328.549)"/>
        <path id="Trazado_729705" data-name="Trazado 729705" d="M440.964,361.518h-2.885a.7.7,0,0,0-.7.7v7.167a.7.7,0,0,0,.7.7h2.885a.7.7,0,0,0,.7-.7v-7.167A.7.7,0,0,0,440.964,361.518Zm-.7,7.167h-1.486v-5.768h1.486Z" transform="translate(-396.572 -328.549)"/>
        <path id="Trazado_729706" data-name="Trazado 729706" d="M318.015,361.518H315.13a.7.7,0,0,0-.7.7v7.167a.7.7,0,0,0,.7.7h2.885a.7.7,0,0,0,.7-.7v-7.167A.7.7,0,0,0,318.015,361.518Zm-.7,7.167h-1.486v-5.768h1.486Z" transform="translate(-285.094 -328.549)"/>
      </g>
    </g>
  </g>
</svg>
