<svg xmlns="http://www.w3.org/2000/svg" width="116" height="116" viewBox="0 0 116 116">
  <g id="Grupo_985349" data-name="Grupo 985349" transform="translate(-1057 -545)">
    <rect id="Rectángulo_344879" data-name="Rectángulo 344879" width="116" height="116" rx="10" transform="translate(1057 545)" fill="#badc61"/>
    <g id="spray-de-perfume" transform="translate(1074.002 561)">
      <path id="Trazado_729787" data-name="Trazado 729787" d="M62.666,28.614c0,6.513-3.736,11.8-8.333,11.8S46,35.128,46,28.614c0-5.139,2.319-9.513,5.555-11.124V18.2a2.778,2.778,0,1,0,5.555,0V17.49C60.346,19.1,62.666,23.476,62.666,28.614Z" transform="translate(17.497 6.8)" fill="#ffdf00"/>
      <path id="Trazado_729788" data-name="Trazado 729788" d="M55.361,17.49V18.2a2.764,2.764,0,0,1-1.017,2.128,14.6,14.6,0,0,1,2.405,8.288c0,5.493-2.661,10.1-6.25,11.417a6.029,6.029,0,0,0,2.083.387c4.6,0,8.333-5.291,8.333-11.8C60.916,23.476,58.6,19.1,55.361,17.49Z" transform="translate(19.246 6.8)" fill="#fec108"/>
      <path id="Trazado_729789" data-name="Trazado 729789" d="M46.359,26.944H28.61l.347-4.389A2.778,2.778,0,0,1,31.721,20H43.248a2.778,2.778,0,0,1,2.764,2.555Z" transform="translate(10.736 7.776)" fill="#3f51b5"/>
      <path id="Trazado_729790" data-name="Trazado 729790" d="M43.08,22.555A2.778,2.778,0,0,0,40.316,20H36.15a2.778,2.778,0,0,1,2.764,2.555l.347,4.389h4.166Z" transform="translate(13.667 7.776)" fill="#283593"/>
      <path id="Trazado_729791" data-name="Trazado 729791" d="M55.684,40.068C43.449,42.5,40.727,48.61,31.227,48.61a20.415,20.415,0,0,1-10.027-2.6,20.878,20.878,0,0,1,5.889-7.888,11.047,11.047,0,0,0,3.972-7.652L31.491,25H49.24l.431,5.472a11.047,11.047,0,0,0,3.972,7.652,20.744,20.744,0,0,1,2.042,1.944Z" transform="translate(7.855 9.72)" fill="#02a9f4"/>
      <path id="Trazado_729792" data-name="Trazado 729792" d="M51.421,38.124a11.047,11.047,0,0,1-3.972-7.652L47.018,25H42.852l.431,5.472a11.046,11.046,0,0,0,3.972,7.652A20.745,20.745,0,0,1,49.3,40.068C38,42.311,34.811,47.678,26.914,48.494c.675.067,1.367.115,2.092.115,9.5,0,12.221-6.111,24.457-8.541a20.743,20.743,0,0,0-2.042-1.944Z" transform="translate(10.076 9.72)" fill="#0377bc"/>
      <path id="Trazado_729793" data-name="Trazado 729793" d="M61.664,49.946a20.658,20.658,0,0,1-4.18,12.5H24.18a20.775,20.775,0,0,1-2.514-20.651,20.415,20.415,0,0,0,10.027,2.6c9.5,0,12.221-6.111,24.457-8.541a20.757,20.757,0,0,1,5.514,14.1Z" transform="translate(7.388 13.938)" fill="#ffdf00"/>
      <path id="Trazado_729794" data-name="Trazado 729794" d="M46.995,35.85c-1.25.249-2.378.542-3.446.857a20.728,20.728,0,0,1,.612,25.739h4.166a20.776,20.776,0,0,0-1.333-26.6Z" transform="translate(16.544 13.938)" fill="#fec108"/>
      <path id="Trazado_729795" data-name="Trazado 729795" d="M56.313,55a21.164,21.164,0,0,1-4.652,4.527,5.665,5.665,0,0,1-3.236,1.028H30.9a5.665,5.665,0,0,1-3.236-1.028A21.164,21.164,0,0,1,23.01,55Z" transform="translate(8.558 21.384)" fill="#02a9f4"/>
      <path id="Trazado_729796" data-name="Trazado 729796" d="M46.2,55a21.164,21.164,0,0,1-4.652,4.527,5.665,5.665,0,0,1-3.236,1.028h4.166a5.665,5.665,0,0,0,3.236-1.028A21.164,21.164,0,0,0,50.365,55Z" transform="translate(14.507 21.384)" fill="#0377bc"/>
      <path id="Trazado_729797" data-name="Trazado 729797" d="M42.11,8.778V25.443H31V14.333a2.778,2.778,0,1,0,2.778-2.778A2.778,2.778,0,0,0,31,14.333V8.778A2.786,2.786,0,0,1,33.778,6h5.555A2.786,2.786,0,0,1,42.11,8.778Z" transform="translate(11.665 2.333)" fill="#9e9e9e"/>
      <path id="Trazado_729798" data-name="Trazado 729798" d="M38.166,6H34a2.786,2.786,0,0,1,2.778,2.778V25.443h4.166V8.778A2.786,2.786,0,0,0,38.166,6Z" transform="translate(12.831 2.333)" fill="#707070"/>
      <path id="Trazado_729799" data-name="Trazado 729799" d="M59.832,18.333V21.11a2.778,2.778,0,1,1-5.555,0V18.333A2.786,2.786,0,0,0,51.5,15.555H39V10H51.5A8.333,8.333,0,0,1,59.832,18.333Z" transform="translate(14.775 3.888)" fill="#607d8b"/>
      <circle id="Elipse_5910" data-name="Elipse 5910" cx="2.5" cy="2.5" r="2.5" transform="translate(42.998 14)" fill="#607d8b"/>
      <path id="Trazado_729800" data-name="Trazado 729800" d="M48.164,10.555V9.166A4.166,4.166,0,0,0,44,5H38.443a4.166,4.166,0,0,0-4.166,4.166V24.635A4.177,4.177,0,0,0,31.3,28.283l-.775,9.851a9.749,9.749,0,0,1-3.472,6.7A22.2,22.2,0,0,0,28.43,80.106a6.965,6.965,0,0,0,4.028,1.278H49.981a6.965,6.965,0,0,0,4.028-1.278,22.2,22.2,0,0,0,1.375-35.269,9.749,9.749,0,0,1-3.472-6.7l-.772-9.849a4.179,4.179,0,0,0-2.975-3.65V18.888h11.11a1.389,1.389,0,0,1,1.389,1.389v1.307c-3.346,2.143-5.555,6.763-5.555,11.887,0,7.275,4.362,13.194,9.722,13.194s9.722-5.919,9.722-13.194c0-5.123-2.21-9.744-5.555-11.887V20.277a9.733,9.733,0,0,0-9.722-9.722ZM38.443,7.778H44a1.389,1.389,0,0,1,1.389,1.389V24.443H37.054V18.632a4.119,4.119,0,0,0,1.389.256,4.166,4.166,0,0,0,0-8.333,4.119,4.119,0,0,0-1.389.256V9.166A1.389,1.389,0,0,1,38.443,7.778Zm-1.389,6.944a1.389,1.389,0,1,1,1.389,1.389A1.389,1.389,0,0,1,37.054,14.722ZM52.413,77.836a4.2,4.2,0,0,1-2.432.771H32.46a4.2,4.2,0,0,1-2.432-.771,19.3,19.3,0,0,1-2.365-2.007H54.778a19.3,19.3,0,0,1-2.365,2.007Zm8.251-15.895a19.443,19.443,0,0,1-3.508,11.11H25.285A19.356,19.356,0,0,1,22.8,55.723a22.018,22.018,0,0,0,9.28,2.051c5.344,0,8.763-1.85,12.387-3.809a41.085,41.085,0,0,1,11.551-4.583A19.336,19.336,0,0,1,60.664,61.941ZM53.617,46.976c.039.032.071.068.11.1a44.88,44.88,0,0,0-10.578,4.444C39.554,53.469,36.723,55,32.082,55a18.9,18.9,0,0,1-8.174-1.858,19.443,19.443,0,0,1,4.916-6.162A12.542,12.542,0,0,0,33.3,38.352l.328-4.187H48.814l.328,4.187a12.542,12.542,0,0,0,4.475,8.624ZM48.6,31.387H33.844l.228-2.887a1.389,1.389,0,0,1,1.389-1.279H46.988A1.389,1.389,0,0,1,48.377,28.5ZM71.774,33.47c0,5.645-3.18,10.416-6.944,10.416s-6.944-4.771-6.944-10.416a12.276,12.276,0,0,1,3.168-8.681,4.148,4.148,0,0,0,7.552,0,12.276,12.276,0,0,1,3.168,8.681ZM66.219,20.277v2.778a1.389,1.389,0,1,1-2.778,0V20.277a4.166,4.166,0,0,0-4.166-4.166H48.164V13.333h11.11A6.952,6.952,0,0,1,66.219,20.277Z" transform="translate(7 1.944)"/>
      <path id="Trazado_729801" data-name="Trazado 729801" d="M9.343,27.651c0,.042-.01.082-.01.125a8.333,8.333,0,1,0,16.666,0,1.389,1.389,0,1,0-2.778,0,5.555,5.555,0,1,1-10-3.341A1.391,1.391,0,1,0,11,22.761a8.283,8.283,0,0,0-1.157,2.15,6.9,6.9,0,0,1,0-13.7,8.333,8.333,0,0,0,1.149,2.133,1.4,1.4,0,0,0,2.23-1.676,5.5,5.5,0,0,1-1.111-3.333,5.555,5.555,0,0,1,11.11,0,1.389,1.389,0,1,0,2.778,0,8.333,8.333,0,1,0-16.666,0c0,.037.008.072.008.11a9.7,9.7,0,0,0,0,19.208Z" transform="translate(0 0)"/>
      <path id="Trazado_729802" data-name="Trazado 729802" d="M15.389,11.778H32.054a1.389,1.389,0,1,0,0-2.778H15.389a1.389,1.389,0,0,0,0,2.778Z" transform="translate(5.055 3.499)"/>
      <path id="Trazado_729803" data-name="Trazado 729803" d="M15.389,17.778H32.054a1.389,1.389,0,1,0,0-2.778H15.389a1.389,1.389,0,1,0,0,2.778Z" transform="translate(5.055 5.832)"/>
    </g>
  </g>
</svg>
