<svg xmlns="http://www.w3.org/2000/svg" xmlns:xlink="http://www.w3.org/1999/xlink" width="62" height="62" viewBox="0 0 62 62">
  <defs>
    <clipPath id="clip-path">
      <rect id="Rect치ngulo_345361" data-name="Rect치ngulo 345361" width="44.156" height="46.062" fill="none"/>
    </clipPath>
  </defs>
  <g id="Grupo_985545" data-name="Grupo 985545" transform="translate(-653 -5767)">
    <g id="Grupo_984833" data-name="Grupo 984833" transform="translate(409 -4656)">
      <g id="Rect치ngulo_340676" data-name="Rect치ngulo 340676" transform="translate(244 10423)" fill="none" stroke="#39a900" stroke-width="3">
        <rect width="62" height="62" rx="7" stroke="none"/>
        <rect x="1.5" y="1.5" width="59" height="59" rx="5.5" fill="none"/>
      </g>
    </g>
    <g id="Grupo_985544" data-name="Grupo 985544" transform="translate(662 5775)">
      <g id="Grupo_985543" data-name="Grupo 985543" clip-path="url(#clip-path)">
        <path id="Trazado_730190" data-name="Trazado 730190" d="M32.621,5.328c.43-.382.637-.408,1.112-.1A21.375,21.375,0,0,1,43.8,20.185c1.34,8.105-1.158,15.016-7.262,20.514a20.929,20.929,0,0,1-11.773,5.19A21.743,21.743,0,0,1,8.282,41.227c-.5-.39-.542-.565-.312-1.153a.812.812,0,0,1,1.164.1,3.266,3.266,0,0,0,.316.25,17.347,17.347,0,0,0,3.711,2.235v0c.036.079.109.089.183.1a17.121,17.121,0,0,0,3.922,1.391,20.087,20.087,0,0,0,4.881.57c.061-.156-.02-.259-.059-.369a2.682,2.682,0,0,1,.928-3.317,1.156,1.156,0,0,0,.5-.868A2.2,2.2,0,0,0,22.836,38a4.25,4.25,0,0,1-.432-.457,2.732,2.732,0,0,1-.335-3.913,1.354,1.354,0,0,0-.755-2.2c-.852-.285-1.7-.578-2.562-.831a2.448,2.448,0,0,1-1.527-1.226c-.6-1.087-1.238-2.156-1.871-3.226-.277-.467-.686-.47-.991-.021-.143.211-.265.435-.4.649a1.876,1.876,0,0,1-3.426-1.49c.337-1.32.683-2.637,1.025-3.955a1.959,1.959,0,0,1,1.069-1.316c.643-.322,1.28-.654,1.918-.986.489-.254.575-.518.342-1.022a1.855,1.855,0,0,0-1.645-1,6.654,6.654,0,0,1-3.031-1.029c-.43-.3-.9-.536-1.351-.8-.225-.145-.442-.309-.678-.433a4.879,4.879,0,0,1-2.66-3.061c0-.018-.04-.028-.077-.053-.047.056-.1.109-.141.168A20.7,20.7,0,0,0,6.882,38.08.815.815,0,0,1,7.025,39.2c-.577.275-.734.246-1.169-.236A21.451,21.451,0,0,1,.076,22.324,21.583,21.583,0,0,1,10,5.5a1.01,1.01,0,0,0,.52-.789A5.292,5.292,0,0,1,14.88.079c.033,0,.059-.052.089-.079H16.5c.154.176.382.109.572.16a4.847,4.847,0,0,1,2.442,1.43,1.107,1.107,0,0,0,1.051.377A21.42,21.42,0,0,1,30.725,3.659c.608.257.677.377.617,1.018a.8.8,0,0,1-1.1.247,17.614,17.614,0,0,0-2.575-.915,21.167,21.167,0,0,0-6.53-.75c-.344.013-.464.076-.328.465A5.844,5.844,0,0,1,20.867,7a12.853,12.853,0,0,1-3.035,5.529,2.508,2.508,0,0,1-4.121.045,21.411,21.411,0,0,1-1.614-2.15,12,12,0,0,1-1.452-3.451c-.068-.326-.234-.128-.348-.05a19.918,19.918,0,0,0-3.569,3.123c-.088.1-.19.189-.149.35A4.082,4.082,0,0,0,7.951,12.99a12.675,12.675,0,0,0,1.607.971,8.857,8.857,0,0,0,4.285,1.8,2.777,2.777,0,0,1,2.387,1.931,1.886,1.886,0,0,1-.944,2.471c-.581.31-1.161.625-1.759.9a1.137,1.137,0,0,0-.741.923,11.126,11.126,0,0,1-.293,1.129c-.221.84-.445,1.678-.659,2.519a.533.533,0,1,0,.976.427c.107-.18.22-.357.331-.535a1.887,1.887,0,0,1,3.447.046c.621,1.06,1.242,2.119,1.849,3.186a1.042,1.042,0,0,0,.635.518c.97.3,1.942.608,2.9.962a2.569,2.569,0,0,1,1.765,2.423,2.87,2.87,0,0,1-.612,1.838,1.379,1.379,0,0,0,.164,2.014,5.917,5.917,0,0,0,.435.455,3.448,3.448,0,0,1,1.173,3.1,2.5,2.5,0,0,1-.935,1.918c-.784.577-.907,1.192-.483,2.213a.594.594,0,0,0,.739.422,20.817,20.817,0,0,0,10.358-4.09,20.543,20.543,0,0,0,5.755-6.7c.082-.152.261-.3.01-.494-.92-.693-1.829-1.4-2.731-2.093-.121.058-.129.154-.161.236a14.218,14.218,0,0,1-2.871,4.475,2.39,2.39,0,0,1-3.589.09,11.769,11.769,0,0,1-3.529-7.053c-.02-.235-.081-.3-.332-.234a1.9,1.9,0,0,1-1.628-.29c-.536-.384-1.079-.76-1.6-1.162a1.909,1.909,0,0,1-.4-2.716,16.172,16.172,0,0,1,1-1.33,7.306,7.306,0,0,0,1.672-3.656,4.417,4.417,0,0,1,3.513-3.72,4.26,4.26,0,0,1,1.562-.073A1.553,1.553,0,0,0,33,14.873c.207-.448.453-.878.7-1.307a2.653,2.653,0,0,1,2.082-1.4,1.61,1.61,0,0,0,1.318-.882,6.931,6.931,0,0,1,.389-.708c.155-.215.116-.344-.055-.53A21.151,21.151,0,0,0,33.066,6.4c-.531-.335-.6-.5-.445-1.069m.525,19.244a3.918,3.918,0,0,0-4.34,4.179c.136,2.6,1.538,4.609,3.241,6.433a1,1,0,0,0,1.458-.069,5.747,5.747,0,0,0,.83-1A11.082,11.082,0,0,0,36.2,30.926a6.592,6.592,0,0,0,.458-2.809,3.92,3.92,0,0,0-3.515-3.545M17.321,10.986a9.786,9.786,0,0,0,2.365-5.175,3.952,3.952,0,0,0-3.535-4.426,4.023,4.023,0,0,0-4.3,4.708,11.309,11.309,0,0,0,3.134,5.846,1.053,1.053,0,0,0,1.566-.018,4.763,4.763,0,0,0,.765-.935m21.262.456c-.079.123-.153.217-.206.322A2.913,2.913,0,0,1,35.9,13.515a1.287,1.287,0,0,0-1.024.724c-.3.538-.575,1.085-.884,1.615a2.538,2.538,0,0,1-1.909,1.272c-.528.082-1.048-.035-1.568,0a3.222,3.222,0,0,0-3.037,2.766,7.123,7.123,0,0,1-1.28,3.357c-.544.657-1.037,1.357-1.543,2.045a.6.6,0,0,0,.076.946c.5.381,1.007.756,1.53,1.1a1.079,1.079,0,0,0,1.458-.511,5.364,5.364,0,0,1,1.244-2.058,5.254,5.254,0,0,1,6.083-1.066,5.35,5.35,0,0,1,2.926,5.665.567.567,0,0,0,.244.639c.866.644,1.725,1.3,2.564,1.974.295.238.373.165.5-.148a20.627,20.627,0,0,0,.436-14.5,20.053,20.053,0,0,0-3.128-5.9" transform="translate(0)" fill="#020303"/>
        <path id="Trazado_730191" data-name="Trazado 730191" d="M29.418,16.3a21.4,21.4,0,0,0,1.613,2.15,2.508,2.508,0,0,0,4.121-.045,12.851,12.851,0,0,0,3.035-5.528A5.843,5.843,0,0,0,38.128,9.6c-.136-.389-.015-.452.328-.465a21.165,21.165,0,0,1,6.529.75,17.614,17.614,0,0,1,2.575.915.8.8,0,0,0,1.1-.247l1.278.651c-.152.565-.086.734.445,1.069a21.142,21.142,0,0,1,4.37,3.651c.171.187.209.315.054.53a6.857,6.857,0,0,0-.388.708,1.612,1.612,0,0,1-1.318.882,2.654,2.654,0,0,0-2.082,1.4c-.246.428-.491.859-.7,1.306a1.553,1.553,0,0,1-1.759.939A4.278,4.278,0,0,0,47,21.762a4.416,4.416,0,0,0-3.513,3.72,7.309,7.309,0,0,1-1.673,3.656,16.251,16.251,0,0,0-1,1.33,1.909,1.909,0,0,0,.4,2.716c.522.4,1.065.778,1.6,1.162a1.905,1.905,0,0,0,1.629.29c.25-.062.312,0,.331.234a11.771,11.771,0,0,0,3.528,7.053,2.391,2.391,0,0,0,3.589-.09,14.212,14.212,0,0,0,2.871-4.475c.032-.082.04-.178.161-.236.9.693,1.812,1.4,2.731,2.093.251.19.073.342-.01.494a20.543,20.543,0,0,1-5.755,6.7A20.821,20.821,0,0,1,41.534,50.5a.594.594,0,0,1-.739-.422c-.425-1.02-.3-1.636.483-2.213a2.5,2.5,0,0,0,.935-1.918,3.448,3.448,0,0,0-1.173-3.1,5.916,5.916,0,0,1-.435-.455,1.379,1.379,0,0,1-.164-2.013,2.875,2.875,0,0,0,.612-1.838,2.569,2.569,0,0,0-1.765-2.423c-.953-.353-1.925-.657-2.9-.962a1.043,1.043,0,0,1-.635-.518c-.607-1.067-1.229-2.126-1.849-3.186a1.887,1.887,0,0,0-3.447-.046c-.111.178-.224.355-.331.535a.533.533,0,1,1-.976-.427c.215-.841.438-1.679.659-2.519a11.038,11.038,0,0,0,.292-1.129,1.138,1.138,0,0,1,.741-.923c.6-.274,1.178-.589,1.759-.9a1.886,1.886,0,0,0,.944-2.471,2.777,2.777,0,0,0-2.387-1.931,8.86,8.86,0,0,1-4.284-1.8,12.334,12.334,0,0,1,1.315-2.068A6.706,6.706,0,0,1,29.418,16.3" transform="translate(-17.32 -5.877)" fill="#70d3b3"/>
        <path id="Trazado_730192" data-name="Trazado 730192" d="M15.613,63.734A17.344,17.344,0,0,1,11.9,61.5a3.223,3.223,0,0,1-.317-.249.812.812,0,0,0-1.164-.1,6.548,6.548,0,0,1-.946-.871.815.815,0,0,0-.143-1.124A20.758,20.758,0,0,1,7.755,32.87c.043-.059.094-.112.141-.168.037.025.072.035.078.053a4.878,4.878,0,0,0,2.659,3.061c.237.124.453.288.679.433-.4.8-.739,1.633-1.061,2.471A24,24,0,0,0,8.79,46.146a24.844,24.844,0,0,0,1.186,8.238,23.117,23.117,0,0,0,5.415,8.98c.1.1.239.192.222.37" transform="translate(-2.451 -21.073)" fill="#3859c3"/>
        <path id="Trazado_730193" data-name="Trazado 730193" d="M24.617,70.164c.017-.178-.119-.265-.222-.37a23.117,23.117,0,0,1-5.415-8.98,24.844,24.844,0,0,1-1.186-8.238,24,24,0,0,1,1.461-7.425c.322-.838.659-1.668,1.061-2.471.452.265.921.5,1.351.8A6.646,6.646,0,0,0,24.7,44.51a1.855,1.855,0,0,1,1.645,1c.233.5.147.767-.342,1.022-.638.331-1.275.664-1.918.986a1.958,1.958,0,0,0-1.069,1.316c-.343,1.318-.688,2.636-1.026,3.955a1.876,1.876,0,0,0,3.426,1.49c.138-.214.26-.439.4-.649.305-.449.714-.447.991.021.633,1.07,1.269,2.139,1.872,3.226A2.445,2.445,0,0,0,30.207,58.1c.861.253,1.711.546,2.562.831a1.354,1.354,0,0,1,.755,2.2,2.731,2.731,0,0,0,.335,3.913,4.22,4.22,0,0,0,.432.457,2.2,2.2,0,0,1,.685,2.161,1.156,1.156,0,0,1-.505.868,2.682,2.682,0,0,0-.928,3.317c.039.11.12.213.059.369a20.071,20.071,0,0,1-4.881-.57A17.122,17.122,0,0,1,24.8,70.259a.155.155,0,0,0-.183-.1Z" transform="translate(-11.455 -27.503)" fill="#5776d0"/>
        <path id="Trazado_730194" data-name="Trazado 730194" d="M82.915,32.177a20.053,20.053,0,0,1,3.128,5.9,20.627,20.627,0,0,1-.436,14.5c-.125.313-.2.385-.5.148-.839-.678-1.7-1.33-2.564-1.974a.567.567,0,0,1-.244-.639,5.35,5.35,0,0,0-2.926-5.665,5.254,5.254,0,0,0-6.083,1.066,5.364,5.364,0,0,0-1.244,2.058,1.079,1.079,0,0,1-1.458.511c-.523-.348-1.03-.723-1.53-1.1a.6.6,0,0,1-.076-.946c.506-.688,1-1.388,1.543-2.045a7.123,7.123,0,0,0,1.28-3.357,3.222,3.222,0,0,1,3.037-2.766c.52-.038,1.04.079,1.568,0a2.538,2.538,0,0,0,1.909-1.272c.309-.53.589-1.077.884-1.615a1.287,1.287,0,0,1,1.024-.724A2.913,2.913,0,0,0,82.709,32.5c.053-.1.127-.2.206-.322" transform="translate(-44.332 -20.735)" fill="#5776cf"/>
        <path id="Trazado_730195" data-name="Trazado 730195" d="M38.711,13.45a4.776,4.776,0,0,1-.765.936,1.053,1.053,0,0,1-1.566.018,11.308,11.308,0,0,1-3.134-5.846,4.022,4.022,0,0,1,4.3-4.707,7.512,7.512,0,0,0-.82,1.572,2.382,2.382,0,0,0-.2,4.636,6.116,6.116,0,0,0,2.195,3.393" transform="translate(-21.39 -2.464)" fill="#e05a6f"/>
        <path id="Trazado_730196" data-name="Trazado 730196" d="M86.524,78.6a5.747,5.747,0,0,1-.83,1,1,1,0,0,1-1.458.069c-1.7-1.825-3.1-3.832-3.241-6.433a3.918,3.918,0,0,1,4.34-4.179,4.157,4.157,0,0,0-.809,1.549,2.4,2.4,0,0,0-.27,4.657,6.342,6.342,0,0,0,1.4,2.6,1.94,1.94,0,0,0,.862.743" transform="translate(-52.191 -44.484)" fill="#e05a6f"/>
        <path id="Trazado_730197" data-name="Trazado 730197" d="M24,22.739a6.706,6.706,0,0,0-1.225,1.468,12.333,12.333,0,0,0-1.315,2.068,12.7,12.7,0,0,1-1.607-.971,4.085,4.085,0,0,1-1.372-2.592c-.042-.161.06-.252.149-.35A19.906,19.906,0,0,1,22.2,19.238c.114-.078.281-.276.348.05A12.014,12.014,0,0,0,24,22.739" transform="translate(-11.905 -12.313)" fill="#31c494"/>
        <path id="Trazado_730198" data-name="Trazado 730198" d="M44.733,13.5A6.116,6.116,0,0,1,42.538,10.1a2.378,2.378,0,0,0,2.886-3.024,2.426,2.426,0,0,0-2.682-1.612,7.512,7.512,0,0,1,.82-1.572A3.951,3.951,0,0,1,47.1,8.321,9.782,9.782,0,0,1,44.733,13.5" transform="translate(-27.412 -2.51)" fill="#f58595"/>
        <path id="Trazado_730199" data-name="Trazado 730199" d="M92.445,78.646a1.94,1.94,0,0,1-.862-.743,6.343,6.343,0,0,1-1.4-2.6c.089.01.178.014.266.03a2.357,2.357,0,0,0,2.724-2.726,2.391,2.391,0,0,0-2.72-1.961,4.157,4.157,0,0,1,.809-1.549,3.92,3.92,0,0,1,3.515,3.545,6.594,6.594,0,0,1-.458,2.809,11.082,11.082,0,0,1-1.869,3.191" transform="translate(-58.111 -44.529)" fill="#f68595"/>
        <path id="Trazado_730200" data-name="Trazado 730200" d="M37.013,119.96a.155.155,0,0,1,.183.1c-.074-.008-.147-.018-.183-.1" transform="translate(-23.851 -77.302)" fill="#3859c3"/>
        <path id="Trazado_730201" data-name="Trazado 730201" d="M39.588,8.312A2.426,2.426,0,0,1,42.27,9.924a2.379,2.379,0,0,1-2.886,3.024,2.382,2.382,0,0,1,.2-4.636m.42,1.338a1.008,1.008,0,1,0,1.021,1.022A1,1,0,0,0,40.008,9.65" transform="translate(-24.258 -5.355)" fill="#040203"/>
        <path id="Trazado_730202" data-name="Trazado 730202" d="M87.355,73.448a2.391,2.391,0,0,1,2.719,1.961,2.357,2.357,0,0,1-2.724,2.726c-.087-.015-.177-.02-.266-.03a2.4,2.4,0,0,1,.27-4.657m.373,1.335a1.022,1.022,0,1,0,.059,2.044,1.022,1.022,0,0,0-.059-2.044" transform="translate(-55.018 -47.327)" fill="#040303"/>
        <path id="Trazado_730203" data-name="Trazado 730203" d="M42.472,12.078a1.008,1.008,0,1,1-1,.994,1,1,0,0,1,1-.994" transform="translate(-26.721 -7.783)" fill="#e3e2f4"/>
        <path id="Trazado_730204" data-name="Trazado 730204" d="M90.176,77.211a1.022,1.022,0,1,1-1,1.051,1.036,1.036,0,0,1,1-1.051" transform="translate(-57.465 -49.755)" fill="#e1e0f2"/>
      </g>
    </g>
  </g>
</svg>
