<svg xmlns="http://www.w3.org/2000/svg" width="88" height="88" viewBox="0 0 88 88">
  <g id="Grupo_983791" data-name="Grupo 983791" transform="translate(-756 -1417)">
    <g id="Grupo_960922" data-name="Grupo 960922" transform="translate(470 -158)">
      <circle id="Elipse_4813" data-name="Elipse 4813" cx="44" cy="44" r="44" transform="translate(286 1575)" fill="#0e494d"/>
    </g>
    <g id="identificar" transform="translate(772.824 1432.825)">
      <path id="Trazado_729812" data-name="Trazado 729812" d="M195.493,73.456a16.02,16.02,0,1,0-16.02-16.02A16.038,16.038,0,0,0,195.493,73.456Zm0-30.388a14.369,14.369,0,1,1-14.369,14.369A14.385,14.385,0,0,1,195.493,43.068Z" transform="translate(-159.72 -36.859)" fill="#fff"/>
      <path id="Trazado_729813" data-name="Trazado 729813" d="M242.738,112.7h16.644a.825.825,0,0,0,.715-1.238l-1.492-2.585a.825.825,0,1,0-1.43.825l.778,1.347H244.168l6.892-11.938,4.151,7.19a.825.825,0,0,0,1.43-.825l-4.866-8.428a.825.825,0,0,0-1.43,0l-8.322,14.414a.825.825,0,0,0,.715,1.238Z" transform="translate(-215.288 -86.003)" fill="#fff"/>
      <path id="Trazado_729814" data-name="Trazado 729814" d="M319.18,152.687a.825.825,0,0,0-1.651,0v2.268a.825.825,0,0,0,1.651,0Z" transform="translate(-282.582 -135.148)" fill="#fff"/>
      <circle id="Elipse_5912" data-name="Elipse 5912" cx="0.825" cy="0.825" r="0.825" transform="translate(34.946 21.954)" fill="#fff"/>
      <path id="Trazado_729815" data-name="Trazado 729815" d="M38.185,101.053,42.6,102.2a2.345,2.345,0,1,0,1.176-4.54l-4.413-1.143a2.345,2.345,0,1,0-1.176,4.54ZM38.1,98.609a.694.694,0,0,1,.846-.5l4.413,1.143a.694.694,0,1,1-.348,1.344L38.6,99.455a.7.7,0,0,1-.5-.846Z" transform="translate(-32.418 -85.824)" fill="#fff"/>
      <path id="Trazado_729816" data-name="Trazado 729816" d="M30.616,184.973l4.55-.279h0a2.345,2.345,0,0,0-.287-4.681l-4.55.279a2.345,2.345,0,0,0,.286,4.681Zm-.663-2.8a.69.69,0,0,1,.477-.233l4.55-.279a.694.694,0,0,1,.085,1.385l-4.55.279A.7.7,0,0,1,29.953,182.173Z" transform="translate(-25.031 -160.198)" fill="#fff"/>
      <path id="Trazado_729817" data-name="Trazado 729817" d="M72.04,21.467l3.842,2.452a2.345,2.345,0,1,0,2.523-3.953l-3.843-2.452a2.345,2.345,0,0,0-2.523,3.953Zm.676-2.35a.7.7,0,0,1,.958-.212l3.843,2.452a.694.694,0,1,1-.747,1.17l-3.843-2.452A.694.694,0,0,1,72.717,19.117Z" transform="translate(-63.146 -15.259)" fill="#fff"/>
      <path id="Trazado_729818" data-name="Trazado 729818" d="M50.324,6.027A20.619,20.619,0,0,0,22.916,4.485a.825.825,0,1,0,1.03,1.29A18.942,18.942,0,0,1,54.7,20.8,18.93,18.93,0,0,1,25.427,36.43a2.119,2.119,0,0,0-2.647.271l-4.2,4.2-3.13-3.13,4.2-4.2a2.119,2.119,0,0,0,.271-2.647A18.979,18.979,0,0,1,21.279,8.376a.825.825,0,1,0-1.263-1.063,20.632,20.632,0,0,0-1.477,24.514.455.455,0,0,1-.057.576l-4.2,4.2-.41-.41a.942.942,0,0,0-1.33,0l-1.5,1.5a.961.961,0,0,0-1.247.1l-2.4,2.4a.961.961,0,0,0-.1,1.247L.276,48.461A.935.935,0,0,0,0,49.126v6.4a.825.825,0,0,0,.825.825h6.4a.935.935,0,0,0,.665-.275l7.026-7.026a.961.961,0,0,0,1.247-.1l2.4-2.4a.961.961,0,0,0,.1-1.247l1.5-1.5a.94.94,0,0,0,0-1.33l-.409-.409,4.2-4.2a.455.455,0,0,1,.576-.056,20.579,20.579,0,0,0,25.8-31.784ZM13.211,37.861,18.49,43.14l-.988.988-5.279-5.279ZM15.483,47.3l-.98-.98a.825.825,0,0,0-1.167,1.167l.405.405L6.931,54.7H1.652V49.42l6.81-6.81,2.147,2.147a.825.825,0,1,0,1.167-1.167L9.054,40.867l1.426-1.426,6.43,6.43Z" transform="translate(0)" fill="#fff"/>
    </g>
  </g>
</svg>
