<svg xmlns="http://www.w3.org/2000/svg" width="62" height="62" viewBox="0 0 62 62">
  <g id="Grupo_985322" data-name="Grupo 985322" transform="translate(-516 -2246)">
    <g id="Grupo_984589" data-name="Grupo 984589" transform="translate(272 -8177)">
      <g id="Rectángulo_340676" data-name="Rectángulo 340676" transform="translate(244 10423)" fill="none" stroke="#39a900" stroke-width="3">
        <rect width="62" height="62" rx="7" stroke="none"/>
        <rect x="1.5" y="1.5" width="59" height="59" rx="5.5" fill="none"/>
      </g>
    </g>
    <g id="cartel-de-la-calle" transform="translate(522.761 2252.761)">
      <g id="Grupo_985345" data-name="Grupo 985345" transform="translate(0.782 0.782)">
        <g id="Grupo_985335" data-name="Grupo 985335">
          <path id="Trazado_729745" data-name="Trazado 729745" d="M5.691,9.6V47.914H1V1H5.691V9.6Z" transform="translate(-1 -1)" fill="#aab2bd"/>
        </g>
        <g id="Grupo_985336" data-name="Grupo 985336" transform="translate(4.691 3.91)">
          <path id="Trazado_729746" data-name="Trazado 729746" d="M7,6h6.255v4.691H7Z" transform="translate(-7 -6)" fill="#ccd1d9"/>
        </g>
        <g id="Grupo_985337" data-name="Grupo 985337" transform="translate(10.947)">
          <path id="Trazado_729747" data-name="Trazado 729747" d="M40.021,1V13.51H15V1Z" transform="translate(-15 -1)" fill="#ff826e"/>
        </g>
        <g id="Grupo_985338" data-name="Grupo 985338" transform="translate(14.074 3.128)">
          <path id="Trazado_729748" data-name="Trazado 729748" d="M19,5h6.255v6.255H19Z" transform="translate(-19 -5)" fill="#ffeaa7"/>
        </g>
        <g id="Grupo_985339" data-name="Grupo 985339" transform="translate(40.659 14.074)">
          <path id="Trazado_729749" data-name="Trazado 729749" d="M56.128,26.819A3.127,3.127,0,0,1,53,23.691C53,21.963,54.4,19,56.128,19s3.128,2.963,3.128,4.691A3.127,3.127,0,0,1,56.128,26.819Z" transform="translate(-53 -19)" fill="#b4dd7f"/>
        </g>
        <g id="Grupo_985340" data-name="Grupo 985340" transform="translate(7.835 15.638)">
          <path id="Trazado_729750" data-name="Trazado 729750" d="M14.148,28.819a3.127,3.127,0,0,1-3.128-3.128c0-1.728,1.4-4.691,3.128-4.691s3.128,2.963,3.128,4.691A3.127,3.127,0,0,1,14.148,28.819Z" transform="translate(-11.02 -21)" fill="#b4dd7f"/>
        </g>
        <g id="Grupo_985341" data-name="Grupo 985341" transform="translate(10.157 14.856)">
          <path id="Trazado_729751" data-name="Trazado 729751" d="M39.8,20H22.6L13.99,52.058H48.409Z" transform="translate(-13.99 -20)" fill="#969faa"/>
        </g>
        <g id="Grupo_985342" data-name="Grupo 985342" transform="translate(25.803 35.968)">
          <path id="Trazado_729752" data-name="Trazado 729752" d="M34,47h3.128v7.819H34Z" transform="translate(-34 -47)" fill="#e6e9ed"/>
        </g>
        <g id="Grupo_985343" data-name="Grupo 985343" transform="translate(25.803 25.021)">
          <path id="Trazado_729753" data-name="Trazado 729753" d="M34,33h3.128v7.819H34Z" transform="translate(-34 -33)" fill="#e6e9ed"/>
        </g>
        <g id="Grupo_985344" data-name="Grupo 985344" transform="translate(25.803 14.856)">
          <path id="Trazado_729754" data-name="Trazado 729754" d="M34,20h3.128v7.037H34Z" transform="translate(-34 -20)" fill="#e6e9ed"/>
        </g>
      </g>
      <g id="Grupo_985346" data-name="Grupo 985346">
        <path id="Trazado_729755" data-name="Trazado 729755" d="M10.947,10.165v3.91H37.531V0H10.947V3.91H6.255V0H0V48.478H6.255V10.165Zm1.564-8.6H35.968V12.51H12.51Zm-1.564,3.91V8.6H6.255V5.473ZM4.691,46.914H1.564V1.564H4.691Z"/>
        <path id="Trazado_729756" data-name="Trazado 729756" d="M35.293,7.266,36.4,8.372l1.793-1.793v5.15h1.564V6.579l1.793,1.793,1.106-1.106-3.68-3.68Z" transform="translate(-7.697 -0.782)"/>
        <path id="Trazado_729757" data-name="Trazado 729757" d="M18,11.819h7.819V4H18Zm1.564-6.255h4.691v4.691H19.564Z" transform="translate(-3.926 -0.872)"/>
        <path id="Trazado_729758" data-name="Trazado 729758" d="M30,4h3.128V5.564H30Z" transform="translate(-6.543 -0.872)"/>
        <path id="Trazado_729759" data-name="Trazado 729759" d="M30,8h3.128V9.564H30Z" transform="translate(-6.543 -1.745)"/>
        <path id="Trazado_729760" data-name="Trazado 729760" d="M30,12h3.128v1.564H30Z" transform="translate(-6.543 -2.617)"/>
        <path id="Trazado_729761" data-name="Trazado 729761" d="M55.128,27.3V30.51h1.564V27.3a3.916,3.916,0,0,0,3.128-3.831C59.819,21.594,58.3,18,55.91,18S52,21.594,52,23.473A3.917,3.917,0,0,0,55.128,27.3Zm.782-7.74c1.088,0,2.346,2.365,2.346,3.91a2.343,2.343,0,0,1-1.564,2.2V22.691H55.128v2.984a2.343,2.343,0,0,1-1.564-2.2C53.564,21.929,54.822,19.564,55.91,19.564Z" transform="translate(-11.341 -3.926)"/>
        <path id="Trazado_729762" data-name="Trazado 729762" d="M14.711,32.51V29.3a3.916,3.916,0,0,0,3.128-3.831c0-1.879-1.522-5.473-3.91-5.473s-3.91,3.594-3.91,5.473A3.917,3.917,0,0,0,13.148,29.3V32.51Zm-3.128-7.037c0-1.544,1.258-3.91,2.346-3.91s2.346,2.365,2.346,3.91a2.343,2.343,0,0,1-1.564,2.2V24.691H13.148v2.984A2.341,2.341,0,0,1,11.584,25.473Z" transform="translate(-2.185 -4.362)"/>
        <path id="Trazado_729763" data-name="Trazado 729763" d="M39.686,19.74l-1.511.407,8.344,31.073H14.14l8.344-31.073-1.511-.407L12.521,51.219H10v1.564H50.659V51.219H48.138Z" transform="translate(-2.181 -4.305)"/>
        <path id="Trazado_729764" data-name="Trazado 729764" d="M33,55.383h4.691V46H33Zm1.564-7.819h1.564v6.255H34.564Z" transform="translate(-7.197 -10.032)"/>
        <path id="Trazado_729765" data-name="Trazado 729765" d="M37.691,32H33v9.383h4.691Zm-1.564,7.819H34.564V33.564h1.564Z" transform="translate(-7.197 -6.979)"/>
        <path id="Trazado_729766" data-name="Trazado 729766" d="M37.691,20H36.128v6.255H34.564V20H33v7.819h4.691Z" transform="translate(-7.197 -4.362)"/>
      </g>
    </g>
  </g>
</svg>
