<svg xmlns="http://www.w3.org/2000/svg" width="62" height="62" viewBox="0 0 62 62">
  <g id="Grupo_985323" data-name="Grupo 985323" transform="translate(-516 -2246)">
    <g id="Grupo_984589" data-name="Grupo 984589" transform="translate(272 -8177)">
      <g id="Rectángulo_340676" data-name="Rectángulo 340676" transform="translate(244 10423)" fill="none" stroke="#39a900" stroke-width="3">
        <rect width="62" height="62" rx="7" stroke="none"/>
        <rect x="1.5" y="1.5" width="59" height="59" rx="5.5" fill="none"/>
      </g>
    </g>
    <g id="coche-de-policia" transform="translate(522 2254)">
      <path id="Trazado_729707" data-name="Trazado 729707" d="M14.427,297.18H10V285.09H49.786l8.618,1.959V297.18Zm0,0" transform="translate(-9.016 -257.042)" fill="#fff"/>
      <path id="Trazado_729708" data-name="Trazado 729708" d="M17.116,297.18H10V285.09h7.116Zm0,0" transform="translate(-9.016 -257.042)" fill="#686c83"/>
      <path id="Trazado_729709" data-name="Trazado 729709" d="M423.024,297.18h-8.618V285.09l8.618,1.959Zm0,0" transform="translate(-373.637 -257.042)" fill="#686c83"/>
      <path id="Trazado_729710" data-name="Trazado 729710" d="M460.825,295.639v3.837h-2.279a2.214,2.214,0,0,1-2.214-2.214v-2.645Zm0,0" transform="translate(-411.438 -265.632)" fill="#ff5d5d"/>
      <path id="Trazado_729711" data-name="Trazado 729711" d="M10,285.09h3.585v2.943a2.214,2.214,0,0,1-2.214,2.214H10Zm0,0" transform="translate(-9.016 -257.042)" fill="#ff5d5d"/>
      <path id="Trazado_729712" data-name="Trazado 729712" d="M81.68,189.09h19.868l6.766,9.445h-33.4Zm0,0" transform="translate(-67.544 -170.487)" fill="#c9f3ff"/>
      <path id="Trazado_729713" data-name="Trazado 729713" d="M362.918,371.895a3.937,3.937,0,1,1-3.937-3.938A3.937,3.937,0,0,1,362.918,371.895Zm0,0" transform="translate(-320.113 -331.757)" fill="#898998"/>
      <path id="Trazado_729714" data-name="Trazado 729714" d="M68.66,371.895a3.937,3.937,0,1,1-3.938-3.938A3.937,3.937,0,0,1,68.66,371.895Zm0,0" transform="translate(-54.805 -331.757)" fill="#898998"/>
      <path id="Trazado_729715" data-name="Trazado 729715" d="M199.9,148.09h11.039v4.034H199.9Zm0,0" transform="translate(-180.232 -133.521)" fill="#4dbaf6"/>
      <path id="Trazado_729716" data-name="Trazado 729716" d="M199.9,148.09h5.519v4.034H199.9Zm0,0" transform="translate(-180.232 -133.521)" fill="#ff5d5d"/>
      <path id="Trazado_729717" data-name="Trazado 729717" d="M49.606,153.551l-8.254-1.876L34.8,142.534a.984.984,0,0,0-.8-.411H31.689v-3.05a.984.984,0,0,0-.984-.984H19.666a.984.984,0,0,0-.984.984v3.05H14.136a.983.983,0,0,0-.8.411l-6.471,9.034H.984a.984.984,0,0,0-.984.984v12.09a.984.984,0,0,0,.984.984H5.1a4.921,4.921,0,0,0,9.644,0H34.045a4.921,4.921,0,0,0,9.644,0h5.7a.984.984,0,0,0,.984-.984V154.511A.984.984,0,0,0,49.606,153.551Zm-1.2,3.812h-1.3a1.231,1.231,0,0,1-1.23-1.23v-1.412l2.525.574Zm-9.549-5.8H27.016v-7.477H33.5ZM9.918,159.721a4.929,4.929,0,0,0-.834.072v-2.315h5.378a.984.984,0,1,0,0-1.968H9.084v-1.975H25.048v10.122H14.739A4.929,4.929,0,0,0,9.918,159.721Zm19.8-17.6H26.646a.977.977,0,0,0-.476-.2v-1.861h3.552v2.066Zm-9.071-2.066H24.2v2.066H20.65Zm-6.009,4.034H25.048v7.477H9.285ZM3.585,153.536v1.959a1.231,1.231,0,0,1-1.23,1.23H1.968v-3.189ZM5.1,163.658H1.968v-4.966h.388a3.2,3.2,0,0,0,3.2-3.2v-1.959H7.116v7.009c0,.018,0,.035,0,.052A4.932,4.932,0,0,0,5.1,163.658ZM9.918,167.6a2.954,2.954,0,1,1,2.953-2.953A2.957,2.957,0,0,1,9.918,167.6Zm24.127-3.937H27.016V153.536h12.77v6.273a4.918,4.918,0,0,0-5.741,3.85Zm4.822,3.937a2.954,2.954,0,1,1,2.953-2.953A2.957,2.957,0,0,1,38.867,167.6Zm4.822-3.937a4.93,4.93,0,0,0-1.935-3v-6.876l2.157.49v1.859a3.2,3.2,0,0,0,3.2,3.2h1.3v4.327Zm0,0" transform="translate(0 -124.504)"/>
      <path id="Trazado_729718" data-name="Trazado 729718" d="M288.361,320.211h-1.377a.984.984,0,1,0,0,1.968h1.377a.984.984,0,1,0,0-1.968Zm0,0" transform="translate(-257.863 -288.708)"/>
      <path id="Trazado_729719" data-name="Trazado 729719" d="M246.863,1.968a.984.984,0,0,0,.984-.984.984.984,0,1,0-1.679.7A.992.992,0,0,0,246.863,1.968Zm0,0" transform="translate(-221.689)"/>
      <path id="Trazado_729720" data-name="Trazado 729720" d="M246.867,40.73a.984.984,0,0,0-.984.984v4.965a.984.984,0,1,0,1.968,0V41.714A.984.984,0,0,0,246.867,40.73Zm0,0" transform="translate(-221.693 -36.723)"/>
      <path id="Trazado_729721" data-name="Trazado 729721" d="M150.9,59.273a.984.984,0,0,0,1.391-1.392l-3.605-3.6A.984.984,0,1,0,147.3,55.67Zm0,0" transform="translate(-132.547 -48.679)"/>
      <path id="Trazado_729722" data-name="Trazado 729722" d="M309.3,60.133a.982.982,0,0,0,.7-.288l3.57-3.568a.984.984,0,0,0-1.391-1.392l-3.57,3.568a.984.984,0,0,0,.7,1.68Zm0,0" transform="translate(-277.98 -49.226)"/>
      <path id="Trazado_729723" data-name="Trazado 729723" d="M176.351,315.46a.982.982,0,1,0,.289.7A.986.986,0,0,0,176.351,315.46Zm0,0" transform="translate(-157.487 -284.165)"/>
    </g>
  </g>
</svg>
