<svg xmlns="http://www.w3.org/2000/svg" xmlns:xlink="http://www.w3.org/1999/xlink" width="62" height="62" viewBox="0 0 62 62">
  <defs>
    <clipPath id="clip-path">
      <rect id="Rect치ngulo_345362" data-name="Rect치ngulo 345362" width="50.853" height="50.879" fill="none"/>
    </clipPath>
  </defs>
  <g id="Grupo_985548" data-name="Grupo 985548" transform="translate(-1073 -5767)">
    <g id="Grupo_984834" data-name="Grupo 984834" transform="translate(829 -4656)">
      <g id="Rect치ngulo_340676" data-name="Rect치ngulo 340676" transform="translate(244 10423)" fill="none" stroke="#39a900" stroke-width="3">
        <rect width="62" height="62" rx="7" stroke="none"/>
        <rect x="1.5" y="1.5" width="59" height="59" rx="5.5" fill="none"/>
      </g>
    </g>
    <g id="Grupo_985547" data-name="Grupo 985547" transform="translate(1079 5773)">
      <g id="Grupo_985546" data-name="Grupo 985546" clip-path="url(#clip-path)">
        <path id="Trazado_730205" data-name="Trazado 730205" d="M32.8,100.653a7.811,7.811,0,0,1-4.02.876c-7.558-.024-15.115-.008-22.673-.013a5.934,5.934,0,0,1-.436-11.86c.071,0,.141-.009.237-.015-.022-.218-.21-.315-.318-.456a5.717,5.717,0,0,1-.8-6.256,5.514,5.514,0,0,1,5.282-3.412,1.894,1.894,0,0,0,2.02-1.2c.362-.778.911-1.468,1.306-2.234a1.353,1.353,0,0,1,1.523-.851,1.668,1.668,0,0,0,.316-.015c.175.006.35.016.525.017.928,0,1.18.256,1.181,1.191,0,.9.008,1.791,0,2.686,0,.255.038.38.337.369.736-.026,1.474-.018,2.211-.024,1.446.007,2.893-.024,4.337.028A5.931,5.931,0,0,1,28.3,89.178c-.11.142-.224.28-.385.48.747,0,1.4-.021,2.048,0a5.938,5.938,0,0,1,5.466,7.3,6.268,6.268,0,0,1-2.629,3.7M6.776,82.868c.546,0,.948,0,1.349,0,.15,0,.343-.044.337.209a3.49,3.49,0,0,1-.083,1.4c-.132.262-.717.056-1.1.089-.088.008-.176,0-.265,0-1.15,0-1.161.02-1.092,1.165.023.377.124.556.562.541,1.093-.036,2.188-.012,3.282-.012,1.266,0,1.251,0,1.248,1.271,0,.361-.121.445-.454.431-.6-.024-1.2-.007-1.8-.007H6.774a4.257,4.257,0,0,0,3.4,1.69c3,.014,6,.005,9,0,.093,0,.3-.007.259-.072a6.325,6.325,0,0,0-1.1-1.523c-.462-.334-1.228-.09-1.861-.09-.3,0-.381-.094-.387-.391-.029-1.3-.039-1.318,1.256-1.3.424.005.484-.134.462-.515a5.808,5.808,0,0,1,1.415-4.2c.083-.1.222-.175.209-.379-1.024,0-2.042,0-3.06,0-.84,0-1.119-.275-1.122-1.1,0-.882.008-1.765-.008-2.647,0-.162.139-.412-.15-.482-.257-.062-.317.173-.412.331-.665,1.1-1.333,2.2-1.984,3.313a1.062,1.062,0,0,1-1.034.59c-.564-.019-1.131-.027-1.693.006a4.257,4.257,0,0,0-3.19,1.684m-4.1,15.284a.342.342,0,0,0,.15.306,4.224,4.224,0,0,0,3.165,1.357q4.423.007,8.846,0c.114,0,.242.049.376-.07l-.384-.483a6.028,6.028,0,0,1-1.281-3.3c-.034-.4.207-.932-.091-1.147-.271-.195-.781-.066-1.185-.067-1.3,0-1.291,0-1.277-1.3,0-.329.1-.423.42-.414.776.022,1.554.01,2.331,0,.166,0,.356.058.46-.159a7.223,7.223,0,0,1,1.028-1.457c-.082-.037-.111-.062-.14-.062-3.143,0-6.286-.022-9.429.016a3.9,3.9,0,0,0-2.806,1.306c-.085.089-.248.164-.151.358h5.4c1.22,0,1.2,0,1.223,1.2.009.43-.127.522-.533.518-2.172-.019-4.344-.011-6.516,0-.164,0-.4-.1-.482.093a2.092,2.092,0,0,0-.032,1.4c.118.378.489.167.737.174.879.027.88.01.88.9,0,.793,0,.793-.708.833m24.542-5.959c.74,0,1.394-.01,2.046,0a2.962,2.962,0,0,1,.571,5.864c-.438.1-.883.019-1.317.076-.489.064-.58-.13-.567-.579.032-1.107.009-1.108,1.124-1.124a1.279,1.279,0,1,0,.008-2.542c-.953-.006-1.907.021-2.86-.012-.379-.013-.513.131-.616.464a4.237,4.237,0,1,0,7.169-1.626,4.14,4.14,0,0,0-5.559-.522m-10.171,0c.74,0,1.393-.01,2.046,0a2.962,2.962,0,0,1,.572,5.864c-.438.1-.882.02-1.317.076-.484.063-.582-.124-.569-.577.033-1.109.01-1.11,1.122-1.126a1.279,1.279,0,1,0,.014-2.542c-.953-.007-1.907.019-2.859-.012a.531.531,0,0,0-.62.458,4.234,4.234,0,1,0,6.664-2.08,4.108,4.108,0,0,0-5.052-.062m4.2-10.171c.8,0,1.487-.018,2.172,0a2.962,2.962,0,0,1,.6,5.834,8.6,8.6,0,0,1-1.474.1c-.4.033-.543-.069-.532-.506.029-1.171.006-1.172,1.16-1.2a1.276,1.276,0,1,0-.009-2.541c-.971-.008-1.943.015-2.913-.011-.354-.009-.479.133-.576.444a4.26,4.26,0,1,0,1.568-2.128m4.12,9.367H23.773c.777,1.137.777,1.137,1.563.086a.534.534,0,0,0,.032-.086M23.793,99.81h1.621c-.856-1.163-.857-1.163-1.612-.106-.008.011,0,.031-.008.106" transform="translate(0 -50.65)" fill="#020101"/>
        <path id="Trazado_730206" data-name="Trazado 730206" d="M72.978,95.435a6.264,6.264,0,0,0,2.629-3.7,5.938,5.938,0,0,0-5.466-7.3c-.65-.025-1.3,0-2.048,0,.16-.2.275-.339.385-.48A5.931,5.931,0,0,0,64,74.269c-1.444-.052-2.891-.021-4.337-.028v-1.66a.839.839,0,0,1,.21-.015c.528.1.671-.1.653-.638-.045-1.323,0-2.649-.025-3.973-.008-.4.1-.488.49-.487q13.934.019,27.868,0c.4,0,.487.1.485.491q-.025,5.43,0,10.861c0,.451-.119.538-.549.536-4.538-.017-9.077-.011-13.616-.01-.828,0-1.1.281-1.106,1.115q0,1.828,0,3.656c0,.9.261,1.163,1.165,1.163H88.117c1.226,0,1.206,0,1.232,1.22.008.4-.1.488-.493.485-2.878-.018-5.757-.011-8.636-.008-.759,0-1.052.3-1.054,1.059,0,1.236,0,2.472,0,3.708,0,.9.261,1.165,1.162,1.166h7.788c1.228,0,1.209,0,1.233,1.218.008.4-.1.489-.491.487-4.062-.016-8.124-.01-12.186-.01-.872,0-.872,0-.916.849l-2.777-.018M84.251,73.442c0-.879,0-.879-.87-.879-.826,0-.826,0-.826.817,0,.879,0,.879.87.879.826,0,.826,0,.826-.817m3.391-.073c0-.806,0-.806-.784-.806-.912,0-.912,0-.912.89,0,.806,0,.806.784.806.912,0,.912,0,.912-.89m-11.868-.007c0,.9,0,.9.905.9.79,0,.79,0,.79-.8,0-.9,0-.9-.905-.9-.79,0-.79,0-.79.8m-1.7,3.444c0-.852,0-.852-.844-.852s-.852,0-.852.844,0,.852.844.852.852,0,.852-.844m3.391-.053c0-.8,0-.8-.79-.8-.905,0-.905,0-.905.9,0,.8,0,.8.79.8.905,0,.905,0,.905-.9m3.391,0c0-.8,0-.8-.791-.8-.905,0-.905,0-.905.9,0,.8,0,.8.791.8.905,0,.905,0,.905-.9m1.7,0c0,.9,0,.9.905.9.791,0,.791,0,.791-.8,0-.9,0-.9-.905-.9-.791,0-.791,0-.791.8m5.087.076c0-.876,0-.876-.873-.876-.823,0-.823,0-.823.82,0,.876,0,.876.873.876.823,0,.823,0,.823-.82m-15.26-3.467c0,.9,0,.9.905.9.791,0,.791,0,.791-.8,0-.9,0-.9-.905-.9-.791,0-.791,0-.791.8m-3.391,0c0,.893,0,.893.909.893.787,0,.787,0,.787-.8,0-.893,0-.893-.909-.893-.787,0-.787,0-.787.8m18.651-3.32c0-.873,0-.873-.875-.873-.821,0-.821,0-.821.822,0,.874,0,.874.876.874.82,0,.82,0,.82-.823m-4.27.823c.879,0,.879,0,.879-.87,0-.826,0-.826-.817-.826-.879,0-.879,0-.879.87,0,.826,0,.826.817.826m-2.512-.813c0-.883,0-.883-.866-.883-.83,0-.83,0-.83.813,0,.883,0,.883.866.883.83,0,.83,0,.83-.813m-3.391-.01c0-.873,0-.873-.875-.873-.82,0-.82,0-.82.822,0,.874,0,.874.875.874.82,0,.82,0,.82-.823m-4.231-.873c-.856,0-.856,0-.856.84,0,.856,0,.856.84.856.856,0,.856,0,.856-.84,0-.856,0-.856-.84-.856m-2.551.883c0-.883,0-.883-.866-.883-.83,0-.83,0-.83.813,0,.883,0,.883.866.883.83,0,.83,0,.83-.813M67.3,70.048c0-.876,0-.876-.873-.876-.823,0-.823,0-.823.82,0,.876,0,.876.873.876.823,0,.823,0,.823-.82m-4.214-.876c-.873,0-.873,0-.873.876,0,.82,0,.82.823.82.873,0,.873,0,.873-.876,0-.82,0-.82-.823-.82m17.777,4.27c0-.879,0-.879-.87-.879-.826,0-.826,0-.826.817,0,.879,0,.879.87.879.826,0,.826,0,.826-.817" transform="translate(-40.18 -45.433)" fill="#dfecfe"/>
        <path id="Trazado_730207" data-name="Trazado 730207" d="M73.976,91.942c.044-.849.044-.849.916-.849,4.062,0,8.124-.006,12.185.01.394,0,.5-.088.491-.487-.024-1.217,0-1.218-1.233-1.218H78.546c-.9,0-1.161-.262-1.162-1.166q0-1.854,0-3.708c0-.762.3-1.058,1.054-1.059,2.879,0,5.757-.009,8.636.008.389,0,.5-.081.493-.485-.025-1.219,0-1.219-1.231-1.219H73.462c-.9,0-1.164-.261-1.164-1.163q0-1.828,0-3.656c0-.834.278-1.115,1.106-1.115,4.539,0,9.077-.007,13.616.01.43,0,.552-.085.549-.536q-.032-5.43,0-10.861c0-.39-.084-.492-.485-.492q-13.934.02-27.868,0c-.394,0-.5.089-.49.487.028,1.324-.019,2.65.025,3.973.018.535-.125.737-.653.638a1.476,1.476,0,0,1-.42,0c-.535.1-.664-.114-.652-.644.038-1.675.013-3.353.015-5.029,0-.833.278-1.108,1.109-1.112l5.24-.017H75.256l12.283.017c1.658,0,1.713.056,1.713,1.726V91.478c0,1.107-.208,1.311-1.335,1.311H74.892c-.872,0-.872,0-.916-.847M85.888,85.17c-.457,0-.915.018-1.371-.007-.288-.015-.353.091-.345.358.017.615.016,1.231,0,1.846-.006.246.057.335.318.331q1.371-.023,2.743,0c.262,0,.324-.085.318-.331-.015-.615-.017-1.231,0-1.846.008-.267-.057-.374-.345-.358-.438.025-.879.007-1.319.007m-5.117,2.522c.457,0,.915-.006,1.372,0,.2,0,.33-.007.323-.27-.017-.668-.014-1.336,0-2,0-.227-.1-.254-.286-.252-.932.006-1.865.01-2.8,0-.233,0-.3.069-.3.3.014.633.022,1.267,0,1.9-.012.3.115.344.369.334.439-.017.879,0,1.319,0m5.091-7.63c.457,0,.915-.015,1.371.006.263.012.324-.085.318-.33-.015-.633-.013-1.267,0-1.9,0-.223-.052-.306-.291-.3q-1.4.02-2.8,0c-.239,0-.3.081-.291.3.012.633.015,1.267,0,1.9-.006.246.057.342.319.33.456-.02.914-.006,1.372-.006m-5.212,0c.549,0,1.007-.015,1.463.006.274.013.364-.068.354-.349-.021-.6-.03-1.2,0-1.793.019-.351-.117-.4-.42-.392-.686.021-1.372.007-2.058.007-.9,0-.905,0-.9.9,0,.524-.181,1.233.085,1.524.308.336,1.026.056,1.473.1m-5.087,0c.548,0,1.007-.015,1.463.006.271.012.365-.065.355-.348-.022-.6-.03-1.2,0-1.793.019-.35-.114-.4-.419-.393-.685.021-1.372.007-2.058.007-.9,0-.906,0-.9.9,0,.524-.182,1.232.085,1.524.307.337,1.026.056,1.472.1" transform="translate(-38.4 -41.921)" fill="#020101"/>
        <path id="Trazado_730208" data-name="Trazado 730208" d="M45.507,22.909c-.855-.121-.834-.119-.737-.992.348-3.122.681-6.245,1.019-9.367q.559-5.158,1.119-10.316c.051-.474.094-.948.154-1.421a.827.827,0,0,1,.879-.8q2.517-.017,5.033,0a.823.823,0,0,1,.867.817q.537,4.92,1.064,9.842.38,3.526.757,7.053c.089.833.09.833-.749.951a1.1,1.1,0,0,0-.315.012c-.456.154-.541-.053-.583-.472-.254-2.528-.547-5.052-.8-7.58-.037-.359-.142-.47-.506-.465q-2.251.03-4.5,0c-.354,0-.474.09-.513.458q-.6,5.739-1.236,11.473c-.092.839-.108.837-.948.81M50.46,8.484c.722,0,1.444,0,2.166,0,.153,0,.368.079.325-.241-.089-.662-.159-1.328-.219-1.994-.022-.241-.109-.32-.36-.318-1.268.014-2.536.018-3.8,0-.313-.005-.385.126-.407.389a13.931,13.931,0,0,1-.182,1.678c-.1.476.1.509.474.5.669-.023,1.338-.007,2.008-.007m-.008-4.242c.581,0,1.163-.009,1.744,0,.235.005.306-.073.278-.3-.081-.664-.156-1.329-.212-1.995-.018-.222-.125-.25-.306-.25-1,0-2.008,0-3.012,0-.141,0-.278-.015-.3.2q-.1,1.051-.221,2.1c-.028.243.11.248.283.247.581,0,1.162,0,1.744,0" transform="translate(-30.117 0)" fill="#020101"/>
        <path id="Trazado_730209" data-name="Trazado 730209" d="M46.808,43.874c.84.028.855.029.948-.81q.63-5.735,1.236-11.473c.038-.368.158-.462.512-.457q2.251.027,4.5,0c.364,0,.469.106.506.465.257,2.528.55,5.052.8,7.58.042.419.127.626.583.472a1.1,1.1,0,0,1,.315-.012l.191,1.659-5.24.018c-.831,0-1.108.279-1.109,1.112,0,1.676.024,3.353-.015,5.029-.012.53.118.745.653.644a.81.81,0,0,1,.21.015v1.66c-.737.006-1.475,0-2.211.024-.3.01-.341-.114-.337-.369.012-.9.006-1.791,0-2.686,0-.934-.253-1.187-1.181-1.191-.175,0-.35-.011-.525-.017q.076-.831.153-1.661" transform="translate(-31.418 -20.965)" fill="#fdc331"/>
        <path id="Trazado_730210" data-name="Trazado 730210" d="M83.31,18.675c-.84-.118-.839-.118-.749-.95Q83.467,9.338,84.372.951c.073-.676.35-.941,1.018-.943q2.382-.007,4.764,0c.668,0,.945.268,1.019.944q.937,8.6,1.879,17.193c.033.3,0,.472-.346.468a3.153,3.153,0,0,0-.471.063.864.864,0,0,0-.262.005c-.495.17-.6-.053-.645-.515-.248-2.506-.535-5.008-.8-7.513-.03-.281-.027-.491-.43-.484-1.551.025-3.1.017-4.653,0-.287,0-.395.078-.425.375-.245,2.418-.507,4.834-.762,7.251-.1.9-.093.9-.949.876M90.285,8.46c-.076-.726-.158-1.425-.217-2.125-.025-.295-.115-.415-.446-.408q-1.849.036-3.7,0c-.331-.007-.422.111-.447.407-.059.7-.141,1.4-.217,2.125Zm-2.54-4.216c.581,0,1.163-.012,1.744.006.261.008.34-.071.306-.33-.083-.646-.158-1.293-.208-1.942-.019-.247-.13-.28-.334-.278q-1.479.009-2.959,0c-.2,0-.316.028-.335.276-.049.649-.125,1.3-.208,1.942-.033.256.039.341.3.332.563-.018,1.127-.006,1.691-.006" transform="translate(-55.57 -0.003)" fill="#020101"/>
        <path id="Trazado_730211" data-name="Trazado 730211" d="M84.541,39.634c.856.028.854.028.949-.876.255-2.417.517-4.833.762-7.251.03-.3.138-.377.425-.375,1.551.012,3.1.021,4.653,0,.4-.007.4.2.43.485.265,2.5.552,5.007.8,7.513.046.462.15.684.644.515a.863.863,0,0,1,.262-.006l.191,1.659H84.35l.191-1.659" transform="translate(-56.802 -20.961)" fill="#fdc331"/>
        <path id="Trazado_730212" data-name="Trazado 730212" d="M18.95,86.41a4.258,4.258,0,0,1,3.19-1.684c.563-.033,1.13-.025,1.693-.006a1.062,1.062,0,0,0,1.034-.59c.651-1.11,1.318-2.211,1.984-3.313.1-.157.155-.393.412-.331.288.07.147.32.15.482.015.882.005,1.765.008,2.647,0,.824.282,1.1,1.122,1.1,1.018,0,2.036,0,3.06,0,.014.2-.126.281-.209.379a5.81,5.81,0,0,0-1.415,4.2c.022.381-.037.52-.461.515-1.3-.016-1.285,0-1.257,1.3.007.3.085.391.387.391.632,0,1.4-.244,1.861.089a6.328,6.328,0,0,1,1.1,1.523c.045.065-.166.071-.259.071-3,0-6,.012-9,0a4.257,4.257,0,0,1-3.4-1.69h1.992c.6,0,1.2-.017,1.8.007.333.013.453-.071.453-.432,0-1.271.018-1.271-1.248-1.271-1.094,0-2.189-.024-3.282.012-.438.014-.539-.165-.562-.542-.069-1.145-.058-1.165,1.092-1.165.088,0,.177.006.265,0,.38-.032.965.173,1.1-.089a3.49,3.49,0,0,0,.082-1.4c.005-.253-.187-.207-.337-.209-.4,0-.8,0-1.349,0m5.922,1.7H26.14c1.338,0,1.326,0,1.29-1.331-.008-.319-.125-.373-.4-.37-1.145.012-2.291.005-3.436.005-1.3,0-1.281,0-1.265,1.3,0,.347.13.405.432.4.7-.018,1.41-.006,2.115-.006m1.7,2.583c0-.888,0-.888-.874-.888a1.89,1.89,0,0,1-.316,0c-.428-.073-.571.118-.508.521a1.773,1.773,0,0,1,0,.264c0,.915,0,.915.9.915.8,0,.8,0,.8-.808" transform="translate(-12.173 -54.193)" fill="#c27120"/>
        <path id="Trazado_730213" data-name="Trazado 730213" d="M6.105,131.416c.707-.04.707-.04.707-.833,0-.893,0-.876-.879-.9-.248-.008-.62.2-.737-.174a2.087,2.087,0,0,1,.032-1.4c.077-.194.317-.093.481-.093,2.172-.006,4.344-.014,6.516,0,.405,0,.541-.088.533-.518-.024-1.2,0-1.2-1.222-1.2h-5.4c-.1-.194.065-.269.15-.358a3.9,3.9,0,0,1,2.806-1.306c3.143-.038,6.286-.016,9.429-.016.029,0,.058.025.14.062a7.215,7.215,0,0,0-1.028,1.457c-.1.217-.294.158-.46.159-.777,0-1.554.017-2.331,0-.324-.009-.417.085-.42.414-.015,1.3-.027,1.3,1.277,1.3.4,0,.914-.128,1.185.067.3.215.057.752.091,1.148a6.029,6.029,0,0,0,1.281,3.3l.385.484c-.134.119-.262.07-.376.07q-4.423.005-8.847,0a4.224,4.224,0,0,1-3.164-1.357.342.342,0,0,1-.15-.306m7.475-.02H14c1.343,0,1.331,0,1.294-1.334-.009-.314-.116-.385-.4-.377-.582.018-1.165.005-1.748.005-1.3,0-1.3,0-1.259,1.307a.715.715,0,0,1,0,.106c-.027.241.1.3.315.3.459-.01.918,0,1.377,0M10.2,130.56c0-.869,0-.869-.637-.87-1.068,0-1.068,0-1.069.65,0,1.056,0,1.056.716,1.056.989,0,.989,0,.989-.835" transform="translate(-3.428 -83.914)" fill="#c27120"/>
        <path id="Trazado_730214" data-name="Trazado 730214" d="M79.636,125.461a4.14,4.14,0,0,1,5.559.522,4.235,4.235,0,1,1-7.169,1.626c.1-.332.237-.477.616-.464.952.034,1.906.007,2.86.013a1.279,1.279,0,1,1-.008,2.542c-1.115.016-1.092.017-1.124,1.124-.013.449.079.643.567.579.434-.057.879.024,1.317-.076a2.962,2.962,0,0,0-.571-5.864c-.653-.012-1.306,0-2.046,0" transform="translate(-52.416 -83.918)" fill="#e6944a"/>
        <path id="Trazado_730215" data-name="Trazado 730215" d="M48.488,125.472a4.108,4.108,0,0,1,5.052.062,4.234,4.234,0,1,1-6.664,2.08.531.531,0,0,1,.62-.458c.952.032,1.906.006,2.859.012a1.279,1.279,0,1,1-.014,2.542c-1.112.016-1.089.017-1.122,1.126-.013.454.085.64.569.577.434-.056.879.024,1.317-.076a2.962,2.962,0,0,0-.572-5.864c-.653-.012-1.305,0-2.046,0" transform="translate(-31.439 -83.929)" fill="#e6944a"/>
        <path id="Trazado_730216" data-name="Trazado 730216" d="M61.433,94.322a4.171,4.171,0,1,1-1.568,2.128c.1-.312.222-.454.576-.444.97.026,1.942,0,2.913.011a1.276,1.276,0,1,1,.009,2.542c-1.154.024-1.131.024-1.16,1.2-.011.437.136.54.532.507a8.663,8.663,0,0,0,1.474-.1,2.962,2.962,0,0,0-.6-5.834c-.685-.022-1.371,0-2.172,0" transform="translate(-40.185 -62.949)" fill="#e6944a"/>
        <path id="Trazado_730217" data-name="Trazado 730217" d="M74.387,124.739a.518.518,0,0,1-.032.086c-.786,1.051-.786,1.051-1.563-.086Z" transform="translate(-49.018 -84)" fill="#c27120"/>
        <path id="Trazado_730218" data-name="Trazado 730218" d="M72.852,148.7c.006-.075,0-.095.008-.106.756-1.057.756-1.057,1.612.106H72.852Z" transform="translate(-49.059 -99.536)" fill="#c27120"/>
        <path id="Trazado_730219" data-name="Trazado 730219" d="M131.443,83.949c0,.817,0,.817-.826.817-.87,0-.87,0-.87-.879,0-.817,0-.817.826-.817.87,0,.87,0,.87.879" transform="translate(-87.372 -55.94)" fill="#020101"/>
        <path id="Trazado_730220" data-name="Trazado 730220" d="M141.826,83.877c0,.89,0,.89-.912.89-.784,0-.784,0-.784-.806,0-.89,0-.89.912-.89.784,0,.784,0,.784.806" transform="translate(-94.364 -55.94)" fill="#020101"/>
        <path id="Trazado_730221" data-name="Trazado 730221" d="M108.982,83.871c0-.8,0-.8.791-.8.905,0,.905,0,.905.9,0,.8,0,.8-.791.8-.905,0-.905,0-.905-.9" transform="translate(-73.389 -55.94)" fill="#020101"/>
        <path id="Trazado_730222" data-name="Trazado 730222" d="M100.3,94.305c0,.844,0,.844-.852.844s-.844,0-.844-.852,0-.844.852-.844.844,0,.844.852" transform="translate(-66.398 -62.932)" fill="#020101"/>
        <path id="Trazado_730223" data-name="Trazado 730223" d="M110.678,94.253c0,.9,0,.9-.905.9-.791,0-.791,0-.791-.8,0-.9,0-.9.905-.9.791,0,.791,0,.791.8" transform="translate(-73.389 -62.932)" fill="#020101"/>
        <path id="Trazado_730224" data-name="Trazado 730224" d="M121.061,94.253c0,.9,0,.9-.905.9-.791,0-.791,0-.791-.8,0-.9,0-.9.905-.9.791,0,.791,0,.791.8" transform="translate(-80.381 -62.932)" fill="#020101"/>
        <path id="Trazado_730225" data-name="Trazado 730225" d="M129.747,94.253c0-.8,0-.8.791-.8.905,0,.905,0,.905.9,0,.8,0,.8-.791.8-.905,0-.905,0-.905-.9" transform="translate(-87.372 -62.932)" fill="#020101"/>
        <path id="Trazado_730226" data-name="Trazado 730226" d="M141.826,94.329c0,.82,0,.82-.823.82-.873,0-.873,0-.873-.876,0-.82,0-.82.823-.82.873,0,.873,0,.873.876" transform="translate(-94.364 -62.932)" fill="#020101"/>
        <path id="Trazado_730227" data-name="Trazado 730227" d="M98.6,83.871c0-.8,0-.8.791-.8.905,0,.905,0,.905.9,0,.8,0,.8-.791.8-.905,0-.905,0-.905-.9" transform="translate(-66.398 -55.94)" fill="#020101"/>
        <path id="Trazado_730228" data-name="Trazado 730228" d="M88.217,83.873c0-.8,0-.8.787-.8.909,0,.909,0,.909.893,0,.8,0,.8-.787.8-.909,0-.909,0-.909-.893" transform="translate(-59.406 -55.94)" fill="#020101"/>
        <path id="Trazado_730229" data-name="Trazado 730229" d="M141.826,73.561c0,.823,0,.823-.82.823-.876,0-.876,0-.876-.874,0-.822,0-.822.821-.822.875,0,.875,0,.875.873" transform="translate(-94.364 -48.948)" fill="#020101"/>
        <path id="Trazado_730230" data-name="Trazado 730230" d="M130.565,74.384c-.817,0-.817,0-.817-.826,0-.87,0-.87.879-.87.817,0,.817,0,.817.826,0,.87,0,.87-.879.87" transform="translate(-87.373 -48.948)" fill="#020101"/>
        <path id="Trazado_730231" data-name="Trazado 730231" d="M121.061,73.571c0,.813,0,.813-.83.813-.866,0-.866,0-.866-.883,0-.813,0-.813.83-.813.866,0,.866,0,.866.883" transform="translate(-80.381 -48.948)" fill="#020101"/>
        <path id="Trazado_730232" data-name="Trazado 730232" d="M110.678,73.561c0,.823,0,.823-.82.823-.876,0-.876,0-.876-.874,0-.822,0-.822.82-.822.876,0,.876,0,.876.873" transform="translate(-73.389 -48.948)" fill="#020101"/>
        <path id="Trazado_730233" data-name="Trazado 730233" d="M99.455,72.688c.84,0,.84,0,.84.856,0,.84,0,.84-.856.84-.84,0-.84,0-.84-.856,0-.84,0-.84.856-.84" transform="translate(-66.397 -48.948)" fill="#020101"/>
        <path id="Trazado_730234" data-name="Trazado 730234" d="M89.913,73.571c0,.813,0,.813-.83.813-.866,0-.866,0-.866-.883,0-.813,0-.813.83-.813.866,0,.866,0,.866.883" transform="translate(-59.406 -48.948)" fill="#020101"/>
        <path id="Trazado_730235" data-name="Trazado 730235" d="M79.53,73.564c0,.82,0,.82-.823.82-.873,0-.873,0-.873-.876,0-.82,0-.82.823-.82.873,0,.873,0,.873.876" transform="translate(-52.414 -48.948)" fill="#020101"/>
        <path id="Trazado_730236" data-name="Trazado 730236" d="M68.325,72.688c.823,0,.823,0,.823.82,0,.876,0,.876-.874.876-.822,0-.822,0-.822-.82,0-.876,0-.876.873-.876" transform="translate(-45.422 -48.948)" fill="#020101"/>
        <path id="Trazado_730237" data-name="Trazado 730237" d="M121.061,83.949c0,.817,0,.817-.826.817-.87,0-.87,0-.87-.879,0-.817,0-.817.826-.817.87,0,.87,0,.87.879" transform="translate(-80.381 -55.94)" fill="#020101"/>
        <path id="Trazado_730238" data-name="Trazado 730238" d="M141.862,132.405c.44,0,.88.018,1.319-.007.288-.016.353.091.345.357-.017.615-.016,1.231,0,1.847.006.246-.056.335-.318.331q-1.372-.023-2.743,0c-.262,0-.325-.085-.318-.331.016-.615.017-1.231,0-1.846-.008-.266.057-.373.345-.358.456.024.914.007,1.371.007" transform="translate(-94.374 -89.157)" fill="#dfecfe"/>
        <path id="Trazado_730239" data-name="Trazado 730239" d="M126.253,134.933c-.44,0-.88-.012-1.319,0-.253.01-.38-.031-.369-.334.024-.632.016-1.266,0-1.9-.005-.23.063-.3.3-.3.932.012,1.864.008,2.8,0,.186,0,.291.026.286.252-.013.668-.016,1.337,0,2,.007.264-.126.273-.323.27-.457-.008-.914,0-1.372,0" transform="translate(-83.882 -89.163)" fill="#dfecfe"/>
        <path id="Trazado_730240" data-name="Trazado 730240" d="M141.837,111.571c-.457,0-.915-.015-1.372.006-.262.012-.325-.084-.318-.33.015-.633.013-1.266,0-1.9,0-.222.052-.307.291-.3q1.4.019,2.8,0c.239,0,.3.08.291.3-.012.633-.014,1.267,0,1.9.006.245-.055.342-.318.331-.457-.021-.914-.006-1.372-.006" transform="translate(-94.375 -73.431)" fill="#dfecfe"/>
        <path id="Trazado_730241" data-name="Trazado 730241" d="M126.03,111.567c-.447-.046-1.165.235-1.473-.1-.266-.291-.082-1-.085-1.524-.006-.9,0-.9.9-.9.686,0,1.372.014,2.058-.007.3-.009.44.041.42.392-.033.6-.024,1.2,0,1.793.01.281-.08.362-.354.349-.456-.021-.914-.006-1.462-.006" transform="translate(-83.78 -73.426)" fill="#dfecfe"/>
        <path id="Trazado_730242" data-name="Trazado 730242" d="M110.454,111.566c-.447-.046-1.165.235-1.472-.1-.266-.292-.082-1-.085-1.524-.005-.9,0-.9.9-.9.686,0,1.372.015,2.058-.007.3-.009.438.043.419.393-.033.6-.024,1.2,0,1.793.01.283-.084.36-.355.348-.456-.021-.914-.006-1.463-.006" transform="translate(-73.292 -73.426)" fill="#dfecfe"/>
        <path id="Trazado_730243" data-name="Trazado 730243" d="M57.118,20.7c-.669,0-1.339-.016-2.008.007-.378.013-.573-.021-.474-.5a13.864,13.864,0,0,0,.181-1.678c.022-.263.094-.394.407-.389,1.268.02,2.536.016,3.8,0,.25,0,.338.076.36.318.061.666.13,1.332.219,1.994.043.32-.171.24-.325.241-.722.006-1.444,0-2.166,0" transform="translate(-36.775 -12.219)" fill="#fdc331"/>
        <path id="Trazado_730244" data-name="Trazado 730244" d="M58.077,7.741c-.581,0-1.163,0-1.744,0-.173,0-.312,0-.283-.247q.123-1.049.221-2.1c.02-.212.157-.2.3-.2,1,0,2.008,0,3.012,0,.181,0,.287.028.306.25.056.666.131,1.331.212,1.995.028.231-.043.31-.278.3-.581-.013-1.162,0-1.744,0" transform="translate(-37.742 -3.5)" fill="#fdc331"/>
        <path id="Trazado_730245" data-name="Trazado 730245" d="M95.931,20.674H90.906c.076-.726.158-1.425.217-2.125.025-.3.116-.414.447-.407q1.848.036,3.7,0c.332-.007.421.113.446.408.059.7.141,1.4.217,2.125" transform="translate(-61.217 -12.216)" fill="#fdc331"/>
        <path id="Trazado_730246" data-name="Trazado 730246" d="M94.388,7.74c-.564,0-1.128-.013-1.691.006-.265.009-.336-.076-.3-.332.082-.646.158-1.293.208-1.942.019-.249.133-.278.335-.276q1.479.009,2.959,0c.2,0,.315.031.334.278.049.649.125,1.3.208,1.942.034.26-.045.338-.306.33-.581-.018-1.162-.006-1.744-.006" transform="translate(-62.213 -3.498)" fill="#fdc331"/>
        <path id="Trazado_730247" data-name="Trazado 730247" d="M33.622,100.33c-.7,0-1.41-.012-2.114.006-.3.008-.428-.05-.432-.4-.016-1.3-.031-1.3,1.265-1.3,1.145,0,2.291.007,3.436-.005.28,0,.4.051.4.37.036,1.331.048,1.331-1.29,1.331H33.622" transform="translate(-20.924 -66.417)" fill="#020101"/>
        <path id="Trazado_730248" data-name="Trazado 730248" d="M40.563,109.878c0,.808,0,.808-.8.808-.9,0-.9,0-.9-.915a1.773,1.773,0,0,0,0-.264c-.062-.4.081-.594.508-.521a1.89,1.89,0,0,0,.316,0c.874,0,.874,0,.874.888" transform="translate(-26.163 -73.382)" fill="#020101"/>
        <path id="Trazado_730249" data-name="Trazado 730249" d="M27.575,141.853c-.459,0-.918-.007-1.377,0-.216,0-.342-.055-.314-.3a.763.763,0,0,0,0-.106c-.04-1.307-.04-1.307,1.259-1.307.583,0,1.166.013,1.748-.005.286-.008.394.063.4.377.037,1.334.049,1.334-1.294,1.334h-.424" transform="translate(-17.423 -94.372)" fill="#020101"/>
        <path id="Trazado_730250" data-name="Trazado 730250" d="M17.23,141.03c0,.836,0,.836-.989.835-.717,0-.717,0-.716-1.056,0-.651,0-.651,1.069-.65.637,0,.637,0,.637.87" transform="translate(-10.455 -94.384)" fill="#020101"/>
      </g>
    </g>
  </g>
</svg>
