<svg xmlns="http://www.w3.org/2000/svg" width="88" height="88" viewBox="0 0 88 88">
  <g id="Grupo_985364" data-name="Grupo 985364" transform="translate(6441 11420)">
    <g id="Grupo_960924" data-name="Grupo 960924" transform="translate(-6727 -12995)">
      <circle id="Elipse_4813" data-name="Elipse 4813" cx="44" cy="44" r="44" transform="translate(286 1575)" fill="#0e494d"/>
    </g>
    <g id="insalubre" transform="translate(-6423.375 -11402.376)">
      <path id="Trazado_729840" data-name="Trazado 729840" d="M0,6.154V44.838a3.517,3.517,0,0,0,3.517,3.517h10.6a5.071,5.071,0,0,0,.578,1.812,4.878,4.878,0,0,0,4.326,2.584h28.77a4.878,4.878,0,0,0,4.326-2.584,5.082,5.082,0,0,0-.176-5.187L37.559,22.507a5.079,5.079,0,0,0-.634-.785V6.154a3.517,3.517,0,0,0-3.517-3.517H25.252a1.752,1.752,0,0,0-1.514-.879H22.393a5.275,5.275,0,0,0-7.862,0H13.188a1.752,1.752,0,0,0-1.514.879H3.517A3.517,3.517,0,0,0,0,6.154ZM1.758,44.838V6.154A1.758,1.758,0,0,1,3.517,4.4h7.913V6.154H5.275A1.758,1.758,0,0,0,3.517,7.913V43.08a1.758,1.758,0,0,0,1.758,1.758h9.692l-.093.146a5.05,5.05,0,0,0-.665,1.612H3.517A1.758,1.758,0,0,1,1.758,44.838Zm48.706,1.094a3.284,3.284,0,0,1,.114,3.391,3.14,3.14,0,0,1-2.785,1.67H19.024a3.14,3.14,0,0,1-2.783-1.67,3.284,3.284,0,0,1,.114-3.391L30.74,23.457a3.149,3.149,0,0,1,5.337,0ZM35.167,6.154v14.4a4.89,4.89,0,0,0-1.758-.329V7.913A1.758,1.758,0,0,0,31.65,6.154H25.5V4.4h7.913A1.758,1.758,0,0,1,35.167,6.154ZM13.188,3.517h1.758a.879.879,0,0,0,.7-.352,3.517,3.517,0,0,1,5.627,0,.879.879,0,0,0,.7.352h1.758V7.034H13.188Zm10.55,5.275a1.752,1.752,0,0,0,1.514-.879h6.4V20.55a4.946,4.946,0,0,0-2.391,1.957L27.347,25.5H14.067a.879.879,0,1,0,0,1.758H26.221l-1.688,2.638H14.067a.879.879,0,1,0,0,1.758h9.341L21.72,34.288H14.067a.879.879,0,1,0,0,1.758h6.528l-1.688,2.638h-4.84a.879.879,0,1,0,0,1.758H17.78L16.089,43.08H5.275V7.913h6.4a1.752,1.752,0,0,0,1.514.879Z" fill="#fff"/>
      <path id="Trazado_729841" data-name="Trazado 729841" d="M15.758,20.792h1.758V22.55a1.758,1.758,0,0,0,1.758,1.758h1.758a1.758,1.758,0,0,0,1.758-1.758V20.792H24.55a1.758,1.758,0,0,0,1.758-1.758V17.275a1.758,1.758,0,0,0-1.758-1.758H22.792V13.758A1.758,1.758,0,0,0,21.033,12H19.275a1.758,1.758,0,0,0-1.758,1.758v1.758H15.758A1.758,1.758,0,0,0,14,17.275v1.758A1.758,1.758,0,0,0,15.758,20.792Zm0-3.517H18.4a.879.879,0,0,0,.879-.879V13.758h1.758V16.4a.879.879,0,0,0,.879.879H24.55v1.758H21.913a.879.879,0,0,0-.879.879V22.55H19.275V19.913a.879.879,0,0,0-.879-.879H15.758Z" transform="translate(-1.692 -1.45)" fill="#fff"/>
      <path id="Trazado_729842" data-name="Trazado 729842" d="M37.638,30A2.638,2.638,0,0,0,35,32.638v10.55a2.638,2.638,0,0,0,5.275,0V32.638A2.638,2.638,0,0,0,37.638,30Zm.879,13.188a.879.879,0,0,1-1.758,0V32.638a.879.879,0,0,1,1.758,0Z" transform="translate(-4.229 -3.625)" fill="#fff"/>
      <path id="Trazado_729843" data-name="Trazado 729843" d="M37.638,50a2.638,2.638,0,1,0,2.638,2.638A2.638,2.638,0,0,0,37.638,50Zm0,3.517a.879.879,0,1,1,.879-.879A.879.879,0,0,1,37.638,53.517Z" transform="translate(-4.229 -6.041)" fill="#fff"/>
      <path id="Trazado_729844" data-name="Trazado 729844" d="M11.638,29H9.879a.879.879,0,1,0,0,1.758h1.758a.879.879,0,1,0,0-1.758Z" transform="translate(-1.087 -3.504)" fill="#fff"/>
      <path id="Trazado_729845" data-name="Trazado 729845" d="M11.638,34H9.879a.879.879,0,1,0,0,1.758h1.758a.879.879,0,1,0,0-1.758Z" transform="translate(-1.087 -4.108)" fill="#fff"/>
      <path id="Trazado_729846" data-name="Trazado 729846" d="M11.638,39H9.879a.879.879,0,1,0,0,1.758h1.758a.879.879,0,1,0,0-1.758Z" transform="translate(-1.087 -4.712)" fill="#fff"/>
      <path id="Trazado_729847" data-name="Trazado 729847" d="M11.638,44H9.879a.879.879,0,1,0,0,1.758h1.758a.879.879,0,1,0,0-1.758Z" transform="translate(-1.087 -5.316)" fill="#fff"/>
    </g>
  </g>
</svg>
