<svg xmlns="http://www.w3.org/2000/svg" width="62" height="62" viewBox="0 0 62 62">
  <g id="Grupo_985585" data-name="Grupo 985585" transform="translate(-244 -2635)">
    <g id="Grupo_983967" data-name="Grupo 983967" transform="translate(0 -7788)">
      <g id="Rectángulo_340676" data-name="Rectángulo 340676" transform="translate(244 10423)" fill="none" stroke="#39a900" stroke-width="3">
        <rect width="62" height="62" rx="7" stroke="none"/>
        <rect x="1.5" y="1.5" width="59" height="59" rx="5.5" fill="none"/>
      </g>
    </g>
    <g id="nose" transform="translate(214.499 2640)">
      <ellipse id="Elipse_5928" data-name="Elipse 5928" cx="3.611" cy="5.489" rx="3.611" ry="5.489" transform="translate(41.843 43.389) rotate(-71.275)" fill="#de7459"/>
      <ellipse id="Elipse_5929" data-name="Elipse 5929" cx="5.489" cy="3.611" rx="5.489" ry="3.611" transform="translate(66.208 40.111) rotate(-18.725)" fill="#de7459"/>
      <path id="Trazado_731097" data-name="Trazado 731097" d="M84.672,37.6a66.188,66.188,0,0,1-3.934-5.619c-1.758-3.256-2.17-7.042-2.8-10.691s-1.6-7.442-4.161-10.111C72,9.331,69.225,7.5,67.135,7.5s-4.868,1.831-6.642,3.68c-2.562,2.669-3.534,6.463-4.161,10.111s-1.04,7.435-2.8,10.691A66.19,66.19,0,0,1,49.6,37.6c-1.29,1.891-3.733,5.511-3.595,7.8.212,3.505,2.175,6.322,3.968,6.322,1.546,0,.875-3.975,4.09-3.975,1.353,0,3.032.571,3.676,4.6.517,3.223,5.436,5.179,9.4,5.179s8.88-1.955,9.4-5.179c.644-4.026,2.324-4.6,3.676-4.6,3.214,0,2.543,3.975,4.09,3.975,1.792,0,3.756-2.817,3.968-6.322.138-2.286-2.3-5.906-3.595-7.8Z" transform="translate(-6.744 -6.745)" fill="#fdba91"/>
      <g id="Grupo_985583" data-name="Grupo 985583" transform="translate(41.256 0.755)">
        <path id="Trazado_731098" data-name="Trazado 731098" d="M68.915,407.368c-2.124,0-2.552,1.736-3.043,2.913a2.815,2.815,0,0,0,1.973,1.062c1.251,0,1.051-2.6,2.632-3.6a3.05,3.05,0,0,0-1.562-.379Z" transform="translate(-65.872 -367.122)" fill="#fc997d"/>
        <path id="Trazado_731099" data-name="Trazado 731099" d="M260.041,37.6a66.188,66.188,0,0,1-3.934-5.619c-1.758-3.256-2.17-7.042-2.8-10.691s-1.6-7.442-4.161-10.111c-1.774-1.849-4.553-3.68-6.643-3.68a5.031,5.031,0,0,0-1.51.263,13.563,13.563,0,0,1,5.133,3.418c2.562,2.669,3.534,6.463,4.161,10.111s1.04,7.435,2.8,10.691a66.191,66.191,0,0,0,3.934,5.619c1.29,1.891,3.733,5.511,3.595,7.8a8.777,8.777,0,0,1-1.994,5.261c.252.6.522,1.062,1.046,1.062,1.792,0,3.756-2.817,3.968-6.322.138-2.286-2.305-5.906-3.6-7.8Z" transform="translate(-223.369 -7.5)" fill="#fc997d"/>
        <path id="Trazado_731100" data-name="Trazado 731100" d="M252.52,412.269c-1.619,3.635-5.168,4.709-8.631,4.949.412.039.82.059,1.218.059,3.961,0,8.88-1.955,9.4-5.179.589-3.682,2.044-4.474,3.323-4.583C256.475,407.516,254.179,408.545,252.52,412.269Z" transform="translate(-225.972 -367.255)" fill="#fc997d"/>
      </g>
      <g id="Grupo_985584" data-name="Grupo 985584" transform="translate(38.501)">
        <path id="Trazado_731101" data-name="Trazado 731101" d="M333.005,125.765a67.3,67.3,0,0,1-3.893-5.552c-2.189-4.053-2.213-9.065-3.379-13.641a.755.755,0,1,0-1.463.373c1.173,4.6,1.163,9.632,3.514,13.985a65.4,65.4,0,0,0,3.974,5.686c1.074,1.575,3.59,5.262,3.465,7.326-.188,3.109-1.912,5.613-3.214,5.613H332c-.595-.332-.689-3.975-4.08-3.975-2.843,0-3.969,2.405-4.422,5.233a4.119,4.119,0,0,1-1.758,2.494.755.755,0,1,0,.893,1.217,5.788,5.788,0,0,0,2.216-2.885,8.68,8.68,0,0,0,5.723-1.484,1.621,1.621,0,0,0,1.437.909c2.328,0,4.49-3.22,4.721-7.032C336.867,131.767,335.021,128.72,333.005,125.765Zm-7.842,14.39c.717-3.064,2.125-3.065,2.756-3.065,1.153,0,1.592.618,2.027,1.656A7.219,7.219,0,0,1,325.163,140.155Z" transform="translate(-292.955 -95.334)"/>
        <path id="Trazado_731102" data-name="Trazado 731102" d="M64.615,330.521a13.512,13.512,0,0,1-4.224.71c-3.227,0-8.2-1.548-8.677-4.7-.581-3.416-2.019-5.078-4.4-5.078-3.4,0-3.492,3.662-4.077,3.974h-.012a2.815,2.815,0,0,1-1.943-1.5,8.734,8.734,0,0,1-1.271-4.11c-.074-1.233.786-3.242,2.558-5.971a.755.755,0,1,0-1.266-.822c-2.006,3.091-2.9,5.278-2.8,6.884.231,3.812,2.393,7.032,4.721,7.032a1.621,1.621,0,0,0,1.437-.909,8.688,8.688,0,0,0,5.722,1.484c1.009,3.244,5.821,5.227,10,5.227a15.062,15.062,0,0,0,4.708-.79.755.755,0,1,0-.485-1.43Zm-19.324-5.9c.436-1.038.874-1.656,2.027-1.656.631,0,2.039,0,2.756,3.065A7.219,7.219,0,0,1,45.291,324.621Z" transform="translate(-38.501 -281.209)"/>
        <path id="Trazado_731103" data-name="Trazado 731103" d="M110.187,9.06a.755.755,0,0,0,.4-.989,13.377,13.377,0,0,0-2.658-4.159C106.063,1.965,103.116,0,100.744,0s-5.318,1.965-7.186,3.912c-5.4,5.621-3.73,14.763-7.079,20.966a35.3,35.3,0,0,1-2.958,4.254.755.755,0,1,0,1.209.9A36.473,36.473,0,0,0,87.807,25.6c3.489-6.46,1.871-15.463,6.84-20.638,1.644-1.714,4.266-3.448,6.1-3.448s4.454,1.735,6.1,3.448a11.9,11.9,0,0,1,2.356,3.7.755.755,0,0,0,.989.4Z" transform="translate(-78.854)"/>
      </g>
    </g>
  </g>
</svg>
