<svg xmlns="http://www.w3.org/2000/svg" width="88" height="88" viewBox="0 0 88 88">
  <g id="Grupo_985360" data-name="Grupo 985360" transform="translate(-1071 -1364)">
    <g id="Grupo_960924" data-name="Grupo 960924" transform="translate(785 -211)">
      <circle id="Elipse_4813" data-name="Elipse 4813" cx="44" cy="44" r="44" transform="translate(286 1575)" fill="#0e494d"/>
    </g>
    <g id="_22_Falling_Warning" data-name="22 Falling Warning" transform="translate(1082.983 1376)">
      <path id="Trazado_729819" data-name="Trazado 729819" d="M54.927,16.781a1,1,0,0,0-.713-.736,6.922,6.922,0,0,1-4.7-4.212.994.994,0,0,0-.292-.408,5.921,5.921,0,0,0-2.386-1.2l-4.7-1.14L42.184,6.6a3.533,3.533,0,0,0-2.751-3.513,3.458,3.458,0,0,0-1.386-.03l-.418.074A3.5,3.5,0,0,0,34.77,6.623l.158,8.051a1,1,0,0,0,.824.965l6.241,1.112L33.109,27.4l-10.058.979a4.972,4.972,0,0,0-4.158,2.469L15.1,37.311a3.9,3.9,0,1,0,6.793,3.838L24.808,35.8l5.813-.226L28.092,41.8a4.876,4.876,0,0,0-.25.8,4.984,4.984,0,0,0,.528,3.555l3.845,6.77a3.9,3.9,0,1,0,6.715-3.981l-3.184-5.219,4.223-8.936,8.972-10.75.343,1.162-3.264,4.03a3.786,3.786,0,0,0-.779,1.584A3.45,3.45,0,0,0,47.846,35a3.487,3.487,0,0,0,3.463-1.183l5.614-6.861a1,1,0,0,0,.2-.862ZM33.754,44.3l3.469,5.685a1.871,1.871,0,0,1,.237,1.4,1.9,1.9,0,0,1-.84,1.2,1.877,1.877,0,0,1-1.426.25,1.923,1.923,0,0,1-1.245-.913L30.11,45.167a2.992,2.992,0,0,1-.317-2.132,3.029,3.029,0,0,1,.151-.48l2.87-7.064,4.693-.182-3.8,8.046a1,1,0,0,0,.047.945ZM49.768,32.54a1.506,1.506,0,0,1-1.484.5,1.454,1.454,0,0,1-1.095-1.793,1.8,1.8,0,0,1,.374-.754l3.6-4.449a1,1,0,0,0,.182-.912l-.871-2.945.3-.357a1,1,0,1,0-1.535-1.281l-.641.767L38.632,33.264l-.795.031-5.743.22h-.022l-7.91.307a1,1,0,0,0-.839.521L20.136,40.19a1.9,1.9,0,1,1-3.308-1.877l3.791-6.463a3.023,3.023,0,0,1,2.562-1.485L33.71,29.348a1,1,0,0,0,.671-.355L44.633,16.709a1,1,0,0,0-.592-1.625l-7.129-1.271L36.77,6.589a1.532,1.532,0,0,1,.035-.351A1.489,1.489,0,0,1,37.984,5.1l.412-.074A1.521,1.521,0,0,1,40.184,6.56l-.065,3.29a1,1,0,0,0,.766.991l5.486,1.323a3.919,3.919,0,0,1,1.387.65A8.9,8.9,0,0,0,53.112,17.8l1.951,8.268Z" fill="#fff"/>
      <path id="Trazado_729820" data-name="Trazado 729820" d="M57.13,4.412a4.936,4.936,0,0,0-3.852.7A5.065,5.065,0,0,0,51.155,8.19a5.006,5.006,0,0,0,3.781,5.977,5.091,5.091,0,0,0,1.119.125,4.912,4.912,0,0,0,2.734-.829,5.065,5.065,0,0,0,2.123-3.078A5.006,5.006,0,0,0,57.13,4.412ZM58.961,9.95A3.054,3.054,0,0,1,57.68,11.8a2.963,2.963,0,0,1-2.306.418A3.009,3.009,0,0,1,53.106,8.63a3.053,3.053,0,0,1,1.28-1.851,2.93,2.93,0,0,1,1.631-.492,3.126,3.126,0,0,1,.676.075A3.008,3.008,0,0,1,58.961,9.95Z" fill="#fff"/>
      <path id="Trazado_729821" data-name="Trazado 729821" d="M23,45H4a1,1,0,0,0-1,1V60a1,1,0,0,0,1,1H24a1,1,0,0,0,1-1V47A2,2,0,0,0,23,45Zm0,14H5V47H23Z" fill="#fff"/>
    </g>
  </g>
</svg>
