<svg xmlns="http://www.w3.org/2000/svg" width="62" height="62" viewBox="0 0 62 62">
  <g id="Grupo_985334" data-name="Grupo 985334" transform="translate(-516 -2246)">
    <g id="Grupo_984589" data-name="Grupo 984589" transform="translate(272 -8177)">
      <g id="Rectángulo_340676" data-name="Rectángulo 340676" transform="translate(244 10423)" fill="none" stroke="#39a900" stroke-width="3">
        <rect width="62" height="62" rx="7" stroke="none"/>
        <rect x="1.5" y="1.5" width="59" height="59" rx="5.5" fill="none"/>
      </g>
    </g>
    <g id="bosque" transform="translate(525 2202.245)">
      <g id="Grupo_985324" data-name="Grupo 985324" transform="translate(15.703 74.005)">
        <circle id="Elipse_5906" data-name="Elipse 5906" cx="5.902" cy="5.902" r="5.902" transform="translate(0 0)" fill="#0f7a4f"/>
        <path id="Trazado_729724" data-name="Trazado 729724" d="M213.55,261.409a5.9,5.9,0,0,1-9.579,4.615,5.9,5.9,0,0,0,5.348-10.277A5.9,5.9,0,0,1,213.55,261.409Z" transform="translate(-201.747 -255.507)" fill="#0c6842"/>
      </g>
      <g id="Grupo_985325" data-name="Grupo 985325" transform="translate(24.807 59.905)">
        <circle id="Elipse_5907" data-name="Elipse 5907" cx="5.902" cy="5.902" r="5.902" transform="translate(0 0)" fill="#158f5e"/>
        <path id="Trazado_729725" data-name="Trazado 729725" d="M341.093,98.494a5.906,5.906,0,0,1-7.27,5.742,5.9,5.9,0,0,0,0-11.484,5.906,5.906,0,0,1,7.27,5.742Z" transform="translate(-329.29 -92.592)" fill="#0f7a4f"/>
      </g>
      <g id="Grupo_985326" data-name="Grupo 985326" transform="translate(32.537 67.943)">
        <circle id="Elipse_5908" data-name="Elipse 5908" cx="5.902" cy="5.902" r="5.902" transform="translate(0 0)" fill="#158f5e"/>
        <path id="Trazado_729726" data-name="Trazado 729726" d="M427.163,189.957a5.905,5.905,0,0,1-7.452,5.7,5.9,5.9,0,0,0,.773-11.546,6,6,0,0,1,.778-.051,5.9,5.9,0,0,1,5.9,5.9Z" transform="translate(-415.36 -184.055)" fill="#0f7a4f"/>
      </g>
      <g id="Grupo_985327" data-name="Grupo 985327" transform="translate(30.044 65.04)">
        <path id="Trazado_729727" data-name="Trazado 729727" d="M346.441,170.308a4.607,4.607,0,0,1-4.607-4.607V155.625a4.607,4.607,0,0,1,9.214,0V165.7A4.607,4.607,0,0,1,346.441,170.308Z" transform="translate(-341.834 -151.018)" fill="#d2f0a2"/>
        <path id="Trazado_729728" data-name="Trazado 729728" d="M387.111,155.628V165.7a4.61,4.61,0,0,1-5.739,4.467,4.609,4.609,0,0,0,3.476-4.467V155.628a4.609,4.609,0,0,0-3.476-4.466,4.608,4.608,0,0,1,5.739,4.466Z" transform="translate(-377.897 -151.021)" fill="#bcea73"/>
      </g>
      <g id="Grupo_985328" data-name="Grupo 985328" transform="translate(6.578 57.139)">
        <path id="Trazado_729729" data-name="Trazado 729729" d="M79.452,76.786a4.607,4.607,0,0,1-4.607-4.607V65.73a4.607,4.607,0,1,1,9.214,0v6.449A4.607,4.607,0,0,1,79.452,76.786Z" transform="translate(-74.845 -61.123)" fill="#d2f0a2"/>
        <path id="Trazado_729730" data-name="Trazado 729730" d="M118.821,65.731v6.45a4.61,4.61,0,0,1-5.864,4.433,4.608,4.608,0,0,0,3.349-4.433v-6.45a4.611,4.611,0,0,0-3.35-4.433,4.608,4.608,0,0,1,5.864,4.433Z" transform="translate(-109.607 -61.124)" fill="#bcea73"/>
      </g>
      <g id="Grupo_985329" data-name="Grupo 985329" transform="translate(10.649 67.297)">
        <circle id="Elipse_5909" data-name="Elipse 5909" cx="6.995" cy="6.995" r="6.995" transform="translate(0 0)" fill="#1ca56f"/>
        <path id="Trazado_729731" data-name="Trazado 729731" d="M175.685,183.7a7,7,0,0,1-10.083,6.277,7,7,0,0,0,1.812-13.155,7,7,0,0,1,8.271,6.878Z" transform="translate(-161.696 -176.702)" fill="#158f5e"/>
      </g>
      <g id="Grupo_985330" data-name="Grupo 985330" transform="translate(21.417 58.535)">
        <path id="Trazado_729732" data-name="Trazado 729732" d="M252.974,94.257c0,8.106-2.08,7.962-4.645,7.962s-4.645.145-4.645-7.962S246.3,77,248.328,77,252.974,86.151,252.974,94.257Z" transform="translate(-243.683 -77.005)" fill="#a3e440"/>
        <path id="Trazado_729733" data-name="Trazado 729733" d="M252.974,94.257c0,8.106-2.08,7.962-4.645,7.962s-4.645.145-4.645-7.962S246.3,77,248.328,77,252.974,86.151,252.974,94.257Z" transform="translate(-243.683 -77.005)" fill="#a3e440"/>
        <path id="Trazado_729734" data-name="Trazado 729734" d="M288.632,94.26c0,8.107-2.079,7.962-4.645,7.962-.418,0-.824,0-1.209-.025,1.979-.147,3.436-1.153,3.436-7.937,0-6.549-1.712-13.776-3.436-16.311.41-.6.821-.941,1.209-.941C286.011,77.008,288.632,86.154,288.632,94.26Z" transform="translate(-279.342 -77.008)" fill="#99d53b"/>
      </g>
      <g id="Grupo_985331" data-name="Grupo 985331" transform="translate(0.706 68.414)">
        <path id="Trazado_729735" data-name="Trazado 729735" d="M8.03,202.7c0,6.244,2.814,6.132,6.286,6.132s6.286.111,6.286-6.132-3.547-13.288-6.286-13.288S8.03,196.452,8.03,202.7Z" transform="translate(-8.03 -189.408)" fill="#a3e440"/>
        <path id="Trazado_729736" data-name="Trazado 729736" d="M8.03,202.7c0,6.244,2.814,6.132,6.286,6.132s6.286.111,6.286-6.132-3.547-13.288-6.286-13.288S8.03,196.452,8.03,202.7Z" transform="translate(-8.03 -189.408)" fill="#99d53b"/>
        <path id="Trazado_729737" data-name="Trazado 729737" d="M72.2,202.7c0,6.244-2.814,6.133-6.285,6.133-.451,0-.89,0-1.314-.009,2.84-.069,4.971-.691,4.971-6.124,0-5.277-2.533-11.125-4.971-12.81a2.344,2.344,0,0,1,1.314-.478C68.652,189.407,72.2,196.451,72.2,202.7Z" transform="translate(-59.627 -189.407)" fill="#8dc637"/>
      </g>
      <g id="Grupo_985332" data-name="Grupo 985332" transform="translate(9.981 72.116)">
        <path id="Trazado_729738" data-name="Trazado 729738" d="M122.852,241.357c0,4.614-2.08,4.532-4.645,4.532s-4.645.082-4.645-4.532,2.621-9.82,4.645-9.82S122.852,236.743,122.852,241.357Z" transform="translate(-113.561 -231.537)" fill="#a3e440"/>
        <path id="Trazado_729739" data-name="Trazado 729739" d="M122.852,241.357c0,4.614-2.08,4.532-4.645,4.532s-4.645.082-4.645-4.532,2.621-9.82,4.645-9.82S122.852,236.743,122.852,241.357Z" transform="translate(-113.561 -231.537)" fill="#a3e440"/>
        <path id="Trazado_729740" data-name="Trazado 729740" d="M156.8,241.353c0,4.615-2.079,4.532-4.645,4.532-.478,0-.939,0-1.374-.023,1.895-.11,3.271-.755,3.271-4.509,0-3.609-1.6-7.58-3.271-9.14a2.12,2.12,0,0,1,1.374-.68C154.176,231.533,156.8,236.739,156.8,241.353Z" transform="translate(-147.506 -231.533)" fill="#99d53b"/>
      </g>
      <g id="Grupo_985333" data-name="Grupo 985333" transform="translate(37.335 77.107)">
        <path id="Trazado_729741" data-name="Trazado 729741" d="M431.481,295.394c0,3.326-1.5,3.266-3.348,3.266s-3.348.059-3.348-3.266,1.889-7.077,3.348-7.077S431.481,292.069,431.481,295.394Z" transform="translate(-424.785 -288.316)" fill="#a3e440"/>
        <path id="Trazado_729742" data-name="Trazado 729742" d="M431.481,295.394c0,3.326-1.5,3.266-3.348,3.266s-3.348.059-3.348-3.266,1.889-7.077,3.348-7.077S431.481,292.069,431.481,295.394Z" transform="translate(-424.785 -288.316)" fill="#a3e440"/>
        <path id="Trazado_729743" data-name="Trazado 729743" d="M454.589,295.389c0,3.325-1.5,3.266-3.349,3.266-.393,0-.771,0-1.121-.025,1.3-.1,2.226-.623,2.226-3.241a10.465,10.465,0,0,0-2.226-6.458,1.669,1.669,0,0,1,1.121-.621C452.7,288.311,454.589,292.064,454.589,295.389Z" transform="translate(-447.892 -288.311)" fill="#99d53b"/>
      </g>
      <path id="Trazado_729744" data-name="Trazado 729744" d="M44.294,90.46H41.342V88.106a3.7,3.7,0,0,0,2.116-.521c.841-.584,1.232-1.665,1.232-3.4a12.161,12.161,0,0,0-1.562-5.753A6.5,6.5,0,0,0,45,73.845a6.584,6.584,0,0,0-5.609-6.491,5.3,5.3,0,0,0-2.166-2.3,6.561,6.561,0,0,0-9.02-5.314c-.681-1.251-1.389-1.866-2.142-1.866s-1.47.622-2.16,1.9a20.786,20.786,0,0,0-1.557,4.168c-.324,1.176-.6,2.439-.836,3.739a7.66,7.66,0,0,0-5.058-.954V61.746a5.282,5.282,0,0,0-3.47-4.951.659.659,0,1,0-.45,1.239,3.96,3.96,0,0,1,2.6,3.712v5.316A7.67,7.67,0,0,0,11.844,69.3V68.219l1.267-1.267a.659.659,0,0,0-.932-.932l-.335.335V62.337a.659.659,0,0,0-1.318,0v.986l-.665-.665a.659.659,0,0,0-.932.932l1.6,1.6V70.3c-.961-1.386-2.092-2.406-3.289-2.53V61.746a3.962,3.962,0,0,1,2.589-3.708A.659.659,0,0,0,9.372,56.8a5.285,5.285,0,0,0-3.453,4.946V68c-1.272.571-2.572,2.115-3.691,4.429A22.4,22.4,0,0,0,.047,81.7c0,3.052.656,4.93,2.066,5.909a7.286,7.286,0,0,0,4.22.882V90.46H.659a.659.659,0,1,0,0,1.318H44.294a.659.659,0,0,0,0-1.318ZM12.524,87.034a10.411,10.411,0,0,0,1.443.092V90.46H11.844V87.632a3.73,3.73,0,0,0,.679-.6Zm2.762.092a9.151,9.151,0,0,0,1.7-.136v3.47h-1.7Zm6.939-3.953a3.226,3.226,0,0,0,2.183,1.164,5.252,5.252,0,0,1-4.854.394,8.681,8.681,0,0,0,.376-2.8c0-.112,0-.225-.005-.338a7.585,7.585,0,0,0,1.317-.553A5.443,5.443,0,0,0,22.225,83.174Zm-3.894,3.271a2.936,2.936,0,0,0,.594-.549,6.478,6.478,0,0,0,2.484.568v4H18.3Zm4.4-.074A6.461,6.461,0,0,0,25.4,85.257v5.2H22.727Zm3.995-1.965a6.33,6.33,0,0,0,1.515-.169V90.46H26.722Zm4.272-.849v6.9H29.556V83.537a3.329,3.329,0,0,0,.345-.363,3.928,3.928,0,0,0,.365-.533,5.536,5.536,0,0,0,.728.916Zm1.318.886a5.254,5.254,0,0,0,1.679.505V90.46H32.313Zm3,.5a5.252,5.252,0,0,0,1.373-.366,3.538,3.538,0,0,0,1.224,3,3.693,3.693,0,0,0,2.116.523V90.46H35.31V84.947Zm7.4,1.555a2.555,2.555,0,0,1-1.363.287V85.594c.012-.011.025-.021.036-.033l1.047-1.047a.659.659,0,0,0-.932-.932l-.151.151V81.852a.659.659,0,1,0-1.318,0v4.937A2.552,2.552,0,0,1,38.66,86.5c-.448-.312-.666-1.07-.666-2.318a10.872,10.872,0,0,1,1.061-4.5c.676-1.4,1.357-1.919,1.628-1.919s.951.521,1.628,1.919a10.871,10.871,0,0,1,1.061,4.5c0,1.248-.218,2.006-.666,2.318Zm.976-12.658a5.188,5.188,0,0,1-1.343,3.5,2.357,2.357,0,0,0-1.656-.9,1.7,1.7,0,0,0-.766.194v-7a5.276,5.276,0,0,0-.07-.853A5.266,5.266,0,0,1,43.682,73.845ZM30.791,68.726a4.15,4.15,0,0,1,3.86-3.027A3.952,3.952,0,0,1,38.6,69.647v8.228a11.719,11.719,0,0,0-1.859,5.2l-.009.005a3.925,3.925,0,0,1-1.42.534V79.747l1.267-1.267a.659.659,0,1,0-.932-.932l-.335.335V73.865a.659.659,0,0,0-1.318,0v.986l-.665-.665a.659.659,0,1,0-.932.932l1.6,1.6v6.9a3.943,3.943,0,0,1-3.085-2.637l0-.01a22.3,22.3,0,0,0,.465-5.181,46.665,46.665,0,0,0-.577-7.061Zm-4.728-9.532c.154,0,.923.553,1.873,3.258a.659.659,0,1,0,1.244-.437q-.2-.582-.412-1.08a5.248,5.248,0,0,1,7.021,3.571A5.258,5.258,0,0,0,30.4,66.543c-.1-.485-.205-.964-.318-1.433a.659.659,0,0,0-1.282.309,46.222,46.222,0,0,1,1.251,10.368c0,3.449-.382,5.592-1.168,6.551a2.5,2.5,0,0,1-2.159.748V79.712l2.138-2.138a.659.659,0,0,0-.932-.932l-1.206,1.206V72.354a.659.659,0,0,0-1.318,0v1.378l-.938-.938a.659.659,0,0,0-.932.932L25.4,75.594l0,0v7.49a2.5,2.5,0,0,1-2.159-.748c-.786-.959-1.168-3.1-1.168-6.551A45.864,45.864,0,0,1,23.617,64.3C24.771,60.1,25.856,59.194,26.063,59.194Zm-8.419,8.762A6.277,6.277,0,0,1,21.277,69.1a46.436,46.436,0,0,0-.519,6.685,28.615,28.615,0,0,0,.221,3.891,6.278,6.278,0,0,1-1.153.562A16.84,16.84,0,0,0,18.3,75.012v-1.6l1.389-1.389a.659.659,0,1,0-.932-.932l-.457.457v-.761a.659.659,0,1,0-1.318,0v2.1a3.281,3.281,0,0,0-2.358-1.433,3.482,3.482,0,0,0-2.55,1.673c-.133-.3-.275-.608-.424-.906a6.338,6.338,0,0,1,5.991-4.269ZM2.864,86.529c-.644-.447-1.5-1.434-1.5-4.827A21.016,21.016,0,0,1,3.415,73c1.155-2.388,2.559-3.93,3.577-3.93,1.064,0,2.854,1.864,4.222,5.425a15.8,15.8,0,0,0-1.028,2.4.659.659,0,0,0,1.25.418c.939-2.807,2.387-4.544,3.19-4.544.544,0,1.555.879,2.488,2.807a15.352,15.352,0,0,1,1.5,6.353c0,1.822-.338,2.942-1.034,3.426a4.187,4.187,0,0,1-2.293.445V83.792l2.138-2.138a.659.659,0,0,0-.932-.932l-1.206,1.206V78.7a.659.659,0,0,0-1.318,0v7.108a4.18,4.18,0,0,1-2.293-.446c-.7-.483-1.034-1.6-1.034-3.426a13,13,0,0,1,.111-1.66.659.659,0,1,0-1.307-.169,14.322,14.322,0,0,0-.122,1.829c0,2.317.509,3.75,1.6,4.508.054.037.108.071.163.1a6.289,6.289,0,0,1-3.434.625V80.292L8.663,79.28a.659.659,0,0,0-.932-.932l-.08.08V76.613a.659.659,0,0,0-1.318,0v5.639l-.83-.83a.659.659,0,0,0-.932.932l1.669,1.669a.66.66,0,0,0,.093.077v3.075a6.237,6.237,0,0,1-3.468-.646Zm4.787,1.964a11.424,11.424,0,0,0,2.875-.272V90.46H7.651Z"/>
    </g>
  </g>
</svg>
