<svg xmlns="http://www.w3.org/2000/svg" width="88" height="88" viewBox="0 0 88 88">
  <g id="Grupo_984612" data-name="Grupo 984612" transform="translate(-441 -1363.863)">
    <g id="Grupo_944949" data-name="Grupo 944949" transform="translate(155 -211.137)">
      <circle id="Elipse_4813" data-name="Elipse 4813" cx="44" cy="44" r="44" transform="translate(286 1575)" fill="#0e494d"/>
    </g>
    <path id="gestion-de-crisis" d="M34.9,3.831a.754.754,0,0,1,.754-.754h8.063a.754.754,0,1,1,0,1.509H35.652A.754.754,0,0,1,34.9,3.831Zm.754,10.91h8.063a.754.754,0,1,0,0-1.509H35.652a.754.754,0,1,0,0,1.509Zm0,10.155h8.063a.754.754,0,1,0,0-1.509H35.652a.754.754,0,1,0,0,1.509Zm0,10.155h8.063a.754.754,0,1,0,0-1.509H35.652a.754.754,0,1,0,0,1.509Zm0,10.155h8.063a.754.754,0,1,0,0-1.509H35.652a.754.754,0,1,0,0,1.509ZM31.114,6.081v-1.5H13.072v6.343a4.334,4.334,0,0,1,3.045,2.128l2.61,4.522,2.107-3.947a.754.754,0,0,1,.666-.4h9.613v-1.5a1.583,1.583,0,0,1,1.581-1.581H46.672a1.583,1.583,0,0,1,1.581,1.581v4.5a1.583,1.583,0,0,1-1.581,1.581H32.695a1.583,1.583,0,0,1-1.581-1.581v-1.5H21.953l-2.336,4.377,2.465,4.269h9.032v-1.5a1.583,1.583,0,0,1,1.581-1.581H46.672a1.583,1.583,0,0,1,1.581,1.581v4.5a1.583,1.583,0,0,1-1.581,1.581H32.695a1.583,1.583,0,0,1-1.581-1.581V24.9H22.953l1.121,1.942a4.391,4.391,0,0,1-2.56,6.405l.3.3h9.3v-1.5a1.583,1.583,0,0,1,1.581-1.581H46.672a1.583,1.583,0,0,1,1.581,1.581v4.5a1.583,1.583,0,0,1-1.581,1.581H32.695a1.583,1.583,0,0,1-1.581-1.581v-1.5H21.5a.754.754,0,0,1-.533-.221l-1.411-1.411H13.072V43.7H31.114V42.2a1.583,1.583,0,0,1,1.581-1.581H46.672A1.583,1.583,0,0,1,48.253,42.2v4.5a1.583,1.583,0,0,1-1.581,1.581H32.695A1.583,1.583,0,0,1,31.114,46.7v-1.5h-18.8a.754.754,0,0,1-.754-.754V33.419h-7.2a4.388,4.388,0,0,1-3.8-6.582L8.518,13.057a4.334,4.334,0,0,1,3.045-2.128v-7.1a.754.754,0,0,1,.754-.754h18.8v-1.5A1.583,1.583,0,0,1,32.695,0H46.672a1.583,1.583,0,0,1,1.581,1.581v4.5a1.583,1.583,0,0,1-1.581,1.581H32.695a1.583,1.583,0,0,1-1.581-1.581ZM32.622,46.7a.075.075,0,0,0,.072.072H46.672a.075.075,0,0,0,.072-.072V42.2a.075.075,0,0,0-.072-.072H32.695a.075.075,0,0,0-.072.072Zm0-10.155a.075.075,0,0,0,.072.072H46.672a.075.075,0,0,0,.072-.072v-4.5a.075.075,0,0,0-.072-.072H32.695a.075.075,0,0,0-.072.072Zm0-10.155a.075.075,0,0,0,.072.072H46.672a.075.075,0,0,0,.072-.072v-4.5a.075.075,0,0,0-.072-.072H32.695a.075.075,0,0,0-.072.072Zm0-10.155a.075.075,0,0,0,.072.072H46.672a.075.075,0,0,0,.072-.072v-4.5a.075.075,0,0,0-.072-.072H32.695a.075.075,0,0,0-.072.072Zm-20.3-3.864a2.849,2.849,0,0,0-2.493,1.439L1.868,27.592A2.879,2.879,0,0,0,4.361,31.91H20.274a2.879,2.879,0,0,0,2.493-4.318L14.811,13.812a2.85,2.85,0,0,0-2.493-1.439Zm20.3-6.291a.075.075,0,0,0,.072.072H46.672a.075.075,0,0,0,.072-.072v-4.5a.075.075,0,0,0-.072-.072H32.695a.075.075,0,0,0-.072.072ZM14.291,28.811a1.973,1.973,0,1,1-1.973-1.973A1.975,1.975,0,0,1,14.291,28.811Zm-1.509,0a.464.464,0,1,0-.464.464A.465.465,0,0,0,12.782,28.811Zm-.7-12.709h.481a1.706,1.706,0,0,1,1.7,1.767l-.24,6.658a1.706,1.706,0,0,1-3.409,0l-.24-6.658a1.706,1.706,0,0,1,1.7-1.767Zm.481,1.509h-.481a.2.2,0,0,0-.2.2l.24,6.658a.2.2,0,0,0,.393,0l.24-6.658a.2.2,0,0,0-.2-.2Z" transform="translate(461.033 1383.863)" fill="#fff"/>
  </g>
</svg>
