<svg xmlns="http://www.w3.org/2000/svg" width="62" height="62" viewBox="0 0 62 62">
  <g id="Grupo_985589" data-name="Grupo 985589" transform="translate(-880 -2635)">
    <g id="Grupo_983968" data-name="Grupo 983968" transform="translate(636 -7788)">
      <g id="Rectángulo_340676" data-name="Rectángulo 340676" transform="translate(244 10423)" fill="none" stroke="#39a900" stroke-width="3">
        <rect width="62" height="62" rx="7" stroke="none"/>
        <rect x="1.5" y="1.5" width="59" height="59" rx="5.5" fill="none"/>
      </g>
    </g>
    <g id="analytics" transform="translate(887.89 2643)">
      <g id="Grupo_985587" data-name="Grupo 985587" transform="translate(0.709 0.58)">
        <g id="Grupo_985586" data-name="Grupo 985586" transform="translate(10.493)">
          <path id="Trazado_731104" data-name="Trazado 731104" d="M129.624,35.37a16.91,16.91,0,1,1,23.915,0A16.929,16.929,0,0,1,129.624,35.37Z" transform="translate(-124.679 -6.51)" fill="#54a0ff"/>
        </g>
        <path id="Trazado_731105" data-name="Trazado 731105" d="M131.4,35.378A16.9,16.9,0,0,1,142.471,6.542a16.9,16.9,0,1,0,0,33.757A16.843,16.843,0,0,1,131.4,35.378Z" transform="translate(-114.186 -6.518)" fill="#338def"/>
        <path id="Trazado_731106" data-name="Trazado 731106" d="M171.941,67.919a13.935,13.935,0,1,1,13.935-13.935A13.935,13.935,0,0,1,171.941,67.919Z" transform="translate(-144.546 -37.063)" fill="#acd6fc"/>
        <path id="Trazado_731107" data-name="Trazado 731107" d="M159.787,53.984a13.935,13.935,0,0,1,13.045-13.906c-.294-.019-.591-.029-.89-.029a13.934,13.934,0,1,0,.89,27.84A13.935,13.935,0,0,1,159.787,53.984Z" transform="translate(-144.547 -37.063)" fill="#8ac2ff"/>
        <path id="Trazado_731108" data-name="Trazado 731108" d="M8.841,352.1l-1.43-1.43a1.93,1.93,0,0,1,0-2.722l9.817-9.817a1.072,1.072,0,0,1,1.511,0l2.564,2.564a1.072,1.072,0,0,1,0,1.511L11.408,352.1A1.82,1.82,0,0,1,8.841,352.1Z" transform="translate(-6.849 -308.316)" fill="#ff6b6b"/>
        <path id="Trazado_731109" data-name="Trazado 731109" d="M8.462,349.4l10.217-10.217a1.064,1.064,0,0,1,.8-.309l-.75-.75a1.071,1.071,0,0,0-1.51,0L7.4,347.943a1.929,1.929,0,0,0,0,2.72l.555.555A1.925,1.925,0,0,1,8.462,349.4Z" transform="translate(-6.842 -308.312)" fill="#ee5253"/>
        <rect id="Rectángulo_345420" data-name="Rectángulo 345420" width="5.763" height="2.676" transform="translate(8.079 32.113) rotate(45)" fill="#ee5253"/>
        <rect id="Rectángulo_345421" data-name="Rectángulo 345421" width="2.676" height="1.779" transform="translate(9.337 33.372) rotate(135)" fill="#d83941"/>
        <path id="Trazado_731110" data-name="Trazado 731110" d="M201.859,192.6V178.024h-4.438a.719.719,0,0,0-.719.719v10.164A13.951,13.951,0,0,0,201.859,192.6Z" transform="translate(-179.796 -162.752)" fill="#576574"/>
        <path id="Trazado_731111" data-name="Trazado 731111" d="M259.768,141.844V121.151h-4.438a.718.718,0,0,0-.718.719v18.924A13.869,13.869,0,0,0,259.768,141.844Z" transform="translate(-232.548 -110.943)" fill="#15ba8b"/>
        <path id="Trazado_731112" data-name="Trazado 731112" d="M317.68,89.111V64.277h-4.438a.719.719,0,0,0-.719.719v4.992h0V90.034A13.832,13.832,0,0,0,317.68,89.111Z" transform="translate(-285.304 -59.133)" fill="#feca57"/>
        <path id="Trazado_731113" data-name="Trazado 731113" d="M375.589,33.829V8.1a.7.7,0,0,0-.7-.7H371.15a.718.718,0,0,0-.718.719V37.3A13.938,13.938,0,0,0,375.589,33.829Z" transform="translate(-338.056 -7.324)" fill="#ee5253"/>
        <path id="Trazado_731114" data-name="Trazado 731114" d="M198.482,178.655a.718.718,0,0,1,.372-.63H197.42a.719.719,0,0,0-.719.719v10.164a13.976,13.976,0,0,0,1.781,1.7Z" transform="translate(-179.795 -162.752)" fill="#3e4b5a"/>
        <path id="Trazado_731115" data-name="Trazado 731115" d="M256.392,121.691a.716.716,0,0,1,.246-.541h-1.309a.718.718,0,0,0-.718.719v18.924a13.8,13.8,0,0,0,1.781.6v-19.7Z" transform="translate(-232.548 -110.942)" fill="#11aa7b"/>
        <path id="Trazado_731116" data-name="Trazado 731116" d="M314.3,69.988h0v-5.17a.716.716,0,0,1,.246-.541h-1.308a.719.719,0,0,0-.719.719v4.992h0V90.034a13.51,13.51,0,0,0,1.781-.091Z" transform="translate(-285.303 -59.133)" fill="#f4b537"/>
        <path id="Trazado_731117" data-name="Trazado 731117" d="M372.214,7.944a.717.717,0,0,1,.246-.541h-1.309a.718.718,0,0,0-.718.719V37.3a13.878,13.878,0,0,0,1.781-.835Z" transform="translate(-338.057 -7.324)" fill="#d83941"/>
      </g>
      <g id="Grupo_985588" data-name="Grupo 985588" transform="translate(0.11 0)">
        <path id="Trazado_731118" data-name="Trazado 731118" d="M38.968,3.732V1.372A1.368,1.368,0,0,0,37.6,0H33.862a1.385,1.385,0,0,0-1.143.6,17.557,17.557,0,0,0-17.46,28.879l-1.331,1.3-.8-.8a1.739,1.739,0,0,0-2.456,0L.868,39.789a2.6,2.6,0,0,0,0,3.666l1.426,1.426a2.486,2.486,0,0,0,3.512,0L15.689,35a1.739,1.739,0,0,0,0-2.456l-.816-.816,1.331-1.3a17.543,17.543,0,0,0,10.72,4.636l.047,0a.668.668,0,0,0,.045-1.334,16.219,16.219,0,1,1,5.461-31.81V3.643a14.59,14.59,0,1,0,6.311,23.912l0,0,.015-.017A14.585,14.585,0,0,0,38.968,7.8V5.47a16.225,16.225,0,0,1-8.959,28.2A.668.668,0,1,0,30.162,35,17.558,17.558,0,0,0,38.968,3.732ZM4.861,43.937a1.149,1.149,0,0,1-1.622,0L1.813,42.511a1.258,1.258,0,0,1,0-1.778l5.145-5.145,3.126,3.126Zm6.167-6.167L7.9,34.644l.946-.946,3.126,3.126Zm3.715-3.715L12.919,35.88,9.792,32.754l1.825-1.825a.4.4,0,0,1,.567,0l2.56,2.56A.4.4,0,0,1,14.744,34.055ZM22.163,29.4a13.333,13.333,0,0,1-3.821-2.915v-9.9a.051.051,0,0,1,.051-.051h3.77Zm5.157,1.4a13.117,13.117,0,0,1-3.821-.814V11.52a.051.051,0,0,1,.05-.051h3.77V30.8Zm5.157-.7a13.175,13.175,0,0,1-3.821.715V6.455h0a.051.051,0,0,1,.051-.051h3.77Zm0-25.035h-3.77a1.388,1.388,0,0,0-1.386,1.386v3.678h-3.77a1.388,1.388,0,0,0-1.386,1.386V15.2h-3.77a1.388,1.388,0,0,0-1.386,1.387v8.165a13.253,13.253,0,0,1,15.47-19.7ZM41.4,17.577a13.2,13.2,0,0,1-2.43,7.649V19.076a.668.668,0,1,0-1.336,0v7.751a13.348,13.348,0,0,1-3.821,2.73V1.391a.051.051,0,0,1,.05-.051H37.6a.031.031,0,0,1,.031.031V15.96a.668.668,0,0,0,1.336,0V9.928A13.2,13.2,0,0,1,41.4,17.577Z" transform="translate(-0.11 0)"/>
      </g>
    </g>
  </g>
</svg>
