<svg xmlns="http://www.w3.org/2000/svg" width="88" height="88" viewBox="0 0 88 88">
  <g id="Grupo_984614" data-name="Grupo 984614" transform="translate(-756 -1417)">
    <g id="Grupo_960922" data-name="Grupo 960922" transform="translate(470 -158)">
      <circle id="Elipse_4813" data-name="Elipse 4813" cx="44" cy="44" r="44" transform="translate(286 1575)" fill="#0e494d"/>
    </g>
    <g id="corrosivo" transform="translate(770 1434)">
      <path id="Trazado_729822" data-name="Trazado 729822" d="M58.466,252.619H39.458a6.594,6.594,0,0,0-4.592,1.831c-1.939,1.861-4.8,2.8-8.494,2.8h-5.8a10.222,10.222,0,0,0-6.167,2.41,2.668,2.668,0,0,1-3.233.473c1.765-1.532,4.91-4.621,9.4-4.621a.869.869,0,1,0,0-1.738c-5.566,0-8.929,3.778-12.117,6.38-1.516,1.238-2.99,1.013-3.931-.141a5.083,5.083,0,0,0,2.831-1.206c2.965-2.421,6.832-6.772,13.217-6.772a.869.869,0,1,0,0-1.738c-7.052,0-11.233,4.647-14.316,7.164-1.333,1.088-2.7,1.11-3.752.058a2.619,2.619,0,0,1-.594-2.756,4.351,4.351,0,0,0,5.511-.524,17.981,17.981,0,0,1,13.152-5.68.869.869,0,1,0,0-1.738,19.7,19.7,0,0,0-14.381,6.19,2.607,2.607,0,0,1-4.451-1.844A2.947,2.947,0,0,1,2.9,248.929a24.865,24.865,0,0,1,8.107-5.417c.581-.241,1.174-.459,1.771-.656a4.349,4.349,0,0,0,3.794,2.23H22.9a7.835,7.835,0,0,0,7.775,6.953.869.869,0,1,0,0-1.738,6.093,6.093,0,0,1-6.084-6.084.869.869,0,0,0-.869-.869h-7.15a2.61,2.61,0,0,1-2.607-2.681,2.663,2.663,0,0,1,2.679-2.534l6.918,0a6.084,6.084,0,0,0,5.557,6.361.869.869,0,0,0,.147-1.732,4.353,4.353,0,0,1-3.966-4.642,1.735,1.735,0,0,0-1.74-1.727l-6.917,0a4.4,4.4,0,0,0-4.394,4.8c-.643.211-1.282.447-1.909.707A26.757,26.757,0,0,0,1.273,248.1a4.349,4.349,0,0,0-.641,5.331,4.369,4.369,0,0,0,.641,5.325,4.533,4.533,0,0,0,1.1.814,4.307,4.307,0,0,0,1.1,1.879,4.131,4.131,0,0,0,2.954,1.276,5.2,5.2,0,0,0,3.38-1.425,4.051,4.051,0,0,0,2.57.932,4.967,4.967,0,0,0,3.117-1.21,8.438,8.438,0,0,1,5.077-2.026h5.8c4.162,0,7.424-1.107,9.7-3.289a4.862,4.862,0,0,1,3.388-1.347H58.466a.869.869,0,0,0,0-1.739Zm0,0" transform="translate(0 -208.996)" fill="#fff"/>
      <path id="Trazado_729823" data-name="Trazado 729823" d="M275.1,261.461a4.341,4.341,0,0,1-1.734,2.25.869.869,0,1,0,.952,1.454,6.086,6.086,0,0,0,2.2-2.56H299.8a.869.869,0,1,0,0-1.738H275.939A.872.872,0,0,0,275.1,261.461Zm0,0" transform="translate(-241.335 -230.636)" fill="#fff"/>
      <path id="Trazado_729824" data-name="Trazado 729824" d="M188.713,189.547a2.878,2.878,0,0,1,.665.077,2.607,2.607,0,1,0,1.218-5.071h0a8.133,8.133,0,0,0-1.883-.222,2.607,2.607,0,1,0,0,5.215Zm0-3.477a6.385,6.385,0,0,1,1.48.175.869.869,0,1,1-.407,1.689,4.639,4.639,0,0,0-1.072-.125.869.869,0,1,1,0-1.738Zm0,0" transform="translate(-164.538 -162.97)" fill="#fff"/>
      <path id="Trazado_729825" data-name="Trazado 729825" d="M233.273,192.41a2.593,2.593,0,0,0,2.532,2.6h.028a2.6,2.6,0,0,0,2.655-2.618,2.863,2.863,0,0,1,2.859-2.847,2.607,2.607,0,1,0,0-5.215A8.083,8.083,0,0,0,233.273,192.41Zm8.074-6.335a.869.869,0,0,1,0,1.738,4.606,4.606,0,0,0-4.6,4.605.869.869,0,0,1-1.738-.008A6.342,6.342,0,0,1,241.347,186.074Zm0,0" transform="translate(-206.24 -162.974)" fill="#fff"/>
      <path id="Trazado_729826" data-name="Trazado 729826" d="M238.29,126.317l-1.222-1.912a1.159,1.159,0,0,0-1.952,0l-1.222,1.912a2.608,2.608,0,1,0,4.4,0Zm-2.2,2.272a.87.87,0,0,1-.733-1.336l.733-1.148.733,1.148A.87.87,0,0,1,236.092,128.589Zm0,0" transform="translate(-206.424 -109.516)" fill="#fff"/>
      <path id="Trazado_729827" data-name="Trazado 729827" d="M235.756,12.125c.043,0,.085,0,.127,0a2.585,2.585,0,0,0,1.8-.721,2.619,2.619,0,0,0,.808-1.887V.869a.869.869,0,1,0-1.738,0V9.521a.87.87,0,0,1-.912.868.905.905,0,0,1-.826-.918V2.028a.869.869,0,1,0-1.738,0V9.471A2.629,2.629,0,0,0,235.756,12.125Zm0,0" transform="translate(-206.24)" fill="#fff"/>
    </g>
  </g>
</svg>
