<svg xmlns="http://www.w3.org/2000/svg" width="88" height="88" viewBox="0 0 88 88">
  <g id="Grupo_985359" data-name="Grupo 985359" transform="translate(-1071 -1364)">
    <g id="Grupo_960924" data-name="Grupo 960924" transform="translate(785 -211)">
      <circle id="Elipse_4813" data-name="Elipse 4813" cx="44" cy="44" r="44" transform="translate(286 1575)" fill="#0e494d"/>
    </g>
    <g id="casco" transform="translate(1089.5 1378.5)">
      <g id="Grupo_985358" data-name="Grupo 985358">
        <g id="Grupo_985357" data-name="Grupo 985357">
          <path id="Trazado_729828" data-name="Trazado 729828" d="M50.35,23.85h-.035a23.737,23.737,0,0,0-15.905-21.6A2.65,2.65,0,0,0,31.8,0H21.2a2.65,2.65,0,0,0-2.609,2.249A23.737,23.737,0,0,0,2.685,23.85H2.65A2.65,2.65,0,0,0,0,26.5v1.767a2.65,2.65,0,0,0,2.65,2.65h47.7A2.65,2.65,0,0,0,53,28.267V26.5A2.65,2.65,0,0,0,50.35,23.85ZM18.55,4.144v15.29a.883.883,0,0,0,1.767,0V2.65a.883.883,0,0,1,.883-.883h4.417V21.2a.883.883,0,1,0,1.767,0V1.767H31.8a.883.883,0,0,1,.883.883V19.433a.883.883,0,1,0,1.767,0V4.144a21.977,21.977,0,0,1,14.1,19.706H4.452A21.977,21.977,0,0,1,18.55,4.144ZM51.233,28.267a.883.883,0,0,1-.883.883H2.65a.883.883,0,0,1-.883-.883V26.5a.883.883,0,0,1,.883-.883h47.7a.883.883,0,0,1,.883.883Z" fill="#fff"/>
          <path id="Trazado_729829" data-name="Trazado 729829" d="M86.133,352H74.65A2.65,2.65,0,0,0,72,354.65v3.533a.883.883,0,0,0,1.767,0V354.65a.883.883,0,0,1,.883-.883H86.133a.883.883,0,1,0,0-1.767Z" transform="translate(-64.05 -313.133)" fill="#fff"/>
          <path id="Trazado_729830" data-name="Trazado 729830" d="M52.117,323.533H48.5A4.425,4.425,0,0,0,44.167,320H8.833a4.422,4.422,0,0,0-4.417,4.417H.883A.883.883,0,0,0,0,325.3v7.067a.883.883,0,0,0,.883.883h3.8a6.191,6.191,0,0,0,5.918,4.417h5.3a11.546,11.546,0,0,0,9.865-5.6.867.867,0,0,1,1.47,0,11.546,11.546,0,0,0,9.865,5.6h5.3a6.183,6.183,0,0,0,6.113-5.3h3.6a.883.883,0,0,0,.883-.883v-7.067A.883.883,0,0,0,52.117,323.533Zm-47.7,7.95H1.767v-2.65h2.65Zm0-4.417H1.767v-.883h2.65Zm42.4,4.417A4.422,4.422,0,0,1,42.4,335.9H37.1a9.773,9.773,0,0,1-8.349-4.741,2.632,2.632,0,0,0-4.5,0A9.773,9.773,0,0,1,15.9,335.9H10.6a4.422,4.422,0,0,1-4.417-4.417v-7.067a2.65,2.65,0,0,1,2.65-2.65H44.167a2.65,2.65,0,0,1,2.65,2.65Zm4.417-.883h-2.65v-2.65h2.65Zm0-4.417h-2.65V325.3h2.65Z" transform="translate(0 -284.667)" fill="#fff"/>
          <path id="Trazado_729831" data-name="Trazado 729831" d="M226.65,352h-1.767a.883.883,0,0,0,0,1.767h1.767a.883.883,0,0,0,0-1.767Z" transform="translate(-199.267 -313.133)" fill="#fff"/>
        </g>
      </g>
    </g>
  </g>
</svg>
