<svg xmlns="http://www.w3.org/2000/svg" width="54" height="61" viewBox="0 0 54 61">
  <g id="Grupo_985519" data-name="Grupo 985519" transform="translate(-527 -2276)">
    <g id="Rectángulo_344915" data-name="Rectángulo 344915" transform="translate(527 2276)" fill="none" stroke="#0e494d" stroke-width="3">
      <rect width="54" height="61" rx="15" stroke="none"/>
      <rect x="1.5" y="1.5" width="51" height="58" rx="13.5" fill="none"/>
    </g>
    <g id="tornillo" transform="translate(535 2287)">
      <g id="Grupo_985517" data-name="Grupo 985517" transform="translate(3.239 0)">
        <path id="Trazado_729956" data-name="Trazado 729956" d="M196.818,32.842a.648.648,0,0,1-.458-.19L181.272,17.565,177.2,21.641a.648.648,0,0,1-.916-.916l4.534-4.534a.648.648,0,0,1,.916,0l15.545,15.545a.648.648,0,0,1-.458,1.106Z" transform="translate(-165.079 -14.706)" fill="#a9bfd1"/>
        <path id="Trazado_729957" data-name="Trazado 729957" d="M40.65,187.329a.648.648,0,0,1-.458-1.106l1.943-1.943a.648.648,0,0,1,.916.916l-1.943,1.943a.648.648,0,0,1-.458.19Z" transform="translate(-40.002 -169.193)" fill="#a9bfd1"/>
        <path id="Trazado_729958" data-name="Trazado 729958" d="M103.207,244.727H82.692a2.481,2.481,0,0,1-1.97-1.071A3.947,3.947,0,0,1,80,241.315V224.648a.648.648,0,1,1,1.3,0v16.667a2.68,2.68,0,0,0,.473,1.569,1.192,1.192,0,0,0,.929.548h20.515a1.192,1.192,0,0,0,.929-.548,2.68,2.68,0,0,0,.473-1.569V225.457a.648.648,0,0,1,1.3,0v15.858a3.947,3.947,0,0,1-.727,2.341,2.481,2.481,0,0,1-1.97,1.071Z" transform="translate(-76.757 -205.864)" fill="#a9bfd1"/>
        <path id="Trazado_729959" data-name="Trazado 729959" d="M340.528,11.011a.648.648,0,0,1-.648-.648V2.149a.81.81,0,0,0-.754-.854h-1.083a.81.81,0,0,0-.754.854V6.2a.648.648,0,0,1-1.3,0V2.149A2.1,2.1,0,0,1,338.043,0h1.083a2.1,2.1,0,0,1,2.049,2.149v8.214A.648.648,0,0,1,340.528,11.011Z" transform="translate(-312.028)" fill="#a9bfd1"/>
        <path id="Trazado_729960" data-name="Trazado 729960" d="M205.831,91.977H200.65a.648.648,0,0,1-.458-1.106l2.591-2.591a.648.648,0,0,1,.916.916l-1.485,1.485h3.618a.648.648,0,0,1,0,1.3Z" transform="translate(-187.048 -80.965)" fill="#a9bfd1"/>
      </g>
      <g id="Grupo_985518" data-name="Grupo 985518" transform="translate(1.295 0.648)">
        <path id="Trazado_729961" data-name="Trazado 729961" d="M16,8l5.182,5.182H17.3l4.534,4.534H18.591l8.1,8.1L24.42,20.307h3.239l-2.591-4.534h2.591L23.773,8Z" transform="translate(-16 -8)" fill="#ffde55"/>
        <path id="Trazado_729962" data-name="Trazado 729962" d="M144.42,232l1.611,4.531,4.343-2.064-2.064,4.343,4.531,1.611-4.531,1.611,2.064,4.343-4.343-2.064-1.611,4.531-1.611-4.531-4.343,2.064,2.064-4.343L136,240.42l4.531-1.611-2.064-4.343,4.343,2.064Z" transform="translate(-126.284 -213.864)" fill="#ffde55"/>
      </g>
      <path id="Trazado_729963" data-name="Trazado 729963" d="M176.247,21.641a.648.648,0,0,0,.916,0l4.072-4.076,15.092,15.087a.648.648,0,0,0,.916-.916L181.7,16.191a.648.648,0,0,0-.916,0l-4.534,4.534a.648.648,0,0,0,0,.916Z" transform="translate(-161.803 -14.706)"/>
      <path id="Trazado_729964" data-name="Trazado 729964" d="M42.99,184.191a.648.648,0,0,0-.916,0l-1.943,1.943a.648.648,0,1,0,.9.932l.016-.016,1.943-1.943A.648.648,0,0,0,42.99,184.191Z" transform="translate(-36.7 -169.104)"/>
      <path id="Trazado_729965" data-name="Trazado 729965" d="M105.256,224.81a.648.648,0,0,0-.648.648v15.858a2.68,2.68,0,0,1-.473,1.569,1.192,1.192,0,0,1-.926.548H82.695a1.192,1.192,0,0,1-.929-.548,2.68,2.68,0,0,1-.475-1.569V224.648a.648.648,0,1,0-1.3,0v16.667a3.947,3.947,0,0,0,.727,2.341,2.481,2.481,0,0,0,1.972,1.071H103.21a2.481,2.481,0,0,0,1.97-1.071,3.947,3.947,0,0,0,.725-2.341V225.457A.648.648,0,0,0,105.256,224.81Z" transform="translate(-73.518 -205.864)"/>
      <path id="Trazado_729966" data-name="Trazado 729966" d="M340.528,11.011a.648.648,0,0,0,.648-.648V2.149A2.1,2.1,0,0,0,339.129,0h-1.083a2.1,2.1,0,0,0-2.052,2.149V6.2a.648.648,0,1,0,1.3,0V2.149a.81.81,0,0,1,.757-.854h1.083a.81.81,0,0,1,.751.854v8.214A.648.648,0,0,0,340.528,11.011Z" transform="translate(-308.79 0)"/>
      <path id="Trazado_729967" data-name="Trazado 729967" d="M203.73,88.191a.648.648,0,0,0-.916,0l-2.591,2.591a.648.648,0,0,0,.455,1.106h5.182a.648.648,0,0,0,0-1.3h-3.616l1.485-1.485A.648.648,0,0,0,203.73,88.191Z" transform="translate(-183.838 -80.877)"/>
      <path id="Trazado_729968" data-name="Trazado 729968" d="M10.7,10.115a.648.648,0,0,0,.141.706l8.1,8.1a.648.648,0,0,0,1.057-.7l-1.9-4.611H20.36a.648.648,0,0,0,.562-.972L18.888,9.068H20.36a.648.648,0,0,0,.58-.937L17.053.358A.648.648,0,0,0,16.473,0H8.7a.648.648,0,0,0-.453,1.106l4.074,4.076H10a.648.648,0,0,0-.453,1.106l3.426,3.428H11.292a.648.648,0,0,0-.6.4Zm3.835.9a.648.648,0,0,0,.458-1.106L11.562,6.477h2.32a.648.648,0,0,0,.458-1.106L10.267,1.3h5.809l3.239,6.477H17.769a.648.648,0,0,0-.562.972l2.039,3.562H17.121a.648.648,0,0,0-.6.895l1.036,2.511-4.7-4.7Z" transform="translate(-7.405 0)"/>
      <path id="Trazado_729969" data-name="Trazado 729969" d="M420.534,281.943h-1.3v-1.3a.648.648,0,1,0-1.3,0v1.3h-1.3a.648.648,0,0,0,0,1.3h1.3v1.3a.648.648,0,0,0,1.3,0v-1.3h1.3a.648.648,0,0,0,0-1.3Z" transform="translate(-382.318 -257.33)"/>
      <path id="Trazado_729970" data-name="Trazado 729970" d="M4.534,304H.648a.648.648,0,1,0,0,1.3H4.534a.648.648,0,1,0,0-1.3Z" transform="translate(0 -279.387)"/>
      <path id="Trazado_729971" data-name="Trazado 729971" d="M146.227,233.041a.648.648,0,0,0-.431-.61l-3.855-1.371,1.757-3.692a.648.648,0,0,0-.861-.869l-3.692,1.757-1.371-3.855a.648.648,0,0,0-1.22,0l-1.371,3.855-3.692-1.757a.648.648,0,0,0-.863.863l1.757,3.692-3.855,1.371a.648.648,0,0,0,0,1.22l3.855,1.371-1.757,3.692a.648.648,0,0,0,.858.874l3.692-1.757,1.371,3.855a.648.648,0,0,0,1.22,0l1.371-3.855,3.692,1.757a.648.648,0,0,0,.869-.866l-1.757-3.692,3.855-1.371a.648.648,0,0,0,.428-.613Zm-5.4,1a.648.648,0,0,0-.393.827q.011.031.025.061l1.283,2.7-2.7-1.284a.648.648,0,0,0-.863.306.617.617,0,0,0-.025.061l-1,2.816-1-2.815a.648.648,0,0,0-.827-.393q-.031.011-.061.025l-2.7,1.282,1.283-2.7a.648.648,0,0,0-.306-.863.624.624,0,0,0-.061-.025l-2.815-1,2.815-1a.648.648,0,0,0,.393-.827q-.011-.031-.025-.061l-1.283-2.7,2.7,1.283a.648.648,0,0,0,.863-.306.621.621,0,0,0,.025-.061l1-2.815,1,2.815a.648.648,0,0,0,.827.393q.031-.011.061-.025l2.7-1.283-1.282,2.7a.648.648,0,0,0,.306.863.615.615,0,0,0,.061.025l2.818,1Z" transform="translate(-117.727 -205.837)"/>
    </g>
  </g>
</svg>
