<svg xmlns="http://www.w3.org/2000/svg" xmlns:xlink="http://www.w3.org/1999/xlink" width="115" height="134" viewBox="0 0 115 134">
  <defs>
    <clipPath id="clip-path">
      <path id="path5787" d="M0-682.665H94v94H0Z" transform="translate(0 682.665)"/>
    </clipPath>
  </defs>
  <g id="Grupo_985301" data-name="Grupo 985301" transform="translate(-303 -1338)">
    <path id="Rectángulo_344849" data-name="Rectángulo 344849" d="M49,0H66a49,49,0,0,1,49,49v85a0,0,0,0,1,0,0H0a0,0,0,0,1,0,0V49A49,49,0,0,1,49,0Z" transform="translate(303 1338)" fill="#fdb12e"/>
    <g id="g5781" transform="translate(313 2040.665)">
      <g id="g5783" transform="translate(0 -682.665)">
        <g id="g5785" clip-path="url(#clip-path)">
          <g id="g5791" transform="translate(31.59 18.763)">
            <path id="path5793" d="M-175.739-192.962h-25.305a2.754,2.754,0,0,1-2.463-3.986l12.653-25.305a2.754,2.754,0,0,1,4.926,0l12.653,25.305a2.754,2.754,0,0,1-2.463,3.986" transform="translate(203.802 223.775)" fill="#fee45a"/>
          </g>
          <g id="g5795" transform="translate(31.59 18.763)">
            <path id="path5797" d="M-36.335-168l12.362-24.724-.291-.581a2.754,2.754,0,0,0-4.926,0L-41.842-168a2.754,2.754,0,0,0,2.463,3.986h5.508A2.754,2.754,0,0,1-36.335-168" transform="translate(42.137 194.833)" fill="#fed402"/>
          </g>
          <path id="path5799" d="M589.672-220.6H601.1V-237.71H589.672Z" transform="translate(-508.476 298.979)" fill="#fee45a"/>
          <path id="path5801" d="M589.672-220.6H595.4V-237.71h-5.725Z" transform="translate(-508.476 298.979)" fill="#fed402"/>
          <g id="g5803" transform="translate(64.109 52.715)">
            <path id="path5805" d="M-107-214.279h-11.341a5.746,5.746,0,0,1-5.746-5.747V-242.75a5.747,5.747,0,0,1,5.746-5.747H-107Z" transform="translate(124.09 248.497)" fill="#77656e"/>
          </g>
          <g id="g5807" transform="translate(64.109 52.715)">
            <path id="path5809" d="M-34.492-178.293v-22.724a5.747,5.747,0,0,1,5.747-5.747h-5.508A5.747,5.747,0,0,0-40-201.017v22.724a5.747,5.747,0,0,0,5.747,5.747h5.508a5.747,5.747,0,0,1-5.747-5.747" transform="translate(40 206.763)" fill="#69545e"/>
          </g>
          <g id="g5811" transform="translate(12.805 52.715)">
            <path id="path5813" d="M-71.017-214.279h-11.34V-248.5h11.34a5.747,5.747,0,0,1,5.747,5.747v22.724a5.747,5.747,0,0,1-5.747,5.747" transform="translate(82.357 248.497)" fill="#77656e"/>
          </g>
          <path id="path5815" d="M92.994-265.616h5.681v-34.217H92.994Z" transform="translate(-80.189 352.549)" fill="#69545e"/>
          <path id="path5817" d="M10-220.6H21.43V-237.71H10Z" transform="translate(-8.625 298.979)" fill="#fee45a"/>
          <path id="path5819" d="M10-220.6h5.508V-237.71H10Z" transform="translate(-8.625 298.979)" fill="#fed402"/>
          <g id="g5821" transform="translate(7.058 7.07)">
            <path id="path5823" d="M-500.26-339.413h-5.747V-353.67a34.234,34.234,0,0,0-34.2-34.2,34.234,34.234,0,0,0-34.2,34.2v14.257h-5.746V-353.67a39.681,39.681,0,0,1,11.7-28.243,39.68,39.68,0,0,1,28.243-11.7,39.68,39.68,0,0,1,28.243,11.7,39.681,39.681,0,0,1,11.7,28.243Z" transform="translate(580.144 393.612)" fill="#f3f0f3"/>
          </g>
          <g id="g5825" transform="translate(11.429 51.338)">
            <path id="path5827" d="M2.717,26.971H-8.623A1.377,1.377,0,0,1-10,25.594V17.04a1.377,1.377,0,0,1,1.377-1.377A1.377,1.377,0,0,1-7.246,17.04v7.178H2.717a4.374,4.374,0,0,0,4.369-4.37V-2.876a4.374,4.374,0,0,0-4.369-4.37H-8.623A1.377,1.377,0,0,1-10-8.623,1.377,1.377,0,0,1-8.623-10H2.717A7.131,7.131,0,0,1,9.84-2.876V19.848A7.131,7.131,0,0,1,2.717,26.971Z" transform="translate(10 10)"/>
          </g>
          <g id="g5829" transform="translate(62.732 51.338)">
            <path id="path5831" d="M-115.621,26.971h-11.34a7.131,7.131,0,0,1-7.123-7.124V-2.876A7.131,7.131,0,0,1-126.96-10h11.34a1.377,1.377,0,0,1,1.377,1.377,1.377,1.377,0,0,1-1.377,1.377h-11.34a4.374,4.374,0,0,0-4.369,4.37V19.848a4.374,4.374,0,0,0,4.369,4.37H-117V17.04a1.377,1.377,0,0,1,1.377-1.377,1.377,1.377,0,0,1,1.377,1.377v8.555A1.377,1.377,0,0,1-115.621,26.971Z" transform="translate(134.084 10)"/>
          </g>
          <g id="g5833" transform="translate(0 59.891)">
            <path id="path5835" d="M2.806-77.483H-8.623A1.377,1.377,0,0,1-10-78.86v-5.082a1.377,1.377,0,0,1,1.377-1.377,1.377,1.377,0,0,1,1.377,1.377v3.7H1.429V-94.593H-7.246v4.65a1.377,1.377,0,0,1-1.377,1.377A1.377,1.377,0,0,1-10-89.942v-6.027a1.377,1.377,0,0,1,1.377-1.377H2.806a1.377,1.377,0,0,1,1.377,1.377V-78.86A1.377,1.377,0,0,1,2.806-77.483Z" transform="translate(10 97.346)"/>
          </g>
          <g id="g5837" transform="translate(79.818 59.891)">
            <path id="path5839" d="M-80.194-77.483H-91.623A1.377,1.377,0,0,1-93-78.86V-95.969a1.377,1.377,0,0,1,1.377-1.377h11.429a1.377,1.377,0,0,1,1.377,1.377v6.027a1.377,1.377,0,0,1-1.377,1.377,1.377,1.377,0,0,1-1.377-1.377v-4.65h-8.675v14.355h8.675v-3.7a1.377,1.377,0,0,1,1.377-1.377,1.377,1.377,0,0,1,1.377,1.377v5.082A1.377,1.377,0,0,1-80.194-77.483Z" transform="translate(93 97.346)"/>
          </g>
          <g id="g5841" transform="translate(5.682 5.692)">
            <path id="path5843" d="M-8.623-346.659A1.377,1.377,0,0,1-10-348.036v-14.256A41.047,41.047,0,0,1,2.1-391.509a41.042,41.042,0,0,1,29.216-12.1,41.2,41.2,0,0,1,21.19,5.83,1.377,1.377,0,0,1,.473,1.889,1.377,1.377,0,0,1-1.889.473,38.443,38.443,0,0,0-19.774-5.438,38.306,38.306,0,0,0-27.269,11.3,38.311,38.311,0,0,0-11.3,27.269v14.256A1.377,1.377,0,0,1-8.623-346.659Z" transform="translate(10 403.612)"/>
          </g>
          <g id="g5845" transform="translate(11.429 11.439)">
            <path id="path5847" d="M-436.9-310.672a1.377,1.377,0,0,1-1.377-1.377v-14.256a32.856,32.856,0,0,0-32.818-32.82,32.856,32.856,0,0,0-32.818,32.82v14.256a1.377,1.377,0,0,1-1.377,1.377,1.377,1.377,0,0,1-1.377-1.377v-14.256a35.613,35.613,0,0,1,35.572-35.573,35.613,35.613,0,0,1,35.572,35.573v14.256A1.377,1.377,0,0,1-436.9-310.672Z" transform="translate(506.665 361.879)"/>
          </g>
          <g id="g5849" transform="translate(71.009 14.794)">
            <path id="path5851" d="M5.932,37.85a1.377,1.377,0,0,1-1.377-1.377V22.217A38.312,38.312,0,0,0-6.74-5.052c-.874-.873-1.8-1.718-2.761-2.51A1.377,1.377,0,0,1-9.684-9.5a1.377,1.377,0,0,1,1.939-.184C-6.721-8.837-5.727-7.934-4.793-7a41.048,41.048,0,0,1,12.1,29.216V36.474A1.377,1.377,0,0,1,5.932,37.85Z" transform="translate(10 10)"/>
          </g>
          <g id="g5853" transform="translate(17.087 51.338)">
            <path id="path5855" d="M-8.623,26.971A1.377,1.377,0,0,1-10,25.594V-8.623A1.377,1.377,0,0,1-8.623-10,1.377,1.377,0,0,1-7.246-8.623V25.594A1.377,1.377,0,0,1-8.623,26.971Z" transform="translate(10 10)"/>
          </g>
          <g id="g5857" transform="translate(74.138 51.338)">
            <path id="path5859" d="M-8.623,26.971A1.377,1.377,0,0,1-10,25.594V-8.623A1.377,1.377,0,0,1-8.623-10,1.377,1.377,0,0,1-7.246-8.623V25.594A1.377,1.377,0,0,1-8.623,26.971Z" transform="translate(10 10)"/>
          </g>
          <g id="g5861" transform="translate(22.812 57.041)">
            <path id="path5863" d="M-2.92-7.2h-.011l-5.7-.044A1.377,1.377,0,0,1-10-8.634,1.377,1.377,0,0,1-8.613-10l5.7.044A1.377,1.377,0,0,1-1.543-8.569,1.377,1.377,0,0,1-2.92-7.2Z" transform="translate(10 10)"/>
          </g>
          <g id="g5865" transform="translate(22.812 62.722)">
            <path id="path5867" d="M-2.92-7.2h-.011l-5.7-.044A1.377,1.377,0,0,1-10-8.634,1.377,1.377,0,0,1-8.613-10l5.7.044A1.377,1.377,0,0,1-1.543-8.569,1.377,1.377,0,0,1-2.92-7.2Z" transform="translate(10 10)"/>
          </g>
          <g id="g5869" transform="translate(22.812 68.403)">
            <path id="path5871" d="M-2.92-7.2h-.011l-5.7-.044A1.377,1.377,0,0,1-10-8.634,1.377,1.377,0,0,1-8.613-10l5.7.044A1.377,1.377,0,0,1-1.543-8.569,1.377,1.377,0,0,1-2.92-7.2Z" transform="translate(10 10)"/>
          </g>
          <g id="g5873" transform="translate(22.812 79.765)">
            <path id="path5875" d="M-2.92-7.2h-.011l-5.7-.044A1.377,1.377,0,0,1-10-8.634,1.377,1.377,0,0,1-8.613-10l5.7.044A1.377,1.377,0,0,1-1.543-8.569,1.377,1.377,0,0,1-2.92-7.2Z" transform="translate(10 10)"/>
          </g>
          <g id="g5877" transform="translate(22.812 74.084)">
            <path id="path5879" d="M-2.92-7.2h-.011l-5.7-.044A1.377,1.377,0,0,1-10-8.634,1.377,1.377,0,0,1-8.613-10l5.7.044A1.377,1.377,0,0,1-1.543-8.569,1.377,1.377,0,0,1-2.92-7.2Z" transform="translate(10 10)"/>
          </g>
          <g id="g5881" transform="translate(62.732 57.084)">
            <path id="path5883" d="M-2.92-7.246h-5.7A1.377,1.377,0,0,1-10-8.623,1.377,1.377,0,0,1-8.623-10h5.7A1.377,1.377,0,0,1-1.543-8.623,1.377,1.377,0,0,1-2.92-7.246Z" transform="translate(10 10)"/>
          </g>
          <g id="g5885" transform="translate(62.732 62.722)">
            <path id="path5887" d="M-50.039-7.2a1.377,1.377,0,0,1-1.377-1.366,1.377,1.377,0,0,1,1.366-1.387l5.7-.044a1.377,1.377,0,0,1,1.387,1.366,1.377,1.377,0,0,1-1.366,1.387l-5.7.044Z" transform="translate(51.416 10)"/>
          </g>
          <g id="g5889" transform="translate(62.732 68.403)">
            <path id="path5891" d="M-50.039-7.2a1.377,1.377,0,0,1-1.377-1.366,1.377,1.377,0,0,1,1.366-1.387l5.7-.044a1.377,1.377,0,0,1,1.387,1.366,1.377,1.377,0,0,1-1.366,1.387l-5.7.044Z" transform="translate(51.416 10)"/>
          </g>
          <g id="g5893" transform="translate(62.732 74.149)">
            <path id="path5895" d="M-44.336-7.246h-5.7a1.377,1.377,0,0,1-1.377-1.377A1.377,1.377,0,0,1-50.039-10h5.7a1.377,1.377,0,0,1,1.377,1.377A1.377,1.377,0,0,1-44.336-7.246Z" transform="translate(51.416 10)"/>
          </g>
          <g id="g5897" transform="translate(62.732 79.787)">
            <path id="path5899" d="M-50.039-7.224A1.377,1.377,0,0,1-51.416-8.6a1.377,1.377,0,0,1,1.372-1.382l5.7-.022a1.377,1.377,0,0,1,1.382,1.372,1.377,1.377,0,0,1-1.372,1.382l-5.7.022Z" transform="translate(51.416 10)"/>
          </g>
          <g id="g5901" transform="translate(34.218 65.562)">
            <path id="path5903" d="M-.069-42.824A1.377,1.377,0,0,1-1.3-43.583l-2-3.98-4.354,4.338a1.377,1.377,0,0,1-1.947,0,1.377,1.377,0,0,1,0-1.947l5.7-5.681A1.377,1.377,0,0,1-2.7-51.241a1.377,1.377,0,0,1,1.01.741l1.621,3.229L1.552-50.5A1.377,1.377,0,0,1,3.4-51.113a1.377,1.377,0,0,1,.613,1.848L1.162-43.583A1.377,1.377,0,0,1-.069-42.824Z" transform="translate(10 51.259)"/>
          </g>
          <g id="g5905" transform="translate(45.623 65.562)">
            <path id="path5907" d="M-88.605-42.824a1.377,1.377,0,0,1-1.231-.759l-2.851-5.681a1.377,1.377,0,0,1,.613-1.848,1.377,1.377,0,0,1,1.848.613l1.621,3.229,1.621-3.229a1.377,1.377,0,0,1,1.01-.741,1.377,1.377,0,0,1,1.193.384l5.7,5.681a1.377,1.377,0,0,1,0,1.947,1.377,1.377,0,0,1-1.947,0l-4.354-4.338-2,3.98A1.377,1.377,0,0,1-88.605-42.824Z" transform="translate(92.834 51.259)"/>
          </g>
          <g id="g5909" transform="translate(30.213 17.386)">
            <path id="path5911" d="M-184.363-200.208h-25.305a4.1,4.1,0,0,1-3.514-1.959,4.1,4.1,0,0,1-.181-4.019l12.653-25.305a4.108,4.108,0,0,1,3.695-2.284,4.108,4.108,0,0,1,3.695,2.284l12.653,25.305a4.1,4.1,0,0,1-.181,4.019A4.1,4.1,0,0,1-184.363-200.208Zm-12.653-30.813a1.352,1.352,0,0,0-1.231.761L-210.9-204.955a1.358,1.358,0,0,0,.06,1.34,1.358,1.358,0,0,0,1.171.653h25.305a1.358,1.358,0,0,0,1.171-.653,1.358,1.358,0,0,0,.06-1.34l-12.653-25.305A1.352,1.352,0,0,0-197.016-231.021Z" transform="translate(213.803 233.775)"/>
          </g>
          <g id="g5913" transform="translate(45.623 25.387)">
            <path id="path5915" d="M-8.623,4.16A1.377,1.377,0,0,1-10,2.783V-8.623A1.377,1.377,0,0,1-8.623-10,1.377,1.377,0,0,1-7.246-8.623V2.783A1.377,1.377,0,0,1-8.623,4.16Z" transform="translate(10 10)"/>
          </g>
          <g id="g5917" transform="translate(47 43.873)">
            <path id="path5919"/>
          </g>
        </g>
      </g>
    </g>
  </g>
</svg>
