<svg xmlns="http://www.w3.org/2000/svg" width="115" height="134" viewBox="0 0 115 134">
  <g id="Grupo_985615" data-name="Grupo 985615" transform="translate(-618 -5396)">
    <g id="Grupo_985600" data-name="Grupo 985600" transform="translate(0 1834)">
      <g id="Grupo_985581" data-name="Grupo 985581" transform="translate(0 1070)">
        <path id="Rectángulo_344882" data-name="Rectángulo 344882" d="M49,0H66a49,49,0,0,1,49,49v85a0,0,0,0,1,0,0H0a0,0,0,0,1,0,0V49A49,49,0,0,1,49,0Z" transform="translate(618 2492)" fill="#fdb12e"/>
      </g>
    </g>
    <g id="air-pollution" transform="translate(623 5411)">
      <g id="Grupo_985601" data-name="Grupo 985601" transform="translate(52.963 29.097)">
        <path id="Trazado_731154" data-name="Trazado 731154" d="M282.881,171.254a6.585,6.585,0,0,0,6.357-4.871,10.285,10.285,0,0,0,16.185-4.139,6.583,6.583,0,0,0,.828-12.074,4.316,4.316,0,0,0-7.691-3.835,6.584,6.584,0,0,0-12.375,2.729c-.207-.02-.417-.031-.629-.031a6.585,6.585,0,0,0-6.105,4.12,4.313,4.313,0,0,0-6.589,4.978,6.583,6.583,0,0,0-5.823,6.538s0,.009,0,.014c-.136-.008-.273-.014-.412-.014a6.584,6.584,0,0,0-6.584,6.584Z" transform="translate(-260.044 -142.862)" fill="#cbcbcb"/>
      </g>
      <g id="Grupo_985602" data-name="Grupo 985602" transform="translate(85.407 30.543)">
        <path id="Trazado_731155" data-name="Trazado 731155" d="M433.1,155.825a4.308,4.308,0,0,0-3.912-5.862,16.842,16.842,0,0,1,1.528,6.989c0,7.137-4.545,13.4-11.379,16.925a10.286,10.286,0,0,0,12.935-5.979,6.583,6.583,0,0,0,.828-12.074Z" transform="translate(-419.338 -149.963)" fill="#aaa"/>
      </g>
      <g id="Grupo_985605" data-name="Grupo 985605" transform="translate(6.259 1.528)">
        <g id="Grupo_985603" data-name="Grupo 985603">
          <path id="Trazado_731156" data-name="Trazado 731156" d="M56.451,42.888a7,7,0,0,0,6.65-4.825,7.007,7.007,0,0,0,5,.084,3.281,3.281,0,0,0,4.288-.375,10.284,10.284,0,0,0,16.884-2.777,7,7,0,0,0,9.045-9.141,7,7,0,0,0-4.194-13.272,10.287,10.287,0,0,0-17.381-.575,10.245,10.245,0,0,0-4.634-.226,3.29,3.29,0,0,0-6.263.124,7,7,0,0,0-8.986,6.706c0,.017,0,.034,0,.052-.339-.034-.682-.052-1.03-.052A10.287,10.287,0,0,0,45.546,28.9a6.993,6.993,0,0,0-6.14,3.642,3.287,3.287,0,0,0-4.591,3.989,7,7,0,0,0-4.082,6.359Z" transform="translate(-30.733 -7.5)" fill="#dfdfdf"/>
        </g>
        <g id="Grupo_985604" data-name="Grupo 985604" transform="translate(45.118 1.406)">
          <path id="Trazado_731157" data-name="Trazado 731157" d="M278.942,24.929a7,7,0,0,0-8.411-6.852,10.345,10.345,0,0,0-3.68-3.676,18.674,18.674,0,0,1,2.774,9.66c0,9.048-6.908,17.01-17.369,21.636a10.284,10.284,0,0,0,13.424-5.208,7,7,0,0,0,9.045-9.141A7,7,0,0,0,278.942,24.929Z" transform="translate(-252.256 -14.401)" fill="#cbcbcb"/>
        </g>
      </g>
      <g id="Grupo_985606" data-name="Grupo 985606" transform="translate(1.527 45.145)">
        <path id="Trazado_731158" data-name="Trazado 731158" d="M44.534,279.263H7.5l4.115-57.608h28.8Z" transform="translate(-7.5 -221.655)" fill="#407093"/>
      </g>
      <g id="Grupo_985607" data-name="Grupo 985607" transform="translate(29.714 45.145)">
        <path id="Trazado_731159" data-name="Trazado 731159" d="M150.624,221.655h-4.732l4.115,57.608h4.732Z" transform="translate(-145.892 -221.655)" fill="#365e7d"/>
      </g>
      <g id="Grupo_985608" data-name="Grupo 985608" transform="translate(2.35 36.915)">
        <path id="Trazado_731160" data-name="Trazado 731160" d="M44.871,181.248H13.6a2.058,2.058,0,0,0-2.057,2.058v4.115a2.058,2.058,0,0,0,2.057,2.057H44.871a2.058,2.058,0,0,0,2.057-2.057v-4.115A2.058,2.058,0,0,0,44.871,181.248Z" transform="translate(-11.541 -181.248)" fill="#e4f6ff"/>
      </g>
      <g id="Grupo_985609" data-name="Grupo 985609" transform="translate(27.862 36.915)">
        <path id="Trazado_731161" data-name="Trazado 731161" d="M144.619,181.248H136.8a2.058,2.058,0,0,1,2.057,2.058v4.115a2.058,2.058,0,0,1-2.057,2.057h7.818a2.058,2.058,0,0,0,2.057-2.057v-4.115A2.058,2.058,0,0,0,144.619,181.248Z" transform="translate(-136.801 -181.248)" fill="#d3effb"/>
      </g>
      <g id="Grupo_985610" data-name="Grupo 985610" transform="translate(49.054 65.719)">
        <path id="Trazado_731162" data-name="Trazado 731162" d="M273.767,359.7H240.848l3.086-37.033H270.68Z" transform="translate(-240.848 -322.671)" fill="#407093"/>
      </g>
      <g id="Grupo_985611" data-name="Grupo 985611" transform="translate(72.92 65.719)">
        <path id="Trazado_731163" data-name="Trazado 731163" d="M363.993,322.671h-5.966l3.086,37.033h5.967Z" transform="translate(-358.027 -322.671)" fill="#365e7d"/>
      </g>
      <g id="Grupo_985612" data-name="Grupo 985612" transform="translate(48.848 57.489)">
        <path id="Trazado_731164" data-name="Trazado 731164" d="M271.11,282.264H241.894a2.058,2.058,0,0,0-2.057,2.057v4.115a2.058,2.058,0,0,0,2.057,2.057H271.11a2.058,2.058,0,0,0,2.057-2.057v-4.115A2.058,2.058,0,0,0,271.11,282.264Z" transform="translate(-239.837 -282.264)" fill="#e4f6ff"/>
      </g>
      <g id="Grupo_985613" data-name="Grupo 985613" transform="translate(72.302 57.489)">
        <path id="Trazado_731165" data-name="Trazado 731165" d="M362.814,282.264H355a2.058,2.058,0,0,1,2.057,2.057v4.115A2.058,2.058,0,0,1,355,290.494h7.818a2.058,2.058,0,0,0,2.057-2.057v-4.115A2.058,2.058,0,0,0,362.814,282.264Z" transform="translate(-354.996 -282.264)" fill="#d3effb"/>
      </g>
      <g id="Grupo_985614" data-name="Grupo 985614" transform="translate(0 0)">
        <path id="Trazado_731166" data-name="Trazado 731166" d="M285.945,143.488a5.778,5.778,0,0,0,.061-.837,5.849,5.849,0,0,0-9.354-4.682,8.113,8.113,0,0,0-13.842,3.594,8.065,8.065,0,0,0-6.065,3.579A5.847,5.847,0,0,0,249,150.674c0,.107,0,.214.009.321a8.11,8.11,0,0,0-5.431,6.234,8.131,8.131,0,0,0-6.984,6.524h-.674a3.589,3.589,0,0,0-3.585,3.585v4.115a3.588,3.588,0,0,0,3.162,3.558l-2.951,35.406a1.528,1.528,0,0,0,1.4,1.649c.043,0,.086.005.129.005a1.528,1.528,0,0,0,1.521-1.4l2.969-35.633H262.5l.593,7.114a1.527,1.527,0,0,0,1.521,1.4c.042,0,.085,0,.129-.005a1.528,1.528,0,0,0,1.4-1.649l-.574-6.887a3.589,3.589,0,0,0,3.162-3.558v-4.115a3.587,3.587,0,0,0-1.922-3.173,8.09,8.09,0,0,0,1.048-1.423,11.812,11.812,0,0,0,16.669-5.29,8.112,8.112,0,0,0,1.426-13.965Zm-20.276,27.966a.53.53,0,0,1-.53.53H235.924a.53.53,0,0,1-.53-.53v-4.115a.53.53,0,0,1,.53-.53h29.215a.531.531,0,0,1,.53.53Zm17.187-16.624-.017.007a5.064,5.064,0,0,1-4.971-.964,1.527,1.527,0,0,0-2.006,2.3,8.1,8.1,0,0,0,4.648,1.962,8.764,8.764,0,0,1-12.354,1.1,1.528,1.528,0,0,0-2.457.774,5.062,5.062,0,0,1-4.882,3.74h-.83a5.845,5.845,0,0,0-.656-6.552,1.527,1.527,0,0,0-2.34,1.964,2.757,2.757,0,0,1,.653,1.795,2.8,2.8,0,0,1-2.793,2.793H239.744a5.065,5.065,0,0,1,4.82-3.529c.106,0,.212,0,.316.011a1.528,1.528,0,0,0,1.623-1.525c0-.008,0-.019,0-.029a5.05,5.05,0,0,1,4.47-5.006,1.528,1.528,0,0,0,1.259-2.044,2.787,2.787,0,0,1,4.256-3.217l.024.015a2.79,2.79,0,0,1,1.132,2.242,1.528,1.528,0,1,0,3.055,0,5.821,5.821,0,0,0-1.423-3.816,5.029,5.029,0,0,1,4.216-2.269c.156,0,.319.008.485.024a1.527,1.527,0,0,0,1.669-1.434,5.056,5.056,0,0,1,9.5-2.094l0,.006a4.992,4.992,0,0,1,.595,2.381,5.059,5.059,0,0,1-.252,1.581,1.528,1.528,0,1,0,2.9.954,8.125,8.125,0,0,0-.125-5.414,2.767,2.767,0,0,1,1.882-.736,2.785,2.785,0,0,1,2.6,3.793,1.528,1.528,0,0,0,.728,1.907,5.056,5.056,0,0,1-.635,9.273Z" transform="translate(-185.018 -107.793)"/>
        <path id="Trazado_731167" data-name="Trazado 731167" d="M55.432,36.591a11.846,11.846,0,0,0,10.136-5.746A8.526,8.526,0,0,0,75.678,20.63a8.523,8.523,0,0,0-4.61-15.692c-.222,0-.443.009-.664.026a11.812,11.812,0,0,0-18.755-.644A11.687,11.687,0,0,0,48.5,4.155a4.813,4.813,0,0,0-7.973.037A8.523,8.523,0,0,0,31,11.115a11.833,11.833,0,0,0-11.369,10.4,8.527,8.527,0,0,0-5.339,3.24,4.821,4.821,0,0,0-5.648,4.748q0,.119.006.239a8.564,8.564,0,0,0-3.774,5.641H4.408A3.589,3.589,0,0,0,.823,38.972v4.115A3.589,3.589,0,0,0,4,46.648l-4,56a1.527,1.527,0,0,0,1.415,1.632c.037,0,.074,0,.11,0a1.528,1.528,0,0,0,1.522-1.419L7.064,46.672H33.024l.7,9.859A1.528,1.528,0,0,0,35.25,57.95c.037,0,.073,0,.11,0a1.527,1.527,0,0,0,1.415-1.632l-.69-9.665a3.589,3.589,0,0,0,3.181-3.561V38.973a3.578,3.578,0,0,0-1.431-2.859,8.491,8.491,0,0,0,1.659-2.171,8.6,8.6,0,0,0,3.943-.108,4.82,4.82,0,0,0,4.353-.053,11.86,11.86,0,0,0,7.643,2.809Zm-9.876-5.318a1.748,1.748,0,0,1-1.031-.336,1.529,1.529,0,0,0-1.419-.2A5.5,5.5,0,0,1,40.431,31a8.526,8.526,0,0,0-.9-5.021,1.528,1.528,0,1,0-2.708,1.414,5.591,5.591,0,0,1,.347,4.223,5.454,5.454,0,0,1-5.2,3.771H18.661a1.528,1.528,0,1,0,0,3.055H35.68a.53.53,0,0,1,.53.53v4.115a.53.53,0,0,1-.53.53H4.408a.53.53,0,0,1-.53-.53V38.973a.53.53,0,0,1,.53-.53h7.108a1.528,1.528,0,0,0,0-3.055H8.007a5.49,5.49,0,0,1,2.972-3.444,1.527,1.527,0,0,0,.811-1.875,1.76,1.76,0,0,1,2.458-2.137,1.527,1.527,0,0,0,2.025-.632,5.469,5.469,0,0,1,8.587-1.325,1.527,1.527,0,1,0,2.116-2.2,8.481,8.481,0,0,0-4.266-2.218,8.773,8.773,0,0,1,8.652-7.389,9.14,9.14,0,0,1,5.08,1.622A1.528,1.528,0,1,0,38.214,13.3a11.724,11.724,0,0,0-4.16-1.877A5.467,5.467,0,0,1,40.941,7.4a1.527,1.527,0,0,0,1.9-1.026A1.762,1.762,0,0,1,46.194,6.3a1.527,1.527,0,0,0,1.714,1.007,8.725,8.725,0,0,1,3.948.192,1.528,1.528,0,0,0,1.679-.61,8.759,8.759,0,0,1,14.8.49,1.527,1.527,0,0,0,1.624.722,5.473,5.473,0,0,1,6.576,5.356,5.467,5.467,0,0,1-3.3,5.019,1.527,1.527,0,0,0-.808,1.977,5.468,5.468,0,0,1-5.066,7.525,5.515,5.515,0,0,1-.551-.028,11.842,11.842,0,0,0-1.149-9.085A1.528,1.528,0,0,0,63.02,20.4a8.773,8.773,0,0,1,.409,7.956c-.006.012-.013.024-.019.037a8.782,8.782,0,0,1-7.979,5.146,8.675,8.675,0,0,1-6.4-2.78,1.528,1.528,0,0,0-1.1-.484h-.014a1.527,1.527,0,0,0-1.1.464,1.75,1.75,0,0,1-1.265.537Z" transform="translate(0 0)"/>
        <path id="Trazado_731168" data-name="Trazado 731168" d="M277.239,46.528A1.527,1.527,0,0,0,278.766,45a1.305,1.305,0,0,1,2.611,0,1.528,1.528,0,0,0,3.055,0,4.36,4.36,0,0,0-8.721,0A1.527,1.527,0,0,0,277.239,46.528Z" transform="translate(-219.556 -32.363)"/>
        <path id="Trazado_731169" data-name="Trazado 731169" d="M236.612,94.749a4.366,4.366,0,0,0,0-6.167,1.528,1.528,0,1,0-2.16,2.16,1.305,1.305,0,0,1-1.846,1.846,1.528,1.528,0,1,0-2.16,2.16,4.365,4.365,0,0,0,6.166,0Z" transform="translate(-183.154 -70.184)"/>
        <path id="Trazado_731170" data-name="Trazado 731170" d="M171.129,305.9a1.528,1.528,0,0,0-3.047.218l2.8,39.211a1.528,1.528,0,0,0,1.522,1.419c.037,0,.073,0,.11,0a1.527,1.527,0,0,0,1.415-1.632Z" transform="translate(-133.845 -242.465)"/>
        <path id="Trazado_731171" data-name="Trazado 731171" d="M389.267,393.328a1.528,1.528,0,0,0-3.044.254l1.783,21.4a1.527,1.527,0,0,0,1.521,1.4c.042,0,.085,0,.129-.005a1.528,1.528,0,0,0,1.4-1.649Z" transform="translate(-307.556 -312.102)"/>
        <path id="Trazado_731172" data-name="Trazado 731172" d="M391.757,189.134a4.365,4.365,0,0,0-4.36,4.36,1.528,1.528,0,1,0,3.055,0,1.305,1.305,0,1,1,2.611,0,1.528,1.528,0,1,0,3.055,0A4.365,4.365,0,0,0,391.757,189.134Z" transform="translate(-308.495 -150.613)"/>
      </g>
    </g>
  </g>
</svg>
