<svg xmlns="http://www.w3.org/2000/svg" width="115" height="154" viewBox="0 0 115 154">
  <g id="Grupo_985540" data-name="Grupo 985540" transform="translate(-198 -3607)">
    <path id="Rectángulo_344901" data-name="Rectángulo 344901" d="M49,0H66a49,49,0,0,1,49,49V154a0,0,0,0,1,0,0H0a0,0,0,0,1,0,0V49A49,49,0,0,1,49,0Z" transform="translate(198 3607)" fill="#fdb12e"/>
    <g id="matematicas" transform="translate(209.001 3637)">
      <path id="Trazado_730127" data-name="Trazado 730127" d="M82.413,7.8H35.35a2.666,2.666,0,0,0-2.658,2.658V96.184a2.666,2.666,0,0,0,2.658,2.658H92.5a2.666,2.666,0,0,0,2.658-2.658V20.547Zm0,0" transform="translate(-26.704 -6.375)" fill="#edebed"/>
      <path id="Trazado_730128" data-name="Trazado 730128" d="M38.187,96.184V10.463A2.666,2.666,0,0,1,40.845,7.8h-5.5a2.666,2.666,0,0,0-2.658,2.658V96.184a2.666,2.666,0,0,0,2.658,2.658h5.5A2.666,2.666,0,0,1,38.187,96.184Zm0,0" transform="translate(-26.704 -6.375)" fill="#e0d9d5"/>
      <path id="Trazado_730129" data-name="Trazado 730129" d="M306.794,20.547h10.084L304.137,7.8V17.889A2.666,2.666,0,0,0,306.794,20.547Zm0,0" transform="translate(-248.427 -6.375)" fill="#e0d9d5"/>
      <path id="Trazado_730130" data-name="Trazado 730130" d="M309.632,17.889V13.3l-5.5-5.5V17.889a2.666,2.666,0,0,0,2.657,2.658h5.5A2.666,2.666,0,0,1,309.632,17.889Zm0,0" transform="translate(-248.427 -6.375)" fill="#cec8c6"/>
      <path id="Trazado_730131" data-name="Trazado 730131" d="M66.313,94,27.622,82.4a2.666,2.666,0,0,0-3.31,1.782L7.8,139.2a2.666,2.666,0,0,0,1.782,3.309l38.69,11.609a2.666,2.666,0,0,0,3.31-1.782L68.1,97.314A2.666,2.666,0,0,0,66.313,94Zm0,0" transform="translate(-6.283 -67.212)" fill="#6397d6"/>
      <path id="Trazado_730132" data-name="Trazado 730132" d="M15.654,142.513a2.665,2.665,0,0,1-1.782-3.309L30.381,84.178a2.617,2.617,0,0,1,.422-.828L27.622,82.4a2.666,2.666,0,0,0-3.31,1.782L7.8,139.2a2.666,2.666,0,0,0,1.782,3.309l38.69,11.609a2.666,2.666,0,0,0,2.888-.955Zm0,0" transform="translate(-6.283 -67.212)" fill="#4686c6"/>
      <path id="Trazado_730133" data-name="Trazado 730133" d="M89.476,228.6l-28.642-8.593a1.388,1.388,0,0,0-1.724.928c-.338,1.126-7.825,26.081-8.163,27.21a1.388,1.388,0,0,0,.928,1.724l28.642,8.593a1.388,1.388,0,0,0,1.724-.928c.688-2.293,5.636-18.785,6.322-21.07l1.842-6.139A1.389,1.389,0,0,0,89.476,228.6Zm0,0" transform="translate(-41.568 -179.659)" fill="#f9ca46"/>
      <path id="Trazado_730134" data-name="Trazado 730134" d="M181.644,338.047l-4.48,14.931,6.5,1.949a1.388,1.388,0,0,0,1.724-.928l4.081-13.6Zm0,0" transform="translate(-144.713 -276.125)" fill="#fc5f61"/>
      <path id="Trazado_730135" data-name="Trazado 730135" d="M142.706,134.2l-28.641-8.593a1.389,1.389,0,0,0-1.724.928l-2.577,8.593a1.388,1.388,0,0,0,.928,1.724l28.641,8.593a1.389,1.389,0,0,0,1.724-.929l2.578-8.592A1.388,1.388,0,0,0,142.706,134.2Zm0,0" transform="translate(-89.611 -102.555)" fill="#f9ca46"/>
      <path id="Trazado_730136" data-name="Trazado 730136" d="M57.857,251.641c.344-1.146,7.069-23.56,8.953-29.842l-5.976-1.793a1.388,1.388,0,0,0-1.724.928c-.338,1.126-7.825,26.081-8.163,27.21a1.388,1.388,0,0,0,.928,1.724l5.977,1.793Zm0,0" transform="translate(-41.568 -179.659)" fill="#efae2e"/>
      <path id="Trazado_730137" data-name="Trazado 730137" d="M115.969,137.141l2.633-8.776a1.418,1.418,0,0,1,1.293-1l-5.829-1.749a1.389,1.389,0,0,0-1.724.928l-2.577,8.593a1.388,1.388,0,0,0,.928,1.724l5.632,1.689A1.417,1.417,0,0,1,115.969,137.141Zm0,0" transform="translate(-89.611 -102.555)" fill="#efae2e"/>
      <path id="Trazado_730138" data-name="Trazado 730138" d="M83.742,221.155,55.1,212.561a2.76,2.76,0,0,0-3.435,1.85L43.5,241.62a2.761,2.761,0,0,0,1.849,3.435l28.642,8.593a2.761,2.761,0,0,0,3.435-1.85l8.163-27.209A2.76,2.76,0,0,0,83.742,221.155Zm-4.469,14.934-5.192-1.558,1.45-4.833L79,230.738l1.724.517ZM69.21,241.207l-5.192-1.558,1.45-4.833L69.406,236l1.254.376C69.539,240.108,69.72,239.505,69.21,241.207Zm2.24-7.466-5.191-1.557,1.45-4.834,5.191,1.558Zm-7.824-2.347-3.461-1.038-1.73-.519L59.885,225l5.191,1.558Zm-5.981,1.074,2.6.779,2.6.779-1.45,4.833L56.194,237.3Zm16.045-6.192L68.5,224.718l1.45-4.833,5.191,1.558Zm-7.824-2.348-5.192-1.557,1.45-4.834,5.192,1.558ZM55.8,229.047l-5.186-1.556,1.452-4.833,5.184,1.555Zm-5.977,1.075,4.882,1.465.3.092-1.45,4.833-5.189-1.557Zm5.579,9.811,5.191,1.557-1.45,4.834-5.191-1.558Zm7.824,2.347,5.191,1.558-1.45,4.833-5.191-1.558Zm18.284-13.658-5.191-1.557,1.45-4.832L82.96,223.8Zm-22.02-11.875-1.45,4.833-5.183-1.555,1.452-4.833ZM47.584,237.587l5.19,1.557-1.45,4.831-5.189-1.566Zm27.2,13.43L69.6,249.462l3.69-12.3,5.19,1.558Zm0,0" transform="translate(-35.44 -173.53)" fill="#4686c6"/>
      <path id="Trazado_730139" data-name="Trazado 730139" d="M427.2,35.138h5.042V27.7a2.9,2.9,0,1,0-5.791,0v7.44Zm0,0" transform="translate(-348.339 -20.204)" fill="#6397d6"/>
      <path id="Trazado_730140" data-name="Trazado 730140" d="M430.591,27.976a3.27,3.27,0,0,1,.9-2.264,2.853,2.853,0,0,0-2.144-.978,2.93,2.93,0,0,0-2.9,2.964v7.44h4.138Zm0,0" transform="translate(-348.339 -20.204)" fill="#4686c6"/>
      <path id="Trazado_730141" data-name="Trazado 730141" d="M422.179,446.582l-4.5.55,2.791,8.188a1.81,1.81,0,0,0,3.427,0l2.791-8.188Zm0,0" transform="translate(-341.169 -364.78)" fill="#4686c6"/>
      <path id="Trazado_730142" data-name="Trazado 730142" d="M423.076,447.132l1.8-.22-2.7-.33-4.5.55,2.791,8.188a1.81,1.81,0,0,0,3.427,0l.989-2.9Zm0,0" transform="translate(-341.166 -364.78)" fill="#1b75b2"/>
      <path id="Trazado_730143" data-name="Trazado 730143" d="M417.672,183.121h9.008V231.93h-9.008Zm0,0" transform="translate(-341.166 -149.578)" fill="#edebed"/>
      <path id="Trazado_730144" data-name="Trazado 730144" d="M417.672,183.121h5.4V231.93h-5.4Zm0,0" transform="translate(-341.166 -149.578)" fill="#e0d9d5"/>
      <path id="Trazado_730145" data-name="Trazado 730145" d="M419.727,80.223h-6.952a2.357,2.357,0,0,0-2.357,2.357V98.836a1.016,1.016,0,0,0,1.015,1.015h9.635a1.015,1.015,0,0,0,1.015-1.015V82.58A2.357,2.357,0,0,0,419.727,80.223Zm0,0" transform="translate(-335.241 -65.528)" fill="#4686c6"/>
      <path id="Trazado_730146" data-name="Trazado 730146" d="M415.822,98.836V82.58a2.357,2.357,0,0,1,2.357-2.357h-5.4a2.357,2.357,0,0,0-2.357,2.357V98.836a1.015,1.015,0,0,0,1.015,1.015h5.4A1.016,1.016,0,0,1,415.822,98.836Zm0,0" transform="translate(-335.241 -65.528)" fill="#1b75b2"/>
      <path id="Trazado_730147" data-name="Trazado 730147" d="M415.853,62.058a1.374,1.374,0,0,0,1.374-1.375V33.44a1.374,1.374,0,0,0-1.374-1.374h-4.016V30.824A3.736,3.736,0,0,0,408.9,27.18V21.2a4.269,4.269,0,0,0-8.538,0V27.18a3.735,3.735,0,0,0-2.937,3.643V32.08a1.373,1.373,0,0,0,0,2.718V47.08a2.389,2.389,0,0,0,1.329,2.137V96.125a1.352,1.352,0,0,0,.074.443l2.791,8.189a3.184,3.184,0,0,0,6.027,0l2.791-8.188a1.375,1.375,0,0,0,.074-.443V74.206a1.374,1.374,0,0,0-2.748,0V94.751H401.5V49.47h6.259V67.794a1.374,1.374,0,0,0,2.748,0V49.218a2.391,2.391,0,0,0,1.329-2.138V34.813h2.642V60.685A1.373,1.373,0,0,0,415.853,62.058ZM403.109,21.2a1.521,1.521,0,0,1,3.042,0v5.894h-3.042Zm-1.955,8.643h6.952a.984.984,0,0,1,.983.982v1.241h-8.918V30.824A.984.984,0,0,1,401.154,29.841Zm6.06,67.657-2.171,6.372a.434.434,0,0,1-.826,0L402.046,97.5Zm1.875-50.776h-8.918V34.813h8.918Zm0,0" transform="translate(-323.662 -13.829)"/>
      <path id="Trazado_730148" data-name="Trazado 730148" d="M136.783,126.454l-28.642-8.593a2.76,2.76,0,0,0-3.435,1.849l-2.578,8.593a2.761,2.761,0,0,0,1.85,3.435l28.642,8.593a2.761,2.761,0,0,0,3.435-1.849l2.578-8.593A2.761,2.761,0,0,0,136.783,126.454ZM133.409,137.7l-28.648-8.606,2.591-8.6,28.642,8.593.007.013Zm0,0" transform="translate(-83.326 -96.177)"/>
      <path id="Trazado_730149" data-name="Trazado 730149" d="M83.555,220.85l-28.642-8.593a2.76,2.76,0,0,0-3.435,1.85s-6.322,21.07-6.322,21.07l-1.842,6.138a2.761,2.761,0,0,0,1.849,3.435l28.642,8.593a2.762,2.762,0,0,0,3.435-1.85c.207-.691,7.836-26.117,8.163-27.209A2.763,2.763,0,0,0,83.555,220.85ZM69.022,240.9l-5.191-1.558,1.45-4.833,5.192,1.558Zm2.24-7.466-5.191-1.558,1.45-4.833,5.191,1.558Zm-7.824-2.347-5.191-1.558L59.7,224.7l5.191,1.558Zm-5.98,1.074,5.191,1.558-1.45,4.833L56.007,237Zm16.436,2.063,1.45-4.833,5.188,1.556-1.452,4.833Zm-.392-8.255-5.192-1.558,1.45-4.833,5.192,1.558Zm-7.824-2.348-5.192-1.557,1.45-4.834,5.192,1.558Zm-10.063,5.118-5.186-1.556,1.452-4.833,5.184,1.556Zm-5.977,1.076,5.187,1.556-1.45,4.833-5.189-1.557Zm5.579,9.811,5.192,1.558-1.45,4.833-5.192-1.558Zm7.824,2.347,5.192,1.558-1.45,4.833-5.192-1.558Zm18.282-13.658-5.19-1.558,1.45-4.831,5.189,1.566ZM59.305,216.443c-.285.949-.26.864-1.45,4.833l-5.183-1.555,1.453-4.833ZM47.4,237.282l5.19,1.557-1.45,4.831L45.947,242.1Zm27.2,13.429-5.182-1.554c.36-1.2,3.335-11.115,3.69-12.3l5.186,1.556Zm0,0" transform="translate(-35.286 -173.281)"/>
      <path id="Trazado_730150" data-name="Trazado 730150" d="M69.791,89.753V14.116a1.381,1.381,0,0,0-.4-.972L56.647.4a1.389,1.389,0,0,0-.972-.4H8.611A4.037,4.037,0,0,0,4.579,4.032V56.843L.17,71.541a4.036,4.036,0,0,0,2.7,5.02l1.707.512v12.68a4.037,4.037,0,0,0,4.032,4.032H33.979a1.374,1.374,0,1,0,0-2.748H8.611a1.286,1.286,0,0,1-1.284-1.284V77.9L41.564,88.17a4.039,4.039,0,0,0,5.02-2.7L63.093,30.441a4.037,4.037,0,0,0-2.7-5.021L21.7,13.812a4.039,4.039,0,0,0-5.02,2.7L7.327,47.685V4.032A1.286,1.286,0,0,1,8.611,2.748H54.3v8.71a4.037,4.037,0,0,0,4.032,4.032h8.71V89.753a1.286,1.286,0,0,1-1.284,1.284H40.391a1.374,1.374,0,0,0,0,2.748H65.759A4.037,4.037,0,0,0,69.791,89.753ZM43.952,84.676a1.287,1.287,0,0,1-1.6.861L3.663,73.929a1.291,1.291,0,0,1-.861-1.6L7.269,57.441h0L19.311,17.3a1.291,1.291,0,0,1,1.6-.861L59.6,28.052a1.292,1.292,0,0,1,.861,1.6ZM58.333,12.742a1.286,1.286,0,0,1-1.284-1.284V4.691L65.1,12.742Zm0,0" transform="translate(0)"/>
    </g>
  </g>
</svg>
