<svg xmlns="http://www.w3.org/2000/svg" width="115" height="134" viewBox="0 0 115 134">
  <g id="Grupo_985355" data-name="Grupo 985355" transform="translate(-618 -2492)">
    <path id="Rectángulo_344882" data-name="Rectángulo 344882" d="M49,0H66a49,49,0,0,1,49,49v85a0,0,0,0,1,0,0H0a0,0,0,0,1,0,0V49A49,49,0,0,1,49,0Z" transform="translate(618 2492)" fill="#fdb12e"/>
    <g id="olor" transform="translate(631 2515)">
      <g id="Grupo_985350" data-name="Grupo 985350" transform="translate(1.292 1.292)">
        <circle id="Elipse_5911" data-name="Elipse 5911" cx="42.817" cy="42.817" r="42.817" fill="#f8f6f6"/>
      </g>
      <g id="Grupo_985351" data-name="Grupo 985351" transform="translate(27.404 3.385)">
        <path id="Trazado_729804" data-name="Trazado 729804" d="M218.569,60.372a42.839,42.839,0,0,1-59.522,39.435,42.828,42.828,0,0,0,29.965-80.159A42.836,42.836,0,0,1,218.569,60.372Z" transform="translate(-159.047 -19.648)" fill="#ebebeb"/>
      </g>
      <g id="Grupo_985352" data-name="Grupo 985352" transform="translate(30.923 15.263)">
        <path id="Trazado_729805" data-name="Trazado 729805" d="M217.733,97.443a44.625,44.625,0,0,1-16.706-8.366,2.16,2.16,0,0,0-2.745,0,44.622,44.622,0,0,1-16.706,8.366A2.153,2.153,0,0,0,180,99.231c-.9,6.492-3.1,33.09,18.5,47.042a2.144,2.144,0,0,0,2.323,0c21.593-13.953,19.4-40.55,18.5-47.042A2.152,2.152,0,0,0,217.733,97.443Z" transform="translate(-179.471 -88.585)" fill="#ffd15b"/>
      </g>
      <g id="Grupo_985353" data-name="Grupo 985353" transform="translate(49.34 15.263)">
        <path id="Trazado_729806" data-name="Trazado 729806" d="M289.286,146.273a2.15,2.15,0,0,1-2.324,0c-.2-.131-.4-.262-.6-.395,22.122-14.8,18.542-41.02,17.825-45.622a.833.833,0,0,0-.636-.686c-8.489-1.943-14.445-7.812-17.2-10.175.14-.112.272-.217.395-.319a2.159,2.159,0,0,1,2.745,0A44.64,44.64,0,0,0,306.2,97.441a2.154,2.154,0,0,1,1.58,1.788C308.68,105.722,310.879,132.32,289.286,146.273Z" transform="translate(-286.357 -88.585)" fill="#ffc344"/>
      </g>
      <g id="Grupo_985354" data-name="Grupo 985354">
        <path id="Trazado_729807" data-name="Trazado 729807" d="M75.3,12.919A44.109,44.109,0,0,0,0,44.109,43.755,43.755,0,0,0,8.637,70.331a1.292,1.292,0,1,0,2.077-1.538,41.527,41.527,0,0,1,33.4-66.209A41.525,41.525,0,0,1,73.472,73.472a41.525,41.525,0,0,1-58.935-.212,1.292,1.292,0,1,0-1.84,1.814A44.109,44.109,0,1,0,75.3,12.919Z"/>
        <path id="Trazado_729808" data-name="Trazado 729808" d="M101.854,125.037a4.9,4.9,0,0,1-5.635,0,7.083,7.083,0,0,0-4.18-1.28,1.292,1.292,0,0,0,0,2.584,4.56,4.56,0,0,1,2.817.892,7.465,7.465,0,0,0,8.361,0,4.9,4.9,0,0,1,5.635,0,7.272,7.272,0,0,0,2.958,1.191,40.153,40.153,0,0,0,12.546,12.74,3.438,3.438,0,0,0,3.726,0c9.477-6.124,15.615-15.25,18.243-27.125a62.6,62.6,0,0,0,.832-21.18A3.434,3.434,0,0,0,144.624,90c-1.361-.358-2.721-.785-4.043-1.271a1.292,1.292,0,0,0-.891,2.426c1.4.514,2.837.966,4.277,1.344a.856.856,0,0,1,.628.716,59.905,59.905,0,0,1-.8,20.267c-2.476,11.188-8.237,19.772-17.122,25.513a.849.849,0,0,1-.92,0,37.681,37.681,0,0,1-10.939-10.678,7.665,7.665,0,0,0,2.394-1.082,4.559,4.559,0,0,1,2.817-.892,1.292,1.292,0,1,0,0-2.584,7.084,7.084,0,0,0-4.18,1.28,4.566,4.566,0,0,1-2.515.884,41.552,41.552,0,0,1-3.068-6.733,6.983,6.983,0,0,0,2.766.516,7.084,7.084,0,0,0,4.18-1.28,4.559,4.559,0,0,1,2.817-.892,1.292,1.292,0,0,0,0-2.584,7.084,7.084,0,0,0-4.18,1.28,4.9,4.9,0,0,1-5.634,0,11.67,11.67,0,0,0-1.054-.6q-.283-1.058-.526-2.149c-.333-1.5-.587-2.981-.781-4.417a7.745,7.745,0,0,1,1,.553,7.465,7.465,0,0,0,8.361,0,4.559,4.559,0,0,1,2.817-.892,1.292,1.292,0,0,0,0-2.584,7.084,7.084,0,0,0-4.18,1.28,4.9,4.9,0,0,1-5.634,0,7.437,7.437,0,0,0-2.667-1.141,61.394,61.394,0,0,1-.212-6.208,5.515,5.515,0,0,1,1.516.736,7.464,7.464,0,0,0,8.361,0,4.559,4.559,0,0,1,2.817-.892,1.292,1.292,0,0,0,0-2.584,7.084,7.084,0,0,0-4.18,1.28,4.9,4.9,0,0,1-5.634,0,7.353,7.353,0,0,0-2.782-1.164c.106-1.82.273-3.275.407-4.237a.856.856,0,0,1,.629-.716,45.745,45.745,0,0,0,17.2-8.617.872.872,0,0,1,1.1,0,43,43,0,0,0,7.253,4.758,1.292,1.292,0,1,0,1.2-2.288,40.369,40.369,0,0,1-6.813-4.466,3.462,3.462,0,0,0-4.386,0A43.1,43.1,0,0,1,107.812,90a3.433,3.433,0,0,0-2.531,2.861c-.142,1.028-.321,2.6-.432,4.558a7.251,7.251,0,0,0-2.994,1.2,4.9,4.9,0,0,1-5.635,0,7.084,7.084,0,0,0-4.181-1.28,1.292,1.292,0,0,0,0,2.584,4.56,4.56,0,0,1,2.817.892,7.465,7.465,0,0,0,8.361,0,5.462,5.462,0,0,1,1.536-.742c-.028,1.849.018,3.921.2,6.143a7.2,7.2,0,0,0-3.1,1.212,4.9,4.9,0,0,1-5.635,0,7.083,7.083,0,0,0-4.18-1.28,1.292,1.292,0,0,0,0,2.584,4.56,4.56,0,0,1,2.817.892,7.465,7.465,0,0,0,8.361,0,4.8,4.8,0,0,1,2-.835c.21,1.7.5,3.461.9,5.257.068.308.14.613.213.917-.1,0-.191-.006-.29-.006a7.083,7.083,0,0,0-4.18,1.28,4.9,4.9,0,0,1-5.635,0,7.083,7.083,0,0,0-4.18-1.28,1.292,1.292,0,1,0,0,2.584,4.56,4.56,0,0,1,2.817.892,7.465,7.465,0,0,0,8.361,0,4.56,4.56,0,0,1,2.817-.892,5.3,5.3,0,0,1,1,.087,46.359,46.359,0,0,0,2.772,7.17,6.84,6.84,0,0,0-3.776-1.033A7.082,7.082,0,0,0,101.854,125.037Z" transform="translate(-75.11 -67.126)"/>
      </g>
    </g>
  </g>
</svg>
