<svg xmlns="http://www.w3.org/2000/svg" width="115" height="134" viewBox="0 0 115 134">
  <g id="Grupo_985591" data-name="Grupo 985591" transform="translate(-618 -3562)">
    <g id="Grupo_985581" data-name="Grupo 985581" transform="translate(0 1070)">
      <path id="Rectángulo_344882" data-name="Rectángulo 344882" d="M49,0H66a49,49,0,0,1,49,49v85a0,0,0,0,1,0,0H0a0,0,0,0,1,0,0V49A49,49,0,0,1,49,0Z" transform="translate(618 2492)" fill="#fdb12e"/>
    </g>
    <g id="papelera" transform="translate(628.938 3582.001)">
      <path id="Trazado_731119" data-name="Trazado 731119" d="M153.516,73.02l5.349.663a3.636,3.636,0,0,1,4.057-3.162l3.2.4a3.636,3.636,0,0,1,3.162,4.056l5.349.663a9.092,9.092,0,0,0-7.9-10.141l-3.068-.38A9.091,9.091,0,0,0,153.516,73.02Zm0,0" transform="translate(-125.55 -53.219)" fill="#9b351b"/>
      <path id="Trazado_731120" data-name="Trazado 731120" d="M63.686,222.037H27.137L19.5,159.121H71.324Zm0,0" transform="translate(-15.904 -130.188)" fill="#e86140"/>
      <path id="Trazado_731121" data-name="Trazado 731121" d="M70.507,165.849l.816-6.728H19.5l7.637,62.916h7.094l-1.627-13.4A38.182,38.182,0,0,1,70.507,165.849Zm0,0" transform="translate(-15.904 -130.188)" fill="#ae4930"/>
      <path id="Trazado_731122" data-name="Trazado 731122" d="M84.228,230.121a2.727,2.727,0,0,1,2.728,2.728v36.367a2.728,2.728,0,0,1-5.455,0V232.849A2.727,2.727,0,0,1,84.228,230.121Zm0,0" transform="translate(-66.63 -188.278)" fill="#9b351b"/>
      <path id="Trazado_731123" data-name="Trazado 731123" d="M149.228,230.121a2.727,2.727,0,0,1,2.728,2.728v36.367a2.728,2.728,0,0,1-5.455,0V232.849A2.727,2.727,0,0,1,149.228,230.121Zm0,0" transform="translate(-119.81 -188.278)" fill="#9b351b"/>
      <path id="Trazado_731124" data-name="Trazado 731124" d="M215.228,230.121a2.727,2.727,0,0,1,2.728,2.728v36.367a2.728,2.728,0,0,1-5.455,0V232.849A2.727,2.727,0,0,1,215.228,230.121Zm0,0" transform="translate(-173.809 -188.278)" fill="#9b351b"/>
      <path id="Trazado_731125" data-name="Trazado 731125" d="M78.5,267.489a4.005,4.005,0,0,1-4-4V227.122a4,4,0,1,1,8,0v36.367A4,4,0,0,1,78.5,267.489Zm0-41.823a1.456,1.456,0,0,0-1.455,1.455v36.367a1.455,1.455,0,1,0,2.909,0V227.122A1.456,1.456,0,0,0,78.5,225.667Zm0,0" transform="translate(-60.903 -182.55)"/>
      <path id="Trazado_731126" data-name="Trazado 731126" d="M72.5,159.3v7.637a2.546,2.546,0,1,0,5.091,0v-.364a2.909,2.909,0,0,1,5.819,0v14.911a3.819,3.819,0,0,0,7.637,0V175.4a3.364,3.364,0,1,1,6.728,0v.182a3.728,3.728,0,1,0,7.455,0V159.121" transform="translate(-59.266 -130.188)" fill="#73865b"/>
      <path id="Trazado_731127" data-name="Trazado 731127" d="M75.228,164.054v-4.015l-2.728.015v7.637a2.546,2.546,0,0,0,5.091,0v-.364a2.889,2.889,0,0,1,.1-.732A2.544,2.544,0,0,1,75.228,164.054Zm0,0" transform="translate(-59.266 -130.939)" fill="#464d3a"/>
      <path id="Trazado_731128" data-name="Trazado 731128" d="M125,185.76a3.819,3.819,0,0,1-3.819-3.819V167.03a2.909,2.909,0,0,0-5.819,0v.364a2.449,2.449,0,0,1-.031.374c.07,0,.141-.011.212-.011a2.91,2.91,0,0,1,2.909,2.909v14.911a3.819,3.819,0,0,0,7.636.022A3.828,3.828,0,0,1,125,185.76Zm0,0" transform="translate(-94.31 -134.279)" fill="#464d3a"/>
      <path id="Trazado_731129" data-name="Trazado 731129" d="M199.956,217.395a3.728,3.728,0,0,1-3.728-3.728v-.182a3.364,3.364,0,1,0-6.728,0v.335a3.358,3.358,0,0,1,4,3.3v.182a3.728,3.728,0,1,0,7.455,0v-.049A3.749,3.749,0,0,1,199.956,217.395Zm0,0" transform="translate(-154.991 -171.914)" fill="#464d3a"/>
      <path id="Trazado_731130" data-name="Trazado 731130" d="M259.862,300.33a6.254,6.254,0,0,0-2.074-4.576,5.358,5.358,0,0,0,1.035-4.522,6.455,6.455,0,0,0-2.141-12.545c-.093,0-.185,0-.277.007A6.366,6.366,0,0,0,247.576,273a6.82,6.82,0,0,0-13.213,3.326,6.907,6.907,0,0,0-8.322,8.289,5.267,5.267,0,0,0-2.675,5.346h-.051a6.356,6.356,0,0,0-6.32,7.1c-.135-.008-.271-.013-.408-.013a7.092,7.092,0,0,0-.364,14.174v.009h42v-.059a5.728,5.728,0,0,0,1.634-10.846Zm0,0" transform="translate(-171.35 -219.385)" fill="#7e8699"/>
      <path id="Trazado_731131" data-name="Trazado 731131" d="M223.1,311.228a7.9,7.9,0,0,1,4.3-14.526c.152,0,.3.006.455.013a7.075,7.075,0,0,1,7.04-7.913h.058a5.864,5.864,0,0,1,2.979-5.955,7.695,7.695,0,0,1,9.27-9.233,7.64,7.64,0,0,1-.153-1.525c0-.121,0-.243.009-.364a6.82,6.82,0,0,0-12.69,4.592,6.908,6.908,0,0,0-8.322,8.289,5.266,5.266,0,0,0-2.674,5.346h-.051a6.355,6.355,0,0,0-6.32,7.1c-.135-.007-.271-.012-.408-.012a7.092,7.092,0,0,0-.364,14.174v.009Zm0,0" transform="translate(-171.351 -219.379)" fill="#4c5770"/>
      <path id="Trazado_731132" data-name="Trazado 731132" d="M57.842,99.357l48.723,6.037a3.91,3.91,0,1,1-.962,7.76L56.88,107.117a3.91,3.91,0,0,1,.962-7.76Zm0,0" transform="translate(-43.682 -81.266)" fill="#9b351b"/>
      <path id="Trazado_731133" data-name="Trazado 731133" d="M57.661,106.575a3.91,3.91,0,0,1,4.361-3.4l47.967,5.944a3.909,3.909,0,0,0-3.425-3.725L57.839,99.357a3.91,3.91,0,1,0-.961,7.76l.756.094A3.961,3.961,0,0,1,57.661,106.575Zm0,0" transform="translate(-43.679 -81.267)" fill="#742814"/>
      <path id="Trazado_731134" data-name="Trazado 731134" d="M99.913,127.661a7.578,7.578,0,0,0-1.681-3.94,6.658,6.658,0,0,0,.822-3.195c0-.133,0-.267-.013-.4a7.728,7.728,0,0,0-2.662-14.553,7.647,7.647,0,0,0-9.23-6.037,8.092,8.092,0,0,0-15.371,3.444H71.6a8.193,8.193,0,0,0-8.183,8.183,8,8,0,0,0,.057.958,6.583,6.583,0,0,0-1.044.984l4.022-33.136,5.493.68a5.06,5.06,0,0,0,.64.04,5.182,5.182,0,0,0,.634-10.325L60.594,68.8A10.378,10.378,0,0,0,51.506,58.51l-3.068-.38a10.376,10.376,0,0,0-11.323,7.759L24.492,64.325A5.182,5.182,0,1,0,23.219,74.61l4.417.548H13.773a1.273,1.273,0,0,0-1.264,1.426L20.146,139.5a1.273,1.273,0,0,0,1.264,1.12H97.054a1.274,1.274,0,0,0,.586-.142,7,7,0,0,0,2.273-12.816ZM59.35,117.325a7.678,7.678,0,0,0-3.755,3.181V96.744a5,5,0,0,0,1.818-3.857V78.847l6.51.808Zm-6.3,6.9a8.359,8.359,0,0,0-2.909,1.536V97.34a4.951,4.951,0,0,0,2.273.548,4.887,4.887,0,0,0,.636-.042ZM48.126,60.656l3.067.38a7.833,7.833,0,0,1,6.852,7.446l-2.885-.358a4.919,4.919,0,0,0-4.26-4.191l-3.2-.4a4.915,4.915,0,0,0-5.153,3.026L39.664,66.2A7.834,7.834,0,0,1,48.126,60.656Zm4.3,7.13L45.283,66.9a2.362,2.362,0,0,1,2.107-.84l3.2.4A2.363,2.363,0,0,1,52.428,67.786Zm-28.9,4.3a2.636,2.636,0,1,1,.647-5.233L72.9,72.888a2.637,2.637,0,0,1-.647,5.234l-5.5-.682L57.4,76.281l-2.453-.3-6.617-.82ZM24.683,77.7h23.5l6.686.829V92.887a2.458,2.458,0,0,1-1.818,2.37,2.407,2.407,0,0,1-.636.085,2.455,2.455,0,0,1-2.455-2.455V92.7a4.637,4.637,0,1,0-9.274,0V98.8a2.546,2.546,0,0,1-5.091,0V83.886a4.182,4.182,0,0,0-8.365,0v.364a1.273,1.273,0,0,1-2.546,0Zm16.365,25.266v25.466a1.455,1.455,0,0,1-2.909,0V103.888A5.042,5.042,0,0,0,41.048,102.969Zm-18.511,35.1L15.209,77.7h6.928v6.546a3.819,3.819,0,0,0,7.637,0v-.364a1.637,1.637,0,0,1,3.273,0V98.8a5.1,5.1,0,0,0,2.546,4.407v25.232a4,4,0,1,0,8,0V92.068a4.082,4.082,0,0,0-.031-.493A2.09,2.09,0,0,1,47.412,92.7v.182a4.9,4.9,0,0,0,.182,1.331v34.218a3.761,3.761,0,0,0,.062.691,8.367,8.367,0,0,0,1.746,8.946Zm74.337-.045a1.19,1.19,0,0,0-.2.045H55.2c-.029,0-.058-.006-.089-.007a5.813,5.813,0,0,1-5.519-5.812c0-.119,0-.234.011-.351a5.82,5.82,0,0,1,5.807-5.468c.06,0,.122,0,.182,0s.1,0,.155.007a1.272,1.272,0,0,0,1.336-1.418,5.16,5.16,0,0,1-.036-.592,5.1,5.1,0,0,1,4.617-5.068,4.176,4.176,0,0,1,.462-.023h.064a1.273,1.273,0,0,0,1.262-1.447,3.821,3.821,0,0,1-.04-.555,4.008,4.008,0,0,1,2.069-3.5,1.271,1.271,0,0,0,.624-1.4,5.634,5.634,0,0,1,6.79-6.763,1.274,1.274,0,0,0,1.54-1.493,5.546,5.546,0,0,1,10.747-2.708,1.273,1.273,0,0,0,1.713.808,5.095,5.095,0,0,1,7.063,4.555,1.27,1.27,0,0,0,1.325,1.237c.075,0,.149-.006.224-.006a5.182,5.182,0,0,1,1.718,10.072,1.273,1.273,0,0,0-.82,1.48,4.155,4.155,0,0,1,.1.9,4.046,4.046,0,0,1-.889,2.546,1.27,1.27,0,0,0,.144,1.738,5.022,5.022,0,0,1,1.653,3.648,1.269,1.269,0,0,0,.727,1.132,4.457,4.457,0,0,1-1.269,8.438Zm0,0" transform="translate(-10.176 -47.497)"/>
      <path id="Trazado_731135" data-name="Trazado 731135" d="M82.374,19.269a1.262,1.262,0,0,1-.7-.21c-2.863-1.88-4.383-4.064-4.52-6.491C76.948,8.839,80.18,6.109,80.317,6a1.273,1.273,0,0,1,1.629,1.955c-.038.033-2.392,2.053-2.247,4.488.093,1.572,1.228,3.084,3.374,4.493a1.273,1.273,0,0,1-.7,2.337Zm0,0" transform="translate(-63.068 -4.67)"/>
      <path id="Trazado_731136" data-name="Trazado 731136" d="M8.869,15.219A1.272,1.272,0,0,1,7.7,14.447a4.988,4.988,0,0,0-2.473-2.381A8.918,8.918,0,0,1,.418,6.9,8.77,8.77,0,0,1,.955.67,1.273,1.273,0,0,1,3.21,1.85a6.252,6.252,0,0,0-.36,4.3A6.511,6.511,0,0,0,6.378,9.8a7.442,7.442,0,0,1,3.662,3.647,1.274,1.274,0,0,1-1.17,1.774Zm0,0" transform="translate(0 0)"/>
      <path id="Trazado_731137" data-name="Trazado 731137" d="M395.985,338.1l-1.489,5.019a2.584,2.584,0,0,0,1.742,3.213l4.458,1.323a2.584,2.584,0,0,0,3.213-1.742l1.49-5.019" transform="translate(-322.624 -276.623)" fill="#334d80"/>
      <path id="Trazado_731138" data-name="Trazado 731138" d="M408.158,333.264c-2.6-.771-4.974-.5-5.3.608s1.512,2.63,4.112,3.4,4.973.5,5.3-.609S410.757,334.035,408.158,333.264Zm0,0" transform="translate(-329.521 -272.306)" fill="#46a"/>
      <path id="Trazado_731139" data-name="Trazado 731139" d="M400.939,330.924a3.164,3.164,0,0,0-1.442-2.8,11.393,11.393,0,0,0-7.613-2.259,3.168,3.168,0,0,0-2.732,1.554,1.3,1.3,0,0,0-.116.27l-1.489,5.019a3.856,3.856,0,0,0,2.6,4.8l4.458,1.323a3.857,3.857,0,0,0,4.8-2.6l1.462-4.928V331.3l.025-.084A1.274,1.274,0,0,0,400.939,330.924Zm-5.77-2.169a6.371,6.371,0,0,1,3.154,1.79,8.038,8.038,0,0,1-6.773-2.01A6.368,6.368,0,0,1,395.169,328.755Zm1.791,6.751a1.31,1.31,0,0,1-1.63.884l-4.458-1.323a1.311,1.311,0,0,1-.884-1.63l.673-2.267a10.79,10.79,0,0,0,3.32,1.6,11.31,11.31,0,0,0,3.158.491c.169,0,.333-.006.494-.016Zm0,0" transform="translate(-316.895 -266.578)"/>
      <path id="Trazado_731140" data-name="Trazado 731140" d="M405.228,452.667l.909-.546,3.091.364,2.182,3.273-5.455,1.455-5.455-.546.546-2.546Zm0,0" transform="translate(-327.624 -369.91)" fill="#e86140"/>
      <path id="Trazado_731141" data-name="Trazado 731141" d="M400.225,452.76c-.042,0-.085,0-.127-.006l-5.455-.546a1.272,1.272,0,0,1-1.118-1.534l.546-2.546a1.273,1.273,0,0,1,.826-.935l4.059-1.411.8-.477a1.269,1.269,0,0,1,.8-.173l3.091.364a1.272,1.272,0,0,1,.911.558l2.182,3.273a1.274,1.274,0,0,1-.731,1.936l-5.455,1.455A1.285,1.285,0,0,1,400.225,452.76Zm-3.912-2.944,3.809.382,3.515-.938-.87-1.306-2.076-.244-.537.321a1.3,1.3,0,0,1-.237.111l-3.506,1.22Zm3.185-2.875" transform="translate(-321.894 -364.184)"/>
      <path id="Trazado_731142" data-name="Trazado 731142" d="M311.5,401.03l5.637-2.909.182,2.182,3.455,1.455-.546,3.637-3.637,2.364-3.637-1.818Zm0,0" transform="translate(-254.807 -325.729)" fill="#73865b"/>
      <path id="Trazado_731143" data-name="Trazado 731143" d="M310.863,403.3a1.276,1.276,0,0,1-.569-.134l-3.637-1.818a1.273,1.273,0,0,1-.651-.777l-1.455-4.91a1.272,1.272,0,0,1,.636-1.492l5.637-2.909a1.273,1.273,0,0,1,1.852,1.025l.118,1.414,2.745,1.155a1.273,1.273,0,0,1,.764,1.362l-.546,3.637a1.271,1.271,0,0,1-.565.878l-3.637,2.364A1.27,1.27,0,0,1,310.863,403.3Zm-2.573-3.983,2.491,1.246,2.546-1.655.314-2.092-2.544-1.071a1.274,1.274,0,0,1-.775-1.068l-.023-.282-3.007,1.552Zm0,0" transform="translate(-249.079 -320.002)"/>
      <path id="Trazado_731144" data-name="Trazado 731144" d="M292.773,474.212c0-.6-.732-1.091-1.637-1.091s-1.637.489-1.637,1.091.733,1.091,1.637,1.091S292.773,474.814,292.773,474.212Zm0,0" transform="translate(-236.808 -387.091)" fill="#4c5770"/>
      <path id="Trazado_731145" data-name="Trazado 731145" d="M398.864,408.212a2.184,2.184,0,1,0-2.182,2.091A2.138,2.138,0,0,0,398.864,408.212Zm0,0" transform="translate(-322.715 -332.274)" fill="#4c5770"/>
      <path id="Trazado_731146" data-name="Trazado 731146" d="M338.046,337.212a1.288,1.288,0,1,0-1.273,1.091A1.193,1.193,0,0,0,338.046,337.212Zm0,0" transform="translate(-274.443 -275.003)" fill="#fff"/>
      <path id="Trazado_731147" data-name="Trazado 731147" d="M325.084,354.788a1.486,1.486,0,1,0,.1,1.871A1.339,1.339,0,0,0,325.084,354.788Zm0,0" transform="translate(-264.174 -290.12)" fill="#fff"/>
      <path id="Trazado_731148" data-name="Trazado 731148" d="M468.668,154.015a1.27,1.27,0,0,1-.824-.3c-.163-.139-3.987-3.436-3.969-7.506a7.07,7.07,0,0,1,2.854-5.477,6.511,6.511,0,0,0,2.624-4.339,6.247,6.247,0,0,0-1.314-4.115,1.273,1.273,0,1,1,1.936-1.654,8.773,8.773,0,0,1,1.918,5.954,8.918,8.918,0,0,1-3.532,6.108,4.6,4.6,0,0,0-1.939,3.535c-.013,2.852,3.042,5.528,3.073,5.555a1.273,1.273,0,0,1-.825,2.242Zm0,0" transform="translate(-379.475 -106.504)"/>
      <path id="Trazado_731149" data-name="Trazado 731149" d="M408.668,108.015a1.27,1.27,0,0,1-.824-.3c-.163-.139-3.987-3.436-3.969-7.506a7.07,7.07,0,0,1,2.854-5.477,6.511,6.511,0,0,0,2.624-4.339,6.247,6.247,0,0,0-1.314-4.115,1.273,1.273,0,1,1,1.936-1.654,8.773,8.773,0,0,1,1.918,5.954,8.918,8.918,0,0,1-3.532,6.108,4.6,4.6,0,0,0-1.939,3.535c-.013,2.852,3.042,5.528,3.073,5.555a1.273,1.273,0,0,1-.825,2.242Zm0,0" transform="translate(-330.385 -68.869)"/>
      <g id="Grupo_985590" data-name="Grupo 985590" transform="translate(65.421 64.573)">
        <path id="Trazado_731150" data-name="Trazado 731150" d="M471.864,356.121a1.2,1.2,0,1,0-1.182,1A1.1,1.1,0,0,0,471.864,356.121Zm0,0" transform="translate(-449.498 -355.121)" fill="#4c5770"/>
        <path id="Trazado_731151" data-name="Trazado 731151" d="M450.318,420.121a.913.913,0,1,0-.909,1A.958.958,0,0,0,450.318,420.121Zm0,0" transform="translate(-432.316 -407.484)" fill="#4c5770"/>
        <path id="Trazado_731152" data-name="Trazado 731152" d="M480.318,473.848a.932.932,0,1,0-.909.727A.833.833,0,0,0,480.318,473.848Zm0,0" transform="translate(-456.861 -451.664)" fill="#4c5770"/>
        <path id="Trazado_731153" data-name="Trazado 731153" d="M362.773,466.758a1.637,1.637,0,1,1-1.637-1.637A1.636,1.636,0,0,1,362.773,466.758Zm0,0" transform="translate(-359.5 -445.119)" fill="#4c5770"/>
      </g>
    </g>
  </g>
</svg>
