<svg id="Grupo_984804" data-name="Grupo 984804" xmlns="http://www.w3.org/2000/svg" xmlns:xlink="http://www.w3.org/1999/xlink" width="400" height="398.769" viewBox="0 0 400 398.769">
  <defs>
    <clipPath id="clip-path">
      <rect id="Rectángulo_345016" data-name="Rectángulo 345016" width="400" height="398.769" fill="none"/>
    </clipPath>
    <clipPath id="clip-path-3">
      <rect id="Rectángulo_345009" data-name="Rectángulo 345009" width="123.756" height="88.164" fill="none"/>
    </clipPath>
    <clipPath id="clip-path-4">
      <rect id="Rectángulo_345010" data-name="Rectángulo 345010" width="89.54" height="31.396" fill="none"/>
    </clipPath>
    <clipPath id="clip-path-5">
      <rect id="Rectángulo_345012" data-name="Rectángulo 345012" width="26.8" height="26.862" fill="none"/>
    </clipPath>
    <clipPath id="clip-path-6">
      <rect id="Rectángulo_345013" data-name="Rectángulo 345013" width="27.972" height="30.554" fill="none"/>
    </clipPath>
    <clipPath id="clip-path-7">
      <rect id="Rectángulo_345014" data-name="Rectángulo 345014" width="100.672" height="101.594" fill="none"/>
    </clipPath>
  </defs>
  <g id="Grupo_984803" data-name="Grupo 984803" clip-path="url(#clip-path)">
    <g id="Grupo_984802" data-name="Grupo 984802">
      <g id="Grupo_984801" data-name="Grupo 984801" clip-path="url(#clip-path)">
        <path id="Trazado_729141" data-name="Trazado 729141" d="M380.532,300.4s4.437,18.832-6.264,41.8-8.355,41.759,7.176,46.457" transform="translate(-29.991 -24.502)" fill="none" stroke="#1c5d7a" stroke-linecap="round" stroke-miterlimit="10" stroke-width="1"/>
        <path id="Trazado_729142" data-name="Trazado 729142" d="M413.909,256.88s17.364,14.337,6.438,29.97c-13.4,19.171-53.119,8.906-59.68-17.608-4.642-18.756,12.179-16.668,14.789-4.488" transform="translate(-29.352 -20.83)" fill="none" stroke="#1c5d7a" stroke-linecap="round" stroke-miterlimit="10" stroke-width="1"/>
        <path id="Trazado_729143" data-name="Trazado 729143" d="M341.225,233.865s24.707-4.545,54.461,8.348" transform="translate(-27.832 -19.012)" fill="none" stroke="#1c5d7a" stroke-linecap="round" stroke-miterlimit="10" stroke-width="1"/>
        <path id="Trazado_729144" data-name="Trazado 729144" d="M25.887,168.721s-19.434,48.454,5.169,57.921,53.487-19.416,87.416-14.543" transform="translate(-1.517 -13.762)" fill="none" stroke="#1c5d7a" stroke-linecap="round" stroke-miterlimit="10" stroke-width="1"/>
        <path id="Trazado_729145" data-name="Trazado 729145" d="M176.9,401.2,58.615,422.922A5.509,5.509,0,0,1,52.2,418.5L35.115,325.471a5.51,5.51,0,0,1,4.423-6.414l118.288-21.726a5.51,5.51,0,0,1,6.414,4.424l17.086,93.028A5.509,5.509,0,0,1,176.9,401.2" transform="translate(-2.857 -24.244)" fill="#209fe5"/>
        <path id="Trazado_729146" data-name="Trazado 729146" d="M176.616,399.631,58.328,421.356a5.509,5.509,0,0,1-6.413-4.423L34.828,323.9a5.51,5.51,0,0,1,4.423-6.414L157.54,295.765a5.509,5.509,0,0,1,6.413,4.424l17.086,93.028a5.509,5.509,0,0,1-4.423,6.413" transform="translate(-2.833 -24.116)" fill="#fff"/>
        <path id="Trazado_729147" data-name="Trazado 729147" d="M158.541,296.591a4.586,4.586,0,0,1,4.509,3.763l17.087,93.028a4.592,4.592,0,0,1-3.687,5.344L58.162,420.453a4.641,4.641,0,0,1-.835.076,4.587,4.587,0,0,1-4.51-3.763L35.732,323.738a4.59,4.59,0,0,1,3.686-5.344l118.288-21.726a4.659,4.659,0,0,1,.836-.076m0-.918a5.56,5.56,0,0,0-1,.092L39.252,317.49a5.509,5.509,0,0,0-4.424,6.413l17.087,93.028a5.5,5.5,0,0,0,6.413,4.423L176.616,399.63a5.508,5.508,0,0,0,4.423-6.413l-17.086-93.028a5.511,5.511,0,0,0-5.412-4.515" transform="translate(-2.833 -24.116)" fill="#48c8ef"/>
        <path id="Trazado_729148" data-name="Trazado 729148" d="M170.386,393.435l-104.48,19.19a2.8,2.8,0,0,1-3.264-2.251L48.008,330.7" transform="translate(-3.916 -26.973)" fill="none" stroke="#1c5d7a" stroke-linecap="round" stroke-miterlimit="10" stroke-width="1"/>
        <path id="Trazado_729149" data-name="Trazado 729149" d="M78.867,410.629l-5.883,1.08a.714.714,0,0,1-.832-.574l-5.692-30.988a.714.714,0,0,1,.574-.832l5.883-1.081a.716.716,0,0,1,.832.574L79.441,409.8a.714.714,0,0,1-.574.832" transform="translate(-5.42 -30.849)" fill="#48c8ef"/>
        <path id="Trazado_729150" data-name="Trazado 729150" d="M93.716,407.11l-5.883,1.08a.714.714,0,0,1-.832-.574L79.725,368a.716.716,0,0,1,.574-.832l5.883-1.08a.714.714,0,0,1,.832.574l7.277,39.618a.715.715,0,0,1-.574.832" transform="translate(-6.502 -29.858)" fill="#209fe5"/>
        <path id="Trazado_729151" data-name="Trazado 729151" d="M108.446,402.108l-5.883,1.08a.714.714,0,0,1-.832-.574L89.86,337.979a.715.715,0,0,1,.574-.832l5.883-1.081a.715.715,0,0,1,.832.574l11.872,64.636a.715.715,0,0,1-.574.832" transform="translate(-7.328 -27.41)" fill="#48c8ef"/>
        <path id="Trazado_729152" data-name="Trazado 729152" d="M124.243,402.919,118.36,404a.714.714,0,0,1-.832-.574l-4.444-24.2a.714.714,0,0,1,.574-.832l5.883-1.08a.715.715,0,0,1,.832.573l4.444,24.2a.715.715,0,0,1-.574.832" transform="translate(-9.223 -30.774)" fill="#209fe5"/>
        <path id="Trazado_729153" data-name="Trazado 729153" d="M169.508,394.605l-5.883,1.08a.714.714,0,0,1-.832-.574l-4.444-24.2a.714.714,0,0,1,.574-.832L164.806,369a.716.716,0,0,1,.832.574l4.444,24.2a.714.714,0,0,1-.574.832" transform="translate(-12.915 -30.096)" fill="#48c8ef"/>
        <path id="Trazado_729154" data-name="Trazado 729154" d="M139.269,399.535l-5.883,1.08a.714.714,0,0,1-.832-.574l-5.692-30.988a.714.714,0,0,1,.574-.832l5.883-1.081a.715.715,0,0,1,.832.574l5.692,30.989a.715.715,0,0,1-.574.832" transform="translate(-10.346 -29.944)" fill="#48c8ef"/>
        <path id="Trazado_729155" data-name="Trazado 729155" d="M154.115,395.162l-5.883,1.08a.714.714,0,0,1-.832-.574l-8.986-48.923a.715.715,0,0,1,.574-.832l5.883-1.081a.715.715,0,0,1,.832.574l8.986,48.924a.714.714,0,0,1-.574.832" transform="translate(-11.289 -28.125)" fill="#209fe5"/>
        <path id="Trazado_729156" data-name="Trazado 729156" d="M46.034,324.07c-1.7.311-3.786-3.334-4.668-8.142s-.225-8.959,1.47-9.27,3.786,3.334,4.668,8.142q.11.6.189,1.187" transform="translate(-3.342 -25.011)" fill="none" stroke="#1c5d7a" stroke-linecap="round" stroke-miterlimit="10" stroke-width="1"/>
        <path id="Trazado_729157" data-name="Trazado 729157" d="M58.016,321.878c-1.388.255-3.228-3.437-4.112-8.245s-.474-8.913.914-9.167,3.228,3.436,4.112,8.244q.11.6.194,1.186" transform="translate(-4.359 -24.832)" fill="none" stroke="#1c5d7a" stroke-linecap="round" stroke-miterlimit="10" stroke-width="1"/>
        <path id="Trazado_729158" data-name="Trazado 729158" d="M69.889,319.7c-1.132.208-2.764-3.521-3.647-8.33s-.682-8.874.449-9.081,2.764,3.521,3.647,8.329c.073.4.14.8.2,1.185" transform="translate(-5.358 -24.655)" fill="none" stroke="#1c5d7a" stroke-linecap="round" stroke-miterlimit="10" stroke-width="1"/>
        <path id="Trazado_729159" data-name="Trazado 729159" d="M82.052,317.482c-.566.1-1.74-3.71-2.623-8.518s-1.141-8.79-.575-8.894,1.74,3.71,2.623,8.518q.11.6.208,1.183" transform="translate(-6.407 -24.475)" fill="none" stroke="#1c5d7a" stroke-linecap="round" stroke-miterlimit="10" stroke-width="1"/>
        <path id="Trazado_729160" data-name="Trazado 729160" d="M95.55,315.006c-.283.052-1.228-3.8-2.111-8.612s-1.369-8.748-1.087-8.8,1.228,3.8,2.111,8.611q.11.6.212,1.183" transform="translate(-7.526 -24.273)" fill="none" stroke="#564e4e" stroke-linecap="round" stroke-miterlimit="10" stroke-width="1"/>
        <path id="Trazado_729161" data-name="Trazado 729161" d="M165.961,302.043c1.7-.311,2.354-4.462,1.47-9.27s-2.973-8.454-4.668-8.142-2.354,4.461-1.47,9.27q.11.6.245,1.176" transform="translate(-13.124 -23.214)" fill="none" stroke="#564e4e" stroke-linecap="round" stroke-miterlimit="10" stroke-width="1"/>
        <path id="Trazado_729162" data-name="Trazado 729162" d="M154.063,304.237c1.388-.254,1.8-4.36.914-9.168s-2.724-8.5-4.112-8.244-1.8,4.359-.914,9.167c.073.4.154.793.24,1.177" transform="translate(-12.193 -23.394)" fill="none" stroke="#564e4e" stroke-linecap="round" stroke-miterlimit="10" stroke-width="1"/>
        <path id="Trazado_729163" data-name="Trazado 729163" d="M142.257,306.412c1.132-.208,1.333-4.274.449-9.082s-2.516-8.538-3.647-8.329-1.333,4.273-.449,9.082q.11.6.235,1.178" transform="translate(-11.261 -23.571)" fill="none" stroke="#564e4e" stroke-linecap="round" stroke-miterlimit="10" stroke-width="1"/>
        <path id="Trazado_729164" data-name="Trazado 729164" d="M130.218,308.635c.566-.1.309-4.086-.575-8.894s-2.057-8.622-2.623-8.518-.309,4.085.575,8.894c.073.4.149.794.226,1.179" transform="translate(-10.336 -23.753)" fill="none" stroke="#564e4e" stroke-linecap="round" stroke-miterlimit="10" stroke-width="1"/>
        <path id="Trazado_729165" data-name="Trazado 729165" d="M116.76,311.111c.283-.052-.2-3.992-1.087-8.8s-1.829-8.664-2.111-8.611.2,3.992,1.087,8.8q.112.6.222,1.18" transform="translate(-9.256 -23.955)" fill="none" stroke="#564e4e" stroke-linecap="round" stroke-miterlimit="10" stroke-width="1"/>
        <path id="Trazado_729166" data-name="Trazado 729166" d="M106.267,313.039s-.715-3.9-1.6-8.706-1.6-8.706-1.6-8.706.716,3.9,1.6,8.706q.11.6.217,1.181" transform="translate(-8.407 -24.112)" fill="none" stroke="#564e4e" stroke-linecap="round" stroke-miterlimit="10" stroke-width="1"/>
        <path id="Trazado_729167" data-name="Trazado 729167" d="M374.311,205.886,413.019,89.64,309.932,66.972l.228-11.094L289.373,56.9Z" transform="translate(-23.602 -4.558)" fill="#f9ab2d"/>
        <path id="Trazado_729168" data-name="Trazado 729168" d="M229.17,50.737l-8.233,125.389,147.792,29.34L399.884,90.809,296.592,68.95l.037-14.836Z" transform="translate(-18.021 -4.138)" fill="#ffd252"/>
        <path id="Trazado_729169" data-name="Trazado 729169" d="M325.715,180.789,323.254,197.9l48.928,10.548,4.487-16.763Z" transform="translate(-26.366 -14.746)" fill="#f9ab2d"/>
        <path id="Trazado_729170" data-name="Trazado 729170" d="M236.633,58.806c2.745.137,2.472,5.64,5.218,5.777s3.023-5.366,5.77-5.23,2.474,5.641,5.221,5.778,3.021-5.367,5.77-5.231,2.474,5.641,5.222,5.778,3.021-5.367,5.768-5.23,2.475,5.64,5.224,5.777,3.026-5.366,5.777-5.23,2.476,5.641,5.228,5.778" transform="translate(-19.301 -4.796)" fill="none" stroke="#f9ab2d" stroke-linecap="round" stroke-miterlimit="10" stroke-width="1"/>
        <g id="Grupo_984788" data-name="Grupo 984788" transform="translate(202.917 108.003)" style="mix-blend-mode: multiply;isolation: isolate">
          <g id="Grupo_984787" data-name="Grupo 984787">
            <g id="Grupo_984786" data-name="Grupo 984786" clip-path="url(#clip-path-3)">
              <path id="Trazado_729171" data-name="Trazado 729171" d="M340.453,130.561l-6.527-.027.179-12.941a281.809,281.809,0,0,0-40.509,3.384c-7.03,1.1-13.64,2.409-19.786,3.828q-2.3.533-4.521,1.085-1.108.276-2.194.555-2.171.559-4.251,1.131-4.728,1.3-8.963,2.63l-29.561-.122-3.381,51.5L342.73,205.758l1.965-63.833a4.191,4.191,0,0,0-.184-1.167l.184-5.956a4.241,4.241,0,0,0-4.241-4.24" transform="translate(-220.938 -117.594)" fill="#ffe2c5"/>
            </g>
          </g>
        </g>
        <g id="Grupo_984791" data-name="Grupo 984791" transform="translate(76.518 271.565)" style="mix-blend-mode: multiply;isolation: isolate">
          <g id="Grupo_984790" data-name="Grupo 984790">
            <g id="Grupo_984789" data-name="Grupo 984789" clip-path="url(#clip-path-4)">
              <path id="Trazado_729172" data-name="Trazado 729172" d="M167.925,300.239a5.56,5.56,0,0,0-6.473-4.465L83.314,310.126l.467,12.711a4.241,4.241,0,0,0,4.241,4.24h84.832Z" transform="translate(-83.314 -295.682)" fill="#e2e2e2"/>
            </g>
          </g>
        </g>
        <path id="Trazado_729173" data-name="Trazado 729173" d="M316.974,310.263H90.955a4.241,4.241,0,0,1-4.242-4.241L80.875,146.968a4.241,4.241,0,0,1,4.24-4.24l236.723.973a4.24,4.24,0,0,1,4.24,4.241l-4.865,158.079a4.24,4.24,0,0,1-4.24,4.241" transform="translate(-6.597 -11.641)" fill="#209fe5"/>
        <path id="Trazado_729174" data-name="Trazado 729174" d="M316.974,302.508H90.955a4.241,4.241,0,0,1-4.242-4.24L80.875,139.213a4.241,4.241,0,0,1,4.24-4.24l236.723.973a4.24,4.24,0,0,1,4.24,4.241l-4.865,158.08a4.24,4.24,0,0,1-4.24,4.24" transform="translate(-6.597 -11.009)" fill="#48c8ef"/>
        <path id="Trazado_729175" data-name="Trazado 729175" d="M214.325,300.227l-.223-19.953-.129-19.952-.107-39.906.1-39.905.129-19.953.225-19.952.225,19.952.129,19.953.1,39.905-.107,39.906-.129,19.952Z" transform="translate(-17.444 -11.468)" fill="#724c27"/>
        <path id="Trazado_729176" data-name="Trazado 729176" d="M98.364,262.812l-6.758-134.69s63.314-10.592,112.746,18.994c0,0,45.17-24.473,112.013-25.2l-1.946,140.994L204.352,286.649Z" transform="translate(-7.472 -9.944)" fill="#fff"/>
        <path id="Trazado_729177" data-name="Trazado 729177" d="M315.434,122.843l-1.923,139.319L204.357,285.708,99.247,262.069,92.566,128.905a192.878,192.878,0,0,1,26.508-1.708c22.9,0,56.212,3.593,84.807,20.708l.449.268.46-.249c.447-.242,45.3-24.144,110.644-25.081m.931-.93c-66.844.73-112.012,25.2-112.012,25.2-28.808-17.243-62.326-20.839-85.284-20.838a183.817,183.817,0,0,0-27.462,1.844l6.757,134.69,105.989,23.836L314.42,262.906Z" transform="translate(-7.472 -9.944)" fill="#e2e2e2"/>
        <path id="Trazado_729178" data-name="Trazado 729178" d="M124.418,164.508l-8.639.648.6,8.012,9.628-.723.182,2.407-12.5.939-1.67-22.223,12-.9.181,2.407-9.134.686.528,7.023,8.639-.649Z" transform="translate(-9.137 -12.452)" fill="#1c5d7a"/>
        <path id="Trazado_729179" data-name="Trazado 729179" d="M130.51,172.339a7.624,7.624,0,0,0,3.845,1.12c2.116-.02,3.1-1.087,3.085-2.41-.014-1.389-.848-2.141-3-2.914-2.886-1-4.256-2.57-4.274-4.487-.026-2.578,2.036-4.715,5.475-4.748a8,8,0,0,1,3.943.953l-.706,2.123a6.237,6.237,0,0,0-3.282-.895c-1.718.017-2.667,1.019-2.656,2.209.013,1.322.977,1.908,3.068,2.68,2.787,1.031,4.223,2.407,4.246,4.787.027,2.81-2.135,4.815-5.938,4.852a9.144,9.144,0,0,1-4.507-1.048Z" transform="translate(-10.587 -12.96)" fill="#1c5d7a"/>
        <path id="Trazado_729180" data-name="Trazado 729180" d="M149.268,154.565l-.209,4.592,4.162.189-.1,2.213-4.161-.19-.393,8.621c-.089,1.982.421,3.131,2.039,3.2a6.452,6.452,0,0,0,1.694-.121l.033,2.186a7.112,7.112,0,0,1-2.594.279,4.032,4.032,0,0,1-3.083-1.365c-.787-.9-1.019-2.331-.934-4.214l.4-8.72-2.478-.113.1-2.213,2.478.113.174-3.832Z" transform="translate(-11.716 -12.607)" fill="#1c5d7a"/>
        <path id="Trazado_729181" data-name="Trazado 729181" d="M170.283,173.17c-.195,1.642-.332,3.09-.381,4.349l-2.562-.3.143-2.612-.066-.007a6.018,6.018,0,0,1-5.6,2.334c-2.5-.3-5.32-2.028-4.66-7.608l1.1-9.292,2.888.341-1.04,8.8c-.357,3.021.321,5.164,2.947,5.475a4.207,4.207,0,0,0,4.119-2.175,4.257,4.257,0,0,0,.437-1.447l1.153-9.752,2.889.342Z" transform="translate(-12.81 -13.053)" fill="#1c5d7a"/>
        <path id="Trazado_729182" data-name="Trazado 729182" d="M194.125,158.088,189.9,176.961c-.31,1.388-.631,2.975-.772,4.06l-2.549-.568.477-2.74L187,177.7a5.917,5.917,0,0,1-6.008,1.875c-3.774-.844-5.964-4.688-4.9-9.43,1.13-5.2,5.07-7.673,8.877-6.822a5.349,5.349,0,0,1,4.176,3.441l.064.014,2.085-9.323ZM188.234,171.1a5.15,5.15,0,0,0,.138-1.222,4.278,4.278,0,0,0-3.361-4.206c-2.936-.657-5.255,1.535-6.027,4.987-.707,3.16.257,6.12,3.322,6.807a4.375,4.375,0,0,0,4.919-2.457,5.1,5.1,0,0,0,.4-1.2Z" transform="translate(-14.34 -12.842)" fill="#1c5d7a"/>
        <path id="Trazado_729183" data-name="Trazado 729183" d="M194.732,182.689l4.775-15.272,2.776.869-4.774,15.271Zm9.208-18.595a1.8,1.8,0,0,1-3.44-1.075,1.773,1.773,0,0,1,2.278-1.193,1.727,1.727,0,0,1,1.162,2.269" transform="translate(-15.883 -13.192)" fill="#1c5d7a"/>
        <path id="Trazado_729184" data-name="Trazado 729184" d="M218.877,183.72c-2.267,5.467-7.043,6.278-10.616,4.8-4-1.661-5.869-5.872-3.931-10.544,2.052-4.948,6.493-6.507,10.586-4.81,4.245,1.762,5.836,6.037,3.961,10.556m-11.791-4.711c-1.343,3.237-.493,6.452,2.134,7.541,2.565,1.064,5.49-.55,6.871-3.879,1.039-2.505,1.1-6.2-2.072-7.517s-5.767,1.043-6.932,3.855" transform="translate(-16.603 -14.07)" fill="#1c5d7a"/>
        <path id="Trazado_729185" data-name="Trazado 729185" d="M136.732,205.174a17.849,17.849,0,0,1-7.629,1.684c-8.043.15-13.378-5.207-13.529-13.36-.152-8.208,5.356-14.262,14.061-14.424a16.2,16.2,0,0,1,6.746,1.253l-1.031,3.766a11.253,11.253,0,0,0-5.643-1.163c-6.115.114-9.337,4.692-9.234,10.256.115,6.17,4.152,9.9,9.441,9.8a13.771,13.771,0,0,0,5.925-1.433Z" transform="translate(-9.426 -14.606)" fill="#1c5d7a"/>
        <path id="Trazado_729186" data-name="Trazado 729186" d="M158.29,207.874l-.068-3.384-.164-.016a9.936,9.936,0,0,1-8.494,3.183c-5.377-.508-7.762-4.554-7.4-8.394.606-6.42,6.645-9.392,16.9-8.368l.051-.548c.208-2.2-.023-6.2-5.455-6.715a13.276,13.276,0,0,0-7.1,1.322l-.8-3.286a16.551,16.551,0,0,1,8.946-1.535c8.12.767,9.572,6.5,9.069,11.818l-.939,9.93a37.585,37.585,0,0,0-.163,6.406Zm.568-13.62c-5.257-.608-11.325-.241-11.813,4.917a4.291,4.291,0,0,0,4.118,5.039,6.635,6.635,0,0,0,6.84-3.837,5.029,5.029,0,0,0,.419-1.51Z" transform="translate(-11.593 -14.686)" fill="#1c5d7a"/>
        <path id="Trazado_729187" data-name="Trazado 729187" d="M171.511,204.779a12.705,12.705,0,0,0,5.834,3.248c3.445.752,5.437-.618,5.907-2.772.494-2.261-.582-3.793-3.8-5.85-4.319-2.692-5.962-5.759-5.281-8.881.918-4.2,5.062-6.9,10.661-5.682a13.326,13.326,0,0,1,6.056,3.015l-1.938,3.187a10.385,10.385,0,0,0-5-2.672c-2.8-.612-4.713.663-5.137,2.6-.471,2.154.879,3.464,3.989,5.5,4.147,2.71,5.968,5.477,5.122,9.353-1,4.577-5.259,7.032-11.45,5.68a15.211,15.211,0,0,1-6.935-3.376Z" transform="translate(-13.828 -15.052)" fill="#1c5d7a"/>
        <path id="Trazado_729188" data-name="Trazado 729188" d="M220.512,211.018c-3.575,9.194-11.5,10.724-17.511,8.387-6.728-2.616-10-9.564-6.943-17.422,3.235-8.321,10.577-11.083,17.459-8.407,7.139,2.776,9.95,9.84,6.995,17.442m-19.824-7.412c-2.117,5.444-.581,10.772,3.836,12.489,4.314,1.678,9.127-1.122,11.3-6.72,1.638-4.212,1.608-10.372-3.733-12.448s-9.571,1.954-11.408,6.68" transform="translate(-15.897 -15.709)" fill="#1c5d7a"/>
        <path id="Trazado_729189" data-name="Trazado 729189" d="M102.8,300.249H310.271a38.131,38.131,0,0,1,4.748-24.838s-64.712-2.922-110.066,23.742c0,0-42.8-25.757-105.989-23.837,0,0,4.383,7.583,3.835,24.933" transform="translate(-8.072 -22.448)" fill="#e2e2e2"/>
        <path id="Trazado_729190" data-name="Trazado 729190" d="M214.457,153.332c.189,10.928.278,21.855.352,32.783l.107,32.783-.1,32.783-.129,16.391-.225,16.391-.225-16.391L214.1,251.68,214,218.9l.107-32.783c.074-10.928.163-21.855.352-32.783" transform="translate(-17.455 -12.506)" fill="#e8d4d1"/>
        <path id="Trazado_729191" data-name="Trazado 729191" d="M114.667,222.351S154.444,219,187.35,232.564" transform="translate(-9.353 -18.106)" fill="none" stroke="#564e4e" stroke-linecap="round" stroke-miterlimit="10" stroke-width="1"/>
        <path id="Trazado_729192" data-name="Trazado 729192" d="M114.667,230.66s39.777-3.352,72.683,10.213" transform="translate(-9.353 -18.784)" fill="none" stroke="#564e4e" stroke-linecap="round" stroke-miterlimit="10" stroke-width="1"/>
        <path id="Trazado_729193" data-name="Trazado 729193" d="M114.667,256.243s39.777-3.352,72.683,10.213" transform="translate(-9.353 -20.87)" fill="none" stroke="#564e4e" stroke-linecap="round" stroke-miterlimit="10" stroke-width="1"/>
        <path id="Trazado_729194" data-name="Trazado 729194" d="M178.057,242.771q1.594.428,3.185.9a116.039,116.039,0,0,1,11.277,3.958" transform="translate(-14.523 -19.801)" fill="none" stroke="#564e4e" stroke-linecap="round" stroke-miterlimit="10" stroke-width="1"/>
        <path id="Trazado_729195" data-name="Trazado 729195" d="M114.667,239.026a194.731,194.731,0,0,1,51.874,3.805" transform="translate(-9.353 -19.466)" fill="none" stroke="#564e4e" stroke-linecap="round" stroke-miterlimit="10" stroke-width="1"/>
        <path id="Trazado_729196" data-name="Trazado 729196" d="M114.667,247.392a177.874,177.874,0,0,1,20.826-.15" transform="translate(-9.353 -20.148)" fill="none" stroke="#564e4e" stroke-linecap="round" stroke-miterlimit="10" stroke-width="1"/>
        <path id="Trazado_729197" data-name="Trazado 729197" d="M229.405,162.911s33.331-18.443,85.472-16.072" transform="translate(-18.711 -11.96)" fill="none" stroke="#209fe5" stroke-linecap="round" stroke-miterlimit="10" stroke-width="4"/>
        <path id="Trazado_729198" data-name="Trazado 729198" d="M229.405,178.571s43.1-16.739,85.472-11.26" transform="translate(-18.711 -13.557)" fill="none" stroke="#564e4e" stroke-linecap="round" stroke-miterlimit="10" stroke-width="1"/>
        <path id="Trazado_729199" data-name="Trazado 729199" d="M229.405,187.622s43.1-16.739,85.472-11.26" transform="translate(-18.711 -14.295)" fill="none" stroke="#564e4e" stroke-linecap="round" stroke-miterlimit="10" stroke-width="1"/>
        <path id="Trazado_729200" data-name="Trazado 729200" d="M229.405,196.672s43.1-16.739,85.472-11.26" transform="translate(-18.711 -15.033)" fill="none" stroke="#564e4e" stroke-linecap="round" stroke-miterlimit="10" stroke-width="1"/>
        <path id="Trazado_729201" data-name="Trazado 729201" d="M229.405,205.953a209.7,209.7,0,0,1,37.752-9.776" transform="translate(-18.711 -16.001)" fill="none" stroke="#564e4e" stroke-linecap="round" stroke-miterlimit="10" stroke-width="1"/>
        <path id="Trazado_729202" data-name="Trazado 729202" d="M229.405,215a209.763,209.763,0,0,1,37.789-9.781" transform="translate(-18.711 -16.739)" fill="none" stroke="#564e4e" stroke-linecap="round" stroke-miterlimit="10" stroke-width="1"/>
        <path id="Trazado_729203" data-name="Trazado 729203" d="M229.405,224.051a209.859,209.859,0,0,1,37.983-9.813" transform="translate(-18.711 -17.474)" fill="none" stroke="#564e4e" stroke-linecap="round" stroke-miterlimit="10" stroke-width="1"/>
        <path id="Trazado_729204" data-name="Trazado 729204" d="M229.405,232.874s43.1-16.739,85.472-11.26" transform="translate(-18.711 -17.986)" fill="none" stroke="#564e4e" stroke-linecap="round" stroke-miterlimit="10" stroke-width="1"/>
        <path id="Trazado_729205" data-name="Trazado 729205" d="M229.405,241.925s43.1-16.739,85.472-11.26" transform="translate(-18.711 -18.724)" fill="none" stroke="#564e4e" stroke-linecap="round" stroke-miterlimit="10" stroke-width="1"/>
        <path id="Trazado_729206" data-name="Trazado 729206" d="M229.405,251.174s43.1-16.739,85.472-11.26" transform="translate(-18.711 -19.478)" fill="none" stroke="#564e4e" stroke-linecap="round" stroke-miterlimit="10" stroke-width="1"/>
        <path id="Trazado_729207" data-name="Trazado 729207" d="M229.405,260.424s43.1-16.739,85.472-11.26" transform="translate(-18.711 -20.233)" fill="none" stroke="#564e4e" stroke-linecap="round" stroke-miterlimit="10" stroke-width="1"/>
        <path id="Trazado_729208" data-name="Trazado 729208" d="M229.405,269.375s43.1-16.739,85.472-11.26" transform="translate(-18.711 -20.963)" fill="none" stroke="#564e4e" stroke-linecap="round" stroke-miterlimit="10" stroke-width="1"/>
        <path id="Trazado_729209" data-name="Trazado 729209" d="M282.5,192.335l1.088,20.135a142.123,142.123,0,0,1,33.338.636V192.335a117.058,117.058,0,0,0-34.427,0" transform="translate(-23.042 -15.583)" fill="#ffd252"/>
        <path id="Trazado_729210" data-name="Trazado 729210" d="M169.724,36.037A35.537,35.537,0,1,1,134.187.5,35.537,35.537,0,0,1,169.724,36.037Z" transform="translate(-8.046 -0.041)" fill="none" stroke="#1c5d7a" stroke-linecap="round" stroke-miterlimit="10" stroke-width="1"/>
        <path id="Trazado_729211" data-name="Trazado 729211" d="M165.041,66.2s21.749,14.959,23.054,49.41" transform="translate(-13.461 -5.399)" fill="none" stroke="#1c5d7a" stroke-linecap="round" stroke-miterlimit="10" stroke-width="1"/>
        <path id="Trazado_729212" data-name="Trazado 729212" d="M94.945,43.839s-.13,8.874,7.047,18.27" transform="translate(-7.744 -3.576)" fill="none" stroke="#1c5d7a" stroke-linecap="round" stroke-miterlimit="10" stroke-width="1"/>
        <path id="Trazado_729213" data-name="Trazado 729213" d="M120.379,41.01l13.572,8.613s8.612-12.4,14.485-21.271" transform="translate(-9.819 -2.313)" fill="none" stroke="#48c8ef" stroke-linecap="round" stroke-linejoin="round" stroke-width="3"/>
        <path id="Trazado_729214" data-name="Trazado 729214" d="M400.673,222.3l10.148,2.97,8.347,7.28,4.32,9.65L310.773,371.419l-22.815-19.9Z" transform="translate(-23.487 -18.132)" fill="#ffc943"/>
        <rect id="Rectángulo_345011" data-name="Rectángulo 345011" width="175.901" height="11.076" transform="translate(271.707 339.698) rotate(-48.903)" fill="#1c5d7a"/>
        <path id="Trazado_729215" data-name="Trazado 729215" d="M309.948,382.874s3-9.218-7.235-6.311c0,0,5.358-14.145-8.347-7.28,0,0,.642-7.994-7.234-6.31,0,0-.157,21.818-9.285,33.673l6.08,1.454s14.19-14.567,26.02-15.226" transform="translate(-22.662 -29.587)" fill="#ffdaa9"/>
        <path id="Trazado_729216" data-name="Trazado 729216" d="M283.825,386.223a39.09,39.09,0,0,1-5.977,12.338l6.081,1.454a75.324,75.324,0,0,1,5.637-5.075c-.433-2.454-1.75-6.506-5.741-8.717" transform="translate(-22.662 -31.502)" fill="#1c5d7a"/>
        <path id="Trazado_729217" data-name="Trazado 729217" d="M228.35,341.336c14.774-.077,31.434.5,38.541,3.13,14.093,5.219-61.855,26.883-63.682,37.844s49.636,12.267,74.406,17.747" transform="translate(-16.571 -27.84)" fill="none" stroke="#1c5d7a" stroke-linecap="round" stroke-miterlimit="10" stroke-width="1"/>
        <path id="Trazado_729218" data-name="Trazado 729218" d="M219.591,341.488c1.728-.04,3.537-.075,5.4-.1" transform="translate(-17.911 -27.845)" fill="none" stroke="#1c5d7a" stroke-linecap="round" stroke-miterlimit="10" stroke-width="1"/>
        <path id="Trazado_729219" data-name="Trazado 729219" d="M200.941,342.154s3.23-.179,8.293-.367" transform="translate(-16.39 -27.878)" fill="none" stroke="#1c5d7a" stroke-linecap="round" stroke-miterlimit="10" stroke-width="1"/>
        <g id="Grupo_984794" data-name="Grupo 984794" transform="translate(288.295 271.76)" style="mix-blend-mode: multiply;isolation: isolate">
          <g id="Grupo_984793" data-name="Grupo 984793">
            <g id="Grupo_984792" data-name="Grupo 984792" clip-path="url(#clip-path-5)">
              <path id="Trazado_729220" data-name="Trazado 729220" d="M320.4,322.756h-4.805l-1.7-7.122,26.8-19.739-.115,3.721Z" transform="translate(-313.898 -295.894)" fill="#d5e6ef"/>
            </g>
          </g>
        </g>
        <path id="Trazado_729221" data-name="Trazado 729221" d="M19.9,164.309A6.432,6.432,0,0,0,32.086,167.3Z" transform="translate(-1.623 -13.402)" fill="#1c5d7a"/>
        <path id="Trazado_729222" data-name="Trazado 729222" d="M78.4,87.585a35.315,35.315,0,1,0-67.276,4.2l-.008-.016.04.1q.26.672.547,1.334c2.1,5.2,9.048,23.326,7.47,31.422l12.985,3.189L45.14,131c2.352-7.906,16.9-20.747,21.175-24.387q.561-.453,1.1-.929l.081-.067-.015.01A35.149,35.149,0,0,0,78.4,87.585" transform="translate(-0.716 -3.576)" fill="#ffd252"/>
        <path id="Trazado_729223" data-name="Trazado 729223" d="M41.142,153.616l-24.614-6.045a2.189,2.189,0,0,1-.267-.095,3.471,3.471,0,0,0-.887,4.123,3.453,3.453,0,0,0-1.041,4.236,3.5,3.5,0,0,0,1.307,6.194l19.779,4.857A3.5,3.5,0,0,0,39.445,162a3.454,3.454,0,0,0,1.041-4.237A3.463,3.463,0,0,0,41.6,153.68a2.241,2.241,0,0,1-.456-.064" transform="translate(-1.057 -12.029)" fill="#e2e2e2"/>
        <path id="Trazado_729224" data-name="Trazado 729224" d="M30.892,130.153a.4.4,0,0,1-.076-.335c2.221-9.9,6.771-32.983,6.641-43.772-2.521-1.432-3.4-3.275-3.451-4.44a1.785,1.785,0,0,1,1.444-2.015,1.648,1.648,0,0,1,1.517.528c.78.845,1.165,2.772,1.248,5.416a18.217,18.217,0,0,0,7.01,1.732,16.515,16.515,0,0,0,4.1-.19c2.629-5.8,5.3-9.644,7.657-9.221a2.07,2.07,0,0,1,1.646,2.553c-.29,2.313-3.2,6.231-8.783,7.381-1.39,3.14-2.983,7.311-4.8,12.827-3.81,11.6-7.124,24.689-8.483,30.6a.4.4,0,1,1-.782-.18c.089-.388,6.431-27.758,13.152-43.086a17.451,17.451,0,0,1-3.767.118,19.513,19.513,0,0,1-6.935-1.618c.088,13.394-6.3,42.058-6.633,43.545a.4.4,0,0,1-.706.16m5.585-49.375c-.031-.039-.063-.075-.095-.11a.852.852,0,0,0-.807-.286c-.51.082-.8.526-.769,1.19.044,1.033.833,2.382,2.626,3.517-.088-2.073-.385-3.586-.955-4.311m21.1-1.719a1.155,1.155,0,0,0-.743-.412c-1.118-.2-3.229.926-6.586,8.236,4.817-1.191,7.324-4.551,7.577-6.571a1.711,1.711,0,0,0-.248-1.252" transform="translate(-2.513 -6.348)" fill="#fff"/>
        <path id="Trazado_729225" data-name="Trazado 729225" d="M42.128,152.5,15.643,146a2.749,2.749,0,0,1-2.014-3.325l2.206-8.982a2.748,2.748,0,0,1,3.325-2.013l26.485,6.5a2.749,2.749,0,0,1,2.014,3.325l-2.206,8.981a2.748,2.748,0,0,1-3.325,2.014" transform="translate(-1.105 -10.734)" fill="#1c5d7a"/>
        <g id="Grupo_984797" data-name="Grupo 984797" transform="translate(41.158 53.198)" style="mix-blend-mode: soft-light;isolation: isolate">
          <g id="Grupo_984796" data-name="Grupo 984796">
            <g id="Grupo_984795" data-name="Grupo 984795" clip-path="url(#clip-path-6)">
              <path id="Trazado_729226" data-name="Trazado 729226" d="M69.411,86.687c-5.031,3.958-13.861,1.129-19.722-6.32s-6.533-16.7-1.5-20.656,13.861-1.129,19.722,6.321,6.533,16.7,1.5,20.655" transform="translate(-44.813 -57.922)" fill="#fff"/>
            </g>
          </g>
        </g>
        <path id="Trazado_729227" data-name="Trazado 729227" d="M19.12,152.771c2.989.534,5.935,1.239,8.884,1.931,2.937.743,5.878,1.472,8.777,2.376-2.989-.533-5.935-1.239-8.885-1.931-2.937-.744-5.877-1.474-8.776-2.376" transform="translate(-1.56 -12.461)" fill="#bcbcbc"/>
        <path id="Trazado_729228" data-name="Trazado 729228" d="M18.93,156.939c2.864.592,5.68,1.357,8.5,2.106,2.806.8,5.615,1.588,8.377,2.549-2.864-.591-5.68-1.357-8.5-2.106-2.806-.8-5.615-1.59-8.378-2.549" transform="translate(-1.544 -12.801)" fill="#bcbcbc"/>
        <line id="Línea_1624" data-name="Línea 1624" x2="9.526" y2="15.529" transform="translate(14.124 23.43)" fill="none" stroke="#ffd252" stroke-linecap="round" stroke-linejoin="round" stroke-width="2"/>
        <line id="Línea_1625" data-name="Línea 1625" x2="1.839" y2="9.149" transform="translate(29.914 26.431)" fill="none" stroke="#ffd252" stroke-linecap="round" stroke-linejoin="round" stroke-width="2"/>
        <path id="Trazado_729229" data-name="Trazado 729229" d="M419.664,263.425c3.811,5.649,7.048,14.318.682,23.426-13.4,19.171-53.119,8.906-59.68-17.608-3.472-14.03,5.065-16.4,10.68-11.6" transform="translate(-29.352 -20.83)" fill="none" stroke="#1c5d7a" stroke-linecap="round" stroke-miterlimit="10" stroke-width="1"/>
        <path id="Trazado_729230" data-name="Trazado 729230" d="M393.635,388.628a14.2,14.2,0,0,0-1.605-.409c-6.09-1.148-11.75,1.749-12.639,6.47s3.327,9.479,9.418,10.627a14.4,14.4,0,0,0,1.643.2Z" transform="translate(-30.935 -31.644)" fill="#1c5d7a"/>
        <path id="Trazado_729231" data-name="Trazado 729231" d="M398.4,403.235l-9.293-.954,1.724-9.148,10.088,1.9" transform="translate(-31.737 -32.066)" fill="none" stroke="#1c5d7a" stroke-linecap="round" stroke-miterlimit="10" stroke-width="1"/>
        <g id="Grupo_984800" data-name="Grupo 984800" transform="translate(283.114 65.773)" style="mix-blend-mode: multiply;isolation: isolate">
          <g id="Grupo_984799" data-name="Grupo 984799">
            <g id="Grupo_984798" data-name="Grupo 984798" clip-path="url(#clip-path-7)">
              <path id="Trazado_729232" data-name="Trazado 729232" d="M308.257,71.614l19.351,4.1,79.4,16.8L385.191,172.8l1.457.41,22.281-82Z" transform="translate(-308.257 -71.614)" fill="#ffe2c5"/>
            </g>
          </g>
        </g>
        <path id="Trazado_729233" data-name="Trazado 729233" d="M15.946,221.275s3,14,17.095,15.7" transform="translate(-1.301 -18.048)" fill="none" stroke="#1c5d7a" stroke-linecap="round" stroke-miterlimit="10" stroke-width="1"/>
        <path id="Trazado_729234" data-name="Trazado 729234" d="M369.976,251.457s-5.525-3.48-10.114,1.218" transform="translate(-29.352 -20.409)" fill="none" stroke="#1c5d7a" stroke-linecap="round" stroke-miterlimit="10" stroke-width="1"/>
        <line id="Línea_1626" data-name="Línea 1626" x1="4.176" y2="15.853" transform="translate(346.104 41.011)" fill="none" stroke="#1c5d7a" stroke-linecap="round" stroke-miterlimit="10" stroke-width="2"/>
        <line id="Línea_1627" data-name="Línea 1627" x1="6.624" y2="7.308" transform="translate(357.066 54.322)" fill="none" stroke="#1c5d7a" stroke-linecap="round" stroke-miterlimit="10" stroke-width="2"/>
        <path id="Trazado_729235" data-name="Trazado 729235" d="M59.871,269.846a7.06,7.06,0,1,1-7.06-7.06,7.061,7.061,0,0,1,7.06,7.06" transform="translate(-3.732 -21.434)" fill="#e2e2e2"/>
        <path id="Trazado_729236" data-name="Trazado 729236" d="M67.9,247.847a2.423,2.423,0,1,1-2.423-2.423,2.423,2.423,0,0,1,2.423,2.423" transform="translate(-5.143 -20.018)" fill="#e2e2e2"/>
        <path id="Trazado_729237" data-name="Trazado 729237" d="M5.982,252.65a2.741,2.741,0,1,1-2.741-2.741A2.741,2.741,0,0,1,5.982,252.65Z" transform="translate(-0.041 -20.384)" fill="none" stroke="#e2e2e2" stroke-miterlimit="10" stroke-width="1"/>
        <path id="Trazado_729238" data-name="Trazado 729238" d="M260.046,378.722a2.776,2.776,0,1,1-2.775-2.775A2.776,2.776,0,0,1,260.046,378.722Z" transform="translate(-20.758 -30.664)" fill="none" stroke="#e2e2e2" stroke-miterlimit="10" stroke-width="1"/>
        <path id="Trazado_729239" data-name="Trazado 729239" d="M213.062,362.288a5.09,5.09,0,1,1-5.09-5.09,5.09,5.09,0,0,1,5.09,5.09" transform="translate(-16.548 -29.135)" fill="#e2e2e2"/>
        <path id="Trazado_729240" data-name="Trazado 729240" d="M283.946,338.306a1.588,1.588,0,1,1-1.588-1.588,1.588,1.588,0,0,1,1.588,1.588" transform="translate(-22.901 -27.464)" fill="#e2e2e2"/>
        <path id="Trazado_729241" data-name="Trazado 729241" d="M417.329,324.451a7.771,7.771,0,1,1-7.771-7.771,7.771,7.771,0,0,1,7.771,7.771" transform="translate(-32.771 -25.83)" fill="#e2e2e2"/>
        <path id="Trazado_729242" data-name="Trazado 729242" d="M397.457,344.884a2.1,2.1,0,1,1-2.1-2.1,2.1,2.1,0,0,1,2.1,2.1" transform="translate(-32.075 -27.959)" fill="#e2e2e2"/>
        <path id="Trazado_729243" data-name="Trazado 729243" d="M412.359,190.511a6.165,6.165,0,1,1-6.165-6.165,6.164,6.164,0,0,1,6.165,6.165" transform="translate(-32.628 -15.036)" fill="#e2e2e2"/>
        <path id="Trazado_729244" data-name="Trazado 729244" d="M422.538,210.374a1.943,1.943,0,1,1-1.943-1.942,1.943,1.943,0,0,1,1.943,1.942" transform="translate(-34.147 -17)" fill="#e2e2e2"/>
        <path id="Trazado_729245" data-name="Trazado 729245" d="M354.441,242.817a2.314,2.314,0,1,1-2.314-2.314,2.314,2.314,0,0,1,2.314,2.314" transform="translate(-28.532 -19.616)" fill="#e2e2e2"/>
        <path id="Trazado_729246" data-name="Trazado 729246" d="M215.874,58.571a6.477,6.477,0,1,1-6.477-6.477,6.476,6.476,0,0,1,6.477,6.477" transform="translate(-16.551 -4.249)" fill="#e2e2e2"/>
        <path id="Trazado_729247" data-name="Trazado 729247" d="M167.884,102.353a3.12,3.12,0,1,1-3.12-3.121,3.12,3.12,0,0,1,3.12,3.121" transform="translate(-13.184 -8.094)" fill="#e2e2e2"/>
        <path id="Trazado_729248" data-name="Trazado 729248" d="M113.389,92.432a7.5,7.5,0,1,1-7.5-7.5A7.5,7.5,0,0,1,113.389,92.432Z" transform="translate(-8.024 -6.927)" fill="none" stroke="#e2e2e2" stroke-miterlimit="10" stroke-width="1"/>
        <path id="Trazado_729249" data-name="Trazado 729249" d="M197.973,28.372A4.574,4.574,0,1,1,193.4,23.8,4.574,4.574,0,0,1,197.973,28.372Z" transform="translate(-15.401 -1.941)" fill="none" stroke="#e2e2e2" stroke-miterlimit="10" stroke-width="1"/>
        <circle id="Elipse_5896" data-name="Elipse 5896" cx="7.888" cy="7.888" r="7.888" transform="translate(303.088 35.995) rotate(-22.5)" fill="none" stroke="#e2e2e2" stroke-miterlimit="10" stroke-width="1"/>
        <path id="Trazado_729250" data-name="Trazado 729250" d="M25.56,406.592a5.483,5.483,0,1,1-5.483-5.483A5.483,5.483,0,0,1,25.56,406.592Z" transform="translate(-1.19 -32.716)" fill="none" stroke="#e2e2e2" stroke-miterlimit="10" stroke-width="1"/>
        <path id="Trazado_729251" data-name="Trazado 729251" d="M27.651,375.711a2.632,2.632,0,1,1-2.631-2.631,2.632,2.632,0,0,1,2.631,2.631" transform="translate(-1.826 -30.43)" fill="#e2e2e2"/>
        <path id="Trazado_729252" data-name="Trazado 729252" d="M366.982,11.979a4.012,4.012,0,1,1-4.012-4.012,4.012,4.012,0,0,1,4.012,4.012" transform="translate(-29.278 -0.65)" fill="#e2e2e2"/>
        <path id="Trazado_729253" data-name="Trazado 729253" d="M273.68,34.967a3.2,3.2,0,1,1-3.2-3.2,3.2,3.2,0,0,1,3.2,3.2" transform="translate(-21.8 -2.591)" fill="#e2e2e2"/>
        <path id="Trazado_729254" data-name="Trazado 729254" d="M434.616,153.205a1.943,1.943,0,1,1-1.943-1.943,1.944,1.944,0,0,1,1.943,1.943" transform="translate(-35.132 -12.338)" fill="#e2e2e2"/>
        <path id="Trazado_729255" data-name="Trazado 729255" d="M52.6,197.35a4.729,4.729,0,1,1-4.729-4.729A4.729,4.729,0,0,1,52.6,197.35" transform="translate(-3.519 -15.711)" fill="#e2e2e2"/>
      </g>
    </g>
  </g>
</svg>
