<svg xmlns="http://www.w3.org/2000/svg" xmlns:xlink="http://www.w3.org/1999/xlink" width="295" height="281.093" viewBox="0 0 295 281.093">
  <defs>
    <clipPath id="clip-path">
      <rect id="Rectángulo_338983" data-name="Rectángulo 338983" width="295" height="225" transform="translate(0 0)" fill="#0e494d" stroke="#707070" stroke-width="1"/>
    </clipPath>
    <clipPath id="clip-path-3">
      <rect id="Rectángulo_344698" data-name="Rectángulo 344698" width="171" height="177.487" rx="21" fill="#34bc85"/>
    </clipPath>
    <clipPath id="clip-path-4">
      <rect id="Rectángulo_345359" data-name="Rectángulo 345359" width="217.562" height="281.093" fill="none"/>
    </clipPath>
    <clipPath id="clip-path-6">
      <path id="Trazado_730126" data-name="Trazado 730126" d="M140.563,0a48.448,48.448,0,0,0-11.255,1.331A53.473,53.473,0,0,0,98.859,22.114,59.772,59.772,0,0,0,88.141,51.122H56.583A14.022,14.022,0,0,0,42.577,65.129V236.263a14.021,14.021,0,0,0,14.006,14.006H218.121a14.021,14.021,0,0,0,14.006-14.006V65.129a14.021,14.021,0,0,0-14.006-14.006H191.015a51.076,51.076,0,0,0-16.278-38.115A51.023,51.023,0,0,0,140.746,0Z" transform="translate(-42.577)" fill="none"/>
    </clipPath>
    <clipPath id="clip-path-7">
      <rect id="Rectángulo_345358" data-name="Rectángulo 345358" width="117.2" height="102.164" fill="none"/>
    </clipPath>
  </defs>
  <g id="Grupo_985790" data-name="Grupo 985790" transform="translate(-1020 -3723)">
    <rect id="Rectángulo_344922" data-name="Rectángulo 344922" width="295" height="267" rx="24" transform="translate(1020 3724)" fill="#f6f6f6"/>
    <g id="Grupo_984631" data-name="Grupo 984631" transform="translate(1020 3719)">
      <g id="Grupo_984218" data-name="Grupo 984218" transform="translate(0 4)">
        <g id="Grupo_984217" data-name="Grupo 984217">
          <g id="Grupo_983733" data-name="Grupo 983733">
            <path id="Trazado_731582" data-name="Trazado 731582" d="M0,0H168a21,21,0,0,1,21,21V260a21,21,0,0,1-21,21H21A21,21,0,0,1,0,260Z" fill="#badc61"/>
            <rect id="Rectángulo_338982" data-name="Rectángulo 338982" width="171" height="177.487" rx="21" transform="translate(124 103.607)" fill="#34bc85"/>
            <rect id="Rectángulo_345589" data-name="Rectángulo 345589" width="34" height="57" transform="translate(0 224)" fill="#badc61"/>
          </g>
          <g id="Grupo_985789" data-name="Grupo 985789">
            <path id="Trazado_731582-2" data-name="Trazado 731582" d="M0,0H168a21,21,0,0,1,21,21V260a21,21,0,0,1-21,21C9.4,281,0,271.6,0,0Z" fill="#badc61"/>
            <rect id="Rectángulo_338982-2" data-name="Rectángulo 338982" width="171" height="177.487" rx="21" transform="translate(124 103.607)" fill="#34bc85"/>
          </g>
        </g>
        <g id="Enmascarar_grupo_927296" data-name="Enmascarar grupo 927296" transform="translate(124 103.606)" clip-path="url(#clip-path-3)">
          <path id="Unión_143" data-name="Unión 143" d="M174,62a62.3,62.3,0,0,0,1.1,11.682,62.062,62.062,0,0,0-79.3,49.334,62,62,0,1,0,27.4,61.967A62.011,62.011,0,0,0,219,133a62.339,62.339,0,0,0-1.1-11.685A62.01,62.01,0,1,0,174,62Z" transform="translate(267 273.697) rotate(180)" fill="#0e494d"/>
        </g>
      </g>
      <g id="Grupo_985531" data-name="Grupo 985531" transform="translate(35.322 4)">
        <g id="Grupo_985538" data-name="Grupo 985538" clip-path="url(#clip-path-4)">
          <g id="Grupo_985532" data-name="Grupo 985532">
            <g id="Grupo_985531-2" data-name="Grupo 985531" clip-path="url(#clip-path-4)">
              <path id="Trazado_730046" data-name="Trazado 730046" d="M189.55,112.831H28.012A28.012,28.012,0,0,0,0,140.843V311.977a28.012,28.012,0,0,0,28.012,28.012H189.55a28.012,28.012,0,0,0,28.012-28.012V140.843a28.012,28.012,0,0,0-28.012-28.012m14.006,199.146a14.021,14.021,0,0,1-14.006,14.006H28.012a14.022,14.022,0,0,1-14.006-14.006V140.843a14.022,14.022,0,0,1,14.006-14.006H189.55a14.022,14.022,0,0,1,14.006,14.006Z" transform="translate(0 -75.714)" fill="#ecb73e"/>
              <path id="Trazado_730047" data-name="Trazado 730047" d="M618.791,430.437,632.8,416.431v-17.59l-14.006,14.006Z" transform="translate(-415.235 -267.639)" fill="#302e47"/>
              <path id="Trazado_730048" data-name="Trazado 730048" d="M618.791,311.439,632.8,297.433v-17.59l-14.006,14.006Z" transform="translate(-415.235 -187.786)" fill="#302e47"/>
              <path id="Trazado_730049" data-name="Trazado 730049" d="M615.626,663.607a13.9,13.9,0,0,1-1.551,6.377l15.557-15.557v-17.59l-14.006,14.006Z" transform="translate(-412.07 -427.344)" fill="#302e47"/>
              <path id="Trazado_730050" data-name="Trazado 730050" d="M618.791,196.419,632.8,182.413V177.04a27.926,27.926,0,0,0-1.95-10.267l-12.055,12.055Z" transform="translate(-415.235 -111.912)" fill="#302e47"/>
              <path id="Trazado_730051" data-name="Trazado 730051" d="M618.791,549.435,632.8,535.429v-17.59l-14.006,14.006Z" transform="translate(-415.235 -347.492)" fill="#302e47"/>
              <path id="Trazado_730052" data-name="Trazado 730052" d="M557.151,127.518a13.915,13.915,0,0,1,6.591,1.654l10.126-10.126a27.868,27.868,0,0,0-12.389-5.2l-13.672,13.672Z" transform="translate(-367.601 -76.395)" fill="#302e47"/>
              <path id="Trazado_730053" data-name="Trazado 730053" d="M51.575,757.708a13.905,13.905,0,0,1-6.3-1.512L35.114,766.361a27.853,27.853,0,0,0,12.519,5.071l13.724-13.724Z" transform="translate(-23.563 -507.439)" fill="#302e47"/>
              <path id="Trazado_730054" data-name="Trazado 730054" d="M14.006,660.636,0,674.642v4.934a27.921,27.921,0,0,0,2.074,10.582l11.932-11.932Z" transform="translate(0 -443.315)" fill="#302e47"/>
              <path id="Trazado_730055" data-name="Trazado 730055" d="M151.847,760.792,137.842,774.8h17.59l14.006-14.006Z" transform="translate(-92.498 -510.523)" fill="#302e47"/>
              <path id="Trazado_730056" data-name="Trazado 730056" d="M14.006,541.638,0,555.644v17.59l14.006-14.006Z" transform="translate(0 -363.462)" fill="#302e47"/>
              <path id="Trazado_730057" data-name="Trazado 730057" d="M521.606,757.627H508.842l-14.006,14.006h17.59l15.557-15.557a13.9,13.9,0,0,1-6.378,1.551" transform="translate(-332.056 -507.359)" fill="#302e47"/>
              <path id="Trazado_730058" data-name="Trazado 730058" d="M389.844,760.792,375.838,774.8h17.59l14.006-14.006Z" transform="translate(-252.203 -510.523)" fill="#302e47"/>
              <path id="Trazado_730059" data-name="Trazado 730059" d="M270.845,760.792,256.84,774.8h17.59l14.006-14.006Z" transform="translate(-172.35 -510.523)" fill="#302e47"/>
              <path id="Trazado_730060" data-name="Trazado 730060" d="M327.4,126.837l14.006-14.006h-17.59l-14.006,14.006Z" transform="translate(-207.895 -75.714)" fill="#302e47"/>
              <path id="Trazado_730061" data-name="Trazado 730061" d="M208.4,126.837l14.006-14.006h-17.59l-14.006,14.006Z" transform="translate(-128.042 -75.714)" fill="#302e47"/>
              <path id="Trazado_730062" data-name="Trazado 730062" d="M14.006,422.64,0,436.646v17.59L14.006,440.23Z" transform="translate(0 -283.609)" fill="#302e47"/>
              <path id="Trazado_730063" data-name="Trazado 730063" d="M446.4,126.837,460.4,112.831h-17.59l-14.006,14.006Z" transform="translate(-287.748 -75.714)" fill="#302e47"/>
              <path id="Trazado_730064" data-name="Trazado 730064" d="M14.006,303.642,0,317.648v17.59l14.006-14.006Z" transform="translate(0 -203.756)" fill="#302e47"/>
              <path id="Trazado_730065" data-name="Trazado 730065" d="M73.868,126.837h13.2l14.006-14.006H83.486l-15.15,15.15a13.918,13.918,0,0,1,5.532-1.144" transform="translate(-45.856 -75.714)" fill="#302e47"/>
              <path id="Trazado_730066" data-name="Trazado 730066" d="M14.006,186.7a13.918,13.918,0,0,1,1.144-5.532L0,196.317v17.59L14.006,199.9Z" transform="translate(0 -121.571)" fill="#302e47"/>
              <path id="Trazado_730067" data-name="Trazado 730067" d="M218.121,155.408H56.583a14.022,14.022,0,0,0-14.006,14.006V340.548a14.022,14.022,0,0,0,14.006,14.006H218.121a14.021,14.021,0,0,0,14.006-14.006V169.414a14.021,14.021,0,0,0-14.006-14.006" transform="translate(-28.571 -104.285)" fill="#535482"/>
            </g>
          </g>
          <g id="Grupo_985537" data-name="Grupo 985537" transform="translate(14.006)">
            <g id="Grupo_985536" data-name="Grupo 985536" clip-path="url(#clip-path-6)">
              <path id="Trazado_730068" data-name="Trazado 730068" d="M121.272,427.716l-5.824,2.694a32.94,32.94,0,0,0-17.06,18.459L81.367,494.847l39.905-12.012Z" transform="translate(-68.607 -287.015)" fill="#8b89be"/>
              <path id="Trazado_730069" data-name="Trazado 730069" d="M203.645,384.027l-30.373,14.052-8.809,74.071-5.605,64.062,109.305,2.259-.2-58.5-3.859-87.629-32.724-8.793Z" transform="translate(-120.606 -257.378)" fill="#8b89be"/>
              <path id="Trazado_730070" data-name="Trazado 730070" d="M257.785,525.909a705.339,705.339,0,0,0-4.769,103.3c-1.553-2.51-3.179-4.47-4.732-6.979-1.418-44.859,7.341-89.5,9.5-96.321" transform="translate(-180.512 -352.907)" fill="#7d7bae"/>
              <path id="Trazado_730071" data-name="Trazado 730071" d="M231.392,791.857h-.43v.078a2.2,2.2,0,0,0,0,3.86v.078h.43a2.066,2.066,0,0,0,0-4.015" transform="translate(-168.222 -531.369)" fill="#f0c343"/>
              <path id="Trazado_730072" data-name="Trazado 730072" d="M231.663,793.866a1.623,1.623,0,1,1-1.577-2.008,1.832,1.832,0,0,1,1.577,2.008" transform="translate(-167.344 -531.37)" fill="#f9eaa8"/>
              <path id="Trazado_730073" data-name="Trazado 730073" d="M232.973,724.375h-.43v.078a2.2,2.2,0,0,0,0,3.86v.078h.43a2.066,2.066,0,0,0,0-4.015" transform="translate(-169.282 -486.086)" fill="#f0c343"/>
              <path id="Trazado_730074" data-name="Trazado 730074" d="M233.243,726.383a1.624,1.624,0,1,1-1.577-2.008,1.832,1.832,0,0,1,1.577,2.008" transform="translate(-168.405 -486.086)" fill="#f9eaa8"/>
              <path id="Trazado_730075" data-name="Trazado 730075" d="M259.281,519.879l-.422-.084s-.006.032-.015.076a2.2,2.2,0,0,0-.754,3.786l-.015.076.422.084a2.066,2.066,0,0,0,.785-3.938" transform="translate(-186.66 -348.804)" fill="#f0c343"/>
              <path id="Trazado_730076" data-name="Trazado 730076" d="M259.152,522.023A1.624,1.624,0,1,1,258,519.746a1.832,1.832,0,0,1,1.155,2.277" transform="translate(-185.798 -348.755)" fill="#f9eaa8"/>
              <path id="Trazado_730077" data-name="Trazado 730077" d="M387.878,395.846s4.872,120.84,4.057,146.128l-48.63-1.005c.4-85.429,18.239-152.2,18.239-152.2s17.636,2.07,26.334,7.077" transform="translate(-244.378 -260.88)" fill="#dc8329"/>
              <path id="Trazado_730078" data-name="Trazado 730078" d="M156.109,546.973c.292-66.364,14.677-148.008,14.677-148.008-12.294.713-26.267,12.152-26.267,12.152-9.945,34.248-19.831,135.439-19.831,135.439Z" transform="translate(-97.677 -267.722)" fill="#dc8329"/>
              <path id="Trazado_730079" data-name="Trazado 730079" d="M403.056,392.494c-1.71,20.856-6.24,79.512-9.379,151.316l9.314.193c1.491-35.937,4.975-137.3,5.423-150.369-1.874-.447-3.7-.825-5.358-1.14" transform="translate(-278.18 -263.38)" fill="#ecb73e"/>
              <path id="Trazado_730080" data-name="Trazado 730080" d="M178.746,415.678c-4.012,37.4-10.715,119.809-12.344,140.031l6.832.09c3.46-55.9,9.2-120.059,11.359-143.466-2.147,1.091-4.131,2.255-5.847,3.344" transform="translate(-125.669 -276.693)" fill="#ecb73e"/>
              <path id="Trazado_730081" data-name="Trazado 730081" d="M281.507,384.027l-3.707,7.417a27.6,27.6,0,0,0-2.672,15.958l2.634,19.905,24.329-21.357a22.517,22.517,0,0,0,7.489-19.711l-.336-2.689Z" transform="translate(-198.468 -257.378)" fill="#fff"/>
              <path id="Trazado_730082" data-name="Trazado 730082" d="M295.007,332.6h0l2.642-18.366,25.826-7.32-.732,25.209-3.77,4.372a14.245,14.245,0,0,1-23.968-3.9" transform="translate(-211.968 -205.955)" fill="#ebae90"/>
              <path id="Trazado_730083" data-name="Trazado 730083" d="M326.74,307.011,301.023,314.3l-.989,6.874c11.21,12.158,24.368-5.7,26.706-14.163" transform="translate(-215.341 -206.017)" fill="#cd8174"/>
              <path id="Trazado_730084" data-name="Trazado 730084" d="M227.681,250.018c-.895-2.41-2.208-4.356-3.7-4.677s-3.135,1.319-3.618,4.159a13.71,13.71,0,0,0,.315,5.534,17.671,17.671,0,0,0,1.841,4.35c1.077,1.892,2.336,3.6,3.766,3.844,1.273.216,3.224-1.408,3.337-4.351.1-2.729-1.162-6.774-1.936-8.859" transform="translate(-161.773 -164.607)" fill="#ebae90"/>
              <path id="Trazado_730085" data-name="Trazado 730085" d="M225.872,257.512c.919-.828,2.067-.475,2.932.523a11.916,11.916,0,0,1,1.979,4.175,10.032,10.032,0,0,1,.535,3.048c-.013,1.078-.372,2.21-.954,2.472-.506.228-1.037-.245-1.411-.9a8.576,8.576,0,0,1-.251-6.732c-.552-1.523-1.82-2.588-2.831-2.588" transform="translate(-165.576 -172.492)" fill="#df917c"/>
              <path id="Trazado_730086" data-name="Trazado 730086" d="M233.265,79.555h0a69.912,69.912,0,0,0-4.3,29.851,63.347,63.347,0,0,0,4.7,19.663l1.7,4.084.006-33.508,5.143-14.627,37.183.529,1.762,17.27,6.881,7.4-5.824,15.547,3.048,9.588,12.572-9.126,5.455-15.2a48.307,48.307,0,0,0,1.767-26.438,14.169,14.169,0,0,0-13.854-11.2C283.37,60.471,249.889,56.662,251.454,58.3l-11.115,4.334s-12.777,10.767-7.074,16.917" transform="translate(-167.522 -38.883)" fill="#302e47"/>
              <path id="Trazado_730087" data-name="Trazado 730087" d="M245.3,135.424l-1.814,6.084a74.809,74.809,0,0,0-3.029,25l.324,6.654a40.62,40.62,0,0,0,8.914,23.476,20.578,20.578,0,0,0,30.521,1.727l11.131-11.025.168-4.721a25.8,25.8,0,0,1,1.283-7.162l4.488-13.6-4.3-4.474a16.642,16.642,0,0,1-4.643-11.2l-.22-10.764Z" transform="translate(-175.307 -90.875)" fill="#ebae90"/>
              <path id="Trazado_730088" data-name="Trazado 730088" d="M395.75,257.08c1.61-2.41,3.972-4.356,6.662-4.677a6.14,6.14,0,0,1,6.508,4.159,7.88,7.88,0,0,1-.567,5.534,15.313,15.313,0,0,1-3.31,4.35c-1.937,1.892-4.2,3.6-6.774,3.844-2.289.216-5.8-1.408-6-4.351-.188-2.729,2.091-6.774,3.483-8.859" transform="translate(-277.227 -169.346)" fill="#ebae90"/>
              <path id="Trazado_730089" data-name="Trazado 730089" d="M413.574,264.574a5.467,5.467,0,0,0-5.274.523,11.2,11.2,0,0,0-3.56,4.175,6.216,6.216,0,0,0-.962,3.048,2.556,2.556,0,0,0,1.716,2.472,2.827,2.827,0,0,0,2.538-.9,5.217,5.217,0,0,0,.45-6.732,6.606,6.606,0,0,1,5.092-2.588" transform="translate(-284.958 -177.231)" fill="#df917c"/>
              <path id="Trazado_730090" data-name="Trazado 730090" d="M293.057,259.313l-8.767.065a5.042,5.042,0,0,0,4.265,3.091c1.838.058,3.678-1.511,4.5-3.156" transform="translate(-204.777 -174.01)" fill="#df917c"/>
              <path id="Trazado_730091" data-name="Trazado 730091" d="M349.414,221.784a3.076,3.076,0,1,1-3.055-3.436,3.262,3.262,0,0,1,3.055,3.436" transform="translate(-244.378 -146.521)" fill="#302e47"/>
              <path id="Trazado_730092" data-name="Trazado 730092" d="M329.954,195.287a10.106,10.106,0,0,0-8.165,4.234h16.33a10.105,10.105,0,0,0-8.165-4.234" transform="translate(-229.94 -131.046)" fill="#302e47"/>
              <path id="Trazado_730093" data-name="Trazado 730093" d="M268.756,221.784c0,1.9-.881,3.436-1.967,3.436s-1.967-1.539-1.967-3.436.881-3.436,1.967-3.436,1.967,1.539,1.967,3.436" transform="translate(-191.712 -146.521)" fill="#302e47"/>
              <path id="Trazado_730094" data-name="Trazado 730094" d="M254.094,195.287c-2.148,0-4.051,1.665-5.259,4.234h10.517c-1.208-2.569-3.111-4.234-5.258-4.234" transform="translate(-180.985 -131.046)" fill="#302e47"/>
              <path id="Trazado_730095" data-name="Trazado 730095" d="M296.38,283.47l-24.141.383a10.907,10.907,0,0,0,2.8,7.094,12.352,12.352,0,0,0,12.829,2.515c4.316-1.608,7.017-5.637,8.517-9.991" transform="translate(-196.69 -190.22)" fill="#f5f5f3"/>
              <path id="Trazado_730096" data-name="Trazado 730096" d="M355.4,249.033a6.41,6.41,0,1,1-6.41-6.41,6.41,6.41,0,0,1,6.41,6.41" transform="translate(-243.89 -162.81)" fill="#df917c"/>
              <path id="Trazado_730097" data-name="Trazado 730097" d="M252.72,248.839c.271,3.53-.814,6.492-2.423,6.615s-3.134-2.637-3.405-6.167.814-6.491,2.423-6.615,3.134,2.638,3.405,6.167" transform="translate(-179.653 -162.84)" fill="#df917c"/>
              <path id="Trazado_730098" data-name="Trazado 730098" d="M244.821,416.651l-2.635-19.9a27.6,27.6,0,0,1,2.673-15.958l3.707-7.417.723-5.7-17.617,13.546L225.8,397.633l9.209-1.8Z" transform="translate(-165.527 -246.723)" fill="#ababe1"/>
              <path id="Trazado_730099" data-name="Trazado 730099" d="M265.387,379.847A44.78,44.78,0,0,0,254.9,402.056a15.649,15.649,0,0,1,1.985-12.026,52.382,52.382,0,0,1,8.5-10.183" transform="translate(-184.744 -254.893)" fill="#8b89be"/>
              <path id="Trazado_730100" data-name="Trazado 730100" d="M315.105,372.043l.336,2.69a22.517,22.517,0,0,1-7.489,19.711L283.623,415.8l34.63-19.619,12.012,7.207-1-20.62L315.151,366.4Z" transform="translate(-204.329 -245.872)" fill="#ababe1"/>
              <path id="Trazado_730101" data-name="Trazado 730101" d="M383.56,380.3a56.649,56.649,0,0,1,2.079,23.867A29.639,29.639,0,0,0,383.56,380.3" transform="translate(-271.391 -255.195)" fill="#8b89be"/>
              <g id="Grupo_985535" data-name="Grupo 985535" transform="translate(30.273 155.956)" opacity="0.3">
                <g id="Grupo_985534" data-name="Grupo 985534">
                  <g id="Grupo_985533" data-name="Grupo 985533" clip-path="url(#clip-path-7)">
                    <path id="Trazado_730102" data-name="Trazado 730102" d="M248.756,474.091a68.568,68.568,0,0,0-13.97,14.135c-8.728,11.786-14.53,24.578-18.737,38.628-22.349-4.472-56.021-4.317-77.781,2.439L134.6,566.55c8.287-5.572,27.073-15.911,34.244-22.861,12.733,10.36,26.888,20.322,41.99,26.757,12.856,5.478,27.672,7.7,40.967,3.946l-.113-33.663Z" transform="translate(-134.604 -474.091)" fill="#31314a"/>
                  </g>
                </g>
              </g>
              <path id="Trazado_730103" data-name="Trazado 730103" d="M207.225,586.937l-33.432-4.8-51.068,32.459-6.851-5.183a19.038,19.038,0,0,1-5.845-23.059l5.708-12.558,49.382-10.835a38.326,38.326,0,0,1,26.389,3.694l18.23,9.821Z" transform="translate(-86.694 -377.169)" fill="#ebae90"/>
              <path id="Trazado_730104" data-name="Trazado 730104" d="M88.1,593.265,82.4,605.823a19.037,19.037,0,0,0,5.844,23.06l6.851,5.183,5.011-3.185-.687,2.11a6.384,6.384,0,0,1-6.071,4.408h-3.7A22.5,22.5,0,0,1,67.929,609l.082-.3a22.5,22.5,0,0,1,7.761-11.758l4.147-3.279a11.941,11.941,0,0,1,9.852-2.322l3.641.762Z" transform="translate(-59.062 -396.644)" fill="#ababe1"/>
              <path id="Trazado_730105" data-name="Trazado 730105" d="M218.152,617.5a179.454,179.454,0,0,0-33.834-9.879,568.022,568.022,0,0,1-59.63,30.437,19.088,19.088,0,0,0,2.168,1.921l1.276.966,5.574,4.217L184.776,612.7Z" transform="translate(-97.677 -407.737)" fill="#df917c"/>
              <path id="Trazado_730106" data-name="Trazado 730106" d="M80.882,704.569c.2.265.4.528.615.785a22.505,22.505,0,0,0,17.37,8.2h3.7a6.385,6.385,0,0,0,6.071-4.408l.687-2.11-5.011,3.185L98.737,706a36.656,36.656,0,0,1-17.855-1.431" transform="translate(-68.281 -472.795)" fill="#8b89be"/>
              <path id="Trazado_730107" data-name="Trazado 730107" d="M177.549,550.944l-1.744-3.561a5.842,5.842,0,0,0-3.041-2.84l-9.741-3.973a7.429,7.429,0,0,0-8.046,1.613l-6.566,6.534a9.055,9.055,0,0,0-2.257,9.116Z" transform="translate(-111.805 -362.375)" fill="#df917c"/>
              <path id="Trazado_730108" data-name="Trazado 730108" d="M434.434,476.825a24.861,24.861,0,0,1,16.421,9.224l4.082,5.147,1.883-6.445a144.137,144.137,0,0,0,5.384-51.16A23.891,23.891,0,0,0,444.58,412.3l-7.508-2.017-7.351,17.992a166.561,166.561,0,0,0-7.774,24.127l-5.332,22.217Z" transform="translate(-293.572 -275.316)" fill="#8b89be"/>
              <path id="Trazado_730109" data-name="Trazado 730109" d="M320.757,652.893a82.513,82.513,0,0,0-28.165-25.022l-33.432-4.8-23.623,15.015,27.554,15.333a113.789,113.789,0,0,0,43.387,13.729,20.16,20.16,0,0,0,18.485-8.286Z" transform="translate(-172.061 -418.103)" fill="#ebae90"/>
              <path id="Trazado_730110" data-name="Trazado 730110" d="M445.926,622.434l-4.082-5.147a24.861,24.861,0,0,0-16.421-9.224L407.6,605.855a2.674,2.674,0,0,0-2.376,2.017l-2.041,8.176,1.906.274a82.514,82.514,0,0,1,28.165,25.022l4.206,5.965h0a9.7,9.7,0,0,0,6.37-5.907l3.575-9.534a9.7,9.7,0,0,0-1.483-9.434" transform="translate(-284.561 -406.554)" fill="#ababe1"/>
              <path id="Trazado_730111" data-name="Trazado 730111" d="M259.16,623.067l-23.623,15.015,9.009,4.8L261.7,627.8l28.99.063,1.906,0Z" transform="translate(-172.061 -418.104)" fill="#cd8174"/>
              <path id="Trazado_730112" data-name="Trazado 730112" d="M526.154,525.67a144.14,144.14,0,0,0,5.384-51.159,23.94,23.94,0,0,0-.473-3.25c-.073,1.1-.178,2.2-.292,3.292a264.351,264.351,0,0,1-10.836,52.115c.083.1.17.2.251.3l1.709,2.155,2.373,2.992Z" transform="translate(-362.906 -316.235)" fill="#7d7bae"/>
              <path id="Trazado_730113" data-name="Trazado 730113" d="M393.416,719.826a28.793,28.793,0,0,1-13.341,5.975,58.477,58.477,0,0,1-15.792.371,126.983,126.983,0,0,1-22.574-4.073,113.776,113.776,0,0,0,36.015,9.975,20.16,20.16,0,0,0,18.485-8.285Z" transform="translate(-243.307 -483.033)" fill="#df917c"/>
              <path id="Trazado_730114" data-name="Trazado 730114" d="M505.628,647.157a41.1,41.1,0,0,1-2.919,13.071c-1.475,3.651-3.778,7.3-7.017,9.341l1.053,1.493,2.793,3.962h0a9.7,9.7,0,0,0,6.37-5.907l3.575-9.534A9.7,9.7,0,0,0,508,650.149Z" transform="translate(-346.635 -434.27)" fill="#8b89be"/>
              <path id="Trazado_730115" data-name="Trazado 730115" d="M205.858,148.872a20.669,20.669,0,0,0,5.9,1.573c15.343,2.468,30.947,4.1,46.411,2.753q2.48-.216,4.947-.538c-2.238-.722-4.444-1.55-6.605-2.436-7.816-3.2-15.313-7.176-23.349-9.8a57.771,57.771,0,0,0-24.481-1.716,21.621,21.621,0,0,0-5.54,3.532,7.249,7.249,0,0,0-1.237,1.7,4.133,4.133,0,0,0,.083.555,6.934,6.934,0,0,0,3.876,4.38" transform="translate(-149.489 -92.669)" fill="#ecb73e"/>
              <path id="Trazado_730116" data-name="Trazado 730116" d="M256.812,165.111c-15.464,1.349-31.068-.285-46.411-2.753a20.67,20.67,0,0,1-5.9-1.573,6.933,6.933,0,0,1-3.876-4.38,4.08,4.08,0,0,1-.084-.555,5.087,5.087,0,0,0-.519,3.652c.78,2.929,4.243,4.239,7.259,5a142.83,142.83,0,0,0,61.238,1.859,61.522,61.522,0,0,1-6.766-1.788q-2.467.318-4.947.538" transform="translate(-148.136 -104.583)" fill="#e7972a"/>
              <path id="Trazado_730117" data-name="Trazado 730117" d="M246.981,63.709c8.036,2.628,15.534,6.6,23.349,9.8,2.161.886,4.367,1.715,6.605,2.437a120.5,120.5,0,0,0,24.707-5.886c2.429-10.61.709-22.809-5.908-31.868a35.675,35.675,0,0,0-19.5-12.9,49.189,49.189,0,0,0-23.733-.121c-7.3,1.675-15.637,5.051-20.577,10.773-5.765,6.678-8.491,17.58-9.428,26.045a57.776,57.776,0,0,1,24.481,1.716" transform="translate(-163.313 -15.959)" fill="#ecb73e"/>
              <path id="Trazado_730118" data-name="Trazado 730118" d="M387.978,170.357a61.526,61.526,0,0,0,6.766,1.788,128.951,128.951,0,0,0,17.071-4.484q.5-1.566.871-3.191a120.518,120.518,0,0,1-24.707,5.886" transform="translate(-274.356 -110.367)" fill="#e7972a"/>
              <path id="Trazado_730119" data-name="Trazado 730119" d="M231.627,127.867c-3.446.328-7.021,1.257-9.127,3.915a57.771,57.771,0,0,1,24.481,1.716c8.036,2.628,15.534,6.6,23.349,9.8,2.162.886,4.367,1.714,6.605,2.436-12.318-6.117-23.313-13.25-35.055-16.577a28.119,28.119,0,0,0-10.253-1.294" transform="translate(-163.313 -85.748)" fill="#e7972a"/>
              <path id="Trazado_730120" data-name="Trazado 730120" d="M232.465,143.374a48.131,48.131,0,0,0-20.224-.95,6.973,6.973,0,0,0-3.166,1.5c-.353.281-2.486,1.252-1.946,2.565a1.228,1.228,0,0,0,.376.488,3.009,3.009,0,0,0,1.769.508c3.931.231,7.833-.545,11.736-1.017,3.6-.436,7.423-.859,11.2-.97a1.076,1.076,0,0,0,.255-2.122" transform="translate(-152.939 -95.133)" fill="#f4d775"/>
              <path id="Trazado_730121" data-name="Trazado 730121" d="M307.373,18.475a23.2,23.2,0,0,0-7.6-4.227,31.245,31.245,0,0,0-27.813,4.014c-7.393,5.317-12.465,15.924-12.616,25.07a2.6,2.6,0,0,0,1.425,2.343A27.456,27.456,0,0,0,273.4,48.937a2.737,2.737,0,0,0,1.023-1.695c3.684-21.4,20.442-30.663,32.946-28.768" transform="translate(-188.033 -8.475)" fill="#ecb73e"/>
              <path id="Trazado_730122" data-name="Trazado 730122" d="M336.064,29.906c-12.5-1.9-29.262,7.369-32.946,28.768a2.737,2.737,0,0,1-1.023,1.695c.255,0,.509-.007.763-.018a2.578,2.578,0,0,0,2.457-2.1c3.536-20.411,20.324-28.729,32.086-26a3.7,3.7,0,0,0-1.337-2.353" transform="translate(-216.724 -19.906)" fill="#e7972a"/>
              <path id="Trazado_730123" data-name="Trazado 730123" d="M271.927,50.7a46.027,46.027,0,0,1-8.884-2.544,2.089,2.089,0,0,1-1.3-2.143A37.285,37.285,0,0,1,277.99,19.668a29.108,29.108,0,0,0-6.034,3.316c-7.393,5.316-12.465,15.924-12.616,25.07a2.6,2.6,0,0,0,1.425,2.343A27.455,27.455,0,0,0,273.4,53.66a2.739,2.739,0,0,0,1.023-1.694,39.051,39.051,0,0,1,6.558-16.26,38.8,38.8,0,0,0-6.863,13.67,1.913,1.913,0,0,1-2.2,1.327" transform="translate(-188.033 -13.198)" fill="#f4d775"/>
              <path id="Trazado_730124" data-name="Trazado 730124" d="M424.87,89.171a18.114,18.114,0,0,1,.123,8.565c-.41,1.784-1.071,3.739-.178,5.356a6.642,6.642,0,0,0,2.807,2.307c1.18.649,2.615,1.311,3.819.72,1.09-.535,1.456-1.851,1.638-3.025a30.109,30.109,0,0,0-.973-13.289c-.61-2.016-3.638-11.3-7.081-7.972-2.048,1.981-.749,5.042-.155,7.337" transform="translate(-298.47 -54.435)" fill="#f4d775"/>
              <path id="Trazado_730125" data-name="Trazado 730125" d="M409.427,59.644a5.611,5.611,0,0,0,2.242,1.584,2.121,2.121,0,0,0,2.452-.759,2.34,2.34,0,0,0,.028-1.845,5.921,5.921,0,0,0-3.575-3.634c-1.54-.543-2.926.19-2.794,1.9a4.756,4.756,0,0,0,1.647,2.756" transform="translate(-287.638 -36.782)" fill="#f4d775"/>
            </g>
          </g>
        </g>
      </g>
    </g>
  </g>
</svg>
