<svg xmlns="http://www.w3.org/2000/svg" xmlns:xlink="http://www.w3.org/1999/xlink" width="348" height="211.747" viewBox="0 0 348 211.747">
  <defs>
    <clipPath id="clip-path">
      <rect id="Rectángulo_338983" data-name="Rectángulo 338983" width="348" height="178" transform="translate(0 0)" fill="#0e494d" stroke="#707070" stroke-width="1"/>
    </clipPath>
    <clipPath id="clip-path-2">
      <rect id="Rectángulo_344713" data-name="Rectángulo 344713" width="201.976" height="211.747" fill="none"/>
    </clipPath>
  </defs>
  <g id="Grupo_985347" data-name="Grupo 985347" transform="translate(-285 -4309.254)">
    <g id="Grupo_984099" data-name="Grupo 984099" transform="translate(285 4319)">
      <path id="Rectángulo_338981" data-name="Rectángulo 338981" d="M21,0H189a0,0,0,0,1,0,0V180a21,21,0,0,1-21,21H21A21,21,0,0,1,0,180V21A21,21,0,0,1,21,0Z" transform="translate(159 0)" fill="#badc61"/>
      <rect id="Rectángulo_338982" data-name="Rectángulo 338982" width="171" height="167" rx="21" transform="translate(0 34)" fill="#34bc85"/>
      <g id="Enmascarar_grupo_559" data-name="Enmascarar grupo 559" transform="translate(0 23)" clip-path="url(#clip-path)">
        <ellipse id="Elipse_4897" data-name="Elipse 4897" cx="40.739" cy="40.739" rx="40.739" ry="40.739" transform="matrix(-0.809, -0.588, 0.588, -0.809, 37.108, 217.5)" fill="#0e494d"/>
        <ellipse id="Elipse_4898" data-name="Elipse 4898" cx="40.739" cy="40.739" rx="40.739" ry="40.739" transform="matrix(-0.809, -0.588, 0.588, -0.809, 1.327, 169.595)" fill="#0e494d"/>
        <ellipse id="Elipse_4899" data-name="Elipse 4899" cx="40.739" cy="40.739" rx="40.739" ry="40.739" transform="matrix(-0.809, -0.588, 0.588, -0.809, 94.013, 250.891)" fill="#0e494d"/>
      </g>
    </g>
    <g id="Grupo_984338" data-name="Grupo 984338" transform="translate(358 4309.254)">
      <g id="Grupo_984337" data-name="Grupo 984337" clip-path="url(#clip-path-2)">
        <path id="Trazado_728563" data-name="Trazado 728563" d="M129.9,134.9l-11.248-.25.068-3.091a5.625,5.625,0,1,1,11.248.25Z" transform="translate(3.874 4.116)" fill="#d5a78f"/>
        <path id="Trazado_728564" data-name="Trazado 728564" d="M135.7,149.12a3.148,3.148,0,0,1-1.727-2.892l.15-6.738c.4-.387-7.28-.221-8.423-.194-.1,0-.187,0-.283-.006-1.14-.077-8.81-.585-8.423-.181l-.15,6.739a3.147,3.147,0,0,1-1.853,2.813c-5.18,2.307-19.487,10.652-15.877,31.352,2.446,14.027,11.69,23.358,14.63,26.021a3.147,3.147,0,0,0,2.046.809l8.266.183,8.265.184a3.148,3.148,0,0,0,2.08-.717c3.056-2.531,12.7-11.443,15.769-25.346,4.525-20.52-9.4-29.492-14.47-32.026" transform="translate(3.217 4.537)" fill="#fefffd"/>
        <path id="Trazado_728565" data-name="Trazado 728565" d="M102.362,177.651c2.127,12.195,10.162,20.307,12.719,22.623a2.734,2.734,0,0,0,1.778.7l7.187.16,7.186.159a2.736,2.736,0,0,0,1.808-.623c2.656-2.2,11.044-9.949,13.709-22.037a29.921,29.921,0,0,0,.706-8.537,5.115,5.115,0,0,0-2.278-1.563c-2.791-.9-5.634.929-8.181,2.383-6.806,3.887-12.929,3.267-19.691,1.7-1.584-.368-3.2-.788-4.873-1.213-3.446-.879-7.288-1.3-10.558-.159a31.623,31.623,0,0,0,.485,6.407" transform="translate(3.326 5.495)" fill="#d3ede5"/>
        <path id="Trazado_728566" data-name="Trazado 728566" d="M113.406,198.493s8.212,3.7,20.663.541" transform="translate(3.703 6.481)" fill="none" stroke="#0d1732" stroke-linecap="round" stroke-miterlimit="10" stroke-width="1"/>
        <path id="Trazado_728567" data-name="Trazado 728567" d="M133.555,139.541l-17.769-.394a2.065,2.065,0,0,1-2.019-2.11l.015-.7a2.065,2.065,0,0,1,2.111-2.019l17.769.394a2.065,2.065,0,0,1,2.019,2.11l-.015.7a2.066,2.066,0,0,1-2.111,2.019" transform="translate(3.715 4.386)" fill="#0d1732"/>
        <path id="Rectángulo_344711" data-name="Rectángulo 344711" d="M2,0h.829a2,2,0,0,1,2,2V19.9a2,2,0,0,1-2,2H2a2,2,0,0,1-2-2V2A2,2,0,0,1,2,0Z" transform="translate(117.436 143.486) rotate(-88.728)" fill="none" stroke="#0d1732" stroke-miterlimit="10" stroke-width="1"/>
        <path id="Trazado_728568" data-name="Trazado 728568" d="M128.633,179.629Z" transform="translate(4.2 5.865)" fill="none" stroke="#fdfbf6" stroke-linecap="round" stroke-linejoin="round" stroke-width="2"/>
        <path id="Trazado_728569" data-name="Trazado 728569" d="M132.688,190.373Z" transform="translate(4.332 6.216)" fill="none" stroke="#fdfbf6" stroke-linecap="round" stroke-linejoin="round" stroke-width="2"/>
        <path id="Trazado_728570" data-name="Trazado 728570" d="M140.418,178.419a.53.53,0,1,1-.518-.541A.53.53,0,0,1,140.418,178.419Z" transform="translate(4.55 5.808)" fill="none" stroke="#fdfbf6" stroke-linecap="round" stroke-linejoin="round" stroke-width="2"/>
        <path id="Trazado_728571" data-name="Trazado 728571" d="M193.153,161.9h0a3,3,0,0,1-3-3v-8.386H171.667V158.9a3,3,0,0,1-3,3,3.428,3.428,0,0,0-3.427,3.428v38.074a3.428,3.428,0,0,0,3.427,3.428h24.485a3.429,3.429,0,0,0,3.428-3.428V165.331a3.429,3.429,0,0,0-3.428-3.428" transform="translate(5.395 4.915)" fill="#fefffd"/>
        <path id="Trazado_728572" data-name="Trazado 728572" d="M170.6,201.619H191.06a2.864,2.864,0,0,0,2.864-2.865V180.018a2.678,2.678,0,0,0-.634.027,6.884,6.884,0,0,0-2.54,1.336,14.137,14.137,0,0,1-13.455,1.107c-2.757-1.252-5.235-3.053-8.381-1.852a4.8,4.8,0,0,0-1.178.678v17.439a2.865,2.865,0,0,0,2.865,2.865" transform="translate(5.477 5.878)" fill="#faedc0"/>
        <path id="Trazado_728573" data-name="Trazado 728573" d="M185.942,150.3l-11.248-.25.068-3.091a5.625,5.625,0,0,1,11.248.25Z" transform="translate(5.704 4.619)" fill="#d5a78f"/>
        <path id="Trazado_728574" data-name="Trazado 728574" d="M189.592,154.938l-17.769-.394a2.065,2.065,0,0,1-2.019-2.11l.015-.7a2.064,2.064,0,0,1,2.111-2.018l17.769.394a2.065,2.065,0,0,1,2.019,2.11l-.017.7a2.065,2.065,0,0,1-2.11,2.019" transform="translate(5.544 4.888)" fill="#0d1732"/>
        <path id="Rectángulo_344712" data-name="Rectángulo 344712" d="M2,0h.83a2,2,0,0,1,2,2V19.9a2,2,0,0,1-2,2H2a2,2,0,0,1-2-2V2A2,2,0,0,1,2,0Z" transform="matrix(0.022, -1, 1, 0.022, 175.303, 159.387)" fill="none" stroke="#0d1732" stroke-miterlimit="10" stroke-width="1"/>
        <path id="Trazado_728575" data-name="Trazado 728575" d="M171.135,187.967Z" transform="translate(5.588 6.137)" fill="none" stroke="#fdfbf6" stroke-linecap="round" stroke-linejoin="round" stroke-width="2"/>
        <path id="Trazado_728576" data-name="Trazado 728576" d="M174.3,196.346Z" transform="translate(5.691 6.411)" fill="none" stroke="#fdfbf6" stroke-linecap="round" stroke-linejoin="round" stroke-width="2"/>
        <path id="Trazado_728577" data-name="Trazado 728577" d="M180.325,187.023a.413.413,0,1,1-.4-.422A.413.413,0,0,1,180.325,187.023Z" transform="translate(5.861 6.093)" fill="none" stroke="#fdfbf6" stroke-linecap="round" stroke-linejoin="round" stroke-width="2"/>
        <path id="Trazado_728578" data-name="Trazado 728578" d="M167.734,194.994v1.7a4.433,4.433,0,0,0,4.432,4.433h11.772" transform="translate(5.477 6.367)" fill="none" stroke="#0d1732" stroke-linecap="round" stroke-miterlimit="10" stroke-width="1"/>
        <path id="Trazado_728579" data-name="Trazado 728579" d="M61.9,209.039H18.653A18.649,18.649,0,0,1,.219,187.567L16.241,82.938h46.9L80.514,187.06A18.872,18.872,0,0,1,61.9,209.039" transform="translate(0 2.708)" fill="#fefffd"/>
        <line id="Línea_1625" data-name="Línea 1625" x2="22.315" transform="translate(16.24 85.646)" fill="none" stroke="#0d1732" stroke-linecap="round" stroke-linejoin="round" stroke-width="1"/>
        <path id="Trazado_728580" data-name="Trazado 728580" d="M73.757,179.229l-9.236-55.342c-.4,4.983-11.287,8.976-24.661,8.976-13.607,0-24.641-4.133-24.678-9.236-.058.26-.117.521-.158.79L6.566,179.654a15.606,15.606,0,0,0,15.427,17.967H58.181a15.792,15.792,0,0,0,15.577-18.392" transform="translate(0.208 4.037)" fill="#a7bce6"/>
        <path id="Trazado_728581" data-name="Trazado 728581" d="M6.566,177.894a15.606,15.606,0,0,0,15.426,17.968H58.18A15.793,15.793,0,0,0,73.757,177.47" transform="translate(0.208 5.795)" fill="none" stroke="#0d1732" stroke-linecap="round" stroke-miterlimit="10" stroke-width="1"/>
        <path id="Trazado_728582" data-name="Trazado 728582" d="M49.838,164.129Z" transform="translate(1.627 5.359)" fill="none" stroke="#fdfbf6" stroke-linecap="round" stroke-linejoin="round" stroke-width="2"/>
        <path id="Trazado_728583" data-name="Trazado 728583" d="M53.893,174.873Z" transform="translate(1.76 5.71)" fill="none" stroke="#fdfbf6" stroke-linecap="round" stroke-linejoin="round" stroke-width="2"/>
        <path id="Trazado_728584" data-name="Trazado 728584" d="M61.623,162.919a.53.53,0,1,1-.518-.541A.53.53,0,0,1,61.623,162.919Z" transform="translate(1.977 5.302)" fill="none" stroke="#fdfbf6" stroke-linecap="round" stroke-linejoin="round" stroke-width="2"/>
        <path id="Trazado_728585" data-name="Trazado 728585" d="M62.692,123.935c.007-.1.02-.19.02-.286a3.757,3.757,0,0,0-.339-1.524c.025.12.057.236.076.357Z" transform="translate(2.037 3.988)" fill="#f0c4c0"/>
        <path id="Trazado_728586" data-name="Trazado 728586" d="M14.9,123.674l0,.026a11.784,11.784,0,0,1,.78-2.346,4.067,4.067,0,0,0-.782,2.32" transform="translate(0.487 3.962)" fill="#f0c4c0"/>
        <path id="Trazado_728587" data-name="Trazado 728587" d="M39.582,133.157c13.374,0,24.257-3.993,24.661-8.976L64,122.728c-.021-.121-.052-.238-.076-.357-1.936-4.391-12.094-7.739-24.342-7.739-11.494,0-21.154,2.949-23.9,6.941a11.86,11.86,0,0,0-.78,2.347c.038,5.1,11.071,9.236,24.678,9.236" transform="translate(0.487 3.743)" fill="#d9e2f4"/>
        <path id="Trazado_728588" data-name="Trazado 728588" d="M64.861,83.484h-50a3.319,3.319,0,0,1-3.309-3.309V69.54a3.319,3.319,0,0,1,3.309-3.309h50a3.319,3.319,0,0,1,3.309,3.309V80.175a3.319,3.319,0,0,1-3.309,3.309" transform="translate(0.377 2.163)" fill="#fefffd"/>
        <path id="Trazado_728589" data-name="Trazado 728589" d="M39.921,73.446c9.476,0,17.576-2.92,20.928-7.057a8.505,8.505,0,0,0-1.548-.158H19.933a8.346,8.346,0,0,0-.982.1c3.324,4.167,11.451,7.115,20.97,7.115" transform="translate(0.619 2.163)" fill="#d5a78f"/>
        <line id="Línea_1626" data-name="Línea 1626" x2="37.976" y2="132.224" transform="translate(16.857 2.834)" fill="none" stroke="#0d1732" stroke-linecap="round" stroke-linejoin="round" stroke-width="1"/>
        <line id="Línea_1627" data-name="Línea 1627" x1="12.049" y2="135.608" transform="translate(33.501 0.516)" fill="none" stroke="#0d1732" stroke-linecap="round" stroke-linejoin="round" stroke-width="1"/>
        <line id="Línea_1628" data-name="Línea 1628" x1="42.664" y2="127.38" transform="translate(22.945 6.217)" fill="none" stroke="#0d1732" stroke-linecap="round" stroke-linejoin="round" stroke-width="1"/>
      </g>
    </g>
  </g>
</svg>
