<svg xmlns="http://www.w3.org/2000/svg" xmlns:xlink="http://www.w3.org/1999/xlink" width="295" height="222" viewBox="0 0 295 222">
  <defs>
    <clipPath id="clip-path">
      <rect id="Rect치ngulo_344987" data-name="Rect치ngulo 344987" width="150.263" height="171.999" fill="none"/>
    </clipPath>
  </defs>
  <g id="Grupo_985790" data-name="Grupo 985790" transform="translate(7175 1654)">
    <rect id="Rect치ngulo_345004" data-name="Rect치ngulo 345004" width="295" height="222" rx="13" transform="translate(-7175 -1654)" fill="#a7bce6"/>
    <g id="Grupo_984776" data-name="Grupo 984776" transform="translate(-7102.344 -1628)">
      <g id="Grupo_984736" data-name="Grupo 984736" transform="translate(0 0)" clip-path="url(#clip-path)">
        <path id="Trazado_729131" data-name="Trazado 729131" d="M112.741,137.314s-26.865,7.414-55.291,7.414-55.291-7.414-55.291-7.414L28.325,26.145a30,30,0,0,1,58.25,0Z" transform="translate(17.677 27.279)" fill="#fff"/>
        <path id="Trazado_729132" data-name="Trazado 729132" d="M54.06,4.26,0,58.246,24.347,68.673,44.486,43.362Z" transform="translate(-0.002 34.875)" fill="#fff"/>
        <path id="Trazado_729133" data-name="Trazado 729133" d="M10.471,4.26,64.54,58.246,40.2,68.673,20.063,43.362Z" transform="translate(85.73 34.875)" fill="#fff"/>
        <path id="Trazado_729134" data-name="Trazado 729134" d="M48.618,29.225A21.131,21.131,0,0,1,27.239,50.1,21.133,21.133,0,0,1,5.85,29.225C5.85,17.7,19.31,0,27.239,0c7.911,0,21.38,17.7,21.38,29.225" transform="translate(47.898 -0.002)" fill="#fff"/>
        <path id="Trazado_729135" data-name="Trazado 729135" d="M29.071,16.421A10.918,10.918,0,0,1,18.028,27.207,10.921,10.921,0,0,1,6.975,16.421c0-5.954,6.955-15.1,11.053-15.1s11.044,9.151,11.044,15.1" transform="translate(57.109 10.781)" fill="#1e4072"/>
        <path id="Trazado_729136" data-name="Trazado 729136" d="M8.889,119.273a.8.8,0,0,1-.8-.8V6.165a.8.8,0,0,1,1.608,0V118.473a.8.8,0,0,1-.809.8" transform="translate(66.238 43.932)" fill="#1e4072"/>
      </g>
    </g>
  </g>
</svg>
