<svg xmlns="http://www.w3.org/2000/svg" xmlns:xlink="http://www.w3.org/1999/xlink" width="295" height="222" viewBox="0 0 295 222">
  <defs>
    <clipPath id="clip-path">
      <rect id="Rect치ngulo_344986" data-name="Rect치ngulo 344986" width="181.949" height="156.525" fill="none"/>
    </clipPath>
  </defs>
  <g id="Grupo_985796" data-name="Grupo 985796" transform="translate(7175 2443)">
    <rect id="Rect치ngulo_345002" data-name="Rect치ngulo 345002" width="295" height="222" rx="13" transform="translate(-7175 -2443)" fill="#a7bce6"/>
    <g id="Grupo_984775" data-name="Grupo 984775" transform="translate(-7118 -2410)">
      <g id="Grupo_984734" data-name="Grupo 984734" transform="translate(0 0)" clip-path="url(#clip-path)">
        <path id="Trazado_729126" data-name="Trazado 729126" d="M113.344,23.039c-7.458-.738-15.314-.853-22.353,2.077A23.718,23.718,0,0,0,77.258,40.589c-4.864,16.429,5.144,31.17,7.892,46.856,1.442,8.242.015,15.833-7.784,20.031-7.267,3.913-16.437,5.064-24.553,5.5-5.908.314-19.946.918-18.887-8.5.406-3.609,2.293-6.928,2.8-10.545A14.108,14.108,0,0,0,34.032,83.2a14.263,14.263,0,0,0-10.8-5.643c-3.794-.216-9.216,1.946-12.692-.154-3.668-2.213.936-9.455,2.062-12.041q3.332-7.643,6.658-15.285c1.961-4.5-4.681-8.437-6.661-3.892Q9.533,53.233,6.458,60.289c-1.869,4.3-4.491,8.825-4.9,13.576C.779,82.983,9.263,86.43,17,85.674c3.792-.373,8.265-1.368,10.928,2.139,2.735,3.6.355,8.039-.748,11.789-2.447,8.334.751,16.069,9.016,19.383s18.653,1.915,27.214.542c8.144-1.306,16.957-3.46,23.216-9.175,14.653-13.381,2.129-35.126-1.656-50.36-1.879-7.555-2.437-17.144,2.931-23.478,6.09-7.188,16.977-6.6,25.448-5.764,4.936.488,4.9-7.226,0-7.712" transform="translate(2.373 35.493)" fill="#1e4072"/>
        <path id="Trazado_729127" data-name="Trazado 729127" d="M27.564,84.3,5.23,75.227a4.121,4.121,0,0,1-2.267-5.368L30.287,2.571A4.12,4.12,0,0,1,35.652.3l22.34,9.069a4.123,4.123,0,0,1,2.267,5.368L32.93,82.029A4.118,4.118,0,0,1,27.564,84.3" transform="translate(4.176 0)" fill="#1e4072"/>
        <path id="Trazado_729128" data-name="Trazado 729128" d="M23.175,71.474,4.239,63.785A6.8,6.8,0,0,1,.223,55.764L8.653,23.587a6.8,6.8,0,0,1,9.134-4.576L44.828,29.993a6.8,6.8,0,0,1,3.342,9.674L31.63,68.553a6.794,6.794,0,0,1-8.455,2.92" transform="translate(0 29.072)" fill="#fff"/>
        <path id="Trazado_729129" data-name="Trazado 729129" d="M44.835,41.367l2.483-17.535a4.12,4.12,0,0,1,4.656-3.5l56.073,7.941a4.116,4.116,0,0,1,3.5,4.656l-2.481,17.535a4.121,4.121,0,0,1-4.658,3.5L48.336,46.023a4.12,4.12,0,0,1-3.5-4.656" transform="translate(70.359 31.87)" fill="#1e4072"/>
        <path id="Trazado_729130" data-name="Trazado 729130" d="M39.231,40.223l2.3-16.231A5.452,5.452,0,0,1,46.99,19.3l26.684.3a5.45,5.45,0,0,1,5.337,6.216L75.728,49a5.449,5.449,0,0,1-6.877,4.483l-25.7-7.247a5.454,5.454,0,0,1-3.918-6.013" transform="translate(61.536 30.318)" fill="#fff"/>
      </g>
    </g>
  </g>
</svg>
