<svg xmlns="http://www.w3.org/2000/svg" xmlns:xlink="http://www.w3.org/1999/xlink" width="295" height="222" viewBox="0 0 295 222">
  <defs>
    <clipPath id="clip-path">
      <rect id="Rect치ngulo_344980" data-name="Rect치ngulo 344980" width="134.11" height="180.92" fill="none"/>
    </clipPath>
  </defs>
  <g id="Grupo_985792" data-name="Grupo 985792" transform="translate(7175 437)">
    <rect id="Rect치ngulo_344999" data-name="Rect치ngulo 344999" width="295" height="222" rx="13" transform="translate(-7175 -437)" fill="#a7bce6"/>
    <g id="Grupo_984772" data-name="Grupo 984772" transform="translate(-7095 -416)">
      <g id="Grupo_984727" data-name="Grupo 984727" transform="translate(0 0)" clip-path="url(#clip-path)">
        <path id="Trazado_729109" data-name="Trazado 729109" d="M79.583,2.1C79.2,6.877,78.6,11.732,77.9,16.851c-.535,3.937-1.141,8.015-1.757,12.336-.071.535-.151,1.06-.222,1.605-3.069,21.785-6.279,49.566-3.271,93.064L17.429,117.88l-7.753-.848L2.791,31.478,2.67,29.9.439,2.1Z" transform="translate(3.993 19.113)" fill="#fff"/>
        <path id="Trazado_729110" data-name="Trazado 729110" d="M87.936,19.884c0,.767-1.746,1.484-4.835,2.12-7.288,1.5-22.067,2.534-39.128,2.534S12.124,23.509,4.835,22C1.736,21.368,0,20.652,0,19.884A57.686,57.686,0,0,1,3.513.462h80.91c4.341,6.683,3.513,19.422,3.513,19.422" transform="translate(0 4.198)" fill="#fff"/>
        <path id="Trazado_729111" data-name="Trazado 729111" d="M81.258,4.664c0,2.574-18.11,4.664-40.46,4.664S.348,7.238.348,4.664,18.458,0,40.8,0s40.46,2.09,40.46,4.664" transform="translate(3.165 -0.004)" fill="#fff"/>
        <path id="Trazado_729112" data-name="Trazado 729112" d="M75.1,3.063a37.571,37.571,0,0,1-4.109.888c-1.645.273-3.725.555-6.36.828C57.261,5.536,47.761,5.95,37.879,5.95S18.507,5.536,11.137,4.779c-2.635-.273-4.714-.555-6.36-.828A38.129,38.129,0,0,1,.669,3.063,63.739,63.739,0,0,1,11.137,1.347C18.507.59,28,.176,37.879.176S57.261.59,64.63,1.347A63.522,63.522,0,0,1,75.1,3.063" transform="translate(6.084 1.597)" fill="#1e4072"/>
        <path id="Trazado_729113" data-name="Trazado 729113" d="M124.726,53.331a6.419,6.419,0,0,1-6.269,4.936H7.868a6.834,6.834,0,0,1-6.552-4.936,7.253,7.253,0,0,1-.3-2.11C1,34.575,3.5,24.056,4.446,13.487l7.763.848,55.209,5.976c13.86,5.027,24.2,5.391,37.624,8.995A27.191,27.191,0,0,1,124.8,50.777a6.024,6.024,0,0,1-.071,2.554" transform="translate(9.222 122.658)" fill="#fff"/>
      </g>
    </g>
  </g>
</svg>
