<svg xmlns="http://www.w3.org/2000/svg" xmlns:xlink="http://www.w3.org/1999/xlink" width="295" height="222" viewBox="0 0 295 222">
  <defs>
    <clipPath id="clip-path">
      <rect id="Rect치ngulo_344981" data-name="Rect치ngulo 344981" width="185.588" height="190.006" fill="none"/>
    </clipPath>
  </defs>
  <g id="Grupo_985794" data-name="Grupo 985794" transform="translate(7175 -386)">
    <rect id="Rect치ngulo_344993" data-name="Rect치ngulo 344993" width="295" height="222" rx="13" transform="translate(-7175 386)" fill="#a7bce6"/>
    <g id="Grupo_984773" data-name="Grupo 984773" transform="translate(-7120 402)">
      <g id="Grupo_984729" data-name="Grupo 984729" transform="translate(0 0)" clip-path="url(#clip-path)">
        <path id="Trazado_729114" data-name="Trazado 729114" d="M59.264,50.681S12.807,3.455,8.65,1.065C5.522-.723.273,4.443,1.812,7.425s45.1,53.8,45.1,53.8Z" transform="translate(14.422 6.549)" fill="#1e4072"/>
        <path id="Trazado_729115" data-name="Trazado 729115" d="M58.226,50.351S15.157,3.7,11.665,1.026C7.726-2,.8,2.138,3.985,7.2c5.1,8.086,39.9,50.043,39.9,50.043Z" transform="translate(29.803 -0.012)" fill="#1e4072"/>
        <path id="Trazado_729116" data-name="Trazado 729116" d="M55.425,47.683S13.333,5.373,8.459,2.826C3.606.28-1.643,5.238,1.662,10.788S46.2,61.412,46.2,61.412Z" transform="translate(5.894 20.097)" fill="#1e4072"/>
        <path id="Trazado_729117" data-name="Trazado 729117" d="M43.051,58.915S6.478,18.019.512,10.7C-2,7.625,5.376,1.483,8.8,4.788c14.093,13.656,43.3,40.668,43.3,40.668Z" transform="translate(-0.003 36.053)" fill="#1e4072"/>
        <path id="Trazado_729118" data-name="Trazado 729118" d="M51.42,87.105,88.388,50.418C85.8,36.875,49.113,4.844,49.113,4.844S34.105,7.027,26.269,14.79,4.142,49.472,4.142,49.472,28.16,75.694,51.42,87.105" transform="translate(38.906 45.496)" fill="#fff"/>
        <path id="Trazado_729119" data-name="Trazado 729119" d="M43.251,72.175a62.745,62.745,0,0,0-.2-36.4A239.549,239.549,0,0,1,35.976,6.231a4.542,4.542,0,0,0-7.545-2.546c-5.508,5.061-7.971,10.944-6.672,18.874l.915,20.173s-28.02,26.326-3.856,53.691Z" transform="translate(84.479 23.343)" fill="#fff"/>
        <path id="Trazado_729120" data-name="Trazado 729120" d="M18.186,7a38.445,38.445,0,0,0-6.839,11.017,32.9,32.9,0,0,0-2.463,12.9A30.354,30.354,0,0,0,12.023,43.7a35.023,35.023,0,0,0,3.471,5.55l1.029,1.278c.343.416.717.811,1.081,1.206.717.811,1.528,1.549,2.307,2.276-1.2-1.788-2.38-3.554-3.419-5.4a48.778,48.778,0,0,1-2.723-5.664,35.157,35.157,0,0,1-2.453-12.077A38.748,38.748,0,0,1,13.145,18.64,65.368,65.368,0,0,1,18.186,7" transform="translate(83.385 65.747)" fill="#1e4072"/>
        <path id="Trazado_729121" data-name="Trazado 729121" d="M63.016,103.11c4.854-2.962,15.527-9.8,22.511-16.722,5.041-5.009,10.341-12.222,14.124-17.772,1.538-2.266,2.837-4.24,3.752-5.685a3.388,3.388,0,0,0-.6-4.365C80.726,39,78.627,41.406,46.169,9.2,46.086,9.115,8.692,46.229,8.692,46.229c29.423,29.194,42.674,47.507,49.886,56.154a3.462,3.462,0,0,0,4.438.728" transform="translate(81.644 86.393)" fill="#fff"/>
        <path id="Trazado_729122" data-name="Trazado 729122" d="M37.988,5.687a63.548,63.548,0,0,0-5.675,3.357c-1.84,1.216-3.638,2.484-5.373,3.845a77.808,77.808,0,0,0-9.759,8.928,60.09,60.09,0,0,0-4.209,5.113c-.156.229-.333.447-.488.676l-.468.686c-.3.457-.634.9-.915,1.393l-.873,1.4-.8,1.455a37.279,37.279,0,0,0-2.6,6.08,29.512,29.512,0,0,0-1.258,6.464,39.176,39.176,0,0,1,1.923-6.215l.644-1.486c.229-.5.488-.967.717-1.455s.5-.967.769-1.434.5-.946.8-1.4a54.544,54.544,0,0,1,3.658-5.342c1.3-1.715,2.713-3.367,4.178-4.968.717-.811,1.476-1.58,2.224-2.37l1.164-1.143c.374-.385.779-.748,1.164-1.133,1.559-1.507,3.2-2.952,4.843-4.386,1.652-1.4,3.347-2.8,5.072-4.136S36.2,6.955,37.988,5.687" transform="translate(52.338 53.414)" fill="#1e4072"/>
      </g>
    </g>
  </g>
</svg>
