<svg xmlns="http://www.w3.org/2000/svg" width="115" height="154" viewBox="0 0 115 154">
  <g id="Grupo_985595" data-name="Grupo 985595" transform="translate(-194 -802)">
    <path id="Rectángulo_344901" data-name="Rectángulo 344901" d="M0,0H115a0,0,0,0,1,0,0V105a49,49,0,0,1-49,49H49A49,49,0,0,1,0,105V0A0,0,0,0,1,0,0Z" transform="translate(194 802)" fill="#fdb12e"/>
    <g id="_038---Improved-Sense-of-Smell" data-name="038---Improved-Sense-of-Smell" transform="translate(207.03 835.001)">
      <g id="Layer_3" transform="translate(2.503 1.465)">
        <ellipse id="Oval" cx="16" cy="16.5" rx="16" ry="16.5" transform="translate(52.497 -0.466)" fill="#60a917"/>
        <path id="Shape" d="M47.7,0a16.225,16.225,0,0,0-2.2.167,16.092,16.092,0,0,1,0,31.888A16.1,16.1,0,1,0,47.7,0Z" transform="translate(21.115 0)" fill="#549414"/>
        <path id="Shape-2" data-name="Shape" d="M7.706,27.13,6.93,29.825" transform="translate(3.195 12.605)" fill="#dfc49c"/>
        <path id="Shape-3" data-name="Shape" d="M35.316,29.825,34.54,27.13" transform="translate(16.023 12.605)" fill="#dfc49c"/>
        <path id="Shape-4" data-name="Shape" d="M61.506,52.726a13.182,13.182,0,0,1-17.3,12.522,20.453,20.453,0,0,1-26.92,0,13.182,13.182,0,1,1-6.371-25.514L19.94,8.158a11.239,11.239,0,0,1,21.618,0L50.58,39.735A13.182,13.182,0,0,1,61.506,52.726Z" transform="translate(-0.017 0)" fill="#ffe0b2"/>
        <path id="Shape-5" data-name="Shape" d="M41.528,39.735,32.506,8.158A11.231,11.231,0,0,0,21.7,0a11.089,11.089,0,0,0-2.2.24,11.213,11.213,0,0,1,8.612,7.918l9.022,31.577a13.182,13.182,0,0,1-.085,25.979,13.182,13.182,0,0,0,4.479-25.979Z" transform="translate(9.035 0)" fill="#dfc49c"/>
        <g id="Grupo_985594" data-name="Grupo 985594" transform="translate(5.833 51.262)">
          <path id="Shape-6" data-name="Shape" d="M9.99,41.488a3.623,3.623,0,0,1-2.329.835,3.662,3.662,0,1,1,0-7.323,3.445,3.445,0,0,1,.791.088Z" transform="translate(-4 -35)" fill="#91562d"/>
          <path id="Shape-7" data-name="Shape" d="M35.448,35.088A3.445,3.445,0,0,1,36.239,35a3.662,3.662,0,0,1,0,7.323,3.623,3.623,0,0,1-2.329-.835Z" transform="translate(9.897 -35)" fill="#91562d"/>
        </g>
      </g>
      <g id="Layer_2" transform="translate(0.971 -0.001)">
        <path id="Shape-8" data-name="Shape" d="M54.575,1A17.575,17.575,0,1,0,72.151,18.575,17.575,17.575,0,0,0,54.575,1Zm0,32.222A14.646,14.646,0,1,1,69.222,18.575,14.646,14.646,0,0,1,54.575,33.222Z" transform="translate(15.769 -0.998)"/>
        <path id="Shape-9" data-name="Shape" d="M56,8.586,48.23,18.952l-1.736-1.736a1.465,1.465,0,0,0-2.071,2.071c3.193,3.193,3.175,3.358,3.965,3.358a1.465,1.465,0,0,0,1.172-.586l8.788-11.717A1.465,1.465,0,1,0,56,8.586Z" transform="translate(19.027 2.254)"/>
        <path id="Shape-10" data-name="Shape" d="M54.242,40.96,45.455,10.22a12.714,12.714,0,0,0-24.45,0L12.217,40.96a14.637,14.637,0,1,0,7.2,28.371,21.881,21.881,0,0,0,27.605,0,14.637,14.637,0,1,0,7.2-28.371ZM49.648,66.816a22.012,22.012,0,0,0,3.142-4.595A5.116,5.116,0,1,0,55.2,52.335a1.465,1.465,0,0,0-2.929-.073,19.04,19.04,0,1,1-38.08,0,1.465,1.465,0,0,0-2.929.073,5.116,5.116,0,1,0,2.415,9.886,22.012,22.012,0,0,0,3.142,4.589,11.7,11.7,0,0,1-5.557-22.479,1.468,1.468,0,0,0,2.774.959c20.944-73.3.265-.929,9.789-34.265a9.784,9.784,0,0,1,18.814,0c9.589,33.56-11.193-39.171,9.789,34.272a1.465,1.465,0,0,0,2.818-.806l-.047-.161a11.7,11.7,0,0,1-5.558,22.485Zm5.328-11.56a2.2,2.2,0,0,1,1.693,2.132A2.163,2.163,0,0,1,53.955,59.5a21.752,21.752,0,0,0,1.021-4.242ZM12.515,59.5A2.165,2.165,0,0,1,9.8,57.388a2.2,2.2,0,0,1,1.693-2.132A21.752,21.752,0,0,0,12.515,59.5Z" transform="translate(-0.971 -0.999)"/>
        <path id="Shape-11" data-name="Shape" d="M18.146,50.43a1.465,1.465,0,0,0-1.6-.318c-.393.163-.11-.05-4.87,4.71a1.465,1.465,0,0,0,2.071,2.071L15.646,55v2.323a5.858,5.858,0,0,1-5.858,5.858H2.465a1.465,1.465,0,1,0,0,2.929H9.788a8.8,8.8,0,0,0,8.788-8.788V55l1.894,1.894a1.465,1.465,0,0,0,2.071-2.071Z" transform="translate(-0.957 21.768)"/>
        <path id="Shape-12" data-name="Shape" d="M50.5,63.182H43.176a5.858,5.858,0,0,1-5.858-5.858V55l1.894,1.894a1.465,1.465,0,0,0,2.071-2.071l-4.394-4.394a1.465,1.465,0,0,0-1.6-.318c-.393.163-.11-.05-4.87,4.71a1.465,1.465,0,0,0,2.071,2.071L34.389,55v2.323a8.8,8.8,0,0,0,8.788,8.788H50.5a1.465,1.465,0,0,0,0-2.929Z" transform="translate(12.522 21.768)"/>
        <path id="Shape-13" data-name="Shape" d="M25.889,53.43a1.465,1.465,0,0,0-1.6-.318c-.393.163-.11-.05-4.87,4.71a1.465,1.465,0,0,0,2.071,2.071L23.389,58v5.252a1.465,1.465,0,1,0,2.929,0V58l1.894,1.894a1.465,1.465,0,1,0,2.071-2.071Z" transform="translate(7.411 23.162)"/>
      </g>
    </g>
  </g>
</svg>
