<svg xmlns="http://www.w3.org/2000/svg" width="115" height="176" viewBox="0 0 115 176">
  <g id="Grupo_985530" data-name="Grupo 985530" transform="translate(-198 -3234)">
    <path id="Rectángulo_344901" data-name="Rectángulo 344901" d="M49,0H66a49,49,0,0,1,49,49V176a0,0,0,0,1,0,0H0a0,0,0,0,1,0,0V49A49,49,0,0,1,49,0Z" transform="translate(198 3234)" fill="#fdb12e"/>
    <g id="Grupo_985529" data-name="Grupo 985529" transform="translate(0.004 -18)">
      <g id="craneo" transform="translate(213.996 3298.979)">
        <g id="Grupo_985527" data-name="Grupo 985527" transform="translate(1.238 1.255)">
          <path id="Trazado_730031" data-name="Trazado 730031" d="M86.622,21.635a5.143,5.143,0,0,1-7.27,0c-.064-.066-.129-.132-.19-.2L31.532,69.066l-10.1,10.1c.068.061.135.124.2.19a5.141,5.141,0,1,1-8.773,3.552,5.14,5.14,0,1,1,3.552-8.775c.064.066.127.132.188.2L74.329,16.6c-.068-.061-.134-.124-.2-.19A5.141,5.141,0,1,1,82.9,12.861a5.14,5.14,0,0,1,3.718,8.775Z" transform="translate(-7.637 -7.638)" fill="#dbdbdb"/>
          <path id="Trazado_730032" data-name="Trazado 730032" d="M86.622,81.4a5.125,5.125,0,0,1-3.717,1.5,5.14,5.14,0,1,1-8.773-3.552c.064-.066.13-.129.2-.19l-10.1-10.1L62.9,67.736,47.882,52.717l-4.833-4.833L23.206,28.042l-6.6-6.6c-.061.068-.124.134-.188.2a5.141,5.141,0,1,1-3.552-8.775,5.14,5.14,0,1,1,8.773,3.552c-.064.066-.132.129-.2.19l5.282,5.282L47.882,43.052l4.833,4.833L68.147,63.317l1.541,1.541,9.474,9.474c.061-.068.125-.134.19-.2a5.141,5.141,0,1,1,7.27,7.27Z" transform="translate(-7.637 -7.639)" fill="#dbdbdb"/>
        </g>
        <path id="Trazado_730033" data-name="Trazado 730033" d="M142.138,130.9l1.541,1.541h-.31a5.251,5.251,0,0,0-5.146,4.209l-1.332-1.331L121.873,120.3l-16.35,16.35a5.258,5.258,0,0,0-5.145-4.209h-.312l16.974-16.974L97.2,95.627l-1.261-1.261a28.3,28.3,0,0,1,3.594-6.072l1.176,1.176,21.166,21.166,22.342-22.343a28.16,28.16,0,0,1,3.594,6.072l-21.1,21.1Z" transform="translate(-80.391 -73.969)" fill="#c1c0bf"/>
        <path id="Trazado_730034" data-name="Trazado 730034" d="M158.807,74.377v21.93H157a10.2,10.2,0,0,0-10.2,10.2v5.831a5.152,5.152,0,0,1-5.153,5.153H129.361a5.152,5.152,0,0,1-5.151-5.153v-5.831a10.2,10.2,0,0,0-10.2-10.2h-1.805V74.377a23.3,23.3,0,0,1,46.6,0Z" transform="translate(-94.024 -42.783)" fill="#dbdbdb"/>
        <path id="Trazado_730035" data-name="Trazado 730035" d="M119.844,90.925a8.056,8.056,0,0,0,3.286,5.847c2.715,1.983,6.393,6.438,6.393,16.015a10.387,10.387,0,0,0,.959,4.7h-1.12a5.152,5.152,0,0,1-5.151-5.153v-5.831a10.2,10.2,0,0,0-10.2-10.2h-1.805V74.377a23.3,23.3,0,0,1,23.3-23.3C129.782,51.077,117.3,59.687,119.844,90.925Z" transform="translate(-94.024 -42.783)" fill="#c1c0bf"/>
        <g id="Grupo_985528" data-name="Grupo 985528" transform="translate(22.978 32.616)">
          <path id="Trazado_730036" data-name="Trazado 730036" d="M234.169,283.7h-.157a4.158,4.158,0,0,0-4.158,4.158v2.511a2.118,2.118,0,0,0,4.236,0,2.118,2.118,0,0,0,4.236,0V287.86A4.158,4.158,0,0,0,234.169,283.7Z" transform="translate(-215.586 -270.329)" fill="#423d3d"/>
          <circle id="Elipse_5919" data-name="Elipse 5919" cx="6.904" cy="6.904" r="6.904" transform="translate(23.204)" fill="#423d3d"/>
          <circle id="Elipse_5920" data-name="Elipse 5920" cx="6.904" cy="6.904" r="6.904" fill="#423d3d"/>
        </g>
        <path id="Trazado_730037" data-name="Trazado 730037" d="M10.156,16.758l5.776,5.776a1.237,1.237,0,0,0,1.75-1.75l-6.6-6.6a1.237,1.237,0,0,0-1.794.046c-.048.054-.1.106-.15.159A3.9,3.9,0,0,1,3.619,8.859,3.868,3.868,0,0,1,6.441,7.717,1.238,1.238,0,0,0,7.7,6.459,3.871,3.871,0,0,1,8.839,3.637a3.9,3.9,0,1,1,5.52,5.519l-.012.012c-.046.047-.094.091-.142.134a1.237,1.237,0,0,0-.046,1.794l5.282,5.282a1.237,1.237,0,0,0,1.75-1.75l-4.452-4.452A6.379,6.379,0,1,0,5.31,5.329a6.379,6.379,0,0,0-3.442,10.8A6.389,6.389,0,0,0,10.156,16.758Z" transform="translate(0 -0.002)"/>
        <path id="Trazado_730038" data-name="Trazado 730038" d="M358.587,377l-3.988-3.988a1.237,1.237,0,0,0-1.75,1.75l4.816,4.816a1.237,1.237,0,0,0,1.793-.046c.048-.053.1-.105.151-.159a3.9,3.9,0,1,1,2.692,6.667,1.238,1.238,0,0,0-1.257,1.257,3.9,3.9,0,1,1-6.661-2.7l.012-.012c.046-.047.093-.091.141-.135a1.237,1.237,0,0,0,.046-1.794l-11.43-11.43a1.237,1.237,0,0,0-1.75,1.75l10.6,10.6a6.379,6.379,0,1,0,11.429,4.846,6.379,6.379,0,0,0,3.442-10.8A6.392,6.392,0,0,0,358.587,377Z" transform="translate(-285.778 -310.755)"/>
        <path id="Trazado_730039" data-name="Trazado 730039" d="M375.532,343.961a1.237,1.237,0,1,0-1.75,1.75l3.436,3.436a1.237,1.237,0,0,0,1.75-1.75Z" transform="translate(-312.909 -287.904)"/>
        <path id="Trazado_730040" data-name="Trazado 730040" d="M381.1,16.374l5.28-5.28a1.237,1.237,0,0,0-.046-1.794c-.048-.043-.095-.088-.141-.134l-.012-.012a3.9,3.9,0,1,1,6.661-2.7A1.238,1.238,0,0,0,394.1,7.715a3.9,3.9,0,0,1,2.823,6.662,3.908,3.908,0,0,1-5.513.007c-.052-.053-.1-.106-.153-.161a1.237,1.237,0,0,0-1.793-.046l-6.6,6.6a1.237,1.237,0,1,0,1.75,1.75l5.776-5.776a6.378,6.378,0,0,0,8.288-9.649,6.321,6.321,0,0,0-3.442-1.78,6.318,6.318,0,0,0-1.779-3.443,6.379,6.379,0,0,0-9.65,8.289l-4.452,4.451a1.237,1.237,0,1,0,1.75,1.75Z" transform="translate(-317.574 0)"/>
        <path id="Trazado_730041" data-name="Trazado 730041" d="M25.59,348.38,14.159,359.811a1.237,1.237,0,0,0,.046,1.794c.048.043.1.088.142.135l.012.012a3.9,3.9,0,1,1-6.661,2.7,1.238,1.238,0,0,0-1.257-1.257,3.9,3.9,0,1,1,2.692-6.668c.051.052.1.105.15.159a1.237,1.237,0,0,0,1.794.046l11.015-11.015a1.237,1.237,0,0,0-1.75-1.75L10.156,354.149a6.378,6.378,0,0,0-8.287,9.65,6.319,6.319,0,0,0,3.442,1.78,6.379,6.379,0,1,0,11.429-4.847l10.6-10.6a1.238,1.238,0,0,0-1.75-1.75Z" transform="translate(0 -287.905)"/>
        <path id="Trazado_730042" data-name="Trazado 730042" d="M227.614,276.065a5.4,5.4,0,0,0-5.4,5.4v2.511a3.354,3.354,0,0,0,5.474,2.6,3.354,3.354,0,0,0,5.474-2.6v-2.511a5.4,5.4,0,0,0-5.4-5.4Zm3.077,5.4v2.511a.881.881,0,0,1-1.761,0,1.238,1.238,0,1,0-2.475,0,.881.881,0,1,1-1.761,0V281.46a2.924,2.924,0,0,1,2.921-2.921h.157A2.924,2.924,0,0,1,230.691,281.46Z" transform="translate(-186.209 -231.314)"/>
        <path id="Trazado_730043" data-name="Trazado 730043" d="M285.5,209.814a8.141,8.141,0,1,0-8.141-8.141A8.15,8.15,0,0,0,285.5,209.814Zm0-13.807a5.666,5.666,0,1,1-5.666,5.666A5.673,5.673,0,0,1,285.5,196.007Z" transform="translate(-232.412 -162.154)"/>
        <path id="Trazado_730044" data-name="Trazado 730044" d="M142.3,193.533a8.141,8.141,0,1,0,8.141,8.141A8.15,8.15,0,0,0,142.3,193.533Zm0,13.807a5.666,5.666,0,1,1,5.666-5.666A5.673,5.673,0,0,1,142.3,207.34Z" transform="translate(-112.419 -162.155)"/>
        <path id="Trazado_730045" data-name="Trazado 730045" d="M150.6,91.144h1.8a1.237,1.237,0,0,0,1.238-1.238V67.977a24.538,24.538,0,1,0-49.075,0v9.7a1.238,1.238,0,1,0,2.475,0v-9.7a22.063,22.063,0,1,1,44.125,0V88.669H150.6a11.452,11.452,0,0,0-11.368,10.2h-3.085V95.4a1.238,1.238,0,1,0-2.475,0v3.47h-3.33V95.4a1.238,1.238,0,0,0-2.475,0v3.47h-3.33V95.4a1.238,1.238,0,0,0-2.475,0v3.47h-3.085a11.452,11.452,0,0,0-11.368-10.2h-.567V81.8a1.238,1.238,0,1,0-2.475,0v8.1a1.237,1.237,0,0,0,1.238,1.238h1.8a8.972,8.972,0,0,1,8.961,8.961v5.831a6.4,6.4,0,0,0,6.39,6.39h12.289a6.4,6.4,0,0,0,6.39-6.39v-5.831A8.971,8.971,0,0,1,150.6,91.144Zm-11.436,14.792q0,.1-.005.2a3.916,3.916,0,0,1-3.91,3.714H122.964a3.916,3.916,0,0,1-3.91-3.714q-.005-.1-.005-.2v-4.593h3.017v3a1.238,1.238,0,0,0,2.475,0v-3h3.33v3a1.238,1.238,0,0,0,2.475,0v-3h3.33v3a1.238,1.238,0,0,0,2.475,0v-3h3.017v4.593Z" transform="translate(-87.626 -36.383)"/>
      </g>
    </g>
  </g>
</svg>
